<?xml version="1.0" standalone="no"?>
<!DOCTYPE svg PUBLIC "-//W3C//DTD SVG 1.1//EN" "http://www.w3.org/Graphics/SVG/1.1/DTD/svg11.dtd">
<svg xmlns="http://www.w3.org/2000/svg">
<defs >
<font id="NotoSans" horiz-adv-x="533" ><font-face
    font-family="Noto Sans ExtraLight"
    units-per-em="1000"
    panose-1="2 11 3 2 4 5 4 2 2 4"
    ascent="1069"
    descent="-293"
    alphabetic="0" />
<glyph unicode=" " glyph-name="space" horiz-adv-x="260" />
<glyph unicode="!" glyph-name="exclam" horiz-adv-x="232" d="M133 179H101L95 714H139L133 179ZM82 29Q82 46 90 57T115 68Q134 68 141 57T149 29Q149 12 142 2T115 -9Q98 -9 90 1T82 29Z" />
<glyph unicode="&quot;" glyph-name="quotedbl" horiz-adv-x="338" d="M113 714L106 456H79L71 714H113ZM267 714L259 456H232L225 714H267Z" />
<glyph unicode="#" glyph-name="numbersign" horiz-adv-x="646" d="M470 457L431 256H580V223H425L381 0H347L391 223H203L160 0H126L169 223H27V256H174L214 457H66V489H219L262 714H297L254 489H442L485 714H519L475 489H618V457H470ZM209 256H396L435 457H248L209
256Z" />
<glyph unicode="$" glyph-name="dollar" horiz-adv-x="570" d="M253 18Q192 19 145 27T66 48V88Q100 74 149 64T253 53V348Q199 367 156 389T89 444T64 530Q64 608 117 650T253 697V759H285V698Q328 697 369 688T450 661L436 627Q396 645 358 653T285 662V375Q343
355 386 333T454 278T479 193Q479 111 425 68T285 19V-58H253V18ZM253 662Q188 659 146 627T103 533Q103 491 123 464T177 420T253 387V662ZM285 55Q354 59 397 92T440 192Q440 250 400 279T285 336V55Z" />
<glyph unicode="%" glyph-name="percent" horiz-adv-x="801" d="M197 724Q267 724 301 667T335 501Q335 389 299 333T195 276Q128 276 93 333T57 501Q57 611 93 667T197 724ZM618 714L222 0H184L580 714H618ZM197 691Q147 691 120 644T93 501Q93 309 195 309Q247
309 273 358T299 501Q299 594 275 642T197 691ZM605 438Q675 438 709 381T744 215Q744 103 707 47T603 -10Q536 -10 501 47T465 215Q465 325 502 381T605 438ZM605 405Q555 405 529 358T502 215Q502 23 603 23Q655 23 681 72T707 215Q707 308 683 356T605 405Z"
/>
<glyph unicode="&amp;" glyph-name="ampersand" horiz-adv-x="708" d="M304 725Q375 725 419 686T463 579Q463 511 418 468T298 387L531 153Q560 188 582 234T617 334H657Q642 272 617 221T556 126L680 0H628L531 101Q485 52 427 21T280 -10Q183 -10 122 39T61
180Q61 235 82 272T142 338T238 395Q190 444 163 483T135 575Q135 643 181 684T304 725ZM303 690Q243 690 209 659T174 575Q174 531 199 495T271 412Q344 445 384 483T424 579Q424 631 391 660T303 690ZM263 370Q211 344 175 319T120 262T101 181Q101 107 150 67T281
26Q360 26 411 53T506 125L263 370Z" />
<glyph unicode="&apos;" glyph-name="quotesingle" horiz-adv-x="183" d="M113 714L106 456H79L71 714H113Z" />
<glyph unicode="(" glyph-name="parenleft" horiz-adv-x="264" d="M42 274Q42 405 79 518T187 714H230Q154 624 118 512T81 275Q81 152 118 42T230 -158H187Q117 -73 80 36T42 274Z" />
<glyph unicode=")" glyph-name="parenright" horiz-adv-x="264" d="M223 280Q223 150 186 37T78 -158H35Q111 -68 147 44T184 280Q184 403 147 513T35 714H78Q148 629 185 520T223 280Z" />
<glyph unicode="*" glyph-name="asterisk" horiz-adv-x="551" d="M294 758L285 555L479 621L488 581L295 533L418 371L383 347L273 518L166 348L129 371L252 533L58 581L68 621L261 555L252 758H294Z" />
<glyph unicode="+" glyph-name="plus" horiz-adv-x="570" d="M302 370H516V336H302V121H268V336H54V370H268V585H302V370Z" />
<glyph unicode="," glyph-name="comma" horiz-adv-x="200" d="M139 104Q127 49 109 -14T69 -129H39Q59 -59 72 0T93 116H135L139 104Z" />
<glyph unicode="-" glyph-name="hyphen" horiz-adv-x="322" d="M40 253V289H282V253H40Z" />
<glyph unicode="." glyph-name="period" horiz-adv-x="230" d="M82 29Q82 46 90 57T115 68Q134 68 141 57T149 29Q149 12 142 2T115 -9Q98 -9 90 1T82 29Z" />
<glyph unicode="/" glyph-name="slash" horiz-adv-x="332" d="M320 714L52 0H12L280 714H320Z" />
<glyph unicode="0" glyph-name="zero" horiz-adv-x="570" d="M510 360Q510 178 455 84T285 -10Q176 -10 118 82T59 360Q59 466 81 548T153 678T286 725Q370 725 419 679T489 551T510 360ZM99 360Q99 189 145 107T285 25Q383 25 427 107T471 360Q471 461 455 535T398
649T286 690Q215 690 174 649T116 533T99 360Z" />
<glyph unicode="1" glyph-name="one" horiz-adv-x="570" d="M327 0H289V550Q289 593 289 621T291 672Q278 660 266 651T235 627L121 542L99 570L294 714H327V0Z" />
<glyph unicode="2" glyph-name="two" horiz-adv-x="570" d="M497 0H57V33L273 260Q323 312 356 354T407 440T425 537Q425 609 384 649T269 689Q177 689 97 624L75 652Q120 689 170 706T269 724Q358 724 411 673T465 538Q465 479 446 432T390 339T304 243L108 38V36H497V0Z"
/>
<glyph unicode="3" glyph-name="three" horiz-adv-x="570" d="M475 550Q475 479 432 433T323 375V373Q407 362 452 318T497 196Q497 106 434 48T246 -10Q187 -10 137 1T47 31V70Q86 51 139 38T246 25Q352 25 404 71T456 196Q456 282 395 317T236 353H156V388H236Q290
388 335 405T408 459T435 549Q435 619 391 654T273 689Q216 689 169 672T74 621L54 650Q97 683 151 703T273 724Q365 724 420 678T475 550Z" />
<glyph unicode="4" glyph-name="four" horiz-adv-x="570" d="M558 188H430V0H392V188H24V217L390 718H430V223H558V188ZM392 512Q392 553 392 580T393 628T394 673H392Q376 648 364 629T332 583L70 223H392V512Z" />
<glyph unicode="5" glyph-name="five" horiz-adv-x="570" d="M274 428Q382 428 444 374T507 219Q507 148 476 97T387 18T252 -10Q195 -10 150 1T72 31V72Q106 52 152 39T252 25Q349 25 408 75T467 217Q467 300 417 346T268 393Q225 393 189 388T118 372L94 390L124
714H463V678H157L134 410Q157 416 191 422T274 428Z" />
<glyph unicode="6" glyph-name="six" horiz-adv-x="570" d="M65 303Q65 517 146 621T370 726Q398 726 422 723T466 713V677Q448 683 424 687T370 691Q248 691 178 604T103 330H106Q119 357 145 382T212 424T307 441Q405 441 460 383T515 226Q515 156 490 103T416
20T299 -10Q238 -10 194 15T122 85T79 185T65 303ZM299 25Q384 25 430 78T476 226Q476 310 433 358T303 407Q243 407 200 383T133 324T109 256Q109 226 117 187T147 110T205 49T299 25Z" />
<glyph unicode="7" glyph-name="seven" horiz-adv-x="570" d="M173 0L470 678H55V714H513V687L216 0H173Z" />
<glyph unicode="8" glyph-name="eight" horiz-adv-x="570" d="M283 724Q374 724 428 681T483 559Q483 494 440 453T324 381Q408 351 457 305T507 182Q507 121 477 78T396 13T281 -10Q215 -10 166 13T89 78T61 176Q61 256 110 303T240 379Q197 397 162 420T105
476T84 558Q84 609 109 646T180 703T283 724ZM283 690Q213 690 168 656T123 557Q123 495 168 460T287 398Q363 429 403 465T444 559Q444 624 401 657T283 690ZM100 176Q100 107 149 66T280 24Q363 24 415 64T468 182Q468 244 426 284T304 353L279 362Q228 344 188
320T124 261T100 176Z" />
<glyph unicode="9" glyph-name="nine" horiz-adv-x="570" d="M504 412Q504 198 424 93T199 -12Q172 -12 143 -9T95 1V38Q113 32 141 28T199 23Q320 23 391 111T466 385H463Q450 358 423 332T356 290T261 273Q163 273 109 331T54 489Q54 559 80 612T154 694T271
724Q353 724 404 681T480 567T504 412ZM271 689Q186 689 140 637T93 490Q93 405 136 356T266 307Q326 307 369 331T436 391T460 460Q460 490 452 529T422 604T364 665T271 689Z" />
<glyph unicode=":" glyph-name="colon" horiz-adv-x="230" d="M82 497Q82 514 90 525T115 536Q134 536 141 525T149 497Q149 480 142 470T115 459Q98 459 90 469T82 497ZM82 29Q82 46 90 57T115 68Q134 68 141 57T149 29Q149 12 142 2T115 -9Q98 -9 90 1T82 29Z" />
<glyph unicode=";" glyph-name="semicolon" horiz-adv-x="230" d="M82 497Q82 514 89 525T114 536Q134 536 141 525T149 497Q149 480 142 470T114 459Q97 459 90 469T82 497ZM137 104Q125 49 107 -14T68 -129H37Q57 -60 70 0T92 116H133L137 104Z" />
<glyph unicode="&lt;" glyph-name="less" horiz-adv-x="570" d="M515 134L55 347V371L515 590V554L102 360L515 170V134Z" />
<glyph unicode="=" glyph-name="equal" horiz-adv-x="570" d="M55 438V471H515V438H55ZM55 235V268H515V235H55Z" />
<glyph unicode="&gt;" glyph-name="greater" horiz-adv-x="570" d="M55 170L468 360L55 554V590L515 371V347L55 134V170Z" />
<glyph unicode="?" glyph-name="question" horiz-adv-x="417" d="M143 195Q143 242 150 273T175 327T228 376Q264 403 290 427T329 481T342 553Q342 622 301 655T191 688Q152 688 118 680T47 653L33 688Q75 706 111 715T192 724Q279 724 330 681T381 553Q381 504
365 470T320 408T252 352Q224 331 208 311T185 263T177 193V179H143V195ZM130 29Q130 46 137 57T162 68Q182 68 189 57T196 29Q196 12 189 2T162 -9Q145 -9 138 1T130 29Z" />
<glyph unicode="@" glyph-name="at" horiz-adv-x="882" d="M829 352Q829 285 812 230T759 141T670 107Q624 107 596 134T565 209H564Q542 156 502 132T412 107Q338 107 298 153T258 286Q258 351 284 401T359 480T470 509Q508 509 541 504T603 488L595 331Q595
313 594 291T592 248Q592 195 610 168T671 140Q713 140 740 167T780 243T793 352Q793 450 755 522T645 634T470 674Q356 674 271 628T137 495T89 284Q89 175 128 97T240 -22T418 -64Q470 -64 523 -54T623 -23V-59Q579 -77 528 -87T418 -98Q305 -98 223 -52T97 80T53
283Q53 417 105 512T252 657T470 708Q580 708 660 665T785 542T829 352ZM295 286Q295 215 325 178T415 140Q549 140 559 317L567 462Q546 469 523 472T470 476Q390 476 343 424T295 286Z" />
<glyph unicode="A" glyph-name="A" horiz-adv-x="590" d="M548 0L448 261H143L41 0H0L281 716H318L589 0H548ZM330 578Q325 595 316 619T298 670Q291 646 282 622T265 578L157 297H434L330 578Z" />
<glyph unicode="B" glyph-name="B" horiz-adv-x="621" d="M295 714Q427 714 486 672T546 541Q546 480 510 435T406 377V375Q490 362 527 318T565 203Q565 131 533 87T443 21T312 0H102V714H295ZM306 392Q409 392 457 429T505 538Q505 613 455 645T294 678H141V392H306ZM141
357V35H315Q416 35 470 76T524 204Q524 289 467 323T305 357H141Z" />
<glyph unicode="C" glyph-name="C" horiz-adv-x="618" d="M405 688Q309 688 242 646T139 530T103 359Q103 259 135 184T230 68T389 26Q445 26 489 34T571 55V21Q536 7 491 -1T387 -10Q280 -10 208 36T100 165T63 360Q63 464 103 546T220 676T405 724Q505 724 587
686L571 651Q531 672 489 680T405 688Z" />
<glyph unicode="D" glyph-name="D" horiz-adv-x="700" d="M636 364Q636 184 543 92T265 0H102V714H288Q461 714 548 625T636 364ZM596 363Q596 518 519 598T277 678H141V36H265Q596 36 596 363Z" />
<glyph unicode="E" glyph-name="E" horiz-adv-x="551" d="M490 0H102V714H490V678H141V394H470V358H141V36H490V0Z" />
<glyph unicode="F" glyph-name="F" horiz-adv-x="497" d="M141 0H102V714H490V678H141V360H471V324H141V0Z" />
<glyph unicode="G" glyph-name="G" horiz-adv-x="722" d="M375 355H642V34Q592 12 535 1T414 -10Q242 -10 153 85T63 355Q63 462 106 545T230 677T425 726Q483 726 535 715T634 682L617 646Q569 669 521 679T424 690Q324 690 252 647T142 529T103 356Q103 186
187 106T420 26Q476 26 521 34T603 57V319H375V355Z" />
<glyph unicode="H" glyph-name="H" horiz-adv-x="713" d="M611 0H572V357H141V0H102V714H141V393H572V714H611V0Z" />
<glyph unicode="I" glyph-name="I" horiz-adv-x="294" d="M238 0H57V27L128 33V680L57 688V714H238V688L167 680V33L238 27V0Z" />
<glyph unicode="J" glyph-name="J" horiz-adv-x="240" d="M-16 -177Q-43 -177 -62 -174T-94 -165V-127Q-80 -133 -60 -136T-16 -140Q49 -140 76 -102T103 5V714H142V4Q142 -76 105 -126T-16 -177Z" />
<glyph unicode="K" glyph-name="K" horiz-adv-x="570" d="M570 0H522L239 386L141 290V0H102V714H141V332Q156 349 172 366T206 401L512 714H563L268 414L570 0Z" />
<glyph unicode="L" glyph-name="L" horiz-adv-x="510" d="M102 0V714H141V36H489V0H102Z" />
<glyph unicode="M" glyph-name="M" horiz-adv-x="851" d="M409 0L140 668H137Q138 642 138 617T139 563V0H102V714H162L424 64H427L690 714H749V0H710V569Q710 591 710 616T712 667H710L440 0H409Z" />
<glyph unicode="N" glyph-name="N" horiz-adv-x="711" d="M608 0H572L139 642H137Q138 601 138 563T139 481V0H102V714H139L570 74H572Q572 108 571 151T570 231V714H608V0Z" />
<glyph unicode="O" glyph-name="O" horiz-adv-x="759" d="M696 358Q696 250 661 167T556 37T379 -10Q274 -10 204 37T98 167T63 359Q63 467 99 549T208 678T384 725Q534 725 615 628T696 358ZM103 359Q103 261 133 186T224 69T380 26Q474 26 535 68T625 184T655
358Q655 515 586 602T384 689Q289 689 227 647T134 531T103 359Z" />
<glyph unicode="P" glyph-name="P" horiz-adv-x="580" d="M273 714Q397 714 460 667T524 516Q524 405 455 353T259 300H141V0H102V714H273ZM268 678H141V335H255Q325 335 376 351T455 406T483 514Q483 601 431 639T268 678Z" />
<glyph unicode="Q" glyph-name="Q" horiz-adv-x="759" d="M696 358Q696 265 670 189T590 64T457 -2L605 -170H550L414 -8Q405 -9 397 -9T379 -10Q274 -10 204 37T98 167T63 359Q63 467 99 549T208 678T384 725Q534 725 615 628T696 358ZM103 359Q103 261 133 186T224
69T380 26Q474 26 535 68T625 184T655 358Q655 515 586 602T384 689Q289 689 227 647T134 531T103 359Z" />
<glyph unicode="R" glyph-name="R" horiz-adv-x="586" d="M269 714Q394 714 459 673T524 522Q524 441 481 394T366 326L562 0H515L327 315H141V0H102V714H269ZM264 678H141V350H292Q379 350 431 394T483 521Q483 611 429 644T264 678Z" />
<glyph unicode="S" glyph-name="S" horiz-adv-x="544" d="M492 182Q492 118 460 76T372 12T249 -10Q182 -10 137 -1T55 20V61Q94 46 143 36T252 26Q308 26 353 42T425 93T452 181Q452 228 430 257T364 306T259 348Q201 367 157 390T88 449T63 544Q63 603 93 643T175
703T290 724Q389 724 474 686L459 652Q415 672 373 680T288 688Q237 688 195 673T128 626T103 545Q103 494 126 464T189 416T283 379Q346 359 393 336T466 277T492 182Z" />
<glyph unicode="T" glyph-name="T" horiz-adv-x="515" d="M277 0H238V678H4V714H512V678H277V0Z" />
<glyph unicode="U" glyph-name="U" horiz-adv-x="716" d="M622 252Q622 123 550 57T356 -10Q231 -10 163 58T94 254V714H133V255Q133 142 191 84T358 26Q463 26 523 82T584 246V714H622V252Z" />
<glyph unicode="V" glyph-name="V" horiz-adv-x="571" d="M571 714L304 0H266L0 714H41L246 166Q258 134 268 105T286 50Q293 75 302 102T325 166L529 714H571Z" />
<glyph unicode="W" glyph-name="W" horiz-adv-x="881" d="M855 714L658 0H621L464 559Q456 590 449 613T437 662Q433 639 429 619T417 576L260 0H223L29 714H69L210 192Q220 153 228 124T242 63Q249 94 256 124T275 194L419 714H458L606 191Q618 150 625 121T639
60Q645 92 651 121T669 191L814 714H855Z" />
<glyph unicode="X" glyph-name="X" horiz-adv-x="525" d="M526 0H481L263 342L42 0H-2L239 370L21 714H66L265 399L464 714H508L288 371L526 0Z" />
<glyph unicode="Y" glyph-name="Y" horiz-adv-x="517" d="M259 314L474 714H517L279 275V0H240V271L0 714H44L259 314Z" />
<glyph unicode="Z" glyph-name="Z" horiz-adv-x="577" d="M537 0H36V28L474 678H61V714H525V686L88 36H537V0Z" />
<glyph unicode="[" glyph-name="bracketleft" horiz-adv-x="316" d="M291 -158H86V714H291V679H124V-123H291V-158Z" />
<glyph unicode="\" glyph-name="backslash" horiz-adv-x="332" d="M52 714L320 0H280L12 714H52Z" />
<glyph unicode="]" glyph-name="bracketright" horiz-adv-x="316" d="M25 -123H192V679H25V714H230V-158H25V-123Z" />
<glyph unicode="^" glyph-name="asciicircum" horiz-adv-x="570" d="M44 276L276 719H304L526 276H487L289 674L83 276H44Z" />
<glyph unicode="_" glyph-name="underscore" horiz-adv-x="402" d="M404 -124H-2V-91H404V-124Z" />
<glyph unicode="`" glyph-name="grave" horiz-adv-x="256" d="M85 766Q99 744 121 716T169 661T216 613V606H187Q161 627 133 654T81 709T40 758V766H85Z" />
<glyph unicode="a" glyph-name="a" horiz-adv-x="521" d="M269 539Q354 539 396 495T439 353V0H408L401 98H399Q375 52 332 21T209 -10Q131 -10 90 28T48 133Q48 212 113 252T300 299L400 305V345Q400 431 367 467T268 504Q191 504 111 464L99 498Q137 516 180
527T269 539ZM304 268Q202 263 145 231T88 133Q88 81 121 53T213 24Q307 24 353 77T400 219V272L304 268Z" />
<glyph unicode="b" glyph-name="b" horiz-adv-x="590" d="M127 535Q127 509 126 475T124 418H127Q145 471 194 505T317 540Q421 540 476 471T531 266Q531 187 507 125T432 26T304 -10Q234 -10 191 20T128 97H125L119 0H88V760H127V535ZM314 505Q217 505 172 442T127
265V256Q127 143 169 84T301 25Q395 25 443 88T491 267Q491 505 314 505Z" />
<glyph unicode="c" glyph-name="c" horiz-adv-x="474" d="M302 -10Q220 -10 166 24T85 119T58 262Q58 346 89 408T179 505T316 540Q353 540 384 534T443 515L434 480Q405 492 375 498T316 504Q248 504 199 474T124 390T98 262Q98 195 119 142T186 57T301 25Q339
25 374 32T438 52V17Q413 5 379 -2T302 -10Z" />
<glyph unicode="d" glyph-name="d" horiz-adv-x="590" d="M281 -10Q170 -10 114 58T58 257Q58 394 118 467T288 540Q358 540 401 507T463 425H466Q464 454 464 484T463 544V760H501V0H469L465 105H463Q444 58 401 24T281 -10ZM284 25Q381 25 422 86T463 260V266Q463
382 422 443T290 505Q197 505 148 442T98 256Q98 141 144 83T284 25Z" />
<glyph unicode="e" glyph-name="e" horiz-adv-x="545" d="M288 540Q356 540 399 508T464 420T486 294V263H98Q97 148 149 87T300 25Q349 25 384 32T465 61V23Q426 6 388 -2T299 -10Q218 -10 165 24T85 119T58 260Q58 337 84 400T161 502T288 540ZM288 505Q208
505 158 452T99 297H446Q446 390 407 447T288 505Z" />
<glyph unicode="f" glyph-name="f" horiz-adv-x="288" d="M273 496H151V0H112V496H12V522L112 530V596Q112 679 148 722T262 765Q288 765 309 761T349 752L341 717Q304 730 262 730Q203 730 177 699T151 597V530H273V496Z" />
<glyph unicode="g" glyph-name="g" horiz-adv-x="590" d="M287 540Q356 540 396 513T459 443H462L468 530H500V-22Q500 -121 449 -180T276 -240Q216 -240 171 -230T89 -204V-163Q125 -181 173 -193T277 -205Q376 -205 418 -156T461 -23V15Q461 40 461 61T464 108H461Q441
50 394 20T276 -10Q174 -10 116 58T58 258Q58 388 116 464T287 540ZM289 505Q192 505 145 440T98 258Q98 144 144 85T279 25Q352 25 391 56T446 138T462 246V289Q462 353 446 401T392 477T289 505Z" />
<glyph unicode="h" glyph-name="h" horiz-adv-x="582" d="M128 504Q128 482 127 465T125 426H128Q146 472 192 505T316 539Q403 539 451 493T499 347V0H460V345Q460 428 422 466T313 505Q226 505 177 454T128 297V0H89V760H128V504Z" />
<glyph unicode="i" glyph-name="i" horiz-adv-x="217" d="M108 724Q127 724 133 714T140 688Q140 672 134 662T108 652Q92 652 85 662T78 688Q78 704 85 714T108 724ZM128 530V0H89V530H128Z" />
<glyph unicode="j" glyph-name="j" horiz-adv-x="217" d="M78 688Q78 704 85 714T108 724Q127 724 133 714T140 688Q140 672 134 662T108 652Q92 652 85 662T78 688ZM13 -240Q-7 -240 -23 -237T-51 -230V-194Q-36 -201 -21 -203T11 -205Q89 -205 89 -109V530H128V-112Q128
-176 96 -208T13 -240Z" />
<glyph unicode="k" glyph-name="k" horiz-adv-x="470" d="M127 381Q127 339 127 300T126 218V218Q141 236 155 252T185 286L405 530H453L246 302L472 0H426L219 276L127 177V0H89V760H127V381Z" />
<glyph unicode="l" glyph-name="l" horiz-adv-x="217" d="M128 0H90V760H128V0Z" />
<glyph unicode="m" glyph-name="m" horiz-adv-x="869" d="M626 540Q698 540 742 496T787 359V0H749V357Q749 434 714 469T623 505Q547 505 502 461T457 319V0H419V357Q419 434 384 469T293 505Q221 505 175 460T128 315V0H89V530H120L126 438H129Q140 464 161
487T216 525T296 540Q352 540 391 513T446 434H448Q469 483 514 511T626 540Z" />
<glyph unicode="n" glyph-name="n" horiz-adv-x="582" d="M316 540Q404 540 451 493T499 347V0H460V345Q460 428 422 466T313 505Q226 505 177 454T128 297V0H89V530H120L126 426H129Q148 471 193 505T316 540Z" />
<glyph unicode="o" glyph-name="o" horiz-adv-x="581" d="M522 265Q522 185 497 123T419 26T289 -10Q214 -10 163 25T85 122T58 265Q58 392 120 466T294 540Q373 540 423 504T497 406T522 265ZM98 265Q98 158 145 92T289 25Q356 25 399 55T462 140T482 265Q482
333 463 387T403 473T294 505Q199 505 149 442T98 265Z" />
<glyph unicode="p" glyph-name="p" horiz-adv-x="590" d="M318 540Q422 540 477 471T533 269Q533 135 474 63T310 -10Q235 -10 191 24T128 106H126Q127 76 127 45T128 -16V-234H90V530H122L126 414H128Q140 447 165 475T228 522T318 540ZM315 505Q222 505 176
444T128 269V263Q128 142 175 84T308 25Q396 25 444 88T493 269Q493 505 315 505Z" />
<glyph unicode="q" glyph-name="q" horiz-adv-x="590" d="M460 0Q460 23 461 56T463 112H460Q442 59 393 24T270 -11Q166 -11 111 59T56 263Q56 342 80 404T155 503T283 540Q353 540 396 509T459 432H461L467 530H499V-234H460V0ZM273 24Q371 24 415 86T461 262V273Q461
387 419 446T286 505Q192 505 144 442T96 263Q96 145 140 85T273 24Z" />
<glyph unicode="r" glyph-name="r" horiz-adv-x="383" d="M290 538Q312 538 331 536T367 528L360 492Q342 497 326 499T288 502Q209 502 169 446T128 295V0H90V530H124L127 429H130Q146 475 186 506T290 538Z" />
<glyph unicode="s" glyph-name="s" horiz-adv-x="462" d="M416 137Q416 68 365 29T214 -10Q159 -10 115 0T42 24V64Q80 45 124 35T215 24Q301 24 339 54T377 135Q377 170 358 192T303 229T223 258Q175 274 137 289T77 331T55 406Q55 469 105 504T241 540Q288 540
329 531T403 508L388 474Q359 488 319 496T240 505Q171 505 133 481T94 407Q94 370 113 350T165 318T241 290Q287 275 326 259T391 214T416 137Z" />
<glyph unicode="t" glyph-name="t" horiz-adv-x="328" d="M223 25Q246 25 265 28T301 37V4Q285 -2 265 -6T220 -10Q151 -10 121 29T91 143V496H11V522L91 531L103 659H130V530H298V496H130V146Q130 87 150 56T223 25Z" />
<glyph unicode="u" glyph-name="u" horiz-adv-x="582" d="M492 530V0H460L454 103H452Q433 58 388 24T264 -10Q81 -10 81 183V530H120V187Q120 103 158 64T267 25Q354 25 403 76T453 232V530H492Z" />
<glyph unicode="v" glyph-name="v" horiz-adv-x="446" d="M204 0L0 530H41L183 155Q196 122 205 96T222 45H224Q232 69 241 95T263 155L405 530H446L242 0H204Z" />
<glyph unicode="w" glyph-name="w" horiz-adv-x="706" d="M390 371Q381 400 374 424T360 474H357Q351 448 344 423T327 371L205 -1H167L15 529H57L155 175Q168 130 174 103T186 51H189Q195 75 202 102T223 172L342 529H378L492 173Q503 135 512 106T526 51H529Q532
75 539 103T557 175L652 529H691L548 -1H509L390 371Z" />
<glyph unicode="x" glyph-name="x" horiz-adv-x="489" d="M218 272L33 530H79L242 299L404 530H450L267 272L462 0H416L242 245L69 0H24L218 272Z" />
<glyph unicode="y" glyph-name="y" horiz-adv-x="445" d="M0 530H41L174 184Q191 138 203 104T223 47H225Q232 69 244 103T273 181L405 530H446L201 -107Q175 -174 143 -208T55 -242Q25 -242 -3 -233V-198Q11 -202 23 -205T52 -208Q92 -208 117 -182T166 -96L204
4L0 530Z" />
<glyph unicode="z" glyph-name="z" horiz-adv-x="459" d="M416 0H41V25L367 496H66V530H417V504L90 34H416V0Z" />
<glyph unicode="{" glyph-name="braceleft" horiz-adv-x="346" d="M310 -158Q226 -158 183 -122T139 -18V148Q139 208 113 234T26 261V295Q86 295 112 320T139 408V574Q139 642 183 678T310 714V679Q242 679 210 653T178 568V404Q178 353 159 321T93 280V277Q139
268 158 236T178 152V-15Q178 -71 210 -97T310 -123V-158Z" />
<glyph unicode="|" glyph-name="bar" horiz-adv-x="538" d="M250 762H285V-249H250V762Z" />
<glyph unicode="}" glyph-name="braceright" horiz-adv-x="346" d="M35 -123Q102 -123 134 -97T167 -14V152Q167 203 186 235T252 277V279Q205 288 186 320T167 404V568Q167 626 135 652T35 679V714Q119 714 162 678T206 574V408Q206 346 232 321T319 295V261Q259
261 233 235T206 148V-18Q206 -86 162 -122T35 -158V-123Z" />
<glyph unicode="~" glyph-name="asciitilde" horiz-adv-x="570" d="M279 337Q251 351 228 359T171 368Q142 368 112 355T55 312V352Q78 375 108 388T172 401Q212 401 238 393T296 368Q325 355 348 347T401 338Q429 338 458 350T515 393V355Q496 333 466 319T400
305Q366 305 339 313T279 337Z" />
<glyph unicode="&#xa0;" glyph-name="uni00A0" horiz-adv-x="260" />
<glyph unicode="&#xa1;" glyph-name="exclamdown" horiz-adv-x="232" d="M149 500Q149 482 142 472T116 461Q97 461 90 471T82 500Q82 517 89 527T116 538Q134 538 141 528T149 500ZM99 349H130L137 -185H93L99 349Z" />
<glyph unicode="&#xa2;" glyph-name="cent" horiz-adv-x="570" d="M341 639Q380 639 411 633T471 614L462 579Q433 592 403 598T344 604Q241 604 184 538T126 361Q126 293 147 240T214 156T330 125Q367 125 402 132T466 152V116Q442 106 411 98T341 89V-10H307V90Q195
97 141 170T86 361Q86 479 145 552T307 637V724H341V639Z" />
<glyph unicode="&#xa3;" glyph-name="sterling" horiz-adv-x="570" d="M342 723Q391 723 428 714T495 692L482 657Q449 671 417 679T342 688Q269 688 233 646T197 515V365H397V332H197V194Q197 126 175 90T119 36H521V0H40V33Q97 44 127 82T158 193V332H53V365H158V520Q158
620 206 671T342 723Z" />
<glyph unicode="&#xa4;" glyph-name="currency" horiz-adv-x="570" d="M85 354Q85 427 132 483L57 559L79 581L155 506Q182 530 215 542T284 554Q319 554 353 542T414 506L489 580L511 558L437 483Q484 427 484 354Q484 319 472 286T437 224L512 149L489 126L414
202Q387 178 353 166T284 154Q249 154 216 166T155 202L79 127L58 149L132 224Q85 281 85 354ZM116 354Q116 306 139 268T200 207T284 185Q330 185 369 208T430 269T453 355Q453 401 431 439T370 500T285 523Q239 523 201 500T139 439T116 354Z" />
<glyph unicode="&#xa5;" glyph-name="yen" horiz-adv-x="570" d="M286 342L504 714H547L316 326H475V293H305V188H475V155H305V0H267V155H96V188H267V293H96V326H254L23 714H66L286 342Z" />
<glyph unicode="&#xa6;" glyph-name="brokenbar" horiz-adv-x="538" d="M250 762H285V392H250V762ZM250 122H285V-249H250V122Z" />
<glyph unicode="&#xa7;" glyph-name="section" horiz-adv-x="517" d="M79 395Q79 444 108 475T181 522Q138 538 111 562T84 634Q84 693 132 726T264 760Q311 760 350 752T421 730L407 697Q378 711 341 719T263 727Q195 727 159 704T122 634Q122 603 140 586T190
556T263 530Q308 516 346 500T409 456T433 381Q433 333 408 299T344 245Q381 229 404 204T428 134Q428 72 379 35T232 -2Q179 -2 136 8T64 31V70Q101 52 144 42T233 31Q317 31 353 59T390 133Q390 165 372 185T320 219T241 247Q195 262 159 278T101 322T79 395ZM115
397Q115 361 133 340T183 305T258 277L310 260Q348 276 372 306T397 379Q397 430 353 457T223 507Q178 495 147 469T115 397Z" />
<glyph unicode="&#xa8;" glyph-name="dieresis" horiz-adv-x="576" d="M166 679Q166 694 172 703T194 713Q211 713 217 704T223 679Q223 663 217 654T194 644Q179 644 173 653T166 679ZM351 679Q351 694 357 703T379 713Q396 713 402 704T408 679Q408 663 402
654T379 644Q364 644 358 653T351 679Z" />
<glyph unicode="&#xa9;" glyph-name="copyright" horiz-adv-x="832" d="M416 -8Q336 -8 269 20T153 98T77 214T50 357Q50 435 78 502T157 618T274 695T416 722Q495 722 562 693T678 613T755 496T782 357Q782 281 754 215T676 98T559 20T416 -8ZM416 22Q487 22
548 48T654 121T725 228T750 357Q750 425 725 485T655 592T549 665T416 692Q345 692 285 666T179 595T108 488T82 357Q82 289 106 228T174 121T280 49T416 22ZM434 141Q341 141 286 195T231 356Q231 422 257 470T329 546T438 574Q479 574 508 567T564 547L549 516Q525
527 499 533T438 540Q362 540 315 491T268 356Q268 266 314 220T435 174Q468 174 493 179T548 195V163Q523 152 496 147T434 141Z" />
<glyph unicode="&#xaa;" glyph-name="ordfeminine" horiz-adv-x="329" d="M171 722Q276 722 276 619V399H248L243 445Q230 424 204 410T141 395Q94 395 67 417T39 485Q39 533 77 557T196 585L243 587V617Q243 656 223 674T169 692Q143 692 120 686T74 666L62 695Q85
707 113 714T171 722ZM196 556Q132 553 103 538T74 485Q74 425 145 425Q194 425 218 452T243 526V558L196 556Z" />
<glyph unicode="&#xab;" glyph-name="guillemotleft" horiz-adv-x="413" d="M29 282L184 472L210 455L72 276L210 97L184 81L29 269V282ZM204 282L359 472L385 455L247 276L385 97L359 81L204 269V282Z" />
<glyph unicode="&#xac;" glyph-name="logicalnot" horiz-adv-x="570" d="M502 370V131H469V336H54V370H502Z" />
<glyph unicode="&#xad;" glyph-name="uni00AD" horiz-adv-x="322" d="M40 253V289H282V253H40Z" />
<glyph unicode="&#xae;" glyph-name="registered" horiz-adv-x="832" d="M416 -8Q336 -8 269 20T153 98T77 214T50 357Q50 435 78 502T157 618T274 695T416 722Q495 722 562 693T678 613T755 496T782 357Q782 281 754 215T676 98T559 20T416 -8ZM416 22Q487 22
548 48T654 121T725 228T750 357Q750 425 725 485T655 592T549 665T416 692Q345 692 285 666T179 595T108 488T82 357Q82 289 106 228T174 121T280 49T416 22ZM294 142V570H414Q480 570 519 541T558 448Q558 400 532 371T468 330L582 142H539L432 321H330V142H294ZM411
351Q459 351 491 375T523 448Q523 496 493 517T412 538H329V351H411Z" />
<glyph unicode="&#xaf;" glyph-name="overscore" horiz-adv-x="500" d="M503 760H-3V793H503V760Z" />
<glyph unicode="&#xb0;" glyph-name="degree" horiz-adv-x="428" d="M214 436Q152 436 110 475T68 580Q68 645 109 684T214 724Q277 724 318 684T360 580Q360 515 319 476T214 436ZM213 468Q264 468 295 499T326 580Q326 631 295 661T213 692Q162 692 132 662T102
580Q102 531 132 500T213 468Z" />
<glyph unicode="&#xb1;" glyph-name="plusminus" horiz-adv-x="570" d="M302 370H516V337H302V121H268V337H54V370H268V586H302V370ZM54 0V34H516V0H54Z" />
<glyph unicode="&#xb2;" glyph-name="uni00B2" horiz-adv-x="332" d="M307 416H26V444L148 567Q203 623 232 659T262 739Q262 776 238 799T169 823Q138 823 112 813T58 781L40 807Q68 830 100 842T169 855Q230 855 263 823T297 740Q297 705 282 677T239 618T172
548L74 449H307V416Z" />
<glyph unicode="&#xb3;" glyph-name="uni00B3" horiz-adv-x="332" d="M169 851Q228 851 262 823T297 746Q297 704 276 678T221 643V641Q262 632 284 607T307 539Q307 479 267 445T150 411Q115 411 83 418T24 437V472Q55 458 86 451T151 443Q210 443 240 468T271
539Q271 624 153 624H88V655H153Q205 655 233 678T261 745Q261 780 237 800T169 820Q133 820 104 810T47 782L32 809Q60 828 93 839T169 851Z" />
<glyph unicode="&#xb4;" glyph-name="acute" horiz-adv-x="256" d="M216 758Q199 737 175 710T122 655T69 606H40V613Q61 633 86 660T133 716T170 766H216V758Z" />
<glyph unicode="&#xb5;" glyph-name="uni00B5" horiz-adv-x="589" d="M499 530V0H466L461 90H458Q445 62 424 40T370 4T283 -10Q223 -10 185 10T128 64H126Q126 44 126 20T127 -31V-240H89V530H127V186Q127 25 284 25Q382 25 421 79T461 233V530H499Z" />
<glyph unicode="&#xb6;" glyph-name="paragraph" horiz-adv-x="655" d="M524 -127H491V729H364V-127H331V338Q299 329 260 329Q175 329 131 388T87 547Q87 760 275 760H524V-127Z" />
<glyph unicode="&#xb7;" glyph-name="middot" horiz-adv-x="230" d="M82 322Q82 339 90 350T115 361Q134 361 141 350T149 322Q149 305 142 295T115 284Q98 284 90 294T82 322Z" />
<glyph unicode="&#xb8;" glyph-name="cedilla" horiz-adv-x="200" d="M187 -144Q187 -188 154 -214T66 -240Q32 -240 11 -234V-204Q23 -207 36 -208T67 -210Q105 -210 128 -194T152 -145Q152 -87 52 -85L95 0H127L96 -63Q137 -66 162 -86T187 -144Z" />
<glyph unicode="&#xb9;" glyph-name="uni00B9" horiz-adv-x="332" d="M203 844V416H167V695Q167 723 167 752T169 808Q153 797 138 788T101 768L53 740L37 767L172 844H203Z" />
<glyph unicode="&#xba;" glyph-name="ordmasculine" horiz-adv-x="357" d="M323 559Q323 487 287 440T179 393Q110 393 73 439T36 559Q36 636 75 680T182 724Q254 724 288 677T323 559ZM70 559Q70 498 97 461T179 423Q236 423 262 461T289 559Q289 616 264 655T182
694Q128 694 99 659T70 559Z" />
<glyph unicode="&#xbb;" glyph-name="guillemotright" horiz-adv-x="413" d="M385 271L229 81L204 98L341 277L204 456L229 472L385 284V271ZM209 271L54 81L29 98L166 277L29 456L54 472L209 284V271Z" />
<glyph unicode="&#xbc;" glyph-name="onequarter" horiz-adv-x="708" d="M143 0L528 714H565L180 0H143ZM150 565Q150 593 150 622T152 678Q136 667 121 658T84 638L36 610L20 637L154 714H185V286H150V565ZM592 0V124H390V149L590 431H627V155H699V124H627V0H592ZM430
155H592V305Q592 328 592 349T593 391Q585 376 576 363T557 334L430 155Z" />
<glyph unicode="&#xbd;" glyph-name="onehalf" horiz-adv-x="749" d="M137 0L522 714H559L174 0H137ZM148 565Q148 593 148 622T149 678Q134 667 119 658T82 638L33 610L17 637L152 714H183V286H148V565ZM443 0V28L565 151Q620 207 649 243T679 323Q679 360 655
383T586 407Q555 407 529 397T475 365L457 391Q485 414 517 426T586 439Q647 439 680 407T714 324Q714 289 699 261T656 202T589 132L491 33H724V0H443Z" />
<glyph unicode="&#xbe;" glyph-name="threequarters" horiz-adv-x="763" d="M150 281Q114 281 82 288T24 307V342Q55 328 86 321T150 313Q210 313 240 338T271 409Q271 494 152 494H87V525H152Q205 525 232 548T260 615Q260 650 236 670T169 690Q133 690 104 680T47
652L31 679Q60 698 93 709T169 721Q228 721 262 693T296 616Q296 574 275 548T221 513V511Q262 502 284 477T307 409Q307 349 266 315T150 281ZM199 0L584 714H622L237 0H199ZM647 0V124H445V149L645 431H682V155H754V124H682V0H647ZM485 155H647V305Q647 328 647
349T649 391Q640 376 631 363T612 334L485 155Z" />
<glyph unicode="&#xbf;" glyph-name="questiondown" horiz-adv-x="417" d="M290 503Q290 486 282 475T257 464Q238 464 231 475T223 503Q223 520 230 530T257 541Q274 541 282 531T290 503ZM276 337Q276 290 269 259T244 205T191 156Q155 129 130 105T91 51T77
-21Q77 -90 119 -123T228 -156Q268 -156 302 -148T372 -121L387 -156Q344 -174 308 -183T227 -192Q141 -192 90 -149T38 -21Q38 28 54 62T100 124T168 180Q195 201 211 221T235 269T242 340V353H276V337Z" />
<glyph unicode="&#xc0;" glyph-name="Agrave" horiz-adv-x="590" d="M548 0L448 261H143L41 0H0L281 716H318L589 0H548ZM330 578Q325 595 316 619T298 670Q291 646 282 622T265 578L157 297H434L330 578ZM247 950Q261 928 283 900T331 845T378 797V790H349Q323
811 295 838T243 893T202 942V950H247Z" />
<glyph unicode="&#xc1;" glyph-name="Aacute" horiz-adv-x="590" d="M548 0L448 261H143L41 0H0L281 716H318L589 0H548ZM330 578Q325 595 316 619T298 670Q291 646 282 622T265 578L157 297H434L330 578ZM425 942Q408 921 384 894T331 839T278 790H249V797Q270
817 295 844T342 900T379 950H425V942Z" />
<glyph unicode="&#xc2;" glyph-name="Acircumflex" horiz-adv-x="590" d="M548 0L448 261H143L41 0H0L281 716H318L589 0H548ZM330 578Q325 595 316 619T298 670Q291 646 282 622T265 578L157 297H434L330 578ZM313 948Q325 927 345 900T388 845T429 797V790H400Q373
815 345 847T295 908Q273 880 245 848T189 790H160V797Q179 817 201 844T244 899T277 948H313Z" />
<glyph unicode="&#xc3;" glyph-name="Atilde" horiz-adv-x="590" d="M548 0L448 261H143L41 0H0L281 716H318L589 0H548ZM330 578Q325 595 316 619T298 670Q291 646 282 622T265 578L157 297H434L330 578ZM129 800Q133 851 157 877T222 904Q246 904 265 893T300
868T333 843T369 832Q392 832 409 846T432 904H463Q458 853 433 826T368 799Q343 799 325 810T290 835T258 859T220 870Q199 870 182 856T159 800H129Z" />
<glyph unicode="&#xc4;" glyph-name="Adieresis" horiz-adv-x="590" d="M548 0L448 261H143L41 0H0L281 716H318L589 0H548ZM330 578Q325 595 316 619T298 670Q291 646 282 622T265 578L157 297H434L330 578ZM174 863Q174 878 180 887T202 897Q219 897 225 888T231
863Q231 847 225 838T202 828Q187 828 181 837T174 863ZM359 863Q359 878 365 887T387 897Q404 897 410 888T416 863Q416 847 410 838T387 828Q372 828 366 837T359 863Z" />
<glyph unicode="&#xc5;" glyph-name="Aring" horiz-adv-x="590" d="M548 0L448 261H143L41 0H0L281 716H318L589 0H548ZM330 578Q325 595 316 619T298 670Q291 646 282 622T265 578L157 297H434L330 578ZM297 690Q254 690 224 717T194 791Q194 835 224 863T297
892Q339 892 369 863T399 791Q399 746 369 718T297 690ZM297 719Q329 719 349 740T369 791Q369 822 348 842T297 863Q265 863 245 843T224 791Q224 761 244 740T297 719Z" />
<glyph unicode="&#xc6;" glyph-name="AE" horiz-adv-x="787" d="M764 0H382V260H155L43 0H-1L313 714H764V678H421V394H745V358H421V36H764V0ZM172 296H382V678H337L172 296Z" />
<glyph unicode="&#xc7;" glyph-name="Ccedilla" horiz-adv-x="618" d="M405 688Q309 688 242 646T139 530T103 359Q103 259 135 184T230 68T389 26Q445 26 489 34T571 55V21Q536 7 491 -1T387 -10Q280 -10 208 36T100 165T63 360Q63 464 103 546T220 676T405 724Q505
724 587 686L571 651Q531 672 489 680T405 688ZM446 -144Q446 -188 413 -214T325 -240Q291 -240 270 -234V-204Q282 -207 295 -208T326 -210Q364 -210 387 -194T411 -145Q411 -87 311 -85L354 0H386L355 -63Q396 -66 421 -86T446 -144Z" />
<glyph unicode="&#xc8;" glyph-name="Egrave" horiz-adv-x="551" d="M490 0H102V714H490V678H141V394H470V358H141V36H490V0ZM257 950Q271 928 293 900T341 845T388 797V790H359Q333 811 305 838T253 893T212 942V950H257Z" />
<glyph unicode="&#xc9;" glyph-name="Eacute" horiz-adv-x="551" d="M490 0H102V714H490V678H141V394H470V358H141V36H490V0ZM435 942Q418 921 394 894T341 839T288 790H259V797Q280 817 305 844T352 900T389 950H435V942Z" />
<glyph unicode="&#xca;" glyph-name="Ecircumflex" horiz-adv-x="551" d="M490 0H102V714H490V678H141V394H470V358H141V36H490V0ZM323 948Q335 927 355 900T398 845T439 797V790H410Q383 815 355 847T305 908Q283 880 255 848T199 790H170V797Q189 817 211 844T254
899T287 948H323Z" />
<glyph unicode="&#xcb;" glyph-name="Edieresis" horiz-adv-x="551" d="M490 0H102V714H490V678H141V394H470V358H141V36H490V0ZM184 863Q184 878 190 887T212 897Q229 897 235 888T241 863Q241 847 235 838T212 828Q197 828 191 837T184 863ZM369 863Q369 878
375 887T397 897Q414 897 420 888T426 863Q426 847 420 838T397 828Q382 828 376 837T369 863Z" />
<glyph unicode="&#xcc;" glyph-name="Igrave" horiz-adv-x="294" d="M238 0H57V27L128 33V680L57 688V714H238V688L167 680V33L238 27V0ZM99 950Q113 928 135 900T183 845T230 797V790H201Q175 811 147 838T95 893T54 942V950H99Z" />
<glyph unicode="&#xcd;" glyph-name="Iacute" horiz-adv-x="294" d="M238 0H57V27L128 33V680L57 688V714H238V688L167 680V33L238 27V0ZM278 942Q261 921 237 894T184 839T131 790H102V797Q123 817 148 844T195 900T232 950H278V942Z" />
<glyph unicode="&#xce;" glyph-name="Icircumflex" horiz-adv-x="294" d="M238 0H57V27L128 33V680L57 688V714H238V688L167 680V33L238 27V0ZM166 948Q178 927 198 900T241 845T282 797V790H253Q226 815 198 847T148 908Q126 880 98 848T42 790H13V797Q32 817
54 844T97 899T130 948H166Z" />
<glyph unicode="&#xcf;" glyph-name="Idieresis" horiz-adv-x="294" d="M238 0H57V27L128 33V680L57 688V714H238V688L167 680V33L238 27V0ZM27 863Q27 878 33 887T55 897Q72 897 78 888T84 863Q84 847 78 838T55 828Q40 828 34 837T27 863ZM212 863Q212 878 218
887T240 897Q257 897 263 888T269 863Q269 847 263 838T240 828Q225 828 219 837T212 863Z" />
<glyph unicode="&#xd0;" glyph-name="Eth" horiz-adv-x="700" d="M288 714Q461 714 548 625T636 364Q636 184 543 92T265 0H103V337H20V373H103V714H288ZM277 678H142V373H343V337H142V36H265Q596 36 596 363Q596 518 519 598T277 678Z" />
<glyph unicode="&#xd1;" glyph-name="Ntilde" horiz-adv-x="711" d="M608 0H572L139 642H137Q138 601 138 563T139 481V0H102V714H139L570 74H572Q572 108 571 151T570 231V714H608V0ZM189 800Q193 851 217 877T282 904Q306 904 325 893T360 868T393 843T429 832Q452
832 469 846T492 904H523Q518 853 493 826T428 799Q403 799 385 810T350 835T318 859T280 870Q259 870 242 856T219 800H189Z" />
<glyph unicode="&#xd2;" glyph-name="Ograve" horiz-adv-x="759" d="M696 358Q696 250 661 167T556 37T379 -10Q274 -10 204 37T98 167T63 359Q63 467 99 549T208 678T384 725Q534 725 615 628T696 358ZM103 359Q103 261 133 186T224 69T380 26Q474 26 535 68T625
184T655 358Q655 515 586 602T384 689Q289 689 227 647T134 531T103 359ZM332 950Q346 928 368 900T416 845T463 797V790H434Q408 811 380 838T328 893T287 942V950H332Z" />
<glyph unicode="&#xd3;" glyph-name="Oacute" horiz-adv-x="759" d="M696 358Q696 250 661 167T556 37T379 -10Q274 -10 204 37T98 167T63 359Q63 467 99 549T208 678T384 725Q534 725 615 628T696 358ZM103 359Q103 261 133 186T224 69T380 26Q474 26 535 68T625
184T655 358Q655 515 586 602T384 689Q289 689 227 647T134 531T103 359ZM510 942Q493 921 469 894T416 839T363 790H334V797Q355 817 380 844T427 900T464 950H510V942Z" />
<glyph unicode="&#xd4;" glyph-name="Ocircumflex" horiz-adv-x="759" d="M696 358Q696 250 661 167T556 37T379 -10Q274 -10 204 37T98 167T63 359Q63 467 99 549T208 678T384 725Q534 725 615 628T696 358ZM103 359Q103 261 133 186T224 69T380 26Q474 26 535
68T625 184T655 358Q655 515 586 602T384 689Q289 689 227 647T134 531T103 359ZM398 948Q410 927 430 900T473 845T514 797V790H485Q458 815 430 847T380 908Q358 880 330 848T274 790H245V797Q264 817 286 844T329 899T362 948H398Z" />
<glyph unicode="&#xd5;" glyph-name="Otilde" horiz-adv-x="759" d="M696 358Q696 250 661 167T556 37T379 -10Q274 -10 204 37T98 167T63 359Q63 467 99 549T208 678T384 725Q534 725 615 628T696 358ZM103 359Q103 261 133 186T224 69T380 26Q474 26 535 68T625
184T655 358Q655 515 586 602T384 689Q289 689 227 647T134 531T103 359ZM214 800Q218 851 242 877T307 904Q331 904 350 893T385 868T418 843T454 832Q477 832 494 846T517 904H548Q543 853 518 826T453 799Q428 799 410 810T375 835T343 859T305 870Q284 870
267 856T244 800H214Z" />
<glyph unicode="&#xd6;" glyph-name="Odieresis" horiz-adv-x="759" d="M696 358Q696 250 661 167T556 37T379 -10Q274 -10 204 37T98 167T63 359Q63 467 99 549T208 678T384 725Q534 725 615 628T696 358ZM103 359Q103 261 133 186T224 69T380 26Q474 26 535
68T625 184T655 358Q655 515 586 602T384 689Q289 689 227 647T134 531T103 359ZM259 863Q259 878 265 887T287 897Q304 897 310 888T316 863Q316 847 310 838T287 828Q272 828 266 837T259 863ZM444 863Q444 878 450 887T472 897Q489 897 495 888T501 863Q501
847 495 838T472 828Q457 828 451 837T444 863Z" />
<glyph unicode="&#xd7;" glyph-name="multiply" horiz-adv-x="570" d="M477 568L500 545L309 353L500 161L477 138L285 329L94 138L70 161L261 353L70 544L94 568L285 377L477 568Z" />
<glyph unicode="&#xd8;" glyph-name="Oslash" horiz-adv-x="759" d="M696 358Q696 250 661 167T556 37T379 -10Q316 -10 266 7T178 58L116 -27L87 -7L152 81Q108 131 86 202T63 359Q63 467 99 549T208 678T384 725Q443 725 491 709T577 663L634 741L663 721L604
640Q648 593 672 522T696 358ZM103 359Q103 283 121 221T175 114L555 633Q523 660 480 674T384 689Q289 689 227 647T134 531T103 359ZM655 358Q655 522 580 608L200 88Q233 59 278 43T380 26Q474 26 535 68T625 184T655 358Z" />
<glyph unicode="&#xd9;" glyph-name="Ugrave" horiz-adv-x="716" d="M622 252Q622 123 550 57T356 -10Q231 -10 163 58T94 254V714H133V255Q133 142 191 84T358 26Q463 26 523 82T584 246V714H622V252ZM310 950Q324 928 346 900T394 845T441 797V790H412Q386 811
358 838T306 893T265 942V950H310Z" />
<glyph unicode="&#xda;" glyph-name="Uacute" horiz-adv-x="716" d="M622 252Q622 123 550 57T356 -10Q231 -10 163 58T94 254V714H133V255Q133 142 191 84T358 26Q463 26 523 82T584 246V714H622V252ZM488 942Q471 921 447 894T394 839T341 790H312V797Q333 817
358 844T405 900T442 950H488V942Z" />
<glyph unicode="&#xdb;" glyph-name="Ucircumflex" horiz-adv-x="716" d="M622 252Q622 123 550 57T356 -10Q231 -10 163 58T94 254V714H133V255Q133 142 191 84T358 26Q463 26 523 82T584 246V714H622V252ZM376 948Q388 927 408 900T451 845T492 797V790H463Q436
815 408 847T358 908Q336 880 308 848T252 790H223V797Q242 817 264 844T307 899T340 948H376Z" />
<glyph unicode="&#xdc;" glyph-name="Udieresis" horiz-adv-x="716" d="M622 252Q622 123 550 57T356 -10Q231 -10 163 58T94 254V714H133V255Q133 142 191 84T358 26Q463 26 523 82T584 246V714H622V252ZM237 863Q237 878 243 887T265 897Q282 897 288 888T294
863Q294 847 288 838T265 828Q250 828 244 837T237 863ZM422 863Q422 878 428 887T450 897Q467 897 473 888T479 863Q479 847 473 838T450 828Q435 828 429 837T422 863Z" />
<glyph unicode="&#xdd;" glyph-name="Yacute" horiz-adv-x="517" d="M259 314L474 714H517L279 275V0H240V271L0 714H44L259 314ZM389 942Q372 921 348 894T295 839T242 790H213V797Q234 817 259 844T306 900T343 950H389V942Z" />
<glyph unicode="&#xde;" glyph-name="Thorn" horiz-adv-x="580" d="M525 382Q525 276 457 223T258 169H141V0H102V714H141V584H281Q405 584 465 535T525 382ZM253 205Q325 205 377 221T457 276T485 381Q485 469 435 508T274 548H141V205H253Z" />
<glyph unicode="&#xdf;" glyph-name="germandbls" horiz-adv-x="570" d="M456 632Q456 595 442 572T408 532T367 500T332 466T318 418Q318 382 341 360T411 306Q441 286 465 265T505 213T520 138Q520 74 477 32T350 -10Q303 -10 272 -2T214 18V57Q245 42 278 33T349
24Q415 24 448 55T481 137Q481 190 455 220T387 279Q355 301 331 320T293 362T279 417Q279 452 293 474T327 512T368 543T402 578T416 631Q416 678 383 704T287 730Q127 730 127 567V0H88V567Q88 665 140 715T287 765Q367 765 411 729T456 632Z" />
<glyph unicode="&#xe0;" glyph-name="agrave" horiz-adv-x="521" d="M269 539Q354 539 396 495T439 353V0H408L401 98H399Q375 52 332 21T209 -10Q131 -10 90 28T48 133Q48 212 113 252T300 299L400 305V345Q400 431 367 467T268 504Q191 504 111 464L99 498Q137
516 180 527T269 539ZM304 268Q202 263 145 231T88 133Q88 81 121 53T213 24Q307 24 353 77T400 219V272L304 268ZM213 766Q227 744 249 716T297 661T344 613V606H315Q289 627 261 654T209 709T168 758V766H213Z" />
<glyph unicode="&#xe1;" glyph-name="aacute" horiz-adv-x="521" d="M269 539Q354 539 396 495T439 353V0H408L401 98H399Q375 52 332 21T209 -10Q131 -10 90 28T48 133Q48 212 113 252T300 299L400 305V345Q400 431 367 467T268 504Q191 504 111 464L99 498Q137
516 180 527T269 539ZM304 268Q202 263 145 231T88 133Q88 81 121 53T213 24Q307 24 353 77T400 219V272L304 268ZM391 758Q374 737 350 710T297 655T244 606H215V613Q236 633 261 660T308 716T345 766H391V758Z" />
<glyph unicode="&#xe2;" glyph-name="acircumflex" horiz-adv-x="521" d="M269 539Q354 539 396 495T439 353V0H408L401 98H399Q375 52 332 21T209 -10Q131 -10 90 28T48 133Q48 212 113 252T300 299L400 305V345Q400 431 367 467T268 504Q191 504 111 464L99
498Q137 516 180 527T269 539ZM304 268Q202 263 145 231T88 133Q88 81 121 53T213 24Q307 24 353 77T400 219V272L304 268ZM279 764Q291 743 311 716T354 661T395 613V606H366Q339 631 311 663T261 724Q239 696 211 664T155 606H126V613Q145 633 167 660T210 715T243
764H279Z" />
<glyph unicode="&#xe3;" glyph-name="atilde" horiz-adv-x="521" d="M269 539Q354 539 396 495T439 353V0H408L401 98H399Q375 52 332 21T209 -10Q131 -10 90 28T48 133Q48 212 113 252T300 299L400 305V345Q400 431 367 467T268 504Q191 504 111 464L99 498Q137
516 180 527T269 539ZM304 268Q202 263 145 231T88 133Q88 81 121 53T213 24Q307 24 353 77T400 219V272L304 268ZM95 616Q99 667 123 693T188 720Q212 720 231 709T266 684T299 659T335 648Q358 648 375 662T398 720H429Q424 669 399 642T334 615Q309 615 291
626T256 651T224 675T186 686Q165 686 148 672T125 616H95Z" />
<glyph unicode="&#xe4;" glyph-name="adieresis" horiz-adv-x="521" d="M269 539Q354 539 396 495T439 353V0H408L401 98H399Q375 52 332 21T209 -10Q131 -10 90 28T48 133Q48 212 113 252T300 299L400 305V345Q400 431 367 467T268 504Q191 504 111 464L99 498Q137
516 180 527T269 539ZM304 268Q202 263 145 231T88 133Q88 81 121 53T213 24Q307 24 353 77T400 219V272L304 268ZM396 679Q396 694 402 703T424 713Q441 713 447 704T453 679Q453 663 447 654T424 644Q409 644 403 653T396 679ZM581 679Q581 694 587 703T609 713Q626
713 632 704T638 679Q638 663 632 654T609 644Q594 644 588 653T581 679Z" />
<glyph unicode="&#xe5;" glyph-name="aring" horiz-adv-x="521" d="M269 539Q354 539 396 495T439 353V0H408L401 98H399Q375 52 332 21T209 -10Q131 -10 90 28T48 133Q48 212 113 252T300 299L400 305V345Q400 431 367 467T268 504Q191 504 111 464L99 498Q137
516 180 527T269 539ZM304 268Q202 263 145 231T88 133Q88 81 121 53T213 24Q307 24 353 77T400 219V272L304 268ZM261 610Q218 610 188 637T158 711Q158 755 188 783T261 812Q303 812 333 783T363 711Q363 666 333 638T261 610ZM261 639Q293 639 313 660T333 711Q333
742 312 762T261 783Q229 783 209 763T188 711Q188 681 208 660T261 639Z" />
<glyph unicode="&#xe6;" glyph-name="ae" horiz-adv-x="853" d="M604 540Q668 540 711 508T775 420T794 294V263H429Q428 147 477 86T615 25Q660 25 694 32T773 61V23Q699 -10 615 -10Q534 -10 483 30T410 136Q389 70 342 30T211 -10Q132 -10 90 28T48 133Q48
212 113 252T295 299L390 305V346Q390 431 357 467T262 504Q188 504 108 464L96 498Q135 517 177 528T264 539Q332 539 370 506T419 399Q442 461 488 500T604 540ZM604 505Q534 505 486 452T430 297H753Q754 390 717 447T604 505ZM299 268Q200 263 144 231T88 133Q88
81 121 53T214 24Q301 24 344 77T389 219V272L299 268Z" />
<glyph unicode="&#xe7;" glyph-name="ccedilla" horiz-adv-x="474" d="M302 -10Q220 -10 166 24T85 119T58 262Q58 346 89 408T179 505T316 540Q353 540 384 534T443 515L434 480Q405 492 375 498T316 504Q248 504 199 474T124 390T98 262Q98 195 119 142T186
57T301 25Q339 25 374 32T438 52V17Q413 5 379 -2T302 -10ZM363 -144Q363 -188 330 -214T242 -240Q208 -240 187 -234V-204Q199 -207 212 -208T243 -210Q281 -210 304 -194T328 -145Q328 -87 228 -85L271 0H303L272 -63Q313 -66 338 -86T363 -144Z" />
<glyph unicode="&#xe8;" glyph-name="egrave" horiz-adv-x="545" d="M288 540Q356 540 399 508T464 420T486 294V263H98Q97 148 149 87T300 25Q349 25 384 32T465 61V23Q426 6 388 -2T299 -10Q218 -10 165 24T85 119T58 260Q58 337 84 400T161 502T288 540ZM288
505Q208 505 158 452T99 297H446Q446 390 407 447T288 505ZM225 766Q239 744 261 716T309 661T356 613V606H327Q301 627 273 654T221 709T180 758V766H225Z" />
<glyph unicode="&#xe9;" glyph-name="eacute" horiz-adv-x="545" d="M288 540Q356 540 399 508T464 420T486 294V263H98Q97 148 149 87T300 25Q349 25 384 32T465 61V23Q426 6 388 -2T299 -10Q218 -10 165 24T85 119T58 260Q58 337 84 400T161 502T288 540ZM288
505Q208 505 158 452T99 297H446Q446 390 407 447T288 505ZM403 758Q386 737 362 710T309 655T256 606H227V613Q248 633 273 660T320 716T357 766H403V758Z" />
<glyph unicode="&#xea;" glyph-name="ecircumflex" horiz-adv-x="545" d="M288 540Q356 540 399 508T464 420T486 294V263H98Q97 148 149 87T300 25Q349 25 384 32T465 61V23Q426 6 388 -2T299 -10Q218 -10 165 24T85 119T58 260Q58 337 84 400T161 502T288 540ZM288
505Q208 505 158 452T99 297H446Q446 390 407 447T288 505ZM291 764Q303 743 323 716T366 661T407 613V606H378Q351 631 323 663T273 724Q251 696 223 664T167 606H138V613Q157 633 179 660T222 715T255 764H291Z" />
<glyph unicode="&#xeb;" glyph-name="edieresis" horiz-adv-x="545" d="M288 540Q356 540 399 508T464 420T486 294V263H98Q97 148 149 87T300 25Q349 25 384 32T465 61V23Q426 6 388 -2T299 -10Q218 -10 165 24T85 119T58 260Q58 337 84 400T161 502T288 540ZM288
505Q208 505 158 452T99 297H446Q446 390 407 447T288 505ZM408 679Q408 694 414 703T436 713Q453 713 459 704T465 679Q465 663 459 654T436 644Q421 644 415 653T408 679ZM593 679Q593 694 599 703T621 713Q638 713 644 704T650 679Q650 663 644 654T621 644Q606
644 600 653T593 679Z" />
<glyph unicode="&#xec;" glyph-name="igrave" horiz-adv-x="217" d="M128 0H89V530H128V0ZM317 766Q331 744 353 716T401 661T448 613V606H419Q393 627 365 654T313 709T272 758V766H317Z" />
<glyph unicode="&#xed;" glyph-name="iacute" horiz-adv-x="217" d="M128 0H89V530H128V0ZM239 758Q222 737 198 710T145 655T92 606H63V613Q84 633 109 660T156 716T193 766H239V758Z" />
<glyph unicode="&#xee;" glyph-name="icircumflex" horiz-adv-x="217" d="M128 0H89V530H128V0ZM383 764Q395 743 415 716T458 661T499 613V606H470Q443 631 415 663T365 724Q343 696 315 664T259 606H230V613Q249 633 271 660T314 715T347 764H383Z" />
<glyph unicode="&#xef;" glyph-name="idieresis" horiz-adv-x="217" d="M128 0H89V530H128V0ZM-12 679Q-12 694 -6 703T16 713Q33 713 39 704T45 679Q45 663 39 654T16 644Q1 644 -5 653T-12 679ZM173 679Q173 694 179 703T201 713Q218 713 224 704T230 679Q230
663 224 654T201 644Q186 644 180 653T173 679Z" />
<glyph unicode="&#xf0;" glyph-name="eth" horiz-adv-x="564" d="M206 759Q277 726 325 687L435 754L454 726L351 665Q428 589 467 489T506 273Q506 192 481 128T405 27T279 -10Q174 -10 116 54T57 225Q57 300 86 354T165 437T281 467Q348 467 388 447T453 396H456Q441
465 406 531T319 646L190 569L172 596L292 668Q271 685 244 701T189 730L206 759ZM284 432Q201 432 149 378T96 224Q96 129 145 77T280 25Q369 25 417 89T466 278Q466 302 458 328T429 378T374 417T284 432Z" />
<glyph unicode="&#xf1;" glyph-name="ntilde" horiz-adv-x="582" d="M316 540Q404 540 451 493T499 347V0H460V345Q460 428 422 466T313 505Q226 505 177 454T128 297V0H89V530H120L126 426H129Q148 471 193 505T316 540ZM125 616Q129 667 153 693T218 720Q242
720 261 709T296 684T329 659T365 648Q388 648 405 662T428 720H459Q454 669 429 642T364 615Q339 615 321 626T286 651T254 675T216 686Q195 686 178 672T155 616H125Z" />
<glyph unicode="&#xf2;" glyph-name="ograve" horiz-adv-x="581" d="M522 265Q522 185 497 123T419 26T289 -10Q214 -10 163 25T85 122T58 265Q58 392 120 466T294 540Q373 540 423 504T497 406T522 265ZM98 265Q98 158 145 92T289 25Q356 25 399 55T462 140T482
265Q482 333 463 387T403 473T294 505Q199 505 149 442T98 265ZM243 766Q257 744 279 716T327 661T374 613V606H345Q319 627 291 654T239 709T198 758V766H243Z" />
<glyph unicode="&#xf3;" glyph-name="oacute" horiz-adv-x="581" d="M522 265Q522 185 497 123T419 26T289 -10Q214 -10 163 25T85 122T58 265Q58 392 120 466T294 540Q373 540 423 504T497 406T522 265ZM98 265Q98 158 145 92T289 25Q356 25 399 55T462 140T482
265Q482 333 463 387T403 473T294 505Q199 505 149 442T98 265ZM421 758Q404 737 380 710T327 655T274 606H245V613Q266 633 291 660T338 716T375 766H421V758Z" />
<glyph unicode="&#xf4;" glyph-name="ocircumflex" horiz-adv-x="581" d="M522 265Q522 185 497 123T419 26T289 -10Q214 -10 163 25T85 122T58 265Q58 392 120 466T294 540Q373 540 423 504T497 406T522 265ZM98 265Q98 158 145 92T289 25Q356 25 399 55T462
140T482 265Q482 333 463 387T403 473T294 505Q199 505 149 442T98 265ZM309 764Q321 743 341 716T384 661T425 613V606H396Q369 631 341 663T291 724Q269 696 241 664T185 606H156V613Q175 633 197 660T240 715T273 764H309Z" />
<glyph unicode="&#xf5;" glyph-name="otilde" horiz-adv-x="581" d="M522 265Q522 185 497 123T419 26T289 -10Q214 -10 163 25T85 122T58 265Q58 392 120 466T294 540Q373 540 423 504T497 406T522 265ZM98 265Q98 158 145 92T289 25Q356 25 399 55T462 140T482
265Q482 333 463 387T403 473T294 505Q199 505 149 442T98 265ZM125 616Q129 667 153 693T218 720Q242 720 261 709T296 684T329 659T365 648Q388 648 405 662T428 720H459Q454 669 429 642T364 615Q339 615 321 626T286 651T254 675T216 686Q195 686 178 672T155
616H125Z" />
<glyph unicode="&#xf6;" glyph-name="odieresis" horiz-adv-x="581" d="M522 265Q522 185 497 123T419 26T289 -10Q214 -10 163 25T85 122T58 265Q58 392 120 466T294 540Q373 540 423 504T497 406T522 265ZM98 265Q98 158 145 92T289 25Q356 25 399 55T462 140T482
265Q482 333 463 387T403 473T294 505Q199 505 149 442T98 265ZM170 679Q170 694 176 703T198 713Q215 713 221 704T227 679Q227 663 221 654T198 644Q183 644 177 653T170 679ZM355 679Q355 694 361 703T383 713Q400 713 406 704T412 679Q412 663 406 654T383
644Q368 644 362 653T355 679Z" />
<glyph unicode="&#xf7;" glyph-name="divide" horiz-adv-x="570" d="M284 492Q268 492 261 502T253 529Q253 546 260 556T284 566Q303 566 310 556T317 529Q317 513 310 503T284 492ZM54 336V370H516V336H54ZM284 139Q268 139 261 149T253 176Q253 193 260 203T284
213Q303 213 310 203T317 176Q317 160 310 150T284 139Z" />
<glyph unicode="&#xf8;" glyph-name="oslash" horiz-adv-x="581" d="M522 265Q522 185 497 123T419 26T289 -10Q240 -10 203 5T137 48L76 -28L49 -8L113 73Q58 147 58 265Q58 392 120 466T294 540Q341 540 377 527T440 488L494 557L521 537L464 465Q493 428 507
377T522 265ZM98 265Q98 165 137 104L417 460Q395 481 365 493T294 505Q199 505 149 442T98 265ZM482 265Q482 315 472 358T440 433L159 76Q182 52 214 39T289 25Q356 25 399 55T462 140T482 265Z" />
<glyph unicode="&#xf9;" glyph-name="ugrave" horiz-adv-x="582" d="M492 530V0H460L454 103H452Q433 58 388 24T264 -10Q81 -10 81 183V530H120V187Q120 103 158 64T267 25Q354 25 403 76T453 232V530H492ZM243 766Q257 744 279 716T327 661T374 613V606H345Q319
627 291 654T239 709T198 758V766H243Z" />
<glyph unicode="&#xfa;" glyph-name="uacute" horiz-adv-x="582" d="M492 530V0H460L454 103H452Q433 58 388 24T264 -10Q81 -10 81 183V530H120V187Q120 103 158 64T267 25Q354 25 403 76T453 232V530H492ZM422 758Q405 737 381 710T328 655T275 606H246V613Q267
633 292 660T339 716T376 766H422V758Z" />
<glyph unicode="&#xfb;" glyph-name="ucircumflex" horiz-adv-x="582" d="M492 530V0H460L454 103H452Q433 58 388 24T264 -10Q81 -10 81 183V530H120V187Q120 103 158 64T267 25Q354 25 403 76T453 232V530H492ZM310 764Q322 743 342 716T385 661T426 613V606H397Q370
631 342 663T292 724Q270 696 242 664T186 606H157V613Q176 633 198 660T241 715T274 764H310Z" />
<glyph unicode="&#xfc;" glyph-name="udieresis" horiz-adv-x="582" d="M492 530V0H460L454 103H452Q433 58 388 24T264 -10Q81 -10 81 183V530H120V187Q120 103 158 64T267 25Q354 25 403 76T453 232V530H492ZM171 679Q171 694 177 703T199 713Q216 713 222 704T228
679Q228 663 222 654T199 644Q184 644 178 653T171 679ZM356 679Q356 694 362 703T384 713Q401 713 407 704T413 679Q413 663 407 654T384 644Q369 644 363 653T356 679Z" />
<glyph unicode="&#xfd;" glyph-name="yacute" horiz-adv-x="445" d="M0 530H41L174 184Q191 138 203 104T223 47H225Q232 69 244 103T273 181L405 530H446L201 -107Q175 -174 143 -208T55 -242Q25 -242 -3 -233V-198Q11 -202 23 -205T52 -208Q92 -208 117 -182T166
-96L204 4L0 530ZM353 758Q336 737 312 710T259 655T206 606H177V613Q198 633 223 660T270 716T307 766H353V758Z" />
<glyph unicode="&#xfe;" glyph-name="thorn" horiz-adv-x="590" d="M533 269Q533 135 474 63T311 -10Q235 -10 191 24T128 106H126Q127 77 127 45T128 -15V-234H90V760H128V527Q128 505 128 473T126 418H129Q147 466 193 503T318 540Q422 540 477 471T533 269ZM493
269Q493 505 315 505Q222 505 176 444T129 270V263Q129 142 175 84T308 25Q396 25 444 87T493 269Z" />
<glyph unicode="&#xff;" glyph-name="ydieresis" horiz-adv-x="445" d="M0 530H41L174 184Q191 138 203 104T223 47H225Q232 69 244 103T273 181L405 530H446L201 -107Q175 -174 143 -208T55 -242Q25 -242 -3 -233V-198Q11 -202 23 -205T52 -208Q92 -208 117 -182T166
-96L204 4L0 530ZM358 679Q358 694 364 703T386 713Q403 713 409 704T415 679Q415 663 409 654T386 644Q371 644 365 653T358 679ZM543 679Q543 694 549 703T571 713Q588 713 594 704T600 679Q600 663 594 654T571 644Q556 644 550 653T543 679Z" />
<glyph unicode="&#x2013;" glyph-name="endash" horiz-adv-x="500" d="M40 253V289H460V253H40Z" />
<glyph unicode="&#x2014;" glyph-name="emdash" horiz-adv-x="1000" d="M40 253V289H960V253H40Z" />
<glyph unicode="&#x2018;" glyph-name="quoteleft" horiz-adv-x="137" d="M20 478Q30 538 50 600T95 714H122Q107 678 95 635T74 549T61 469H26L20 478Z" />
<glyph unicode="&#x2019;" glyph-name="quoteright" horiz-adv-x="137" d="M117 705Q107 645 87 583T42 469H15Q29 505 41 548T63 634T76 714H111L117 705Z" />
<glyph unicode="&#x201a;" glyph-name="quotesinglbase" horiz-adv-x="212" d="M136 107Q126 47 106 -15T61 -129H34Q48 -93 60 -50T82 36T95 116H130L136 107Z" />
<glyph unicode="&#x201c;" glyph-name="quotedblleft" horiz-adv-x="284" d="M269 714Q255 678 243 635T221 548T209 469H173L167 478Q177 538 197 600T242 714H269ZM121 714Q107 678 95 635T74 548T61 469H26L20 478Q30 538 50 600T95 714H121Z" />
<glyph unicode="&#x201d;" glyph-name="quotedblright" horiz-adv-x="284" d="M264 705Q254 645 234 583T189 469H162Q177 505 189 548T210 634T223 714H258L264 705ZM117 705Q107 645 87 583T42 469H15Q29 505 41 548T63 634T75 714H110L117 705Z" />
<glyph unicode="&#x201e;" glyph-name="quotedblbase" horiz-adv-x="363" d="M283 107Q273 47 253 -15T208 -129H181Q196 -93 208 -50T229 36T242 116H277L283 107ZM136 107Q126 47 106 -15T61 -129H34Q48 -93 60 -50T82 36T94 116H129L136 107Z" />
<glyph unicode="&#x2022;" glyph-name="bullet" horiz-adv-x="376" d="M123 365Q123 402 139 422T188 443Q220 443 237 422T254 365Q254 331 237 309T188 287Q156 287 140 308T123 365Z" />
<glyph unicode="&#x2039;" glyph-name="guilsinglleft" horiz-adv-x="238" d="M29 282L184 472L210 455L72 276L210 97L184 81L29 269V282Z" />
<glyph unicode="&#x203a;" glyph-name="guilsinglright" horiz-adv-x="238" d="M54 472L209 284V271L54 81L29 98L166 277L29 456L54 472Z" />
</font>
</defs>
</svg>
