<?xml version="1.0" standalone="no"?>
<!DOCTYPE svg PUBLIC "-//W3C//DTD SVG 1.1//EN" "http://www.w3.org/Graphics/SVG/1.1/DTD/svg11.dtd">
<svg xmlns="http://www.w3.org/2000/svg">
<defs >
<font id="NotoSans" horiz-adv-x="628" ><font-face
    font-family="Noto Sans ExtraBold"
    units-per-em="1000"
    panose-1="2 11 9 2 4 5 4 2 2 4"
    ascent="1069"
    descent="-293"
    alphabetic="0" />
<glyph unicode=" " glyph-name="space" horiz-adv-x="260" />
<glyph unicode="!" glyph-name="exclam" horiz-adv-x="288" d="M214 244H75L50 714H239L214 244ZM50 75Q50 124 77 143T144 163Q182 163 209 144T236 75Q236 28 209 8T144 -13Q105 -13 78 7T50 75Z" />
<glyph unicode="&quot;" glyph-name="quotedbl" horiz-adv-x="496" d="M216 714L196 456H82L62 714H216ZM434 714L414 456H300L280 714H434Z" />
<glyph unicode="#" glyph-name="numbersign" horiz-adv-x="653" d="M498 405L478 306H601V195H458L420 0H302L339 195H250L214 0H98L133 195H20V306H155L174 405H54V519H195L231 713H349L312 519H402L439 713H556L519 519H633V405H498ZM272 306H361L380 405H291L272 306Z" />
<glyph unicode="$" glyph-name="dollar" horiz-adv-x="574" d="M248 32Q183 33 134 44T43 73V213Q87 193 143 178T248 160V298Q178 323 131 350T59 414T35 507Q35 590 94 635T248 687V759H326V689Q385 686 434 674T528 643L483 520Q445 536 405 545T326 559V425Q388
405 437 382T514 322T543 226Q543 150 490 97T326 34V-58H248V32ZM248 557Q189 550 189 511Q189 491 202 478T248 452V557ZM326 163Q388 173 388 215Q388 235 374 248T326 274V163Z" />
<glyph unicode="%" glyph-name="percent" horiz-adv-x="923" d="M199 724Q283 724 330 666T377 501Q377 395 333 336T199 276Q117 276 71 335T25 501Q25 607 68 665T199 724ZM723 714L327 0H197L593 714H723ZM201 614Q178 614 169 585T159 500Q159 444 168 414T201
384Q224 384 233 414T243 500Q243 555 234 584T201 614ZM719 439Q803 439 850 381T897 216Q897 111 853 51T719 -9Q637 -9 591 51T545 216Q545 322 588 380T719 439ZM721 330Q698 330 689 301T679 215Q679 160 688 130T721 100Q743 100 753 129T763 215Q763 330
721 330Z" />
<glyph unicode="&amp;" glyph-name="ampersand" horiz-adv-x="773" d="M319 724Q412 724 470 682T528 562Q528 496 489 450T391 369L511 254Q529 284 543 319T566 391H741Q726 327 696 262T624 146L775 0H562L510 53Q467 25 419 8T297 -10Q214 -10 157 16T69 89T38
195Q38 266 72 313T170 395Q135 435 119 473T102 556Q102 631 160 677T319 724ZM317 604Q295 604 276 592T256 548Q256 525 268 504T301 462Q336 482 355 504T374 553Q374 580 357 592T317 604ZM264 298Q239 280 226 258T213 209Q213 172 240 150T310 127Q341 127
365 135T408 155L264 298Z" />
<glyph unicode="&apos;" glyph-name="quotesingle" horiz-adv-x="278" d="M216 714L196 456H82L62 714H216Z" />
<glyph unicode="(" glyph-name="parenleft" horiz-adv-x="348" d="M38 279Q38 401 71 516T181 723H320Q252 629 219 514T186 280Q186 163 218 49T319 -158H181Q105 -70 72 44T38 279Z" />
<glyph unicode=")" glyph-name="parenright" horiz-adv-x="348" d="M310 279Q310 158 277 44T168 -158H30Q97 -66 130 48T163 280Q163 398 130 513T29 723H168Q243 632 276 517T310 279Z" />
<glyph unicode="*" glyph-name="asterisk" horiz-adv-x="541" d="M339 760L320 584L498 634L515 501L355 490L460 349L342 286L269 433L205 287L82 349L186 490L27 503L47 634L222 584L202 760H339Z" />
<glyph unicode="+" glyph-name="plus" horiz-adv-x="578" d="M348 412H534V293H348V111H230V293H44V412H230V596H348V412Z" />
<glyph unicode="," glyph-name="comma" horiz-adv-x="296" d="M236 119Q227 83 213 38T183 -52T150 -134H30Q44 -70 57 2T78 130H229L236 119Z" />
<glyph unicode="-" glyph-name="hyphen" horiz-adv-x="320" d="M26 200V336H294V200H26Z" />
<glyph unicode="." glyph-name="period" horiz-adv-x="287" d="M50 75Q50 124 77 143T144 163Q182 163 209 144T236 75Q236 28 209 8T144 -13Q105 -13 78 7T50 75Z" />
<glyph unicode="/" glyph-name="slash" horiz-adv-x="426" d="M423 719L157 -5H6L272 719H423Z" />
<glyph unicode="0" glyph-name="zero" horiz-adv-x="578" d="M542 357Q542 242 518 160T438 34T289 -10Q157 -10 97 87T36 357Q36 472 60 554T139 681T289 725Q419 725 480 628T542 357ZM205 357Q205 242 222 185T289 127Q337 127 355 184T373 357Q373 471 355
529T289 588Q239 588 222 530T205 357Z" />
<glyph unicode="1" glyph-name="one" horiz-adv-x="578" d="M435 0H263V385Q263 399 263 424T264 479T266 531Q258 521 244 508T218 484L136 417L51 523L288 714H435V0Z" />
<glyph unicode="2" glyph-name="two" horiz-adv-x="578" d="M543 0H35V115L212 294Q266 350 298 386T343 449T357 508Q357 545 335 563T278 581Q241 581 204 562T124 507L31 616Q62 644 97 668T179 708T294 724Q366 724 417 699T497 630T526 530Q526 469 503 421T435
324T325 216L251 148V142H543V0Z" />
<glyph unicode="3" glyph-name="three" horiz-adv-x="578" d="M517 556Q517 481 472 437T361 376V373Q447 363 492 321T538 206Q538 146 507 97T412 19T245 -10Q182 -10 132 0T36 29V172Q82 148 132 137T224 125Q300 125 329 149T359 217Q359 243 345 262T296
292T196 302H147V431H197Q258 431 291 442T338 472T351 517Q351 587 259 587Q209 587 171 569T112 538L37 653Q80 683 137 703T279 724Q389 724 453 680T517 556Z" />
<glyph unicode="4" glyph-name="four" horiz-adv-x="578" d="M562 143H480V0H313V143H17V265L323 714H480V273H562V143ZM313 376Q313 396 314 425T316 478T318 508H313Q304 487 295 471T273 434L166 273H313V376Z" />
<glyph unicode="5" glyph-name="five" horiz-adv-x="578" d="M311 462Q374 462 424 436T503 360T532 239Q532 121 461 56T245 -10Q124 -10 48 29V172Q85 153 137 140T235 126Q296 126 328 151T361 229Q361 276 329 301T229 327Q202 327 174 322T126 311L61 344L88
714H484V571H234L223 452Q239 455 257 458T311 462Z" />
<glyph unicode="6" glyph-name="six" horiz-adv-x="578" d="M35 303Q35 364 43 424T75 539T139 634T244 699T400 723Q421 723 450 721T499 715V581Q479 585 456 587T403 590Q322 590 277 565T212 494T190 387H196Q215 422 250 446T344 470Q438 470 492 410T546
241Q546 123 480 57T299 -10Q225 -10 165 23T70 126T35 303ZM296 126Q334 126 357 153T381 238Q381 284 361 311T298 338Q255 338 230 310T204 249Q204 220 214 192T244 145T296 126Z" />
<glyph unicode="7" glyph-name="seven" horiz-adv-x="578" d="M107 0L364 572H32V714H545V610L284 0H107Z" />
<glyph unicode="8" glyph-name="eight" horiz-adv-x="578" d="M290 723Q356 723 408 704T492 647T523 551Q523 486 487 445T397 377Q433 357 467 331T522 270T544 187Q544 99 478 45T289 -10Q162 -10 98 43T34 184Q34 258 72 301T168 373Q121 403 89 445T56 552Q56
608 87 646T172 704T290 723ZM289 600Q258 600 237 583T216 537Q216 506 237 485T289 449Q317 463 340 483T363 537Q363 566 342 583T289 600ZM191 193Q191 158 216 136T287 114Q338 114 362 134T387 190Q387 215 373 234T338 268T298 294L285 302Q244 282 218
256T191 193Z" />
<glyph unicode="9" glyph-name="nine" horiz-adv-x="578" d="M543 405Q543 320 526 245T467 112T355 23T178 -10Q157 -10 129 -9T81 -4V132Q101 128 122 126T169 123Q254 123 300 148T366 220T388 326H382Q362 291 329 267T231 243Q140 243 86 303T32 473Q32 590
98 656T279 723Q353 723 413 689T508 585T543 405ZM283 587Q244 587 220 560T196 475Q196 428 217 401T281 374Q322 374 348 402T374 463Q374 493 364 521T334 568T283 587Z" />
<glyph unicode=":" glyph-name="colon" horiz-adv-x="287" d="M50 470Q50 518 77 538T144 558Q182 558 209 538T236 470Q236 423 209 403T144 382Q105 382 78 402T50 470ZM50 75Q50 124 77 143T144 163Q182 163 209 144T236 75Q236 28 209 8T144 -13Q105 -13 78 7T50 75Z" />
<glyph unicode=";" glyph-name="semicolon" horiz-adv-x="291" d="M51 470Q51 518 78 538T145 558Q183 558 210 538T238 470Q238 423 211 403T145 382Q106 382 79 402T51 470ZM236 119Q227 83 213 38T183 -52T150 -134H30Q44 -70 57 2T78 130H229L236 119Z" />
<glyph unicode="&lt;" glyph-name="less" horiz-adv-x="578" d="M533 93L44 310V386L533 631V501L213 353L533 223V93Z" />
<glyph unicode="=" glyph-name="equal" horiz-adv-x="578" d="M44 396V513H534V396H44ZM44 191V309H534V191H44Z" />
<glyph unicode="&gt;" glyph-name="greater" horiz-adv-x="578" d="M44 223L364 353L44 501V631L533 386V310L44 93V223Z" />
<glyph unicode="?" glyph-name="question" horiz-adv-x="490" d="M139 283Q139 330 159 364T230 433Q277 465 293 486T310 535Q310 561 289 575T231 590Q191 590 149 577T62 540L2 659Q53 688 113 706T243 724Q351 724 410 675T469 547Q469 487 441 447T352 364Q308
334 293 316T278 271V244H139V283ZM121 75Q121 124 148 143T215 163Q252 163 279 144T307 75Q307 28 280 8T215 -13Q176 -13 149 7T121 75Z" />
<glyph unicode="@" glyph-name="at" horiz-adv-x="897" d="M852 363Q852 316 841 271T806 190T749 131T669 109Q632 109 603 125T558 170H550Q529 145 497 127T420 109Q329 109 282 163T234 305Q234 372 262 424T345 505T476 535Q524 535 573 526T652 507L642
302Q641 282 641 262Q641 229 650 218T672 206Q692 206 706 227T727 285T734 364Q734 483 665 550T478 618Q375 618 306 576T201 460T165 292Q165 164 234 93T439 21Q496 21 561 34T682 67V-35Q632 -56 572 -68T444 -80Q319 -80 230 -36T93 92T45 291Q45 381 75
459T162 595T298 685T476 718Q587 718 671 675T804 553T852 363ZM358 304Q358 252 378 229T433 206Q479 206 497 240T520 341L526 434Q515 436 505 437T481 438Q437 438 410 419T371 370T358 304Z" />
<glyph unicode="A" glyph-name="A" horiz-adv-x="707" d="M521 0L477 153H230L186 0H0L243 717H461L707 0H521ZM397 438Q392 456 384 486T367 549T353 603Q349 581 341 549T324 486T311 438L269 295H439L397 438Z" />
<glyph unicode="B" glyph-name="B" horiz-adv-x="673" d="M318 714Q467 714 537 671T607 534Q607 469 575 429T496 379V374Q528 367 557 350T604 298T623 208Q623 110 552 55T356 0H84V714H318ZM329 435Q386 435 409 455T432 511Q432 580 322 580H254V435H329ZM254
305V136H339Q399 136 422 160T446 223Q446 258 422 281T335 305H254Z" />
<glyph unicode="C" glyph-name="C" horiz-adv-x="643" d="M394 583Q316 583 273 522T230 355Q230 246 271 189T399 131Q444 131 488 142T581 172V28Q533 8 486 -1T382 -10Q268 -10 196 36T90 164T55 356Q55 464 94 547T209 677T395 724Q447 724 502 712T609 674L556
538Q516 556 476 569T394 583Z" />
<glyph unicode="D" glyph-name="D" horiz-adv-x="737" d="M682 368Q682 245 636 164T504 41T299 0H84V714H319Q489 714 585 626T682 368ZM506 362Q506 471 460 523T324 575H254V140H309Q410 140 458 195T506 362Z" />
<glyph unicode="E" glyph-name="E" horiz-adv-x="555" d="M501 0H84V714H501V576H254V439H483V301H254V140H501V0Z" />
<glyph unicode="F" glyph-name="F" horiz-adv-x="544" d="M252 0H84V714H499V576H252V414H481V276H252V0Z" />
<glyph unicode="G" glyph-name="G" horiz-adv-x="731" d="M362 409H657V32Q601 13 536 2T393 -10Q235 -10 145 82T55 358Q55 470 98 552T224 679T429 724Q490 724 547 712T649 680L594 545Q559 562 517 572T429 583Q364 583 320 554T253 473T231 355Q231 252 273
192T406 131Q431 131 454 134T494 140V272H362V409Z" />
<glyph unicode="H" glyph-name="H" horiz-adv-x="765" d="M681 0H511V300H255V0H84V714H255V441H511V714H681V0Z" />
<glyph unicode="I" glyph-name="I" horiz-adv-x="413" d="M380 0H33V97L121 134V580L33 617V714H380V617L292 580V134L380 97V0Z" />
<glyph unicode="J" glyph-name="J" horiz-adv-x="341" d="M18 -216Q-13 -216 -36 -213T-76 -206V-69Q-61 -72 -44 -75T-5 -79Q40 -79 63 -51T86 49V714H257V57Q257 -42 227 -102T142 -189T18 -216Z" />
<glyph unicode="K" glyph-name="K" horiz-adv-x="675" d="M675 0H481L316 288L255 248V0H84V714H255V395Q268 417 283 439T314 482L488 714H675L437 396L675 0Z" />
<glyph unicode="L" glyph-name="L" horiz-adv-x="573" d="M84 0V714H254V139H537V0H84Z" />
<glyph unicode="M" glyph-name="M" horiz-adv-x="954" d="M390 0L230 539H226Q227 519 229 482T234 401T236 322V0H84V714H314L473 186H477L641 714H870V0H712V326Q712 360 713 401T716 480T719 538H715L550 0H390Z" />
<glyph unicode="N" glyph-name="N" horiz-adv-x="823" d="M739 0H519L231 523H227Q229 480 231 428T236 330V0H84V714H303L590 197H593Q591 240 589 289T586 383V714H739V0Z" />
<glyph unicode="O" glyph-name="O" horiz-adv-x="796" d="M741 358Q741 247 705 165T593 36T398 -10Q280 -10 204 36T92 165T55 359Q55 470 91 552T204 679T399 725Q518 725 593 680T705 552T741 358ZM234 358Q234 253 272 193T398 133Q487 133 524 193T562 358Q562
463 525 523T399 584Q311 584 273 524T234 358Z" />
<glyph unicode="P" glyph-name="P" horiz-adv-x="630" d="M321 714Q458 714 523 655T589 489Q589 426 563 371T477 281T314 246H254V0H84V714H321ZM315 575H254V385H299Q350 385 383 408T417 484Q417 528 392 551T315 575Z" />
<glyph unicode="Q" glyph-name="Q" horiz-adv-x="796" d="M741 358Q741 242 702 156T575 26L748 -170H533L407 -10H398Q280 -10 204 36T92 165T55 359Q55 470 91 552T204 679T399 725Q518 725 593 680T705 552T741 358ZM234 358Q234 253 272 193T398 133Q487 133
524 193T562 358Q562 463 525 523T399 584Q311 584 273 524T234 358Z" />
<glyph unicode="R" glyph-name="R" horiz-adv-x="668" d="M304 714Q592 714 592 501Q592 432 556 385T464 311L673 0H482L321 268H254V0H84V714H304ZM297 580H254V401H297Q358 401 388 423T419 495Q419 538 390 559T297 580Z" />
<glyph unicode="S" glyph-name="S" horiz-adv-x="563" d="M526 207Q526 146 496 97T406 19T255 -10Q192 -10 142 1T45 34V189Q99 164 155 147T264 130Q313 130 335 148T357 195Q357 229 322 250T223 302Q181 321 142 347T77 414T52 518Q52 618 121 671T306 724Q368
724 421 710T525 674L471 541Q423 562 382 573T301 585Q260 585 240 568T220 525Q220 504 234 489T278 457T357 418Q410 394 448 366T506 301T526 207Z" />
<glyph unicode="T" glyph-name="T" horiz-adv-x="585" d="M377 0H207V573H22V714H562V573H377V0Z" />
<glyph unicode="U" glyph-name="U" horiz-adv-x="756" d="M677 267Q677 185 644 123T544 26T375 -10Q231 -10 155 64T79 266V714H250V285Q250 203 282 168T379 133Q446 133 476 169T507 286V714H677V267Z" />
<glyph unicode="V" glyph-name="V" horiz-adv-x="670" d="M670 714L431 0H238L0 714H183L299 318Q304 303 311 273T326 210T335 156Q338 177 344 209T358 271T370 317L488 714H670Z" />
<glyph unicode="W" glyph-name="W" horiz-adv-x="1000" d="M993 714L814 0H616L533 345Q530 355 526 377T516 425T507 475T501 516Q499 500 495 476T485 425T475 377T468 345L384 0H187L7 714H173L258 339Q263 318 270 283T283 212T293 151Q297 183 305 226T321
310T336 374L421 714H580L665 374Q669 357 675 329T687 269T698 205T707 151Q710 175 716 211T730 282T742 338L827 714H993Z" />
<glyph unicode="X" glyph-name="X" horiz-adv-x="693" d="M691 0H495L342 248L189 0H1L238 367L15 714H204L347 474L485 714H674L450 355L691 0Z" />
<glyph unicode="Y" glyph-name="Y" horiz-adv-x="642" d="M321 433L458 714H642L406 278V0H236V273L0 714H185L321 433Z" />
<glyph unicode="Z" glyph-name="Z" horiz-adv-x="594" d="M569 0H27V108L354 575H35V714H561V606L234 139H569V0Z" />
<glyph unicode="[" glyph-name="bracketleft" horiz-adv-x="328" d="M304 -163H64V723H304V611H204V-50H304V-163Z" />
<glyph unicode="\" glyph-name="backslash" horiz-adv-x="426" d="M155 719L421 -5H271L5 719H155Z" />
<glyph unicode="]" glyph-name="bracketright" horiz-adv-x="328" d="M24 -50H124V611H24V723H264V-163H24V-50Z" />
<glyph unicode="^" glyph-name="asciicircum" horiz-adv-x="550" d="M9 250L223 718H299L544 250H414L265 549L135 250H9Z" />
<glyph unicode="_" glyph-name="underscore" horiz-adv-x="452" d="M454 -170H-2V-78H454V-170Z" />
<glyph unicode="`" glyph-name="grave" horiz-adv-x="388" d="M227 766Q243 744 265 717T309 664T348 619V606H236Q216 619 190 638T135 680T81 722T40 756V766H227Z" />
<glyph unicode="a" glyph-name="a" horiz-adv-x="613" d="M318 560Q425 560 484 510T543 364V0H426L393 74H389Q354 29 315 10T208 -10Q135 -10 87 33T39 166Q39 253 100 295T281 343L375 346V362Q375 402 355 420T298 438Q262 438 223 427T144 398L93 510Q138
534 195 547T318 560ZM324 248Q261 246 236 226T211 170Q211 139 229 125T275 111Q317 111 346 136T375 206V250L324 248Z" />
<glyph unicode="b" glyph-name="b" horiz-adv-x="638" d="M241 585Q241 555 239 527T234 478H241Q262 512 298 535T392 559Q481 559 537 487T594 276Q594 135 537 63T387 -10Q328 -10 295 11T241 57H230L203 0H72V760H241V585ZM334 426Q284 426 263 394T241 294V273Q241
201 261 164T336 126Q376 126 399 165T422 278Q422 426 334 426Z" />
<glyph unicode="c" glyph-name="c" horiz-adv-x="526" d="M308 -10Q184 -10 114 57T44 272Q44 372 79 435T178 529T322 559Q376 559 419 548T497 520L448 393Q413 408 383 416T322 425Q271 425 243 387T215 273Q215 196 244 161T323 125Q367 125 405 137T479 173V35Q445
13 405 2T308 -10Z" />
<glyph unicode="d" glyph-name="d" horiz-adv-x="638" d="M245 -10Q156 -10 100 62T44 274Q44 415 101 487T250 559Q308 559 344 536T402 479H406Q403 497 400 530T396 597V760H565V0H437L403 71H396Q375 37 339 14T245 -10ZM309 124Q363 124 385 157T409 257V272Q409
345 388 384T307 423Q264 423 239 385T214 271Q214 196 239 160T309 124Z" />
<glyph unicode="e" glyph-name="e" horiz-adv-x="603" d="M309 559Q425 559 493 496T561 309V231H214Q216 177 249 145T343 113Q395 113 438 123T528 155V30Q487 9 442 0T329 -10Q246 -10 182 20T81 112T44 271Q44 368 77 432T169 527T309 559ZM312 442Q273 442
248 418T217 340H406Q405 383 382 412T312 442Z" />
<glyph unicode="f" glyph-name="f" horiz-adv-x="399" d="M391 423H267V0H99V423H21V505L101 548V574Q101 680 149 722T291 765Q334 765 369 758T435 741L395 625Q380 629 361 633T319 637Q292 637 280 621T267 574V549H391V423Z" />
<glyph unicode="g" glyph-name="g" horiz-adv-x="638" d="M249 559Q303 559 341 538T404 480H408L421 549H565V-1Q565 -118 495 -179T282 -240Q220 -240 170 -233T72 -208V-71Q123 -92 172 -102T282 -113Q397 -113 397 -8V3Q397 17 398 35T402 71H397Q373 32 336
11T246 -10Q153 -10 99 64T44 274Q44 411 99 485T249 559ZM308 426Q215 426 215 271Q215 194 238 158T310 121Q363 121 386 152T409 254V275Q409 352 387 389T308 426Z" />
<glyph unicode="h" glyph-name="h" horiz-adv-x="663" d="M241 627Q241 577 238 538T233 480H242Q268 523 307 541T397 559Q454 559 498 538T568 473T593 358V0H424V311Q424 426 346 426Q286 426 264 381T241 251V0H72V760H241V627Z" />
<glyph unicode="i" glyph-name="i" horiz-adv-x="314" d="M158 767Q194 767 221 751T248 689Q248 644 221 628T158 611Q120 611 94 627T67 689Q67 735 93 751T158 767ZM241 549V0H73V549H241Z" />
<glyph unicode="j" glyph-name="j" horiz-adv-x="314" d="M67 689Q67 735 93 751T157 767Q194 767 221 751T248 689Q248 644 221 628T157 611Q120 611 94 627T67 689ZM42 -240Q18 -240 -10 -237T-58 -228V-96Q-41 -101 -27 -103T7 -105Q34 -105 53 -89T72 -22V549H241V-53Q241
-103 222 -145T159 -214T42 -240Z" />
<glyph unicode="k" glyph-name="k" horiz-adv-x="638" d="M241 439Q241 407 239 372T232 303H235Q248 323 264 346T297 388L437 549H625L420 313L638 0H445L304 210L241 161V0H72V760H241V439Z" />
<glyph unicode="l" glyph-name="l" horiz-adv-x="313" d="M241 0H72V760H241V0Z" />
<glyph unicode="m" glyph-name="m" horiz-adv-x="990" d="M729 559Q823 559 871 512T920 358V0H752V311Q752 371 734 398T677 426Q624 426 602 385T580 267V0H412V311Q412 426 338 426Q282 426 262 381T241 250V0H72V549H200L224 480H231Q254 518 296 538T393
559Q511 559 558 481H568Q594 520 637 539T729 559Z" />
<glyph unicode="n" glyph-name="n" horiz-adv-x="663" d="M399 559Q486 559 539 512T593 358V0H425V311Q425 368 406 397T346 426Q285 426 263 381T241 250V0H72V549H200L223 478H231Q257 518 301 538T399 559Z" />
<glyph unicode="o" glyph-name="o" horiz-adv-x="627" d="M583 276Q583 138 511 64T312 -10Q234 -10 174 23T79 120T44 276Q44 412 116 485T315 559Q393 559 453 526T548 430T583 276ZM215 276Q215 199 238 160T314 120Q366 120 389 159T412 276Q412 352 389 390T313
429Q261 429 238 391T215 276Z" />
<glyph unicode="p" glyph-name="p" horiz-adv-x="638" d="M392 559Q484 559 539 487T594 276Q594 182 567 119T494 23T387 -10Q328 -10 295 11T241 57H234Q237 38 239 17T241 -28V-240H72V549H209L233 479H241Q262 511 298 535T392 559ZM333 426Q282 426 262 393T241
292V277Q241 204 261 165T335 126Q422 126 422 278Q422 355 400 390T333 426Z" />
<glyph unicode="q" glyph-name="q" horiz-adv-x="638" d="M397 -11Q397 30 403 71H397Q376 37 341 14T246 -10Q155 -10 100 62T44 274Q44 414 101 486T249 559Q308 559 344 537T404 480H408L421 549H565V-240H397V-11ZM310 121Q365 121 386 154T409 254V275Q409
347 388 386T308 426Q261 426 238 387T215 271Q215 194 238 158T310 121Z" />
<glyph unicode="r" glyph-name="r" horiz-adv-x="461" d="M391 559Q404 559 420 558T445 554L431 396Q422 398 408 399T377 401Q345 401 314 391T262 354T241 275V0H72V549H199L225 459H232Q256 500 298 529T391 559Z" />
<glyph unicode="s" glyph-name="s" horiz-adv-x="506" d="M467 166Q467 85 411 38T234 -10Q176 -10 133 -3T45 22V158Q93 136 145 125T233 113Q271 113 288 123T305 151Q305 164 297 174T263 196T187 230Q138 251 107 273T60 325T44 402Q44 480 104 519T265 559Q318
559 365 548T462 514L414 400Q373 418 335 429T265 440Q207 440 207 410Q207 399 215 390T248 369T320 338Q367 319 400 298T450 245T467 166Z" />
<glyph unicode="t" glyph-name="t" horiz-adv-x="446" d="M321 124Q346 124 368 129T414 142V18Q387 6 352 -2T269 -10Q218 -10 179 6T117 63T94 176V423H24V493L108 547L154 663H262V549H408V423H262V182Q262 153 278 139T321 124Z" />
<glyph unicode="u" glyph-name="u" horiz-adv-x="663" d="M591 549V0H463L441 70H431Q405 28 360 9T264 -10Q179 -10 125 38T70 191V549H239V238Q239 182 257 153T317 124Q378 124 400 169T422 299V549H591Z" />
<glyph unicode="v" glyph-name="v" horiz-adv-x="588" d="M209 0L0 549H176L276 231Q281 214 285 190T291 145H295Q296 166 300 189T311 230L413 549H588L379 0H209Z" />
<glyph unicode="w" glyph-name="w" horiz-adv-x="881" d="M485 215Q480 232 474 261T461 322T449 380T441 420H437Q435 407 430 381T417 322T404 260T393 210L343 0H164L11 549H177L232 321Q238 297 243 263T253 196T260 141H263Q264 158 267 182T275 232T284
278T289 305L349 549H535L591 304Q594 288 600 258T610 195T617 141H620Q622 162 626 195T637 263T649 321L706 549H870L715 0H534L485 215Z" />
<glyph unicode="x" glyph-name="x" horiz-adv-x="602" d="M187 280L14 549H205L301 384L398 549H589L414 280L597 0H406L301 178L196 0H5L187 280Z" />
<glyph unicode="y" glyph-name="y" horiz-adv-x="588" d="M0 549H180L279 238Q284 221 287 201T293 159H296Q299 182 303 201T313 237L412 549H588L362 -54Q328 -146 270 -193T118 -240Q92 -240 74 -238T41 -232V-99Q52 -101 67 -103T100 -105Q147 -105 172 -77T211
-11L217 6L0 549Z" />
<glyph unicode="z" glyph-name="z" horiz-adv-x="497" d="M469 0H26V98L268 420H40V549H459V443L226 129H469V0Z" />
<glyph unicode="{" glyph-name="braceleft" horiz-adv-x="412" d="M376 -163Q282 -163 232 -147T164 -98T145 -12V127Q145 173 110 192T22 212V343Q76 343 110 362T145 428V569Q145 621 163 654T232 703T376 719V597Q352 596 332 592T300 575T287 535V396Q287
343 257 316T172 281V275Q228 266 257 239T287 161V21Q287 -6 299 -19T332 -36T376 -41V-163Z" />
<glyph unicode="|" glyph-name="bar" horiz-adv-x="532" d="M207 758H325V-223H207V758Z" />
<glyph unicode="}" glyph-name="braceright" horiz-adv-x="412" d="M36 -41Q59 -40 79 -36T112 -19T125 21V161Q125 212 154 239T240 275V281Q185 289 155 316T125 396V535Q125 562 113 575T80 592T36 597V719Q130 719 180 703T248 654T267 569V428Q267 382 301
363T390 343V212Q337 212 302 193T267 127V-12Q267 -65 249 -98T180 -147T36 -163V-41Z" />
<glyph unicode="~" glyph-name="asciitilde" horiz-adv-x="578" d="M271 295Q234 311 208 316T158 322Q129 322 99 305T44 263V388Q95 441 171 441Q200 441 229 435T307 410Q343 394 370 389T420 383Q448 383 478 400T534 442V317Q483 264 407 264Q377 264 348
270T271 295Z" />
<glyph unicode="&#xa0;" glyph-name="uni00A0" horiz-adv-x="260" />
<glyph unicode="&#xa1;" glyph-name="exclamdown" horiz-adv-x="288" d="M238 466Q238 418 211 398T144 378Q106 378 79 398T51 466Q51 513 78 533T144 554Q183 554 210 534T238 466ZM74 297H213L238 -172H49L74 297Z" />
<glyph unicode="&#xa2;" glyph-name="cent" horiz-adv-x="578" d="M369 648Q414 646 452 636T520 610L471 483Q436 497 406 506T345 515Q294 515 266 477T238 363Q238 285 267 250T346 215Q390 215 427 226T503 258V121Q472 104 440 94T369 80V-10H275V84Q178
98 123 165T67 362Q67 451 93 509T166 600T275 643V724H369V648Z" />
<glyph unicode="&#xa3;" glyph-name="sterling" horiz-adv-x="578" d="M347 724Q401 724 450 713T541 684L492 559Q418 588 363 588Q335 588 315 572T295 512V437H471V318H295V258Q295 207 271 181T219 142H560V0H45V136Q72 149 91 163T119 199T129 257V318H45V437H129V515Q129
590 157 636T235 703T347 724Z" />
<glyph unicode="&#xa4;" glyph-name="currency" horiz-adv-x="569" d="M90 353Q90 378 96 401T113 444L51 505L131 584L192 523Q212 534 236 540T282 547Q330 547 374 522L434 584L515 507L453 445Q476 405 476 353Q476 303 453 261L513 201L434 123L374 183Q354
173 331 167T282 160Q257 160 234 165T190 182L131 124L52 202L113 262Q90 304 90 353ZM202 353Q202 320 225 297T282 273Q316 273 340 296T365 353Q365 387 341 410T282 434Q249 434 226 411T202 353Z" />
<glyph unicode="&#xa5;" glyph-name="yen" horiz-adv-x="578" d="M289 442L402 714H574L392 357H487V262H367V200H487V106H367V0H210V106H89V200H210V262H89V357H182L3 714H176L289 442Z" />
<glyph unicode="&#xa6;" glyph-name="brokenbar" horiz-adv-x="532" d="M207 758H325V355H207V758ZM207 181H325V-223H207V181Z" />
<glyph unicode="&#xa7;" glyph-name="section" horiz-adv-x="492" d="M56 391Q56 432 78 461T128 509Q96 531 79 559T61 625Q61 688 114 727T259 767Q309 767 353 756T438 726L394 626Q361 642 326 654T257 667Q191 667 191 627Q191 606 212 589T287 549Q364 518
404 479T444 386Q444 337 425 308T378 260Q407 240 423 213T439 148Q439 78 383 34T225 -11Q173 -11 131 -1T54 29V139Q95 118 142 103T226 88Q273 88 290 103T308 141Q308 156 302 167T275 191T216 220Q166 241 131 263T76 316T56 391ZM180 404Q180 377 204 356T280
311L289 306Q300 315 309 330T319 368Q319 396 298 418T217 463Q202 457 191 442T180 404Z" />
<glyph unicode="&#xa8;" glyph-name="dieresis" horiz-adv-x="605" d="M124 688Q124 725 145 742T198 759Q229 759 251 742T274 688Q274 652 252 635T198 618Q167 618 146 635T124 688ZM338 688Q338 725 359 742T414 759Q444 759 466 742T489 688Q489 652 467
635T414 618Q381 618 360 635T338 688Z" />
<glyph unicode="&#xa9;" glyph-name="copyright" horiz-adv-x="828" d="M414 -10Q334 -10 267 17T151 93T74 210T47 357Q47 435 74 501T151 618T268 696T414 724Q492 724 559 697T675 621T753 504T781 357Q781 277 754 210T678 94T561 17T414 -10ZM414 61Q496
61 561 99T664 203T702 357Q702 441 665 508T562 614T414 653Q330 653 265 615T162 511T124 357Q124 270 161 204T263 99T414 61ZM423 128Q318 128 266 191T213 358Q213 459 266 522T423 586Q460 586 495 577T561 552L525 470Q474 496 427 496Q377 496 350 460T322
357Q322 287 347 252T428 217Q486 217 543 245V155Q516 142 488 135T423 128Z" />
<glyph unicode="&#xaa;" glyph-name="ordfeminine" horiz-adv-x="389" d="M206 722Q274 722 311 687T348 585V368H276L258 426Q237 395 208 379T140 362Q89 362 56 389T23 474Q23 535 67 559T193 587L239 589V595Q239 638 182 638Q158 638 133 631T78 610L43 682Q78
699 115 710T206 722ZM194 524Q156 521 145 507T134 477Q134 460 144 452T170 443Q203 443 221 463T239 512V527L194 524Z" />
<glyph unicode="&#xab;" glyph-name="guillemotleft" horiz-adv-x="645" d="M38 283L223 512L344 447L210 277L344 107L223 43L38 270V283ZM301 283L486 512L607 447L472 277L607 107L486 43L301 270V283Z" />
<glyph unicode="&#xac;" glyph-name="logicalnot" horiz-adv-x="578" d="M534 412V119H415V293H44V412H534Z" />
<glyph unicode="&#xad;" glyph-name="uni00AD" horiz-adv-x="320" d="M26 200V336H294V200H26Z" />
<glyph unicode="&#xae;" glyph-name="registered" horiz-adv-x="828" d="M414 -10Q334 -10 267 17T151 93T74 210T47 357Q47 435 74 501T151 618T268 696T414 724Q492 724 559 697T675 621T753 504T781 357Q781 277 754 210T678 94T561 17T414 -10ZM414 61Q496
61 561 99T664 203T702 357Q702 441 665 508T562 614T414 653Q330 653 265 615T162 511T124 357Q124 270 161 204T263 99T414 61ZM264 145V580H399Q491 580 532 546T573 447Q573 398 551 371T499 331L605 145H494L410 307H368V145H264ZM398 383Q468 383 468 444Q468
475 451 487T398 499H368V383H398Z" />
<glyph unicode="&#xaf;" glyph-name="overscore" horiz-adv-x="500" d="M503 760H-3V868H503V760Z" />
<glyph unicode="&#xb0;" glyph-name="degree" horiz-adv-x="425" d="M213 377Q161 377 121 399T58 460T35 550Q35 600 58 639T121 701T213 724Q265 724 304 702T366 640T389 550Q389 499 367 460T305 399T213 377ZM213 481Q243 481 263 500T283 550Q283 583 263
602T213 621Q182 621 162 602T142 550Q142 519 162 500T213 481Z" />
<glyph unicode="&#xb1;" glyph-name="plusminus" horiz-adv-x="578" d="M348 448H534V329H348V147H230V329H44V448H230V632H348V448ZM44 0V118H534V0H44Z" />
<glyph unicode="&#xb2;" glyph-name="uni00B2" horiz-adv-x="388" d="M354 416H32V507L139 612Q182 655 198 678T214 722Q214 756 177 756Q158 756 138 747T90 713L26 790Q58 819 98 836T198 854Q266 854 304 823T343 735Q343 684 312 645T225 557L183 520H354V416Z" />
<glyph unicode="&#xb3;" glyph-name="uni00B3" horiz-adv-x="388" d="M190 853Q257 853 297 823T338 744Q338 708 319 683T257 642V637Q306 626 329 599T352 534Q352 474 307 441T173 408Q92 408 31 442V545Q97 503 169 503Q233 503 233 546Q233 563 219 576T159
590H106V676H148Q195 676 209 690T223 722Q223 737 212 748T176 760Q152 760 131 752T83 723L30 799Q60 821 99 837T190 853Z" />
<glyph unicode="&#xb4;" glyph-name="acute" horiz-adv-x="388" d="M348 756Q332 742 307 722T254 680T199 639T152 606H40V619Q56 638 79 663T124 716T161 766H348V756Z" />
<glyph unicode="&#xb5;" glyph-name="uni00B5" horiz-adv-x="666" d="M593 549V0H466L443 73H435Q399 -10 322 -10Q293 -10 273 1T238 33H235Q238 14 239 -21T241 -84V-240H72V549H241V239Q241 182 260 153T322 124Q380 124 402 169T424 299V549H593Z" />
<glyph unicode="&#xb6;" glyph-name="paragraph" horiz-adv-x="649" d="M574 -127H489V656H410V-127H324V273Q309 269 294 267T258 264Q196 264 150 287T79 364T53 509Q53 605 80 659T157 737T273 760H574V-127Z" />
<glyph unicode="&#xb7;" glyph-name="middot" horiz-adv-x="287" d="M50 352Q50 401 77 420T144 440Q182 440 209 421T236 352Q236 305 209 285T144 264Q105 264 78 284T50 352Z" />
<glyph unicode="&#xb8;" glyph-name="cedilla" horiz-adv-x="243" d="M232 -122Q232 -177 198 -208T89 -240Q61 -240 39 -236T0 -227V-139Q16 -144 34 -147T68 -150Q84 -150 94 -143T105 -121Q105 -103 88 -91T29 -72L63 0H158L147 -30Q177 -38 204 -59T232 -122Z" />
<glyph unicode="&#xb9;" glyph-name="uni00B9" horiz-adv-x="388" d="M292 844V416H166V614Q166 626 167 647T169 689T171 717Q165 708 155 698T137 680L98 649L37 720L193 844H292Z" />
<glyph unicode="&#xba;" glyph-name="ordmasculine" horiz-adv-x="390" d="M364 542Q364 456 318 409T194 362Q121 362 74 409T26 542Q26 628 71 675T196 722Q267 722 315 675T364 542ZM136 542Q136 451 195 451Q253 451 253 542Q253 634 195 634Q136 634 136 542Z" />
<glyph unicode="&#xbb;" glyph-name="guillemotright" horiz-adv-x="645" d="M607 270L423 43L301 107L436 277L301 447L423 512L607 283V270ZM345 270L160 43L39 107L173 277L39 447L160 512L345 283V270Z" />
<glyph unicode="&#xbc;" glyph-name="onequarter" horiz-adv-x="856" d="M164 0L547 714H678L295 0H164ZM138 484Q138 495 138 515T140 555T143 587Q138 580 129 570T110 551L70 519L9 590L165 714H264V286H138V484ZM662 0V71H478V154L658 431H786V161H847V71H786V0H662ZM574
161H662V241Q662 280 665 320Q658 301 648 281T631 249L574 161Z" />
<glyph unicode="&#xbd;" glyph-name="onehalf" horiz-adv-x="898" d="M170 0L553 714H684L301 0H170ZM138 484Q138 493 139 516T141 560T143 587Q138 580 128 569T108 550L70 519L9 590L165 714H264V286H138V484ZM541 0V91L649 196Q692 239 708 261T724 306Q724
340 686 340Q647 340 600 297L536 374Q571 406 612 422T708 438Q774 438 813 407T852 319Q852 277 830 243T765 168L693 104H863V0H541Z" />
<glyph unicode="&#xbe;" glyph-name="threequarters" horiz-adv-x="881" d="M185 278Q105 278 44 312V415Q75 395 109 384T182 373Q246 373 246 416Q246 436 230 448T172 460H119V546H161Q205 546 220 559T235 592Q235 607 224 618T188 630Q165 630 144 622T96
593L43 669Q76 694 115 708T203 723Q269 723 310 694T351 614Q351 578 332 553T270 512V507Q318 496 341 469T365 404Q365 344 320 311T185 278ZM208 0L591 714H722L338 0H208ZM686 0V71H502V154L682 431H811V161H872V71H811V0H686ZM598 161H686V241Q686 280 689
320Q682 301 672 281T655 249L598 161Z" />
<glyph unicode="&#xbf;" glyph-name="questiondown" horiz-adv-x="490" d="M371 466Q371 417 344 398T277 378Q239 378 212 397T184 466Q184 512 211 532T277 553Q316 553 343 533T371 466ZM352 258Q352 211 333 177T261 108Q214 76 198 55T182 6Q182 -20 203
-34T261 -49Q300 -49 342 -36T430 0L490 -119Q438 -148 379 -165T248 -183Q141 -183 82 -134T23 -6Q23 54 51 94T139 177Q184 207 199 224T214 270V297H352V258Z" />
<glyph unicode="&#xc0;" glyph-name="Agrave" horiz-adv-x="707" d="M521 0L477 153H230L186 0H0L243 717H461L707 0H521ZM397 438Q392 456 384 486T367 549T353 603Q349 581 341 549T324 486T311 438L269 295H439L397 438ZM365 931Q381 909 403 882T447 829T486
784V771H374Q354 784 328 803T273 845T219 887T178 921V931H365Z" />
<glyph unicode="&#xc1;" glyph-name="Aacute" horiz-adv-x="707" d="M521 0L477 153H230L186 0H0L243 717H461L707 0H521ZM397 438Q392 456 384 486T367 549T353 603Q349 581 341 549T324 486T311 438L269 295H439L397 438ZM577 921Q561 907 536 887T483 845T428
804T381 771H269V784Q285 803 308 828T353 881T390 931H577V921Z" />
<glyph unicode="&#xc2;" glyph-name="Acircumflex" horiz-adv-x="707" d="M521 0L477 153H230L186 0H0L243 717H461L707 0H521ZM397 438Q392 456 384 486T367 549T353 603Q349 581 341 549T324 486T311 438L269 295H439L397 438ZM445 931Q459 908 482 881T528
828T570 784V771H459Q433 786 406 806T353 851Q326 826 301 807T248 771H137V784Q156 803 179 828T225 881T262 931H445Z" />
<glyph unicode="&#xc3;" glyph-name="Atilde" horiz-adv-x="707" d="M521 0L477 153H230L186 0H0L243 717H461L707 0H521ZM397 438Q392 456 384 486T367 549T353 603Q349 581 341 549T324 486T311 438L269 295H439L397 438ZM150 770Q156 854 191 891T278 928Q304
928 331 916T384 891T435 879Q447 879 459 889T477 929H558Q552 846 516 809T431 771Q403 771 376 783T322 807T272 820Q260 820 248 810T230 770H150Z" />
<glyph unicode="&#xc4;" glyph-name="Adieresis" horiz-adv-x="707" d="M521 0L477 153H230L186 0H0L243 717H461L707 0H521ZM397 438Q392 456 384 486T367 549T353 603Q349 581 341 549T324 486T311 438L269 295H439L397 438ZM171 853Q171 890 192 907T245 924Q276
924 298 907T321 853Q321 817 299 800T245 783Q214 783 193 800T171 853ZM385 853Q385 890 406 907T461 924Q491 924 513 907T536 853Q536 817 514 800T461 783Q428 783 407 800T385 853Z" />
<glyph unicode="&#xc5;" glyph-name="Aring" horiz-adv-x="707" d="M521 0L477 153H230L186 0H0L243 717H461L707 0H521ZM397 438Q392 456 384 486T367 549T353 603Q349 581 341 549T324 486T311 438L269 295H439L397 438ZM352 643Q296 643 262 674T227 762Q227
818 261 849T352 881Q405 881 442 850T480 763Q480 707 443 675T352 643ZM352 718Q371 718 383 730T396 762Q396 782 384 794T352 806Q333 806 320 794T307 762Q307 742 318 730T352 718Z" />
<glyph unicode="&#xc6;" glyph-name="AE" horiz-adv-x="949" d="M895 0H470V153H242L180 0H-2L312 714H895V576H641V439H878V301H641V140H895V0ZM299 296H470V569H411L299 296Z" />
<glyph unicode="&#xc7;" glyph-name="Ccedilla" horiz-adv-x="643" d="M394 583Q316 583 273 522T230 355Q230 246 271 189T399 131Q444 131 488 142T581 172V28Q533 8 486 -1T382 -10Q268 -10 196 36T90 164T55 356Q55 464 94 547T209 677T395 724Q447 724 502
712T609 674L556 538Q516 556 476 569T394 583ZM490 -122Q490 -177 456 -208T347 -240Q319 -240 297 -236T258 -227V-139Q274 -144 292 -147T326 -150Q342 -150 352 -143T363 -121Q363 -103 346 -91T287 -72L321 0H416L405 -30Q435 -38 462 -59T490 -122Z" />
<glyph unicode="&#xc8;" glyph-name="Egrave" horiz-adv-x="555" d="M501 0H84V714H501V576H254V439H483V301H254V140H501V0ZM307 931Q323 909 345 882T389 829T428 784V771H316Q296 784 270 803T215 845T161 887T120 921V931H307Z" />
<glyph unicode="&#xc9;" glyph-name="Eacute" horiz-adv-x="555" d="M501 0H84V714H501V576H254V439H483V301H254V140H501V0ZM520 921Q504 907 479 887T426 845T371 804T324 771H212V784Q228 803 251 828T296 881T333 931H520V921Z" />
<glyph unicode="&#xca;" glyph-name="Ecircumflex" horiz-adv-x="555" d="M501 0H84V714H501V576H254V439H483V301H254V140H501V0ZM387 931Q401 908 424 881T470 828T512 784V771H401Q375 786 348 806T295 851Q268 826 243 807T190 771H79V784Q98 803 121 828T167
881T204 931H387Z" />
<glyph unicode="&#xcb;" glyph-name="Edieresis" horiz-adv-x="555" d="M501 0H84V714H501V576H254V439H483V301H254V140H501V0ZM113 853Q113 890 134 907T187 924Q218 924 240 907T263 853Q263 817 241 800T187 783Q156 783 135 800T113 853ZM327 853Q327 890
348 907T403 924Q433 924 455 907T478 853Q478 817 456 800T403 783Q370 783 349 800T327 853Z" />
<glyph unicode="&#xcc;" glyph-name="Igrave" horiz-adv-x="413" d="M380 0H33V97L121 134V580L33 617V714H380V617L292 580V134L380 97V0ZM218 931Q234 909 256 882T300 829T339 784V771H227Q207 784 181 803T126 845T72 887T31 921V931H218Z" />
<glyph unicode="&#xcd;" glyph-name="Iacute" horiz-adv-x="413" d="M380 0H33V97L121 134V580L33 617V714H380V617L292 580V134L380 97V0ZM431 921Q415 907 390 887T337 845T282 804T235 771H123V784Q139 803 162 828T207 881T244 931H431V921Z" />
<glyph unicode="&#xce;" glyph-name="Icircumflex" horiz-adv-x="413" d="M380 0H33V97L121 134V580L33 617V714H380V617L292 580V134L380 97V0ZM298 931Q312 908 335 881T381 828T423 784V771H312Q286 786 259 806T206 851Q179 826 154 807T101 771H-10V784Q9
803 32 828T78 881T115 931H298Z" />
<glyph unicode="&#xcf;" glyph-name="Idieresis" horiz-adv-x="413" d="M380 0H33V97L121 134V580L33 617V714H380V617L292 580V134L380 97V0ZM24 853Q24 890 45 907T98 924Q129 924 151 907T174 853Q174 817 152 800T98 783Q67 783 46 800T24 853ZM238 853Q238
890 259 907T314 924Q344 924 366 907T389 853Q389 817 367 800T314 783Q281 783 260 800T238 853Z" />
<glyph unicode="&#xd0;" glyph-name="Eth" horiz-adv-x="737" d="M319 714Q489 714 585 626T682 368Q682 245 636 164T504 41T299 0H84V284H19V422H84V714H319ZM323 575H254V422H364V284H254V140H309Q506 140 506 362Q506 471 459 523T323 575Z" />
<glyph unicode="&#xd1;" glyph-name="Ntilde" horiz-adv-x="823" d="M739 0H519L231 523H227Q229 480 231 428T236 330V0H84V714H303L590 197H593Q591 240 589 289T586 383V714H739V0ZM208 770Q214 854 249 891T336 928Q362 928 389 916T442 891T493 879Q505 879
517 889T535 929H616Q610 846 574 809T489 771Q461 771 434 783T380 807T330 820Q318 820 306 810T288 770H208Z" />
<glyph unicode="&#xd2;" glyph-name="Ograve" horiz-adv-x="796" d="M741 358Q741 247 705 165T593 36T398 -10Q280 -10 204 36T92 165T55 359Q55 470 91 552T204 679T399 725Q518 725 593 680T705 552T741 358ZM234 358Q234 253 272 193T398 133Q487 133 524
193T562 358Q562 463 525 523T399 584Q311 584 273 524T234 358ZM410 931Q426 909 448 882T492 829T531 784V771H419Q399 784 373 803T318 845T264 887T223 921V931H410Z" />
<glyph unicode="&#xd3;" glyph-name="Oacute" horiz-adv-x="796" d="M741 358Q741 247 705 165T593 36T398 -10Q280 -10 204 36T92 165T55 359Q55 470 91 552T204 679T399 725Q518 725 593 680T705 552T741 358ZM234 358Q234 253 272 193T398 133Q487 133 524
193T562 358Q562 463 525 523T399 584Q311 584 273 524T234 358ZM623 921Q607 907 582 887T529 845T474 804T427 771H315V784Q331 803 354 828T399 881T436 931H623V921Z" />
<glyph unicode="&#xd4;" glyph-name="Ocircumflex" horiz-adv-x="796" d="M741 358Q741 247 705 165T593 36T398 -10Q280 -10 204 36T92 165T55 359Q55 470 91 552T204 679T399 725Q518 725 593 680T705 552T741 358ZM234 358Q234 253 272 193T398 133Q487 133
524 193T562 358Q562 463 525 523T399 584Q311 584 273 524T234 358ZM490 931Q504 908 527 881T573 828T615 784V771H504Q478 786 451 806T398 851Q371 826 346 807T293 771H182V784Q201 803 224 828T270 881T307 931H490Z" />
<glyph unicode="&#xd5;" glyph-name="Otilde" horiz-adv-x="796" d="M741 358Q741 247 705 165T593 36T398 -10Q280 -10 204 36T92 165T55 359Q55 470 91 552T204 679T399 725Q518 725 593 680T705 552T741 358ZM234 358Q234 253 272 193T398 133Q487 133 524
193T562 358Q562 463 525 523T399 584Q311 584 273 524T234 358ZM195 770Q201 854 236 891T323 928Q349 928 376 916T429 891T480 879Q492 879 504 889T522 929H603Q597 846 561 809T476 771Q448 771 421 783T367 807T317 820Q305 820 293 810T275 770H195Z" />
<glyph unicode="&#xd6;" glyph-name="Odieresis" horiz-adv-x="796" d="M741 358Q741 247 705 165T593 36T398 -10Q280 -10 204 36T92 165T55 359Q55 470 91 552T204 679T399 725Q518 725 593 680T705 552T741 358ZM234 358Q234 253 272 193T398 133Q487 133 524
193T562 358Q562 463 525 523T399 584Q311 584 273 524T234 358ZM216 853Q216 890 237 907T290 924Q321 924 343 907T366 853Q366 817 344 800T290 783Q259 783 238 800T216 853ZM430 853Q430 890 451 907T506 924Q536 924 558 907T581 853Q581 817 559 800T506
783Q473 783 452 800T430 853Z" />
<glyph unicode="&#xd7;" glyph-name="multiply" horiz-adv-x="578" d="M429 575L512 495L370 353L510 212L429 131L287 271L147 132L67 213L204 353L66 493L147 575L287 437L429 575Z" />
<glyph unicode="&#xd8;" glyph-name="Oslash" horiz-adv-x="796" d="M741 358Q741 247 705 165T593 36T398 -10Q307 -10 240 17L198 -48L112 9L155 72Q103 121 79 194T55 359Q55 470 91 552T204 679T399 725Q495 725 564 694L603 754L688 701L646 638Q695 590
718 519T741 358ZM234 358Q234 318 239 284T255 223L479 566Q462 574 442 579T399 584Q311 584 273 524T234 358ZM562 358Q562 434 544 484L324 146Q340 140 358 137T398 133Q487 133 524 193T562 358Z" />
<glyph unicode="&#xd9;" glyph-name="Ugrave" horiz-adv-x="756" d="M677 267Q677 185 644 123T544 26T375 -10Q231 -10 155 64T79 266V714H250V285Q250 203 282 168T379 133Q446 133 476 169T507 286V714H677V267ZM390 931Q406 909 428 882T472 829T511 784V771H399Q379
784 353 803T298 845T244 887T203 921V931H390Z" />
<glyph unicode="&#xda;" glyph-name="Uacute" horiz-adv-x="756" d="M677 267Q677 185 644 123T544 26T375 -10Q231 -10 155 64T79 266V714H250V285Q250 203 282 168T379 133Q446 133 476 169T507 286V714H677V267ZM603 921Q587 907 562 887T509 845T454 804T407
771H295V784Q311 803 334 828T379 881T416 931H603V921Z" />
<glyph unicode="&#xdb;" glyph-name="Ucircumflex" horiz-adv-x="756" d="M677 267Q677 185 644 123T544 26T375 -10Q231 -10 155 64T79 266V714H250V285Q250 203 282 168T379 133Q446 133 476 169T507 286V714H677V267ZM470 931Q484 908 507 881T553 828T595
784V771H484Q458 786 431 806T378 851Q351 826 326 807T273 771H162V784Q181 803 204 828T250 881T287 931H470Z" />
<glyph unicode="&#xdc;" glyph-name="Udieresis" horiz-adv-x="756" d="M677 267Q677 185 644 123T544 26T375 -10Q231 -10 155 64T79 266V714H250V285Q250 203 282 168T379 133Q446 133 476 169T507 286V714H677V267ZM196 853Q196 890 217 907T270 924Q301 924
323 907T346 853Q346 817 324 800T270 783Q239 783 218 800T196 853ZM410 853Q410 890 431 907T486 924Q516 924 538 907T561 853Q561 817 539 800T486 783Q453 783 432 800T410 853Z" />
<glyph unicode="&#xdd;" glyph-name="Yacute" horiz-adv-x="642" d="M321 433L458 714H642L406 278V0H236V273L0 714H185L321 433ZM545 921Q529 907 504 887T451 845T396 804T349 771H237V784Q253 803 276 828T321 881T358 931H545V921Z" />
<glyph unicode="&#xde;" glyph-name="Thorn" d="M589 379Q589 316 564 261T479 172T320 138H254V0H84V714H254V606H326Q460 606 524 546T589 379ZM297 277Q352 277 384 300T416 379Q416 423 391 445T310 467H254V277H297Z" />
<glyph unicode="&#xdf;" glyph-name="germandbls" horiz-adv-x="729" d="M630 594Q630 559 617 533T583 486T542 451T508 425T494 402Q494 383 518 369T596 321Q645 289 671 254T697 161Q697 77 640 34T474 -10Q417 -10 379 -3T310 20V149Q334 134 374 122T447
109Q481 109 502 122T523 160Q523 175 517 186T491 211T431 247Q370 281 346 309T322 378Q322 409 335 430T369 468T410 499T444 531T458 571Q458 599 430 617T355 635Q301 635 271 610T241 535V0H72V547Q72 619 109 667T210 740T355 765Q434 765 496 746T594 688T630
594Z" />
<glyph unicode="&#xe0;" glyph-name="agrave" horiz-adv-x="613" d="M318 560Q425 560 484 510T543 364V0H426L393 74H389Q354 29 315 10T208 -10Q135 -10 87 33T39 166Q39 253 100 295T281 343L375 346V362Q375 402 355 420T298 438Q262 438 223 427T144 398L93
510Q138 534 195 547T318 560ZM324 248Q261 246 236 226T211 170Q211 139 229 125T275 111Q317 111 346 136T375 206V250L324 248ZM318 766Q334 744 356 717T400 664T439 619V606H327Q307 619 281 638T226 680T172 722T131 756V766H318Z" />
<glyph unicode="&#xe1;" glyph-name="aacute" horiz-adv-x="613" d="M318 560Q425 560 484 510T543 364V0H426L393 74H389Q354 29 315 10T208 -10Q135 -10 87 33T39 166Q39 253 100 295T281 343L375 346V362Q375 402 355 420T298 438Q262 438 223 427T144 398L93
510Q138 534 195 547T318 560ZM324 248Q261 246 236 226T211 170Q211 139 229 125T275 111Q317 111 346 136T375 206V250L324 248ZM531 756Q515 742 490 722T437 680T382 639T335 606H223V619Q239 638 262 663T307 716T344 766H531V756Z" />
<glyph unicode="&#xe2;" glyph-name="acircumflex" horiz-adv-x="613" d="M318 560Q425 560 484 510T543 364V0H426L393 74H389Q354 29 315 10T208 -10Q135 -10 87 33T39 166Q39 253 100 295T281 343L375 346V362Q375 402 355 420T298 438Q262 438 223 427T144
398L93 510Q138 534 195 547T318 560ZM324 248Q261 246 236 226T211 170Q211 139 229 125T275 111Q317 111 346 136T375 206V250L324 248ZM398 766Q412 743 435 716T481 663T523 619V606H412Q386 621 359 641T306 686Q279 661 254 642T201 606H90V619Q109 638 132
663T178 716T215 766H398Z" />
<glyph unicode="&#xe3;" glyph-name="atilde" horiz-adv-x="613" d="M318 560Q425 560 484 510T543 364V0H426L393 74H389Q354 29 315 10T208 -10Q135 -10 87 33T39 166Q39 253 100 295T281 343L375 346V362Q375 402 355 420T298 438Q262 438 223 427T144 398L93
510Q138 534 195 547T318 560ZM324 248Q261 246 236 226T211 170Q211 139 229 125T275 111Q317 111 346 136T375 206V250L324 248ZM103 605Q109 689 144 726T231 763Q257 763 284 751T337 726T388 714Q400 714 412 724T430 764H511Q505 681 469 644T384 606Q356
606 329 618T275 642T225 655Q213 655 201 645T183 605H103Z" />
<glyph unicode="&#xe4;" glyph-name="adieresis" horiz-adv-x="613" d="M318 560Q425 560 484 510T543 364V0H426L393 74H389Q354 29 315 10T208 -10Q135 -10 87 33T39 166Q39 253 100 295T281 343L375 346V362Q375 402 355 420T298 438Q262 438 223 427T144 398L93
510Q138 534 195 547T318 560ZM324 248Q261 246 236 226T211 170Q211 139 229 125T275 111Q317 111 346 136T375 206V250L324 248ZM124 688Q124 725 145 742T198 759Q229 759 251 742T274 688Q274 652 252 635T198 618Q167 618 146 635T124 688ZM338 688Q338 725
359 742T414 759Q444 759 466 742T489 688Q489 652 467 635T414 618Q381 618 360 635T338 688Z" />
<glyph unicode="&#xe5;" glyph-name="aring" horiz-adv-x="613" d="M318 560Q425 560 484 510T543 364V0H426L393 74H389Q354 29 315 10T208 -10Q135 -10 87 33T39 166Q39 253 100 295T281 343L375 346V362Q375 402 355 420T298 438Q262 438 223 427T144 398L93
510Q138 534 195 547T318 560ZM324 248Q261 246 236 226T211 170Q211 139 229 125T275 111Q317 111 346 136T375 206V250L324 248ZM305 605Q249 605 215 636T180 724Q180 780 214 811T305 843Q358 843 395 812T433 725Q433 669 396 637T305 605ZM305 680Q324 680
336 692T349 724Q349 744 337 756T305 768Q286 768 273 756T260 724Q260 704 271 692T305 680Z" />
<glyph unicode="&#xe6;" glyph-name="ae" horiz-adv-x="925" d="M647 559Q716 559 769 531T853 447T883 308V231H536Q538 178 571 146T668 113Q712 113 757 122T850 155V30Q809 9 764 0T652 -10Q587 -10 532 14T441 87Q409 52 380 31T311 0T214 -10Q168 -10 128
9T64 67T39 167Q39 257 102 297T278 343L370 346V372Q370 408 349 423T296 438Q259 438 221 428T145 400L94 511Q187 560 307 560Q412 560 473 504Q506 532 547 545T647 559ZM640 442Q597 442 570 418T539 340H728Q728 383 706 412T640 442ZM322 248Q259 246 236
225T212 168Q212 137 229 124T274 111Q314 111 342 136T370 206V250L322 248Z" />
<glyph unicode="&#xe7;" glyph-name="ccedilla" horiz-adv-x="526" d="M308 -10Q184 -10 114 57T44 272Q44 372 79 435T178 529T322 559Q376 559 419 548T497 520L448 393Q413 408 383 416T322 425Q271 425 243 387T215 273Q215 196 244 161T323 125Q367 125 405
137T479 173V35Q445 13 405 2T308 -10ZM418 -122Q418 -177 384 -208T275 -240Q247 -240 225 -236T186 -227V-139Q202 -144 220 -147T254 -150Q270 -150 280 -143T291 -121Q291 -103 274 -91T215 -72L249 0H344L333 -30Q363 -38 390 -59T418 -122Z" />
<glyph unicode="&#xe8;" glyph-name="egrave" horiz-adv-x="603" d="M309 559Q425 559 493 496T561 309V231H214Q216 177 249 145T343 113Q395 113 438 123T528 155V30Q487 9 442 0T329 -10Q246 -10 182 20T81 112T44 271Q44 368 77 432T169 527T309 559ZM312
442Q273 442 248 418T217 340H406Q405 383 382 412T312 442ZM314 766Q330 744 352 717T396 664T435 619V606H323Q303 619 277 638T222 680T168 722T127 756V766H314Z" />
<glyph unicode="&#xe9;" glyph-name="eacute" horiz-adv-x="603" d="M309 559Q425 559 493 496T561 309V231H214Q216 177 249 145T343 113Q395 113 438 123T528 155V30Q487 9 442 0T329 -10Q246 -10 182 20T81 112T44 271Q44 368 77 432T169 527T309 559ZM312
442Q273 442 248 418T217 340H406Q405 383 382 412T312 442ZM526 756Q510 742 485 722T432 680T377 639T330 606H218V619Q234 638 257 663T302 716T339 766H526V756Z" />
<glyph unicode="&#xea;" glyph-name="ecircumflex" horiz-adv-x="603" d="M309 559Q425 559 493 496T561 309V231H214Q216 177 249 145T343 113Q395 113 438 123T528 155V30Q487 9 442 0T329 -10Q246 -10 182 20T81 112T44 271Q44 368 77 432T169 527T309 559ZM312
442Q273 442 248 418T217 340H406Q405 383 382 412T312 442ZM394 766Q408 743 431 716T477 663T519 619V606H408Q382 621 355 641T302 686Q275 661 250 642T197 606H86V619Q105 638 128 663T174 716T211 766H394Z" />
<glyph unicode="&#xeb;" glyph-name="edieresis" horiz-adv-x="603" d="M309 559Q425 559 493 496T561 309V231H214Q216 177 249 145T343 113Q395 113 438 123T528 155V30Q487 9 442 0T329 -10Q246 -10 182 20T81 112T44 271Q44 368 77 432T169 527T309 559ZM312
442Q273 442 248 418T217 340H406Q405 383 382 412T312 442ZM375 688Q375 725 396 742T449 759Q480 759 502 742T525 688Q525 652 503 635T449 618Q418 618 397 635T375 688ZM589 688Q589 725 610 742T665 759Q695 759 717 742T740 688Q740 652 718 635T665 618Q632
618 611 635T589 688Z" />
<glyph unicode="&#xec;" glyph-name="igrave" horiz-adv-x="314" d="M241 0H73V549H241V0ZM425 766Q441 744 463 717T507 664T546 619V606H434Q414 619 388 638T333 680T279 722T238 756V766H425Z" />
<glyph unicode="&#xed;" glyph-name="iacute" horiz-adv-x="314" d="M241 0H73V549H241V0ZM382 756Q366 742 341 722T288 680T233 639T186 606H74V619Q90 638 113 663T158 716T195 766H382V756Z" />
<glyph unicode="&#xee;" glyph-name="icircumflex" horiz-adv-x="314" d="M241 0H73V549H241V0ZM505 766Q519 743 542 716T588 663T630 619V606H519Q493 621 466 641T413 686Q386 661 361 642T308 606H197V619Q216 638 239 663T285 716T322 766H505Z" />
<glyph unicode="&#xef;" glyph-name="idieresis" horiz-adv-x="314" d="M241 0H73V549H241V0ZM-25 688Q-25 725 -4 742T49 759Q80 759 102 742T125 688Q125 652 103 635T49 618Q18 618 -3 635T-25 688ZM189 688Q189 725 210 742T265 759Q295 759 317 742T340 688Q340
652 318 635T265 618Q232 618 211 635T189 688Z" />
<glyph unicode="&#xf0;" glyph-name="eth" horiz-adv-x="629" d="M229 766Q265 750 297 734T356 699L463 766L515 685L438 636Q509 568 546 484T583 281Q583 190 550 125T456 25T312 -10Q234 -10 174 19T79 104T44 241Q44 321 74 377T158 461T279 490Q375 490
406 445L410 447Q394 481 375 510T327 567L225 503L173 585L251 634Q235 645 216 656T178 679L229 766ZM314 368Q261 368 239 337T216 241Q216 183 238 148T314 112Q367 112 389 149T411 263Q411 303 388 335T314 368Z" />
<glyph unicode="&#xf1;" glyph-name="ntilde" horiz-adv-x="663" d="M399 559Q486 559 539 512T593 358V0H425V311Q425 368 406 397T346 426Q285 426 263 381T241 250V0H72V549H200L223 478H231Q257 518 301 538T399 559ZM128 605Q134 689 169 726T256 763Q282
763 309 751T362 726T413 714Q425 714 437 724T455 764H536Q530 681 494 644T409 606Q381 606 354 618T300 642T250 655Q238 655 226 645T208 605H128Z" />
<glyph unicode="&#xf2;" glyph-name="ograve" horiz-adv-x="627" d="M583 276Q583 138 511 64T312 -10Q234 -10 174 23T79 120T44 276Q44 412 116 485T315 559Q393 559 453 526T548 430T583 276ZM215 276Q215 199 238 160T314 120Q366 120 389 159T412 276Q412
352 389 390T313 429Q261 429 238 391T215 276ZM326 766Q342 744 364 717T408 664T447 619V606H335Q315 619 289 638T234 680T180 722T139 756V766H326Z" />
<glyph unicode="&#xf3;" glyph-name="oacute" horiz-adv-x="627" d="M583 276Q583 138 511 64T312 -10Q234 -10 174 23T79 120T44 276Q44 412 116 485T315 559Q393 559 453 526T548 430T583 276ZM215 276Q215 199 238 160T314 120Q366 120 389 159T412 276Q412
352 389 390T313 429Q261 429 238 391T215 276ZM538 756Q522 742 497 722T444 680T389 639T342 606H230V619Q246 638 269 663T314 716T351 766H538V756Z" />
<glyph unicode="&#xf4;" glyph-name="ocircumflex" horiz-adv-x="627" d="M583 276Q583 138 511 64T312 -10Q234 -10 174 23T79 120T44 276Q44 412 116 485T315 559Q393 559 453 526T548 430T583 276ZM215 276Q215 199 238 160T314 120Q366 120 389 159T412 276Q412
352 389 390T313 429Q261 429 238 391T215 276ZM406 766Q420 743 443 716T489 663T531 619V606H420Q394 621 367 641T314 686Q287 661 262 642T209 606H98V619Q117 638 140 663T186 716T223 766H406Z" />
<glyph unicode="&#xf5;" glyph-name="otilde" horiz-adv-x="627" d="M583 276Q583 138 511 64T312 -10Q234 -10 174 23T79 120T44 276Q44 412 116 485T315 559Q393 559 453 526T548 430T583 276ZM215 276Q215 199 238 160T314 120Q366 120 389 159T412 276Q412
352 389 390T313 429Q261 429 238 391T215 276ZM111 605Q117 689 152 726T239 763Q265 763 292 751T345 726T396 714Q408 714 420 724T438 764H519Q513 681 477 644T392 606Q364 606 337 618T283 642T233 655Q221 655 209 645T191 605H111Z" />
<glyph unicode="&#xf6;" glyph-name="odieresis" horiz-adv-x="627" d="M583 276Q583 138 511 64T312 -10Q234 -10 174 23T79 120T44 276Q44 412 116 485T315 559Q393 559 453 526T548 430T583 276ZM215 276Q215 199 238 160T314 120Q366 120 389 159T412 276Q412
352 389 390T313 429Q261 429 238 391T215 276ZM131 688Q131 725 152 742T205 759Q236 759 258 742T281 688Q281 652 259 635T205 618Q174 618 153 635T131 688ZM345 688Q345 725 366 742T421 759Q451 759 473 742T496 688Q496 652 474 635T421 618Q388 618 367
635T345 688Z" />
<glyph unicode="&#xf7;" glyph-name="divide" horiz-adv-x="578" d="M288 454Q259 454 238 472T217 532Q217 576 238 593T288 610Q317 610 338 593T360 532Q360 491 339 473T288 454ZM44 293V412H534V293H44ZM288 95Q259 95 238 113T217 173Q217 216 238 233T288
251Q317 251 338 234T360 173Q360 132 339 114T288 95Z" />
<glyph unicode="&#xf8;" glyph-name="oslash" horiz-adv-x="640" d="M596 276Q596 138 522 64T319 -10Q259 -10 206 10L169 -46L90 5L126 59Q87 96 66 150T44 276Q44 412 118 485T322 559Q384 559 439 537L470 583L548 531L517 486Q555 450 575 397T596 276ZM210
276Q210 253 211 234T218 199L366 425Q346 434 320 434Q260 434 235 394T210 276ZM430 276Q430 295 429 311T424 343L279 121Q296 116 321 116Q381 116 405 156T430 276Z" />
<glyph unicode="&#xf9;" glyph-name="ugrave" horiz-adv-x="663" d="M591 549V0H463L441 70H431Q405 28 360 9T264 -10Q179 -10 125 38T70 191V549H239V238Q239 182 257 153T317 124Q378 124 400 169T422 299V549H591ZM343 766Q359 744 381 717T425 664T464 619V606H352Q332
619 306 638T251 680T197 722T156 756V766H343Z" />
<glyph unicode="&#xfa;" glyph-name="uacute" horiz-adv-x="663" d="M591 549V0H463L441 70H431Q405 28 360 9T264 -10Q179 -10 125 38T70 191V549H239V238Q239 182 257 153T317 124Q378 124 400 169T422 299V549H591ZM556 756Q540 742 515 722T462 680T407 639T360
606H248V619Q264 638 287 663T332 716T369 766H556V756Z" />
<glyph unicode="&#xfb;" glyph-name="ucircumflex" horiz-adv-x="663" d="M591 549V0H463L441 70H431Q405 28 360 9T264 -10Q179 -10 125 38T70 191V549H239V238Q239 182 257 153T317 124Q378 124 400 169T422 299V549H591ZM424 766Q438 743 461 716T507 663T549
619V606H438Q412 621 385 641T332 686Q305 661 280 642T227 606H116V619Q135 638 158 663T204 716T241 766H424Z" />
<glyph unicode="&#xfc;" glyph-name="udieresis" horiz-adv-x="663" d="M591 549V0H463L441 70H431Q405 28 360 9T264 -10Q179 -10 125 38T70 191V549H239V238Q239 182 257 153T317 124Q378 124 400 169T422 299V549H591ZM149 688Q149 725 170 742T223 759Q254
759 276 742T299 688Q299 652 277 635T223 618Q192 618 171 635T149 688ZM363 688Q363 725 384 742T439 759Q469 759 491 742T514 688Q514 652 492 635T439 618Q406 618 385 635T363 688Z" />
<glyph unicode="&#xfd;" glyph-name="yacute" horiz-adv-x="588" d="M0 549H180L279 238Q284 221 287 201T293 159H296Q299 182 303 201T313 237L412 549H588L362 -54Q328 -146 270 -193T118 -240Q92 -240 74 -238T41 -232V-99Q52 -101 67 -103T100 -105Q147 -105
172 -77T211 -11L217 6L0 549ZM518 756Q502 742 477 722T424 680T369 639T322 606H210V619Q226 638 249 663T294 716T331 766H518V756Z" />
<glyph unicode="&#xfe;" glyph-name="thorn" horiz-adv-x="638" d="M594 276Q594 135 537 63T389 -10Q333 -10 298 9T241 55H234Q237 40 239 18T241 -20V-240H72V760H241V580Q241 548 239 521T233 478H241Q261 512 298 535T392 559Q481 559 537 487T594 276ZM422
278Q422 351 401 388T334 426Q283 426 263 393T241 292V277Q241 204 261 165T336 126Q381 126 401 165T422 278Z" />
<glyph unicode="&#xff;" glyph-name="ydieresis" horiz-adv-x="588" d="M0 549H180L279 238Q284 221 287 201T293 159H296Q299 182 303 201T313 237L412 549H588L362 -54Q328 -146 270 -193T118 -240Q92 -240 74 -238T41 -232V-99Q52 -101 67 -103T100 -105Q147
-105 172 -77T211 -11L217 6L0 549ZM367 688Q367 725 388 742T441 759Q472 759 494 742T517 688Q517 652 495 635T441 618Q410 618 389 635T367 688ZM581 688Q581 725 602 742T657 759Q687 759 709 742T732 688Q732 652 710 635T657 618Q624 618 603 635T581 688Z"
/>
<glyph unicode="&#x2013;" glyph-name="endash" horiz-adv-x="500" d="M38 208V331H462V208H38Z" />
<glyph unicode="&#x2014;" glyph-name="emdash" horiz-adv-x="1000" d="M38 208V331H961V208H38Z" />
<glyph unicode="&#x2018;" glyph-name="quoteleft" horiz-adv-x="232" d="M11 461Q20 497 34 541T64 631T97 714H217Q203 650 190 578T169 450H18L11 461Z" />
<glyph unicode="&#x2019;" glyph-name="quoteright" horiz-adv-x="232" d="M221 703Q212 667 198 622T168 532T135 450H15Q29 513 42 585T63 714H214L221 703Z" />
<glyph unicode="&#x201a;" glyph-name="quotesinglbase" horiz-adv-x="296" d="M236 119Q227 83 213 38T183 -52T150 -134H30Q44 -71 57 1T78 130H229L236 119Z" />
<glyph unicode="&#x201c;" glyph-name="quotedblleft" horiz-adv-x="470" d="M455 714Q441 650 428 578T407 450H256L249 461Q258 497 272 541T302 631T335 714H455ZM217 714Q203 650 190 578T169 450H18L11 461Q20 497 34 541T64 631T97 714H217Z" />
<glyph unicode="&#x201d;" glyph-name="quotedblright" horiz-adv-x="470" d="M459 703Q450 667 436 622T406 532T373 450H252Q267 513 280 585T301 714H452L459 703ZM221 703Q212 667 198 622T168 532T135 450H15Q29 513 42 585T63 714H214L221 703Z" />
<glyph unicode="&#x201e;" glyph-name="quotedblbase" horiz-adv-x="534" d="M474 119Q465 83 451 38T421 -52T388 -134H267Q282 -71 295 1T316 130H467L474 119ZM236 119Q227 83 213 38T183 -52T150 -134H30Q44 -71 57 1T78 130H229L236 119Z" />
<glyph unicode="&#x2022;" glyph-name="bullet" horiz-adv-x="383" d="M42 365Q42 454 85 492T192 530Q233 530 267 514T321 461T341 365Q341 307 321 271T267 217T192 200Q129 200 86 238T42 365Z" />
<glyph unicode="&#x2039;" glyph-name="guilsinglleft" horiz-adv-x="383" d="M38 283L223 512L344 447L210 277L344 107L223 43L38 270V283Z" />
<glyph unicode="&#x203a;" glyph-name="guilsinglright" horiz-adv-x="383" d="M160 512L345 283V270L160 43L39 107L173 277L39 447L160 512Z" />
</font>
</defs>
</svg>
