<?xml version="1.0" standalone="no"?>
<!DOCTYPE svg PUBLIC "-//W3C//DTD SVG 1.1//EN" "http://www.w3.org/Graphics/SVG/1.1/DTD/svg11.dtd">
<svg xmlns="http://www.w3.org/2000/svg">
<defs >
<font id="PlayfairDisplay" horiz-adv-x="582" ><font-face
    font-family="Playfair Display SemiBold"
    units-per-em="1000"
    panose-1="0 0 0 0 0 0 0 0 0 0"
    ascent="1082"
    descent="-251"
    alphabetic="0" />
<glyph unicode=" " horiz-adv-x="255" />
<glyph unicode="!" horiz-adv-x="297" d="M111 199Q133 287 144 371T162 531T178 665Q180 686 185 706T200 744T225 771T262 782Q297 782 311 762T321 708Q315 663 292 607T239 485T180 347T129 196L111 199ZM19 43Q19 80 45 106T108 132Q137 132 153 116T170
73Q170 50 158 31T125 -1T80 -14Q51 -14 35 1T19 43Z" />
<glyph unicode="&quot;" horiz-adv-x="359" d="M261 687Q261 661 246 633T208 573T166 498H152Q154 543 152 571T148 620T150 662Q153 693 171 711T216 730Q238 730 249 719T261 687ZM406 687Q406 661 391 633T353 573T311 498H297Q299 543 297 571T293 620T295
662Q298 693 316 711T361 730Q383 730 394 719T406 687Z" />
<glyph unicode="#" horiz-adv-x="630" d="M629 454L621 434H120L128 454H629ZM543 267L533 247H33L42 267H543ZM323 101H299L531 602H555L323 101ZM136 101H112L344 602H368L136 101Z" />
<glyph unicode="$" horiz-adv-x="590" d="M402 840L132 -132H110L380 840H402ZM498 840L228 -132H206L476 840H498ZM374 701Q320 701 283 674T246 589Q246 554 265 523T315 461T380 401T445 338T495 270T515 192Q515 146 498 112T453 53T388 14T313 -7T239 -14Q194
-14 162 -7T107 13T64 39Q37 58 20 87T3 152Q3 191 22 219T74 247Q105 247 121 225T138 169Q138 144 131 122T114 82T94 49Q118 30 153 19T233 7Q282 7 313 20T360 58T376 121Q376 158 359 189T313 250T253 307T193 367T147 435T129 516Q129 571 150 610T207 674T283
710T367 722Q412 722 444 715T499 695T542 669Q567 652 585 623T603 556Q603 517 585 489T532 461Q501 461 484 483T467 539Q467 564 474 586T492 626T512 659Q489 678 454 689T374 701Z" />
<glyph unicode="%" horiz-adv-x="786" d="M323 745Q294 745 272 721T234 659T211 582T203 514Q203 483 213 466T243 449Q272 449 294 473T332 535T355 612T363 681Q363 712 353 728T323 745ZM112 545Q112 583 128 621T174 690T244 741T331 761Q389 761 421 732T454
649Q454 611 438 573T392 504T323 453T236 433Q178 433 145 462T112 545ZM585 298Q555 298 533 274T495 212T473 135T465 67Q465 36 475 19T505 2Q534 2 556 26T594 88T617 165T625 234Q625 265 615 281T585 298ZM374 98Q374 136 390 174T435 243T505 294T593 314Q651
314 683 285T716 202Q716 164 700 126T654 57T585 6T498 -14Q440 -14 407 15T374 98ZM833 824L848 811L15 -55L0 -42L833 824Z" />
<glyph unicode="&amp;" horiz-adv-x="848" d="M556 212Q548 197 533 181T493 153T434 141Q405 141 379 151T335 186T318 250Q318 312 362 353T490 423Q514 431 546 441T614 464T685 489T751 514Q780 526 806 540T850 574T867 622Q867 660 838 683T768 706Q746
706 738 699Q756 691 764 678T773 648Q773 628 762 613T731 589T692 580Q664 580 646 595T628 637Q628 662 645 680T686 708Q705 716 726 719T765 722Q803 722 833 710T880 670T897 595Q897 549 879 515T823 455T730 406Q703 394 668 382T596 356T524 331T459 308Q435
300 413 288T376 259T362 219Q362 188 385 174T438 159Q468 159 489 170T523 196T541 220L556 212ZM443 566Q468 566 484 580T500 617Q500 644 478 660T420 676Q383 676 352 658T302 607T283 532Q283 517 286 501T297 470Q315 473 333 474T360 476Q396 476 396
455Q396 444 386 439T365 434Q346 434 327 442T296 456Q257 443 227 413T180 341T163 253Q163 192 192 151T274 89T398 68Q451 68 499 80T586 115T646 174T668 254Q668 291 650 328T586 389L599 397Q642 372 665 333T688 243Q688 196 666 150T600 67T490 8T336
-14Q247 -14 179 11T71 84T32 203Q32 266 63 319T151 409T283 464Q241 481 221 510T201 571Q201 614 231 643T306 687T397 702Q458 702 490 679T522 619Q522 583 496 566T442 548L443 566Z" />
<glyph unicode="&apos;" horiz-adv-x="215" d="M261 687Q261 661 246 633T208 573T166 498H152Q154 543 152 571T148 620T150 662Q153 693 171 711T216 730Q238 730 249 719T261 687Z" />
<glyph unicode="(" horiz-adv-x="385" d="M229 -182Q171 -124 128 -65T60 65T36 223Q36 307 70 388T167 546T312 688T493 806L503 793Q398 719 319 632T197 438T153 198Q153 128 163 65T194 -55T247 -169L229 -182Z" />
<glyph unicode=")" horiz-adv-x="385" d="M165 806Q223 749 266 689T334 559T358 401Q358 317 324 236T227 78T82 -64T-99 -182L-109 -169Q-4 -95 75 -8T197 186T241 426Q241 496 231 559T200 680T147 793L165 806Z" />
<glyph unicode="*" horiz-adv-x="488" d="M303 518Q332 574 353 610T380 675Q387 705 376 717T348 729Q332 729 315 717T291 675Q286 647 290 609T300 518H303ZM302 519Q272 562 254 591T213 635Q191 650 173 644T143 624Q131 609 130 591T152 557Q172 544 210
537T299 516L302 519ZM301 519Q242 505 203 499T134 478Q105 462 97 445T95 413Q100 398 116 392T162 400Q189 414 222 445T301 516V519ZM301 518Q271 462 250 426T223 361Q216 330 226 319T254 307Q270 307 287 319T312 361Q318 389 313 427T304 518H301ZM460
412Q472 427 473 445T451 479Q431 493 393 500T303 520L300 517Q331 475 349 445T389 401Q412 386 430 392T460 412ZM508 623Q504 638 488 644T440 636Q414 622 381 591T301 520V517Q361 531 400 537T469 558Q498 573 506 591T508 623Z" />
<glyph unicode="+" horiz-adv-x="579" d="M60 370H293L360 606H396L329 370H561L552 340H320L253 105H217L284 340H51L60 370Z" />
<glyph unicode="," horiz-adv-x="275" d="M154 63Q154 4 115 -49T6 -136L1 -120Q46 -96 76 -61T109 13Q96 1 81 -6T49 -14Q24 -14 10 -2T-5 33Q-5 59 9 81T46 117T95 132Q124 132 139 114T154 63Z" />
<glyph unicode="-" horiz-adv-x="505" d="M73 298H434L414 224H53L73 298Z" />
<glyph unicode="." horiz-adv-x="267" d="M-1 43Q-1 80 25 106T88 132Q117 132 133 116T150 73Q150 50 138 31T106 -1T60 -14Q32 -14 16 1T-1 43Z" />
<glyph unicode="/" horiz-adv-x="463" d="M-43 -14L505 722H538L-10 -14H-43Z" />
<glyph unicode="0" horiz-adv-x="603" d="M373 531Q461 531 508 483T556 350Q556 283 529 218T455 101T346 17T214 -14Q127 -14 77 33T26 167Q26 235 53 299T129 416T240 500T373 531ZM356 513Q314 513 278 482T213 398T170 282T154 151Q154 70 176 37T231 4Q274
4 310 36T373 122T413 240T428 370Q428 448 408 480T356 513Z" />
<glyph unicode="1" horiz-adv-x="362" d="M339 528L182 0H59L186 426Q159 413 127 402T47 378L50 399Q120 417 168 439T253 483T319 528H339Z" />
<glyph unicode="2" horiz-adv-x="524" d="M314 530Q383 530 424 503T465 427Q465 388 440 351T374 281T289 217T202 161T133 115Q158 115 191 108T260 94T325 87Q362 87 384 99T406 135Q406 168 366 187L378 200Q406 186 420 166T434 117Q434 87 419 59T372 12T288
-6Q256 -6 227 1T166 15T97 24Q58 26 33 20T-23 0L-18 21Q4 39 39 63T114 118T195 184T268 258T321 338T342 420Q342 461 322 482T265 504Q236 504 206 491T151 455T110 404T94 347Q94 323 107 311T151 299Q180 299 200 309T244 340L256 326Q228 300 199 289T145
278Q129 278 112 283T82 303T70 346Q70 379 88 411T139 471T216 514T314 530Z" />
<glyph unicode="3" horiz-adv-x="507" d="M307 532Q378 532 420 506T462 432Q462 397 441 368T387 315T314 276T239 250Q289 249 330 236T395 197T419 130Q419 77 386 34T299 -44T178 -101T43 -137T-84 -151L-79 -133Q-20 -129 44 -110T164 -57T255 27T290 143Q290
183 272 207T221 234Q205 227 191 222T163 217Q155 217 149 220T146 232Q149 246 168 249T213 250Q248 265 278 288T326 343T344 412Q344 454 321 478T254 502Q228 502 201 492T152 464T115 424T101 379Q101 355 114 343T159 331Q193 331 221 346L232 331Q211 320
191 315T152 310Q136 310 119 315T89 335T77 378Q77 415 108 450T191 508T307 532Z" />
<glyph unicode="4" horiz-adv-x="529" d="M415 531L418 506L-32 53L-15 85H454L442 42H-55L-49 63L415 531ZM441 531L262 -141H139L280 386L415 531H441Z" />
<glyph unicode="5" horiz-adv-x="467" d="M431 538L443 531Q418 472 382 437T298 401Q277 401 255 411T211 430T172 436L73 226Q103 243 140 252T222 261Q309 261 348 229T387 144Q387 87 356 41T274 -39T160 -98T33 -134T-86 -148L-81 -130Q-26 -130 33 -112T142
-60T224 25T256 142Q256 182 234 206T159 231Q142 231 117 227T56 204L46 209L189 518Q216 520 238 514T284 500T341 493Q369 493 391 503T431 538Z" />
<glyph unicode="6" horiz-adv-x="553" d="M538 722L544 702Q490 688 435 653T331 566T242 446T180 298T157 127Q157 56 173 31T216 6Q253 6 282 36T333 112T366 210T377 304Q377 355 362 376T323 397Q298 397 271 373T223 287L206 293Q223 348 249 380T306 425T371
438Q431 438 469 400T507 287Q507 229 483 175T415 79T315 11T194 -14Q113 -14 72 31T30 168Q30 257 64 336T155 482T278 598T414 680T538 722Z" />
<glyph unicode="7" horiz-adv-x="498" d="M196 522Q240 522 276 511T348 488T429 474Q459 473 484 480T529 516H557Q515 465 474 419T396 326T325 229T266 121T221 -6Q216 -28 213 -41T209 -64T205 -85Q198 -111 178 -129T124 -148Q99 -148 88 -137T75 -107T78
-68Q90 -13 126 47T214 169T321 288T427 396T511 487Q511 487 519 489T527 492Q494 469 467 452T415 422T365 404T315 398Q280 398 254 406T205 421T154 429Q121 429 99 414T77 367Q77 327 109 302T204 261L198 245Q130 259 88 292T45 388Q45 420 60 450T109 501T196
522Z" />
<glyph unicode="8" horiz-adv-x="564" d="M410 722Q455 722 491 711T548 676T569 615Q569 577 547 545T491 484T418 434T343 394L339 404Q369 426 394 460T436 535T452 621Q452 704 388 704Q357 704 329 685T285 633T268 562Q268 517 290 483T344 419T408 359T463
291T485 204Q485 155 462 115T397 46T304 2T192 -14Q139 -14 96 -1T27 42T2 116Q2 161 25 199T88 269T174 327T267 370L271 360Q229 335 197 295T145 207T126 104Q126 60 143 32T208 4Q248 4 284 25T342 85T365 172Q365 221 344 257T291 324T229 384T177 449T155
531Q155 574 176 609T234 670T316 708T410 722Z" />
<glyph unicode="9" horiz-adv-x="541" d="M335 530Q417 530 458 486T499 348Q499 262 466 185T378 44T257 -68T124 -147T1 -188L-5 -168Q48 -155 101 -121T203 -36T290 81T350 224T372 389Q372 460 357 485T313 510Q277 510 247 480T196 404T164 306T152 212Q152
161 167 140T207 119Q232 119 259 143T307 229L323 223Q307 168 281 136T224 91T159 78Q99 78 61 116T22 229Q22 288 46 341T114 437T215 505T335 530Z" />
<glyph unicode=":" horiz-adv-x="300" d="M114 441Q114 478 140 504T203 530Q232 530 248 514T265 471Q265 448 253 429T221 397T175 384Q147 384 131 399T114 441ZM14 43Q14 80 40 106T103 132Q132 132 148 116T165 73Q165 50 153 31T121 -1T75 -14Q47 -14 31 1T14 43Z" />
<glyph unicode=";" horiz-adv-x="307" d="M118 441Q118 478 144 504T207 530Q236 530 252 514T269 471Q269 448 257 429T225 397T179 384Q151 384 135 399T118 441ZM169 63Q169 4 130 -49T21 -136L16 -120Q61 -96 91 -61T124 13Q111 1 96 -6T64 -14Q39 -14 25
-2T10 33Q10 59 24 81T61 117T110 132Q139 132 154 114T169 63Z" />
<glyph unicode="&lt;" horiz-adv-x="596" d="M601 582L611 553L124 351L455 177L439 145L49 355L601 582Z" />
<glyph unicode="=" horiz-adv-x="654" d="M66 270L75 300H576L567 270H66ZM106 410L115 440H616L607 410H106Z" />
<glyph unicode="&gt;" horiz-adv-x="598" d="M59 155L49 184L509 376L139 574L155 603L584 372L59 155Z" />
<glyph unicode="?" horiz-adv-x="470" d="M304 762Q289 762 271 759T236 747T212 725Q225 725 238 718T259 697T266 668Q266 641 246 623T197 605Q172 605 155 620T137 664Q137 694 155 716T203 753T268 775T338 782Q387 782 426 769T490 728T515 660Q515 630
498 600T443 533T340 448Q282 404 247 377T196 326T180 272Q180 246 196 227T249 207Q272 207 296 215T332 239Q318 242 305 256T292 292Q292 315 308 332T353 349Q373 349 388 337T403 300Q403 271 386 250T341 215T282 195T221 188Q182 188 150 199T100 235T82
295Q82 336 105 369T167 433T252 500Q298 536 328 563T374 616T390 674Q390 712 369 737T304 762ZM109 43Q109 80 136 106T199 132Q228 132 244 116T261 73Q261 50 249 31T216 -1T171 -14Q142 -14 126 1T109 43Z" />
<glyph unicode="@" horiz-adv-x="858" d="M581 56Q599 56 627 69T687 108T747 172T792 263T810 379Q810 469 771 525T665 608T515 634Q435 634 364 608T235 536T136 429T72 298T49 154Q49 76 74 21T143 -69T244 -119T367 -135Q427 -135 485 -121T595 -77L602 -90Q561
-118 501 -135T366 -153Q297 -153 236 -136T129 -83T55 12T28 152Q28 227 50 299T115 435T218 548T352 624T514 652Q606 652 677 623T789 534T831 379Q831 295 801 229T725 118T628 50T531 26Q492 26 475 41T456 80T459 126T469 166L554 464Q583 464 613 467T669
478L563 115Q553 82 557 69T581 56ZM500 235Q477 161 450 115T391 48T316 26Q281 26 257 40T219 81T206 148Q206 191 220 237T260 326T319 403T391 458T470 478Q512 478 527 454T538 378L528 372Q530 393 526 410T513 437T486 447Q456 447 427 421T374 352T335
256T320 150Q320 108 331 88T364 68Q400 68 430 115T494 252L500 235Z" />
<glyph unicode="A" horiz-adv-x="645" d="M67 150Q34 103 31 75T48 35T110 20L106 0Q68 2 38 2T-20 3Q-43 3 -59 3T-91 0L-86 20Q-70 24 -54 34T-20 65T23 120L445 713Q454 712 464 712T484 713L524 84Q527 48 542 35T573 20L569 0Q545 2 508 2T436 3Q394 3 356
3T296 0L300 20Q348 22 368 37T386 104L360 576L386 600L67 150ZM156 288H448L440 268H138L156 288Z" />
<glyph unicode="B" horiz-adv-x="663" d="M431 707Q541 707 591 672T641 576Q641 524 609 482T520 412T393 372Q499 364 548 320T598 215Q598 161 573 121T504 54T402 14T279 0Q245 0 205 1T105 3Q80 3 53 3T2 2T-39 0L-35 20Q-1 22 18 28T48 52T68 106L200 602Q207
632 208 650T195 678T141 688L146 708Q163 707 186 707T237 706T287 705Q330 705 363 706T431 707ZM244 359L248 376H322Q379 376 419 405T481 483T503 584Q503 634 484 661T416 688Q381 688 366 675T340 617L205 106Q199 81 198 62T207 33T248 23Q319 23 364 50T431
124T453 232Q453 269 441 297T401 342T329 359H244Z" />
<glyph unicode="C" horiz-adv-x="685" d="M734 708Q719 669 703 614T670 478H648Q657 529 656 566T640 630Q621 666 589 683T517 700Q467 700 420 672T332 595T262 483T214 350T197 209Q197 109 234 61T336 12Q374 12 418 30T494 82Q521 110 540 146T584 240H606Q581
149 568 94T547 0H525Q528 21 528 34Q528 56 520 59T495 51Q469 33 440 19T378 -5T302 -14Q175 -14 110 49T45 229Q45 299 67 369T131 502T230 615T358 693T510 722Q552 722 579 713T625 689T658 657Q672 642 685 653T713 708H734Z" />
<glyph unicode="D" horiz-adv-x="756" d="M739 475Q739 406 719 338T658 209T559 101T424 27T252 0Q237 0 213 1T162 2T105 3Q82 3 55 3T5 2T-35 0L-32 20Q0 22 18 28T48 52T68 106L199 602Q207 632 207 650T192 678T141 688L144 708Q161 707 186 706T239 705T294
705Q313 706 341 706T397 707T444 708Q588 708 663 649T739 475ZM248 18Q317 18 372 45T470 120T541 230T584 362T599 504Q599 596 557 643T420 690Q393 690 378 684T354 659T336 604L205 104Q196 73 195 54T205 27T248 18Z" />
<glyph unicode="E" horiz-adv-x="621" d="M217 346L222 366H411L406 346H217ZM321 366Q350 366 371 377T408 408T435 448T455 490H477Q461 440 454 412T439 356Q435 338 431 321T422 281T410 222H387Q389 243 389 265T383 305T360 334T312 346L321 366ZM587 528Q594
587 587 621T556 670T484 685H439Q405 685 387 680T358 657T337 602L204 106Q195 70 196 52T213 29T263 23H312Q369 23 406 40T471 95T526 200H548Q543 187 538 168T527 128Q522 109 514 74T500 0Q449 2 386 2T272 3Q248 3 211 3T131 3T43 2T-40 0L-36 20Q-2 22
17 28T47 52T67 106L200 602Q210 639 209 656T192 680T142 688L147 708Q186 707 230 707T317 706T398 705T459 705Q504 705 560 705T662 708Q649 673 640 644T624 590Q619 572 616 556T610 528H587Z" />
<glyph unicode="F" horiz-adv-x="581" d="M220 340L224 360H430L425 340H220ZM579 498Q588 568 582 609T549 667T468 685H435Q403 685 385 680T357 657T337 602L204 106Q195 70 198 52T221 28T283 20L278 0Q249 2 203 2T110 3Q64 3 24 3T-40 0L-36 20Q-2 22 17
28T47 52T67 106L200 602Q210 639 209 656T192 680T142 688L147 708Q186 707 230 707T317 706T398 705T459 705Q504 705 560 705T662 708Q649 671 639 640T622 584Q615 559 610 537T601 498H579ZM327 360Q356 360 377 371T413 401T441 441T461 484H484Q467 434
460 406T446 350Q439 323 432 291T414 204H391Q393 232 393 256T386 300T363 329T319 340L327 360Z" />
<glyph unicode="G" horiz-adv-x="727" d="M332 6Q359 6 382 13T421 30Q440 42 448 58T464 100L487 188Q498 229 496 249T474 276T412 284L417 304Q437 303 464 303T522 302T577 301Q617 301 650 302T706 304L701 284Q679 283 667 277T646 253T627 198L574 0H554Q557
23 552 40T531 57Q516 57 500 49T462 30Q424 8 388 -3T309 -14Q181 -14 112 46T42 215Q42 283 63 354T126 491T224 609T353 691T508 722Q573 722 608 703T672 657Q687 642 700 652T729 708H751Q736 669 720 614T687 478H665Q667 498 668 516T670 553Q670 574 667
591T656 626Q636 663 596 683T502 704Q439 704 388 669T297 575T232 447T193 308T179 182Q179 92 217 49T332 6Z" />
<glyph unicode="H" horiz-adv-x="791" d="M229 346L236 366H589L581 346H229ZM617 602Q627 639 626 656T608 680T558 688L563 708Q589 707 629 706T710 705Q756 705 796 706T862 708L857 688Q823 687 804 681T775 657T754 602L622 106Q613 70 614 52T631 28T681
20L677 0Q653 2 613 2T526 3Q485 3 445 3T378 0L382 20Q416 22 435 28T465 52T485 106L617 602ZM204 106Q195 70 196 52T213 28T263 20L259 0Q233 2 193 2T112 3Q66 3 27 3T-39 0L-34 20Q-1 22 17 28T47 52T67 106L199 602Q209 639 207 656T190 680T140 688L145
708Q169 707 209 706T296 705Q337 705 376 706T444 708L439 688Q405 687 386 681T357 657T336 602L204 106Z" />
<glyph unicode="I" horiz-adv-x="373" d="M204 106Q195 70 196 52T213 28T263 20L259 0Q233 2 192 2T108 3Q63 3 25 3T-39 0L-34 20Q-1 22 17 28T47 52T67 106L199 602Q209 639 207 656T190 680T140 688L145 708Q169 707 208 706T292 705Q335 705 375 706T444
708L439 688Q405 687 386 681T357 657T336 602L204 106Z" />
<glyph unicode="J" horiz-adv-x="668" d="M615 366L612 346H247L250 366H615ZM439 579Q405 579 377 587T323 605T271 623T213 631Q184 631 168 616T152 571Q152 540 176 521T251 495Q251 495 250 486T249 476Q207 481 173 496T117 539T96 609Q95 666 129 702T229
739Q266 739 295 729T349 703T399 673T453 647T519 636Q563 636 604 646T691 677Q712 709 732 726T767 730Q779 720 766 703T700 666Q623 609 576 516T499 307L437 65Q420 -3 385 -60T295 -153T160 -188Q125 -188 96 -181T51 -159T33 -119Q32 -91 52 -70T108 -49Q135
-49 154 -63T173 -102Q174 -124 160 -140T123 -168Q131 -169 138 -170T153 -172Q187 -172 210 -151T249 -94T278 -9T307 95L352 262Q373 337 404 394T476 497T568 581T674 658Q640 645 611 631T555 606T500 587T439 579Z" />
<glyph unicode="K" horiz-adv-x="718" d="M204 106Q195 70 196 52T213 28T263 20L259 0Q233 2 193 2T112 3Q66 3 27 3T-39 0L-34 20Q-1 22 17 28T47 52T67 106L199 602Q209 639 207 656T190 680T140 688L145 708Q169 707 209 706T296 705Q337 705 376 706T444
708L439 688Q405 687 386 681T357 657T336 602L204 106ZM558 53Q579 53 593 69T619 119L636 170H656L630 93Q611 38 578 12T500 -14Q442 -14 416 19T396 109L412 240Q416 281 413 304T401 341T375 365L377 375Q424 371 456 362T509 335T536 285T540 202L531 94Q530
76 535 65T558 53ZM389 360Q335 345 316 349T298 369Q299 384 318 388T389 378V360ZM617 683Q599 664 587 634T563 568T539 497T505 432T453 385T376 368L378 378Q429 383 459 409T508 474T538 555T565 635T602 695Q619 711 636 716T670 722Q711 722 732 700T753
642Q752 623 743 603T717 569T673 555Q647 555 631 571T615 614Q616 638 632 662T676 701Q673 701 671 702T663 703Q647 702 637 697T617 683Z" />
<glyph unicode="L" horiz-adv-x="598" d="M553 210Q547 194 541 173T528 128Q523 109 515 74T502 0Q451 2 388 2T274 3Q250 3 213 3T132 3T44 2T-40 0L-36 20Q-2 22 17 28T47 52T67 106L200 602Q210 639 209 656T192 680T142 688L147 708Q171 707 212 706T299
705Q340 705 378 706T445 708L440 688Q406 687 387 681T358 657T337 602L204 106Q194 70 195 52T213 29T262 23H313Q365 23 403 41T473 100T530 210H553Z" />
<glyph unicode="M" horiz-adv-x="900" d="M754 705H822Q865 705 903 706T971 708L966 688Q932 687 913 681T884 657T863 602L731 106Q722 70 723 52T741 28T790 20L786 0Q758 2 720 2T638 3Q593 3 553 3T488 0L492 20Q527 22 545 28T575 52T595 106L740 645L325
-5H303L227 623L95 124Q87 92 88 69T107 34T168 20L163 0Q152 1 133 1T94 2T55 3Q30 3 4 3T-39 0L-35 20Q0 22 20 34T52 69T73 124L200 602Q210 639 208 656T191 680T141 688L146 708Q167 707 199 706T267 705Q291 705 315 706T357 708L413 170L754 705Z" />
<glyph unicode="N" horiz-adv-x="806" d="M517 -5L270 585Q270 585 269 587T265 593T262 599T261 602Q269 639 267 656T247 680T190 688L195 708Q211 707 234 706T284 705Q331 705 365 708L569 196Q569 196 567 182T562 145T554 96T547 47T541 10T539 -5H517ZM823
735Q796 734 776 720T740 682Q694 614 646 443T539 -5L525 23Q540 90 557 167T593 323T633 472T676 599T722 690Q741 717 767 735T830 754Q872 754 892 733T912 681Q912 646 890 621T832 595Q803 595 789 611T774 648Q774 677 791 699T835 731Q832 733 830 734T823
735ZM12 -55Q40 -54 60 -40T97 -1Q126 45 155 143T215 380T277 685L294 664Q278 582 261 498T225 333T188 183T150 64T113 -11Q95 -35 71 -54T6 -74Q-37 -74 -57 -53T-77 0Q-77 34 -55 59T3 85Q33 85 47 69T61 32Q61 3 44 -19T1 -51Q3 -53 6 -54T12 -55Z" />
<glyph unicode="O" horiz-adv-x="761" d="M478 704Q435 704 394 677T317 601T254 490T212 356T196 213Q196 115 229 60T314 4Q357 4 398 31T475 107T538 218T580 352T596 495Q596 593 563 648T478 704ZM46 226Q46 292 66 362T124 496T216 611T339 692T487 722Q609
722 678 660T747 481Q747 415 727 346T668 212T576 97T453 16T305 -14Q183 -14 115 48T46 226Z" />
<glyph unicode="P" horiz-adv-x="625" d="M221 284L226 304H271Q340 304 387 327T462 389T504 477T517 576Q517 632 492 660T410 688Q387 688 374 681T353 655T336 602L204 106Q196 76 196 58T211 30T263 20L259 0Q232 2 194 2T115 3Q69 3 28 3T-39 0L-35 20Q-1
22 18 28T48 52T68 106L200 602Q208 633 208 651T193 678T141 688L146 708Q170 707 211 706T293 705Q329 705 365 706T439 707Q552 707 607 668T662 556Q662 478 612 417T471 320T261 284H221Z" />
<glyph unicode="Q" horiz-adv-x="815" d="M307 243Q245 243 200 264T129 326T103 420Q103 485 137 540T228 636T358 699T509 722Q594 722 658 697T758 627T794 518Q794 460 766 400T688 280T576 168T444 68T305 -11T173 -63T63 -82Q16 -82 -12 -62T-41 -4Q-41
27 -23 50T25 87T93 101Q144 101 188 80T275 28T362 -34T457 -87T569 -108Q603 -108 628 -100T672 -76T702 -38Q691 -47 678 -51T650 -55Q620 -55 601 -38T582 9Q582 41 604 63T661 85Q692 85 712 66T733 11Q733 -26 711 -61T652 -125T565 -170T462 -188Q408 -188
364 -171T284 -127T217 -71T158 -14T102 30T44 47Q18 47 -1 33T-20 -7Q-20 -36 4 -50T72 -65Q100 -65 134 -57T206 -34T276 -4Q335 23 389 62T490 151T572 258T626 377T646 504Q646 596 606 650T489 704Q434 704 390 678T315 607T266 509T249 400Q249 357 261 328T297
285T356 270Q399 270 433 290T490 342T516 407Q518 418 518 430T517 452Q507 424 482 411T433 397Q404 397 387 416T370 463Q370 498 395 521T456 545Q496 545 519 516T542 438Q542 384 512 340T429 269T307 243Z" />
<glyph unicode="R" horiz-adv-x="695" d="M258 354Q296 353 319 351T358 348T389 343Q428 339 459 332T512 309T544 270T549 208L538 105Q534 74 540 52T569 31Q588 32 602 51T629 107L634 121H657L653 108Q635 46 602 16T512 -14Q449 -14 422 17T401 96L413 208Q418
254 409 282T365 324T256 338L258 354ZM244 339L249 357H286Q343 357 386 372T460 417T505 487T521 579Q521 635 496 661T417 688Q382 688 367 674T340 616L204 106Q196 75 195 57T209 30T263 20L259 0Q232 2 194 2T113 3Q69 3 28 3T-39 0L-35 20Q-1 22 18 28T48
52T68 106L200 602Q208 633 208 651T193 678T141 688L146 708Q162 707 186 707T237 706T288 705Q331 705 366 706T437 707Q552 707 607 672T662 567Q662 499 615 448T482 369T284 340L244 339Z" />
<glyph unicode="S" horiz-adv-x="576" d="M605 715Q595 689 579 640T546 511H526Q529 525 530 540T532 567Q532 606 517 635T470 682T389 700Q336 700 299 673T262 585Q262 548 279 516T324 453T383 392T441 329T485 262T503 184Q503 131 478 94T412 33T326 -2T235
-14Q190 -14 161 -8T111 10T72 32Q62 40 53 43T37 47Q24 47 16 35T-5 -7H-25Q-16 15 -6 44T16 118T43 233H63Q59 214 56 194T54 153Q57 83 97 45T217 7Q284 7 318 35T352 119Q352 161 337 195T296 260T243 319T190 378T149 444T133 524Q133 574 154 611T210 672T287
709T370 722Q424 722 459 709T519 678Q530 671 538 667T552 662Q566 662 585 715H605Z" />
<glyph unicode="T" horiz-adv-x="673" d="M777 845Q809 845 826 826T843 781Q843 753 827 731T781 695Q753 680 712 672T617 664Q579 664 537 668T452 677T367 686T288 690Q255 690 224 687T175 673Q195 665 208 645T222 599Q222 570 204 548T153 525Q123 525
107 545T91 593Q91 616 103 641T152 685Q175 696 201 701T250 707T286 708Q347 708 404 702T516 690T625 684Q667 684 695 688T746 703L744 695Q731 707 720 726T708 772Q708 802 726 823T777 845ZM413 689Q413 689 426 688T460 685T500 681T533 678T546 677L398
116Q388 79 390 59T412 31T473 20L469 0Q439 2 393 2T296 3Q247 3 202 3T130 0L134 20Q176 22 199 30T236 59T261 116L413 689Z" />
<glyph unicode="U" horiz-adv-x="690" d="M639 560Q652 609 651 635T633 673T576 688L582 708Q600 707 630 706T687 705Q712 705 736 706T777 708L771 688Q738 685 719 674T687 638T663 568L591 291Q555 153 493 79Q457 37 404 12T288 -14Q223 -14 178 4T107 56Q78
96 78 150T100 288L183 602Q193 639 191 656T174 680T124 688L130 708Q154 707 195 706T283 705Q324 705 362 706T428 708L422 688Q388 687 369 681T340 657T319 602L231 271Q216 213 211 167T212 88T243 38T307 21Q382 21 432 54T514 147T565 280L639 560Z" />
<glyph unicode="V" horiz-adv-x="651" d="M608 558Q639 607 641 634T624 674T562 688L567 708Q582 707 604 707T651 706T692 705Q716 705 734 706T768 708L763 688Q745 683 728 673T691 643T649 588L264 -5Q254 -4 245 -4T225 -5L146 624Q142 660 125 673T94 688L99
708Q122 707 158 706T231 705Q276 705 311 706T372 708L367 688Q336 687 317 681T291 658T287 604L341 133L320 117L608 558Z" />
<glyph unicode="W" horiz-adv-x="955" d="M556 489L258 -5H219L140 624Q135 662 118 674T86 688L90 708Q114 707 148 706T217 705Q255 705 287 706T339 708L335 688Q303 686 290 671T281 604L334 142L311 121L548 514L556 489ZM906 558Q933 610 934 637T914 675T853
688L858 708Q873 707 895 707T941 706T983 705Q1007 705 1024 706T1058 708L1053 688Q1035 683 1018 674T982 645T944 588L633 -5H594L503 624Q498 661 485 674T459 688L463 708Q485 707 516 706T580 705Q625 705 663 706T726 708L722 688Q672 686 655 671T644
604L707 156L684 136L906 558Z" />
<glyph unicode="X" horiz-adv-x="727" d="M478 135Q482 100 496 76T542 51Q568 51 584 67T613 119L630 170H650L624 93Q604 36 571 11T491 -14Q438 -14 408 7T364 64T344 142L292 575Q288 612 274 635T229 659Q203 659 186 643T156 589L139 538H119L145 615Q166
672 200 697T284 722Q334 722 363 701T407 645T426 566L478 135ZM700 703Q682 703 667 697T635 680Q604 656 563 603T479 468T396 278L410 354Q434 419 469 484T543 603T616 687Q662 722 708 722Q749 722 768 698T786 640Q785 607 764 581T707 555Q679 555 665
572T652 615Q653 641 669 664T712 699Q710 701 708 702T700 703ZM49 5Q67 6 83 12T114 28Q147 51 190 99T280 222T367 396L351 320Q327 261 290 203T212 96T134 20Q88 -14 41 -14Q0 -14 -19 10T-38 68Q-37 101 -16 127T41 153Q70 153 84 136T97 93Q96 67 80 44T36
9Q38 7 41 6T49 5Z" />
<glyph unicode="Y" horiz-adv-x="712" d="M376 106Q367 70 370 52T391 28T443 20L438 0Q421 1 395 1T340 2T282 3Q237 3 197 3T131 0L136 20Q170 22 189 28T219 52T239 106L308 380L363 317L420 336L454 416L376 106ZM706 703Q690 702 676 697T647 680Q617 658
577 606T493 471T412 270L301 265Q297 311 291 364T275 468T252 561T221 629T180 655Q162 655 151 643T133 608L109 538Q109 538 98 538T87 538L116 622Q134 676 164 699T242 722Q306 722 341 679T394 556T425 364Q460 459 504 533T596 659Q619 684 650 703T715
722Q756 722 776 699T795 644Q795 613 773 588T715 563Q685 563 671 579T657 619Q657 646 674 667T717 699Q715 701 712 702T706 703Z" />
<glyph unicode="Z" horiz-adv-x="656" d="M161 346L168 366H521L513 346H161ZM449 209Q449 209 451 219T453 229Q483 225 511 212T557 175T575 113Q575 58 538 22T438 -14Q397 -14 367 0T309 33T251 67T181 81Q147 81 121 72T61 48Q39 16 13 -1T-27 -5Q-39 6 -25
28T42 70L622 640Q576 604 527 583T429 562Q394 562 367 569T317 586T270 602T219 610Q194 610 181 598T167 561Q167 538 185 522T239 499Q239 499 237 489T235 479Q206 484 178 497T131 534T113 595Q113 650 150 686T250 722Q291 722 321 708T379 675T437 641T507
627Q541 627 568 636T627 660Q650 692 675 709T715 713Q727 703 713 681T646 638L66 68Q112 104 161 125T259 146Q294 146 321 139T371 122T418 106T469 98Q495 98 508 110T521 147Q521 170 504 186T449 209Z" />
<glyph unicode="[" horiz-adv-x="342" d="M-23 -181L214 772H424L420 753H339L110 -162H191L187 -181H-23Z" />
<glyph unicode="\" horiz-adv-x="491" d="M163 722L391 -14H358L132 722H163Z" />
<glyph unicode="]" horiz-adv-x="342" d="M365 772L128 -181H-82L-78 -162H3L232 753H151L155 772H365Z" />
<glyph unicode="^" horiz-adv-x="530" d="M273 410Q236 383 183 358T77 314L73 328Q150 361 215 415T319 528H337Q346 470 382 416T479 328L469 314Q414 330 362 355T273 410Z" />
<glyph unicode="_" horiz-adv-x="744" d="M-28 -97H538L515 -177H-51L-28 -97Z" />
<glyph unicode="`" horiz-adv-x="322" d="M346 599Q309 647 281 677T233 728T199 772Q186 795 189 815T209 844Q228 854 249 847T283 818Q297 796 305 768T324 702T359 605L346 599Z" />
<glyph unicode="a" horiz-adv-x="547" d="M161 32Q179 32 202 53T249 114T295 207T333 325L312 217Q283 132 251 81T183 8T109 -14Q55 -14 29 19T3 109Q3 161 20 218T67 331T137 431T220 503T308 530Q342 530 360 502T369 415L358 409Q365 451 355 475T320 499Q297
499 272 475T221 410T176 317T143 209T131 100Q131 63 138 48T161 32ZM386 516Q422 517 453 520T514 530L385 86Q381 74 380 62T381 41T398 32Q414 32 431 49T466 118L481 163H500L475 90Q461 49 440 27T396 -5T349 -14Q301 -14 281 16Q268 38 271 70T284 139L386
516Z" />
<glyph unicode="b" horiz-adv-x="532" d="M337 484Q315 484 289 455T235 376T184 262T144 130L162 234Q198 340 233 405T305 500T383 530Q439 530 469 492T500 380Q500 334 487 281T449 176T386 81T302 12T195 -14Q166 -14 143 0T110 39L118 56Q129 33 143 23T177
13Q208 13 237 38T291 107T335 202T364 308T374 409Q374 449 365 466T337 484ZM121 40Q91 33 59 18T-4 -16L-19 -9Q-12 5 -8 19T1 49L179 667Q188 701 177 717T116 733L122 754Q188 755 238 765T335 795L121 40Z" />
<glyph unicode="c" horiz-adv-x="453" d="M347 510Q309 510 273 479T207 395T160 274T142 134Q142 82 162 59T216 36Q249 36 284 56T354 128L374 120Q354 87 323 56T252 6T162 -14Q96 -14 54 23T12 137Q12 186 26 240T69 345T137 438T228 505T340 530Q391 530
423 504T456 437Q456 413 445 390T413 352T367 337Q344 337 330 351T315 388Q315 425 341 452T401 487Q392 497 380 503T347 510Z" />
<glyph unicode="d" horiz-adv-x="566" d="M405 85Q398 61 401 46T421 31Q437 31 452 48T486 117L502 162H521L497 89Q484 48 463 26T417 -5T370 -14Q308 -14 296 35Q290 53 292 79T304 139L444 667Q453 701 441 717T380 733L387 754Q453 755 504 765T601 795L405
85ZM171 30Q191 30 217 54T270 124T323 234T367 376L352 268Q317 169 283 107T209 16T121 -14Q89 -14 63 0T22 45T7 124Q7 170 22 224T65 333T134 431T225 503T336 530Q366 530 383 515T402 470L394 450Q390 480 378 493T346 507Q316 507 286 483T228 418T180 324T147
216T135 105Q135 67 143 49T171 30Z" />
<glyph unicode="e" horiz-adv-x="456" d="M115 220Q162 238 201 257T268 299Q305 332 328 376T351 474Q351 497 347 504T335 511Q312 511 285 489T232 429T185 342T150 241T137 136Q137 83 157 62T212 40Q241 40 281 59T360 128L376 120Q356 87 323 56T248 6T154
-14Q112 -14 78 2T25 49T6 127Q6 176 23 231T71 340T146 436T243 504T357 530Q397 530 424 512T451 455Q451 416 429 382T370 320T288 270T198 232T114 206L115 220Z" />
<glyph unicode="f" horiz-adv-x="335" d="M59 496L65 516H384L378 496H59ZM409 765Q392 765 379 759T355 743Q341 730 330 704T308 644T287 568L88 -174Q52 -175 22 -178T-38 -188L149 511Q171 594 197 648T262 734Q288 757 323 769T397 782Q454 782 485 758T517
695Q517 675 506 656T477 625T434 613Q407 613 392 625T378 661Q378 691 397 714T447 748Q445 755 435 760T409 765Z" />
<glyph unicode="g" horiz-adv-x="464" d="M221 226L260 228Q221 210 192 196T146 169T129 144Q129 135 141 128T179 113L259 88Q289 79 314 67T356 36T372 -13Q372 -46 351 -78T290 -135T195 -176T73 -192Q22 -192 -17 -183T-78 -156T-100 -116Q-100 -98 -86 -82T-48
-53T6 -30T69 -15L73 -30Q38 -48 25 -69T11 -112Q11 -145 34 -160T95 -175Q125 -175 156 -166T215 -142T259 -106T276 -63Q276 -45 264 -39T229 -27L82 14Q58 21 41 36T24 78Q24 102 44 124T108 171T221 226ZM267 512Q243 512 226 496T197 455T177 400T166 342T162
291Q162 259 172 246T202 233Q230 233 249 254T281 308T298 377T303 445Q303 474 297 493T267 512ZM279 530Q343 530 383 504T424 417Q424 369 395 322T313 245T187 215Q126 215 85 241T43 326Q43 356 57 391T100 458T173 510T279 530ZM356 477L336 484Q351 521
385 547T457 573Q487 573 503 557T519 511Q519 482 505 468T473 454Q457 454 443 465T425 501T438 563L447 558Q408 543 389 525T356 477Z" />
<glyph unicode="h" horiz-adv-x="558" d="M108 0H-15L183 667Q193 701 181 717T119 733L126 754Q192 755 243 765T341 795L108 0ZM134 146Q173 258 207 332T275 450T344 512T419 530Q467 530 487 509T507 452T493 379L395 85Q386 58 389 45T409 31Q424 31 441
48T477 117L493 162H512L487 89Q473 47 452 25T406 -5T357 -14Q312 -14 293 6T274 61T288 139L380 414Q385 430 388 447T387 475T366 486Q344 486 319 462T265 393T210 290T157 160T111 13L134 146Z" />
<glyph unicode="i" horiz-adv-x="316" d="M181 688Q184 725 211 747T274 769Q307 769 324 751T339 703Q336 669 309 646T246 623Q213 623 196 641T181 688ZM146 431Q164 485 134 485Q114 485 98 465T64 399L47 352H28L54 427Q69 467 90 489T137 521T188 530Q223
530 241 517T265 483T268 438T257 390L151 85Q142 58 146 45T165 31Q181 31 197 48T233 117L250 162H269L244 89Q229 49 208 27T162 -5T113 -14Q69 -14 49 5T29 59T45 139L146 431Z" />
<glyph unicode="j" horiz-adv-x="293" d="M-138 -188L-133 -171Q-80 -169 -40 -128T20 -5L142 431Q150 461 148 473T129 485Q112 485 96 466T62 399L45 352H26L51 427Q72 487 108 508T186 530Q231 530 248 509T264 456T253 390L173 101Q160 47 142 4T100 -72T43
-131Q11 -156 -33 -172T-138 -188ZM177 683Q177 720 203 746T270 772Q301 772 318 757T336 714Q336 679 309 653T242 626Q211 626 194 641T177 683Z" />
<glyph unicode="k" horiz-adv-x="540" d="M108 0H-15L183 667Q193 701 181 717T119 733L126 754Q192 755 243 765T341 795L108 0ZM374 72Q370 49 374 40T391 31Q407 31 423 48T457 117L472 162H491L467 89Q453 48 432 26T384 -5T332 -14Q288 -14 267 13T258 95L276
175Q289 230 268 255T177 286V290Q219 293 261 290T336 273T385 230T391 156L374 72ZM435 510Q422 510 413 506T394 495Q376 480 364 455T341 400T312 345T265 303T189 287L179 286L181 297Q227 300 254 317T298 359T324 413T347 466T379 507Q396 521 412 525T441
530Q485 530 504 506T522 449Q522 429 513 411T487 382T447 370Q418 370 405 386T391 424Q392 448 408 469T446 505Q444 507 441 508T435 510Z" />
<glyph unicode="l" horiz-adv-x="293" d="M129 85Q121 58 125 45T145 31Q159 31 175 48T211 117L227 162H246L221 89Q207 49 186 27T141 -5T92 -14Q60 -14 41 -2T15 31T10 79T22 139L181 667Q191 701 179 717T118 733L125 754Q190 755 241 765T339 795L129 85Z" />
<glyph unicode="m" horiz-adv-x="840" d="M145 0H22L142 431Q146 443 147 455T146 476T130 485Q111 485 95 466T62 399L45 352H26L52 427Q66 467 87 489T133 521T182 530Q215 530 231 517T252 483T254 438T244 390L145 0ZM400 414Q406 432 408 447T407 472T388
482Q364 482 336 452T277 368T219 242T165 83L180 182Q224 310 263 386T347 496T446 530Q478 530 494 517T516 483T519 434T507 379L402 0H277L400 414ZM661 414Q670 442 670 462T654 482Q630 482 603 455T546 375T484 244T421 66L431 145Q467 256 500 330T566
448T634 511T710 530Q753 530 771 508T788 452T774 379L676 85Q666 55 671 43T691 31Q706 31 722 48T758 117L774 162H793L768 89Q754 47 733 25T687 -5T639 -14Q610 -14 592 -6T564 19Q552 39 554 69T570 139L661 414Z" />
<glyph unicode="n" horiz-adv-x="596" d="M145 0H22L143 431Q147 445 149 457T148 477T130 485Q111 485 96 467T62 399L45 352H26L52 427Q73 486 106 508T179 530Q212 530 229 517T252 484T254 439T245 390L145 0ZM182 182Q219 285 253 352T319 458T385 514T456
530Q505 530 524 509T544 453T530 379L432 85Q423 58 427 45T447 31Q462 31 478 48T514 117L530 162H549L524 89Q510 47 489 25T443 -5T394 -14Q368 -14 350 -6T321 18Q308 37 310 67T326 139L417 414Q422 430 425 446T424 474T403 486Q382 486 357 463T305 397T251
299T200 178T156 42L182 182Z" />
<glyph unicode="o" horiz-adv-x="516" d="M322 510Q296 510 269 484T218 412T175 310T144 195T133 81Q133 41 143 24T175 6Q200 6 227 32T278 102T322 202T352 318T363 435Q363 477 353 493T322 510ZM15 148Q15 193 27 245T65 347T127 439T215 505T328 530Q400
530 440 490T481 368Q481 323 469 271T431 169T369 77T281 11T168 -14Q96 -14 56 27T15 148Z" />
<glyph unicode="p" horiz-adv-x="573" d="M376 484Q354 484 328 455T274 376T224 262T183 130L202 234Q237 340 272 405T344 500T423 530Q479 530 509 492T540 380Q540 334 527 281T490 176T429 81T347 12T243 -14Q211 -14 186 0T149 39L157 56Q169 33 183 23T216
13Q247 13 276 37T330 103T374 196T403 300T414 399Q414 447 404 465T376 484ZM213 661Q248 664 280 669T342 685L125 -80Q111 -128 133 -144T204 -160L198 -181Q175 -180 134 -179T48 -177Q11 -177 -27 -178T-83 -181L-77 -160Q-41 -160 -25 -147T1 -98L213 661ZM14
353Q52 391 84 429T148 520T210 653L213 637Q192 568 163 516T100 421T25 340L14 353Z" />
<glyph unicode="q" horiz-adv-x="537" d="M362 -87Q352 -127 369 -143T423 -160L417 -181Q395 -180 355 -179T269 -177Q231 -177 193 -178T134 -181L140 -160Q187 -159 208 -144T240 -93L391 475Q421 483 453 498T517 531L532 524Q525 511 520 496T511 466L362
-87ZM175 36Q196 36 219 58T267 118T311 204T346 307L326 203Q295 124 264 77T199 8T129 -14Q73 -14 43 24T12 136Q12 182 25 235T65 340T129 435T214 504T317 530Q346 530 369 516T402 477L394 460Q383 484 369 493T335 503Q304 503 275 477T221 406T177 310T148
204T138 107Q138 69 147 53T175 36Z" />
<glyph unicode="r" horiz-adv-x="455" d="M145 0H22L142 431Q151 461 148 473T130 485Q111 485 95 466T62 399L45 352H26L52 427Q66 467 87 489T133 521T184 530Q216 530 231 517T251 483T254 438T245 390L145 0ZM401 507Q379 507 356 492T308 442T258 353T205
218T151 30L175 163Q206 268 233 338T287 451T344 512T409 530Q445 530 464 509T484 457Q484 432 472 411T441 377T396 364Q371 364 357 377T342 415Q342 437 352 455T378 485T413 503Q411 505 408 506T401 507Z" />
<glyph unicode="s" horiz-adv-x="407" d="M69 15Q77 11 86 9T111 6Q149 6 174 30T200 99Q200 131 187 164T146 237Q122 272 103 306T83 384Q83 427 104 459T164 511T255 530Q289 530 322 522T376 493T397 432Q397 418 391 403T373 376T341 365Q320 365 306 381T292
424Q292 447 300 467T321 502Q307 510 281 510Q245 510 223 487T201 422Q201 400 208 381T229 341T260 293Q288 248 304 213T320 140Q320 96 297 61T232 6T136 -14Q97 -14 62 -4T4 31T-19 97Q-19 120 -7 139T32 159Q58 159 71 138T84 86Q84 64 79 46T69 15Z" />
<glyph unicode="t" horiz-adv-x="348" d="M393 516L390 496H55L60 516H393ZM150 85Q142 57 152 44T181 31Q202 31 223 51T263 121L278 162H297L277 102Q256 40 219 13T131 -14Q86 -14 63 6T35 60T43 139L194 666Q230 667 261 670T321 680L150 85Z" />
<glyph unicode="u" horiz-adv-x="587" d="M395 349Q357 242 324 172T259 61T192 3T120 -14Q78 -14 57 5T33 57T46 137L143 431Q153 461 148 473T128 485Q113 485 97 468T61 399L45 354H26L51 427Q66 469 87 491T133 521T181 530Q225 530 244 511T264 457T249 377L158
102Q134 30 172 30Q193 30 218 53T269 120T322 222T373 348T418 491L395 349ZM426 85Q419 60 420 46T438 31Q457 31 473 50T507 117L524 164H543L517 89Q503 49 482 27T436 -5T387 -14Q363 -14 346 -6T321 18Q311 36 312 62T324 126L424 516Q460 517 492 520T551
530L426 85Z" />
<glyph unicode="v" horiz-adv-x="527" d="M470 346Q433 363 406 395T380 473Q381 502 398 516T437 531Q474 531 489 497T500 407Q496 349 481 290T440 176T375 79T288 11T178 -14Q126 -14 97 4T57 51T46 110Q49 170 82 234T172 363T302 490Q280 486 261 474T224
449T191 425T158 415Q140 415 128 425T99 436Q84 436 75 425T57 384L47 353H28L50 426Q68 488 93 509T144 530Q163 530 176 522T205 504T243 495Q261 495 281 500T319 520L329 539L350 529Q313 478 283 425T232 319T198 216T182 119Q180 71 191 49T226 27Q267 27
302 47T365 102T415 179T450 265T470 346Z" />
<glyph unicode="w" horiz-adv-x="681" d="M298 59Q267 27 227 7T137 -14Q91 -14 62 2T20 46T6 106Q6 153 33 201T106 299T211 396T333 490H341Q317 486 295 475T255 449T220 425T185 415Q166 415 154 425T125 436Q110 436 101 425T82 384L72 353H53L76 426Q95
487 119 507T170 528Q189 528 204 520T235 504T277 495Q296 495 315 500T354 520L367 539L388 529Q338 482 294 429T215 322T161 212T141 104Q141 63 154 44T192 25Q216 25 242 38T292 76L298 59ZM438 37Q477 37 507 59T557 116T589 195T605 280T604 357Q579 366
551 380T504 418T485 475Q485 499 499 514T537 530Q560 530 575 516T600 478T616 428T625 375Q631 328 626 275T605 171T559 78T489 11T392 -14Q359 -14 330 -2T282 40T264 123Q264 168 279 210T319 286T370 339T419 359Q436 359 444 348T454 321T457 292Q457 233
428 176T341 71L335 88Q380 127 407 181T434 290Q434 310 430 323T416 337Q401 337 385 313T358 250T346 169Q346 135 355 105T385 56T438 37Z" />
<glyph unicode="x" horiz-adv-x="552" d="M352 82Q356 56 364 46T386 36Q400 36 415 52T449 124L462 161H481L456 88Q442 46 421 24T376 -6T328 -14Q289 -14 261 6T227 82L187 434Q183 460 174 468T152 477Q143 477 133 471T113 447T90 392L77 355H58L83 428Q97
470 118 492T163 522T212 530Q255 530 280 509T313 428L352 82ZM412 463Q385 435 365 399T331 327T306 261Q306 261 296 261T286 262Q291 277 299 301T319 353T350 411T390 469Q418 504 444 517T496 530Q524 530 542 515T560 474Q560 447 542 428T492 409Q467 409
445 422T412 463ZM109 53Q150 96 179 152T225 255Q225 255 234 254T243 252Q234 225 220 191T184 119T132 48Q103 15 77 1T25 -14Q-5 -14 -22 0T-39 40Q-39 69 -19 88T29 107Q59 107 78 92T109 53Z" />
<glyph unicode="y" horiz-adv-x="482" d="M299 54L206 -51L126 429Q122 458 116 469T99 480Q88 480 77 465T47 399L31 355H12L37 428Q58 489 89 509T158 530Q195 530 217 509T248 427L299 54ZM67 -139Q112 -117 161 -78T264 29Q320 101 364 185T429 351Q407 363
387 380T354 420T341 469Q343 498 359 514T403 530Q435 530 450 508T465 443Q465 394 449 337T404 221T341 106T268 3Q241 -29 207 -62T131 -123T42 -170Q18 -180 -1 -184T-33 -188Q-61 -188 -79 -175T-97 -137Q-97 -112 -79 -97T-32 -81Q-4 -81 20 -97T67 -139Z"
/>
<glyph unicode="z" horiz-adv-x="457" d="M31 50Q53 62 73 75T112 98T148 116T182 123Q206 123 224 115T259 99T298 91Q319 91 330 102T341 131Q341 156 322 171T276 193L282 208Q333 197 358 171T384 105Q384 75 372 49T332 7T262 -9Q232 -9 210 -2T168 16T125
33T71 41Q45 41 24 33T-19 0H-48L426 469Q402 457 380 443T337 417T298 397T262 389Q238 389 220 397T185 413T147 421Q127 421 115 411T103 381Q103 358 121 343T168 319L162 304Q114 315 87 340T60 405Q60 435 74 462T117 506T194 523Q223 523 245 516T286 499T328
482T381 475Q409 475 430 483T471 516H500L31 50Z" />
<glyph unicode="{" horiz-adv-x="343" d="M196 -188Q125 -188 87 -172T37 -126T29 -54T47 43Q64 110 72 154T80 227Q79 258 68 271T33 286H28L31 304H36Q68 307 89 328T130 402T173 547Q197 641 230 692T313 762T436 782L431 763Q407 763 390 757T359 729T331
664T299 547Q276 458 242 407T162 331T58 295Q111 282 140 259T181 203T189 131T173 43Q158 -18 151 -57T144 -119Q144 -150 158 -159T201 -169L196 -188Z" />
<glyph unicode="|" horiz-adv-x="352" d="M222 858V-195H150V858H222Z" />
<glyph unicode="}" horiz-adv-x="342" d="M148 782Q219 782 256 767T307 721T315 648T297 551Q281 484 273 440T264 367Q265 336 276 323T311 308H316L313 290H308Q277 288 255 266T214 193T171 47Q148 -47 115 -98T32 -168T-92 -188L-87 -169Q-63 -169 -46 -163T-15
-135T13 -70T45 47Q67 137 102 187T183 263T286 299Q233 313 203 336T163 391T155 463T171 551Q186 612 193 651T200 713Q200 744 186 753T143 763L148 782Z" />
<glyph unicode="~" horiz-adv-x="647" d="M407 221Q369 221 340 233T286 260T233 287T171 299Q142 299 116 286T69 241L55 246Q82 310 132 347T244 385Q282 385 311 373T365 346T418 319T480 307Q509 307 535 320T582 365L596 360Q571 297 521 259T407 221Z" />
<glyph unicode="&#xa0;" horiz-adv-x="255" />
<glyph unicode="&#xa1;" horiz-adv-x="281" d="M154 316Q134 238 126 161T114 14T102 -111Q99 -148 78 -168T21 -188Q-12 -188 -27 -170T-38 -122Q-32 -86 -12 -38T36 67T91 187T136 319L154 316ZM110 441Q110 478 136 504T199 530Q228 530 244 514T261 472Q261
449 249 429T217 397T171 384Q143 384 127 399T110 441Z" />
<glyph unicode="&#xa2;" horiz-adv-x="463" d="M370 708L131 -181H109L348 708H370ZM346 510Q309 510 273 479T207 395T160 274T142 134Q142 82 162 59T216 36Q249 36 284 56T354 128L374 120Q354 87 323 56T252 6T162 -14Q95 -14 53 23T11 137Q11 186 26 240T69
345T137 438T228 505T339 530Q391 530 423 504T456 437Q456 413 445 390T413 352T367 337Q344 337 330 351T315 388Q315 425 341 452T401 487Q392 497 379 503T346 510Z" />
<glyph unicode="&#xa3;" horiz-adv-x="656" d="M431 317L425 297H56L62 317H431ZM458 417L452 397H83L89 417H458ZM515 721Q478 721 452 706T407 663T375 599T350 520L307 356Q295 313 278 282T238 226T192 178T142 130T92 73Q129 102 171 120T257 138Q299 138
331 128T392 107T454 96Q479 96 498 110T517 150Q517 173 500 188T449 210L454 228Q485 223 512 210T556 175T573 120Q573 85 554 55T500 5T423 -14Q383 -14 353 -1T295 29T238 60T168 73Q147 73 127 70T83 57Q62 22 36 4T-14 -14Q-27 -14 -27 -4Q-27 11 -2 34T72
69Q89 103 106 144T143 258L191 439Q213 522 254 589T360 696T517 736Q573 736 601 711T630 652Q630 615 608 590T550 565Q525 565 509 578T492 617Q492 648 511 671T561 702Q559 710 546 715T515 721Z" />
<glyph unicode="&#xa4;" horiz-adv-x="628" d="M190 300Q190 262 207 232T254 184T317 167Q352 167 380 184T426 231T443 300Q443 338 426 368T381 416T317 434Q282 434 253 417T207 369T190 300ZM88 138L141 191Q125 214 117 242T108 300Q108 330 117 357T141
409L88 463L154 529L207 476Q230 492 258 500T316 509Q347 509 374 500T425 475L479 529L545 463L491 409Q507 385 515 358T524 300Q524 270 516 242T491 191L545 138L479 71L425 125Q401 110 374 101T316 92Q254 92 207 124L154 71L88 138Z" />
<glyph unicode="&#xa5;" horiz-adv-x="752" d="M553 217L548 197H136L141 217H553ZM575 297L570 277H158L163 297H575ZM391 106Q382 70 385 52T406 28T458 20L453 0Q435 1 410 1T355 2T297 3Q252 3 212 3T146 0L151 20Q185 22 204 28T234 52T254 106L323 380L378
317L435 336L469 416L391 106ZM720 703Q704 702 690 697T661 680Q632 658 591 606T507 471T426 270L316 265Q312 311 305 364T289 468T266 561T235 629T194 655Q176 655 165 643T147 608L124 538Q124 538 113 538T102 538L130 622Q148 676 179 699T256 722Q320
722 355 679T409 556T439 364Q475 459 519 533T611 659Q634 684 664 703T729 722Q771 722 791 699T810 644Q809 613 788 588T729 563Q700 563 685 579T671 619Q672 646 689 667T732 699Q730 701 727 702T720 703Z" />
<glyph unicode="&#xa6;" horiz-adv-x="356" d="M152 -195V326H224V-195H152ZM224 858V384H152V858H224Z" />
<glyph unicode="&#xa7;" horiz-adv-x="553" d="M493 736Q490 746 477 752T448 760T416 763Q383 763 352 750T301 709T280 635Q280 605 296 581T339 533T397 483Q433 453 459 428T499 376T514 318Q514 278 498 246T454 188T392 141T322 105L315 117Q338 130 358
146T394 184T411 235Q414 263 402 286T363 335T296 392Q254 426 223 455T175 513T158 579Q158 626 180 663T240 727T322 768T414 782Q436 782 462 778T512 764T551 736T567 692Q567 669 556 650T526 618T481 605Q455 605 441 619T427 655Q427 683 447 704T493 736ZM137
-169Q171 -169 202 -156T254 -114T274 -40Q274 -9 258 15T215 62T157 111Q122 141 96 166T54 218T39 276Q39 316 55 348T100 406T162 453T232 489L239 477Q217 464 195 446T157 405T142 350Q142 326 155 304T195 256T258 202Q300 169 330 140T378 81T395 15Q395
-32 373 -69T314 -133T231 -174T139 -188Q118 -188 92 -184T42 -170T3 -142T-13 -96Q-13 -74 -2 -55T29 -23T72 -11Q98 -11 112 -24T127 -59Q127 -88 108 -110T60 -142Q64 -151 77 -157T106 -166T137 -169Z" />
<glyph unicode="&#xa8;" horiz-adv-x="462" d="M156 676Q156 711 180 733T236 755Q265 755 280 738T296 693Q296 670 285 652T255 625T216 615Q187 615 172 632T156 676ZM379 676Q379 711 403 733T459 755Q487 755 503 738T519 693Q519 670 508 652T478 625T438
615Q409 615 394 632T379 676Z" />
<glyph unicode="&#xa9;" horiz-adv-x="915" d="M84 384Q84 467 115 539T200 665T327 751T482 782Q565 782 637 751T763 666T849 539T880 384Q880 302 849 230T764 103T637 17T482 -14Q400 -14 328 17T201 102T115 229T84 384ZM124 384Q124 308 152 242T229 126T343
47T482 18Q556 18 621 46T735 125T812 242T840 384Q840 460 812 526T735 642T621 721T482 750Q408 750 343 722T229 643T152 526T124 384ZM528 170Q550 170 573 178T621 208T664 270L682 264Q671 228 647 193T584 135T489 112Q425 112 373 141T290 231T259 380Q259
468 290 529T377 624T502 657Q545 657 585 644T650 604T676 538Q676 505 656 485T606 465Q575 465 556 484T536 534Q536 562 553 580T594 604Q585 618 564 627T517 636Q484 636 456 615T410 542T392 393Q392 309 411 260T462 191T528 170Z" />
<glyph unicode="&#xaa;" horiz-adv-x="506" d="M421 443Q415 424 417 413T434 402Q448 402 459 413T481 453L490 478H509L494 437Q478 395 451 378T385 360Q359 360 343 370T323 404T332 472L401 713Q463 713 511 722L421 443ZM235 399Q252 399 272 418T312 470T350
543T377 627L363 548Q338 475 310 435T252 377T189 360Q146 360 123 383T99 448Q99 494 121 542T181 631T263 697T352 722Q369 722 383 712T393 667L386 651Q387 677 380 687T361 698Q340 698 315 677T265 620T227 540T212 449Q212 425 218 412T235 399Z" />
<glyph unicode="&#xab;" horiz-adv-x="563" d="M352 530Q337 498 313 459T259 379T201 305T145 250Q163 231 181 200T214 130T239 54T254 -14H236Q192 61 140 127T20 245L22 255Q111 312 186 381T334 530H352ZM533 514Q520 484 498 447T449 371T395 301T343 250Q359
232 375 203T406 137T430 66T443 2H425Q383 72 334 134T221 245L223 255Q306 308 377 373T515 514H533Z" />
<glyph unicode="&#xac;" horiz-adv-x="651" d="M88 340L97 370H598L539 165H503L553 340H88Z" />
<glyph unicode="&#xad;" horiz-adv-x="505" />
<glyph unicode="&#xae;" horiz-adv-x="690" d="M401 782Q459 782 509 761T598 701T658 612T680 503Q680 445 659 395T599 306T510 246T401 224Q343 224 293 245T204 305T144 394T122 503Q122 561 143 611T203 700T292 760T401 782ZM334 522Q368 522 382 521T404
519T423 515Q474 511 492 497T516 456L530 393Q533 382 535 375T546 367Q553 367 558 373L566 365Q559 355 547 350T516 345Q487 345 472 355T452 388L437 461Q433 481 426 490T398 503T336 507L334 522ZM401 750Q335 750 281 717T196 627T164 503Q164 436 195
380T281 290T401 256Q467 256 521 289T606 379T638 503Q638 571 607 627T521 716T401 750ZM412 676Q474 676 503 656T532 597Q532 579 521 560T478 527T389 510L329 507Q329 507 329 515T329 523H382Q424 523 439 541T455 590Q455 625 441 643T396 661Q377 661
372 655T366 631V404Q366 381 370 375T389 367V352Q377 352 362 352T330 353Q311 353 295 353T268 352V367Q282 369 286 375T291 404V623Q291 647 287 653T268 661V676Q278 675 294 675T326 675Q354 675 378 675T412 676Z" />
<glyph unicode="&#xaf;" horiz-adv-x="428" d="M491 712L485 687H157L163 712H491Z" />
<glyph unicode="&#xb0;" horiz-adv-x="334" d="M261 820Q310 820 346 788T383 700Q383 644 347 612T261 579Q213 579 177 611T140 700Q140 756 176 788T261 820ZM261 597Q284 597 306 608T343 642T358 700Q358 733 343 755T306 790T261 802Q239 802 217 790T180
756T165 700Q165 665 179 643T216 609T261 597Z" />
<glyph unicode="&#xb1;" horiz-adv-x="623" d="M-18 0L-9 30H492L483 0H-18ZM82 370H315L382 606H418L351 370H583L574 340H342L275 105H239L306 340H73L82 370Z" />
<glyph unicode="&#xb2;" horiz-adv-x="351" d="M299 754Q337 754 361 741T385 697Q385 668 364 641T311 590T244 545T186 506Q203 506 226 502T271 493T310 488Q329 488 341 496T353 519Q353 530 349 538L366 545Q373 536 376 525T380 502Q380 473 358 453T289
433Q257 433 227 441T155 451Q131 453 115 450T77 437L81 455Q98 467 125 484T182 524T240 571T285 622T302 676Q302 698 289 708T252 718Q226 718 200 707T149 668L135 679Q160 708 201 731T299 754Z" />
<glyph unicode="&#xb3;" horiz-adv-x="335" d="M303 754Q342 754 366 741T391 700Q391 679 376 660T337 627T287 602T236 586Q288 585 324 569T361 512Q361 475 330 446T250 395T145 362T39 347V365Q81 368 123 379T200 411T256 458T277 520Q277 547 265 558T230
572Q219 566 211 564T198 562Q192 562 186 565T180 575Q180 585 192 589T224 592Q262 607 285 630T309 682Q309 702 297 711T265 720Q240 720 213 709T154 667L140 679Q155 696 179 713T236 742T303 754Z" />
<glyph unicode="&#xb4;" horiz-adv-x="289" d="M138 608Q176 659 199 696T240 761T279 810Q297 830 320 834T361 823Q376 808 372 788T345 745Q326 725 299 707T234 663T148 599L138 608Z" />
<glyph unicode="&#xb6;" horiz-adv-x="686" d="M414 333Q395 253 386 189T374 86T374 48Q374 48 382 80T405 167T437 285T472 415T503 534T527 621T537 656Q535 656 524 634T496 572T461 480T424 370Q349 370 285 366T183 358T144 351Q144 349 179 345T277 337T414
333ZM356 -13Q241 -13 171 17T70 102T38 229Q38 328 74 415T174 568T324 671T509 709Q556 709 598 708T679 706Q700 706 721 706T763 708L758 689Q709 687 691 671T663 621L522 82Q502 4 466 -57T375 -153T240 -188Q205 -188 176 -181T131 -159T113 -119Q113 -91
134 -70T190 -48Q216 -48 233 -60T250 -96Q250 -118 238 -136T203 -168Q211 -169 218 -170T233 -172Q266 -172 288 -153T326 -98T356 -13Z" />
<glyph unicode="&#xb7;" horiz-adv-x="279" d="M55 244Q55 281 81 307T144 333Q173 333 189 317T206 274Q206 251 194 232T162 200T116 187Q88 187 72 202T55 244Z" />
<glyph unicode="&#xb8;" horiz-adv-x="322" d="M117 0L77 -70Q87 -66 100 -64T126 -61Q150 -61 165 -71T181 -102Q181 -133 158 -152T100 -179T31 -188Q1 -188 -22 -181T-56 -168L-49 -152Q-42 -155 -27 -159T11 -164Q23 -164 41 -160T73 -146T87 -117Q87 -93
59 -93Q54 -93 45 -94T28 -100L89 0H117Z" />
<glyph unicode="&#xb9;" horiz-adv-x="263" d="M329 753L228 437H145L223 677Q199 665 173 655T108 634L113 653Q165 668 200 684T262 719T310 753H329Z" />
<glyph unicode="&#xba;" horiz-adv-x="465" d="M341 704Q316 704 294 680T253 615T225 529T214 437Q214 379 254 379Q279 379 301 403T342 467T370 554T381 646Q381 704 341 704ZM106 477Q106 512 121 554T166 634T242 697T346 722Q411 722 450 693T489 605Q489
570 474 528T428 448T353 386T249 361Q184 361 145 390T106 477Z" />
<glyph unicode="&#xbb;" horiz-adv-x="562" d="M308 530Q353 456 405 390T524 270L522 261Q434 204 358 135T210 -14H192Q207 19 231 58T285 137T343 211T398 266Q380 284 363 316T330 386T305 462T290 530H308ZM119 514Q161 444 210 382T323 270L321 261Q238
208 167 143T29 2H11Q25 33 47 70T96 145T150 214T201 266Q184 283 168 313T138 379T114 450T101 514H119Z" />
<glyph unicode="&#xbc;" horiz-adv-x="647" d="M719 824L734 811L-99 -55L-114 -42L719 824ZM329 753L228 437H145L223 677Q199 665 173 655T108 634L113 653Q165 668 200 684T262 719T310 753H329ZM470 317L475 296L188 47L199 69H471L455 16H141L146 34L470
317ZM489 317L372 -85H304L398 240L470 317H489Z" />
<glyph unicode="&#xbd;" horiz-adv-x="616" d="M719 824L734 811L-99 -55L-114 -42L719 824ZM329 753L228 437H145L223 677Q199 665 173 655T108 634L113 653Q165 668 200 684T262 719T310 753H329ZM466 317Q504 317 528 304T552 260Q552 231 531 204T478 153T411
108T353 69Q370 69 393 65T438 56T477 51Q496 51 508 59T520 82Q520 93 516 101L533 108Q540 99 543 88T547 65Q547 36 525 16T456 -4Q424 -4 394 4T322 14Q298 16 282 13T244 0L248 18Q265 30 292 47T349 87T407 134T452 185T469 239Q469 261 456 271T419 281Q393
281 367 270T316 231L302 242Q327 271 368 294T466 317Z" />
<glyph unicode="&#xbe;" horiz-adv-x="735" d="M819 824L834 811L1 -55L-14 -42L819 824ZM303 754Q342 754 366 741T391 700Q391 679 376 660T337 627T287 602T236 586Q288 585 324 569T361 512Q361 475 330 446T250 395T145 362T39 347V365Q81 368 123 379T200
411T256 458T277 520Q277 547 265 558T230 572Q219 566 211 564T198 562Q192 562 186 565T180 575Q180 585 192 589T224 592Q262 607 285 630T309 682Q309 702 297 711T265 720Q240 720 213 709T154 667L140 679Q155 696 179 713T236 742T303 754ZM570 317L575
296L288 47L299 69H571L555 16H241L246 34L570 317ZM589 317L472 -85H404L498 240L570 317H589Z" />
<glyph unicode="&#xbf;" horiz-adv-x="474" d="M165 -168Q182 -168 202 -165T239 -154T264 -135Q245 -132 231 -116T217 -77Q218 -52 237 -36T285 -19Q310 -19 326 -33T342 -75Q342 -103 323 -124T273 -160T205 -181T129 -188Q52 -188 4 -160T-44 -81Q-44 -51
-28 -26T24 26T115 91Q159 121 188 143T233 185T248 233Q248 258 232 277T182 297Q157 297 132 289T96 267Q110 266 124 253T137 219Q137 198 120 183T77 167Q57 167 43 177T28 213Q28 240 46 259T93 291T154 310T217 316Q260 316 293 305T346 271T365 216Q365
180 344 151T286 96T209 40Q143 -4 112 -33T80 -99Q80 -131 103 -149T165 -168ZM206 441Q206 478 232 504T295 530Q324 530 340 514T357 472Q357 449 345 429T313 397T267 384Q239 384 223 399T206 441Z" />
<glyph unicode="&#xc0;" horiz-adv-x="645" d="M67 150Q34 103 31 75T48 35T110 20L106 0Q68 2 38 2T-20 3Q-43 3 -59 3T-91 0L-86 20Q-70 24 -54 34T-20 65T23 120L445 713Q454 712 464 712T484 713L524 84Q527 48 542 35T573 20L569 0Q545 2 508 2T436 3Q394
3 356 3T296 0L300 20Q348 22 368 37T386 104L360 576L386 600L67 150ZM156 288H448L440 268H138L156 288ZM506 770Q459 797 426 812T369 838T327 863Q311 874 303 894T306 932Q320 953 343 952T383 938Q402 924 417 903T455 852T515 781L506 770Z" />
<glyph unicode="&#xc1;" horiz-adv-x="645" d="M67 150Q34 103 31 75T48 35T110 20L106 0Q68 2 38 2T-20 3Q-43 3 -59 3T-91 0L-86 20Q-70 24 -54 34T-20 65T23 120L445 713Q454 712 464 712T484 713L524 84Q527 48 542 35T573 20L569 0Q545 2 508 2T436 3Q394
3 356 3T296 0L300 20Q348 22 368 37T386 104L360 576L386 600L67 150ZM156 288H448L440 268H138L156 288ZM450 783Q501 822 533 851T591 902T642 938Q655 945 671 948T702 947T725 926Q735 905 722 887T687 856Q663 843 632 833T558 810T457 772L450 783Z" />
<glyph unicode="&#xc2;" horiz-adv-x="645" d="M67 150Q34 103 31 75T48 35T110 20L106 0Q68 2 38 2T-20 3Q-43 3 -59 3T-91 0L-86 20Q-70 24 -54 34T-20 65T23 120L445 713Q454 712 464 712T484 713L524 84Q527 48 542 35T573 20L569 0Q545 2 508 2T436 3Q394
3 356 3T296 0L300 20Q348 22 368 37T386 104L360 576L386 600L67 150ZM156 288H448L440 268H138L156 288ZM472 834Q430 818 374 801T259 771L254 785Q334 811 402 850T513 932H531Q554 883 584 847T670 785L666 771Q619 780 586 789T526 810T472 834Z" />
<glyph unicode="&#xc3;" horiz-adv-x="645" d="M67 150Q34 103 31 75T48 35T110 20L106 0Q68 2 38 2T-20 3Q-43 3 -59 3T-91 0L-86 20Q-70 24 -54 34T-20 65T23 120L445 713Q454 712 464 712T484 713L524 84Q527 48 542 35T573 20L569 0Q545 2 508 2T436 3Q394
3 356 3T296 0L300 20Q348 22 368 37T386 104L360 576L386 600L67 150ZM156 288H448L440 268H138L156 288ZM431 916Q467 916 490 905T532 880T569 854T615 843Q635 843 653 856T690 901L708 896Q682 828 639 799T554 769Q518 769 495 780T453 805T416 831T370 842Q350
842 332 829T295 784L277 789Q304 858 346 887T431 916Z" />
<glyph unicode="&#xc4;" horiz-adv-x="645" d="M67 150Q34 103 31 75T48 35T110 20L106 0Q68 2 38 2T-20 3Q-43 3 -59 3T-91 0L-86 20Q-70 24 -54 34T-20 65T23 120L445 713Q454 712 464 712T484 713L524 84Q527 48 542 35T573 20L569 0Q545 2 508 2T436 3Q394
3 356 3T296 0L300 20Q348 22 368 37T386 104L360 576L386 600L67 150ZM156 288H448L440 268H138L156 288ZM300 829Q300 864 324 885T380 907Q408 907 424 890T440 846Q440 823 429 805T399 778T360 768Q330 768 315 785T300 829ZM530 829Q530 864 554 885T610
907Q639 907 654 890T670 846Q670 823 659 805T629 778T590 768Q561 768 546 785T530 829Z" />
<glyph unicode="&#xc5;" horiz-adv-x="645" d="M67 150Q34 103 31 75T48 35T110 20L106 0Q68 2 38 2T-20 3Q-43 3 -59 3T-91 0L-86 20Q-70 24 -54 34T-20 65T23 120L445 713Q454 712 464 712T484 713L524 84Q527 48 542 35T573 20L569 0Q545 2 508 2T436 3Q394
3 356 3T296 0L300 20Q348 22 368 37T386 104L360 576L386 600L67 150ZM156 288H448L440 268H138L156 288ZM494 933Q533 933 560 911T588 849Q588 820 571 796T527 757T467 742Q429 742 403 764T377 826Q377 856 392 880T434 919T494 933ZM472 763Q495 763 515
774T549 805T562 849Q562 881 539 896T490 912Q456 912 430 886T403 827Q403 795 425 779T472 763Z" />
<glyph unicode="&#xc6;" horiz-adv-x="902" d="M621 773L36 94Q17 72 10 57T16 32T69 20V0Q56 2 32 2T-17 3Q-35 3 -53 3T-84 0V20Q-53 22 2 84L595 773H621ZM240 346L259 366H715L711 346H240ZM644 366Q674 366 692 382T723 423T747 478H769Q756 439 750 414T735
356Q729 334 724 309T709 234H687Q687 251 690 270T692 305T680 333T640 346L644 366ZM487 106Q478 70 479 52T495 29T544 23H627Q675 23 706 40T761 95T806 200H828Q823 187 818 168T807 128Q802 109 794 74T781 0Q730 2 668 2T555 3Q531 3 494 3T414 3T327 2T243
0L247 20Q281 22 300 28T330 52T350 106L482 602Q492 639 490 656T473 680T423 688L428 708Q467 707 511 707T598 706T678 705T739 705Q785 705 842 705T946 708Q933 673 923 640T908 590Q903 572 900 556T895 528H873Q889 617 871 651T792 685H719Q686 685 668
680T639 657T619 602L487 106Z" />
<glyph unicode="&#xc7;" horiz-adv-x="685" d="M734 708Q719 669 703 614T670 478H648Q657 529 656 566T640 630Q621 666 589 683T517 700Q467 700 420 672T332 595T262 483T214 350T197 209Q197 109 234 61T336 12Q374 12 418 30T494 82Q521 110 540 146T584
240H606Q581 149 568 94T547 0H525Q528 21 528 34Q528 56 520 59T495 51Q469 33 440 19T378 -5T302 -14Q175 -14 110 49T45 229Q45 299 67 369T131 502T230 615T358 693T510 722Q552 722 579 713T625 689T658 657Q672 642 685 653T713 708H734ZM322 5L289 -66Q301
-62 315 -60T344 -57Q373 -57 390 -68T407 -102Q407 -133 381 -152T317 -179T243 -188Q206 -188 178 -181T136 -168L143 -152Q151 -155 172 -159T223 -164Q239 -164 261 -160T300 -146T317 -117Q317 -93 283 -93Q277 -93 267 -94T246 -100L295 5H322Z" />
<glyph unicode="&#xc8;" horiz-adv-x="621" d="M217 346L222 366H411L406 346H217ZM321 366Q350 366 371 377T408 408T435 448T455 490H477Q461 440 454 412T439 356Q435 338 431 321T422 281T410 222H387Q389 243 389 265T383 305T360 334T312 346L321 366ZM587
528Q594 587 587 621T556 670T484 685H439Q405 685 387 680T358 657T337 602L204 106Q195 70 196 52T213 29T263 23H312Q369 23 406 40T471 95T526 200H548Q543 187 538 168T527 128Q522 109 514 74T500 0Q449 2 386 2T272 3Q248 3 211 3T131 3T43 2T-40 0L-36
20Q-2 22 17 28T47 52T67 106L200 602Q210 639 209 656T192 680T142 688L147 708Q186 707 230 707T317 706T398 705T459 705Q504 705 560 705T662 708Q649 673 640 644T624 590Q619 572 616 556T610 528H587ZM467 770Q420 797 387 812T330 838T288 863Q272 874
264 894T267 932Q281 953 304 952T344 938Q363 924 378 903T416 852T476 781L467 770Z" />
<glyph unicode="&#xc9;" horiz-adv-x="621" d="M217 346L222 366H411L406 346H217ZM321 366Q350 366 371 377T408 408T435 448T455 490H477Q461 440 454 412T439 356Q435 338 431 321T422 281T410 222H387Q389 243 389 265T383 305T360 334T312 346L321 366ZM587
528Q594 587 587 621T556 670T484 685H439Q405 685 387 680T358 657T337 602L204 106Q195 70 196 52T213 29T263 23H312Q369 23 406 40T471 95T526 200H548Q543 187 538 168T527 128Q522 109 514 74T500 0Q449 2 386 2T272 3Q248 3 211 3T131 3T43 2T-40 0L-36
20Q-2 22 17 28T47 52T67 106L200 602Q210 639 209 656T192 680T142 688L147 708Q186 707 230 707T317 706T398 705T459 705Q504 705 560 705T662 708Q649 673 640 644T624 590Q619 572 616 556T610 528H587ZM411 783Q462 822 494 851T552 902T603 938Q616 945
632 948T663 947T686 926Q696 905 683 887T648 856Q624 843 593 833T519 810T418 772L411 783Z" />
<glyph unicode="&#xca;" horiz-adv-x="621" d="M217 346L222 366H411L406 346H217ZM321 366Q350 366 371 377T408 408T435 448T455 490H477Q461 440 454 412T439 356Q435 338 431 321T422 281T410 222H387Q389 243 389 265T383 305T360 334T312 346L321 366ZM587
528Q594 587 587 621T556 670T484 685H439Q405 685 387 680T358 657T337 602L204 106Q195 70 196 52T213 29T263 23H312Q369 23 406 40T471 95T526 200H548Q543 187 538 168T527 128Q522 109 514 74T500 0Q449 2 386 2T272 3Q248 3 211 3T131 3T43 2T-40 0L-36
20Q-2 22 17 28T47 52T67 106L200 602Q210 639 209 656T192 680T142 688L147 708Q186 707 230 707T317 706T398 705T459 705Q504 705 560 705T662 708Q649 673 640 644T624 590Q619 572 616 556T610 528H587ZM433 834Q391 818 335 801T220 771L215 785Q295 811
363 850T474 932H492Q515 883 545 847T631 785L627 771Q580 780 547 789T487 810T433 834Z" />
<glyph unicode="&#xcb;" horiz-adv-x="621" d="M217 346L222 366H411L406 346H217ZM321 366Q350 366 371 377T408 408T435 448T455 490H477Q461 440 454 412T439 356Q435 338 431 321T422 281T410 222H387Q389 243 389 265T383 305T360 334T312 346L321 366ZM587
528Q594 587 587 621T556 670T484 685H439Q405 685 387 680T358 657T337 602L204 106Q195 70 196 52T213 29T263 23H312Q369 23 406 40T471 95T526 200H548Q543 187 538 168T527 128Q522 109 514 74T500 0Q449 2 386 2T272 3Q248 3 211 3T131 3T43 2T-40 0L-36
20Q-2 22 17 28T47 52T67 106L200 602Q210 639 209 656T192 680T142 688L147 708Q186 707 230 707T317 706T398 705T459 705Q504 705 560 705T662 708Q649 673 640 644T624 590Q619 572 616 556T610 528H587ZM262 829Q262 864 286 885T342 907Q370 907 386 890T402
846Q402 823 391 805T361 778T322 768Q292 768 277 785T262 829ZM492 829Q492 864 516 885T572 907Q601 907 616 890T632 846Q632 823 621 805T591 778T552 768Q523 768 508 785T492 829Z" />
<glyph unicode="&#xcc;" horiz-adv-x="373" d="M204 106Q195 70 196 52T213 28T263 20L259 0Q233 2 192 2T108 3Q63 3 25 3T-39 0L-34 20Q-1 22 17 28T47 52T67 106L199 602Q209 639 207 656T190 680T140 688L145 708Q169 707 208 706T292 705Q335 705 375 706T444
708L439 688Q405 687 386 681T357 657T336 602L204 106ZM603 770Q556 797 523 812T466 838T424 863Q408 874 400 894T403 932Q417 953 440 952T480 938Q499 924 514 903T552 852T612 781L603 770Z" />
<glyph unicode="&#xcd;" horiz-adv-x="373" d="M204 106Q195 70 196 52T213 28T263 20L259 0Q233 2 192 2T108 3Q63 3 25 3T-39 0L-34 20Q-1 22 17 28T47 52T67 106L199 602Q209 639 207 656T190 680T140 688L145 708Q169 707 208 706T292 705Q335 705 375 706T444
708L439 688Q405 687 386 681T357 657T336 602L204 106ZM291 783Q342 822 374 851T432 902T483 938Q496 945 512 948T543 947T566 926Q576 905 563 887T528 856Q504 843 473 833T399 810T298 772L291 783Z" />
<glyph unicode="&#xce;" horiz-adv-x="373" d="M204 106Q195 70 196 52T213 28T263 20L259 0Q233 2 192 2T108 3Q63 3 25 3T-39 0L-34 20Q-1 22 17 28T47 52T67 106L199 602Q209 639 207 656T190 680T140 688L145 708Q169 707 208 706T292 705Q335 705 375 706T444
708L439 688Q405 687 386 681T357 657T336 602L204 106ZM569 834Q527 818 471 801T356 771L351 785Q431 811 499 850T610 932H628Q651 883 681 847T767 785L763 771Q716 780 683 789T623 810T569 834Z" />
<glyph unicode="&#xcf;" horiz-adv-x="373" d="M204 106Q195 70 196 52T213 28T263 20L259 0Q233 2 192 2T108 3Q63 3 25 3T-39 0L-34 20Q-1 22 17 28T47 52T67 106L199 602Q209 639 207 656T190 680T140 688L145 708Q169 707 208 706T292 705Q335 705 375 706T444
708L439 688Q405 687 386 681T357 657T336 602L204 106ZM397 829Q397 864 421 885T477 907Q505 907 521 890T537 846Q537 823 526 805T496 778T457 768Q427 768 412 785T397 829ZM627 829Q627 864 651 885T707 907Q736 907 751 890T767 846Q767 823 756 805T726
778T687 768Q658 768 643 785T627 829Z" />
<glyph unicode="&#xd0;" horiz-adv-x="756" d="M739 475Q739 406 719 338T658 209T559 101T424 27T252 0Q237 0 213 1T162 2T105 3Q82 3 55 3T5 2T-35 0L-32 20Q0 22 18 28T48 52T68 106L199 602Q207 632 207 650T192 678T141 688L144 708Q161 707 186 706T239
705T294 705Q313 706 341 706T397 707T444 708Q588 708 663 649T739 475ZM248 18Q317 18 372 45T470 120T541 230T584 362T599 504Q599 596 557 643T420 690Q393 690 378 684T354 659T336 604L205 104Q196 73 195 54T205 27T248 18ZM701 622L695 597H275L281 622H701Z"
/>
<glyph unicode="&#xd1;" horiz-adv-x="806" d="M517 -5L270 585Q270 585 269 587T265 593T262 599T261 602Q269 639 267 656T247 680T190 688L195 708Q211 707 234 706T284 705Q331 705 365 708L569 196Q569 196 567 182T562 145T554 96T547 47T541 10T539 -5H517ZM823
735Q796 734 776 720T740 682Q694 614 646 443T539 -5L525 23Q540 90 557 167T593 323T633 472T676 599T722 690Q741 717 767 735T830 754Q872 754 892 733T912 681Q912 646 890 621T832 595Q803 595 789 611T774 648Q774 677 791 699T835 731Q832 733 830 734T823
735ZM12 -55Q40 -54 60 -40T97 -1Q126 45 155 143T215 380T277 685L294 664Q278 582 261 498T225 333T188 183T150 64T113 -11Q95 -35 71 -54T6 -74Q-37 -74 -57 -53T-77 0Q-77 34 -55 59T3 85Q33 85 47 69T61 32Q61 3 44 -19T1 -51Q3 -53 6 -54T12 -55ZM487 916Q523
916 546 905T588 880T625 854T671 843Q691 843 709 856T746 901L764 896Q738 828 695 799T610 769Q574 769 551 780T509 805T472 831T426 842Q406 842 388 829T351 784L333 789Q360 858 402 887T487 916Z" />
<glyph unicode="&#xd2;" horiz-adv-x="761" d="M478 704Q435 704 394 677T317 601T254 490T212 356T196 213Q196 115 229 60T314 4Q357 4 398 31T475 107T538 218T580 352T596 495Q596 593 563 648T478 704ZM46 226Q46 292 66 362T124 496T216 611T339 692T487
722Q609 722 678 660T747 481Q747 415 727 346T668 212T576 97T453 16T305 -14Q183 -14 115 48T46 226ZM524 770Q477 797 444 812T387 838T345 863Q329 874 321 894T324 932Q338 953 361 952T401 938Q420 924 435 903T473 852T533 781L524 770Z" />
<glyph unicode="&#xd3;" horiz-adv-x="761" d="M478 704Q435 704 394 677T317 601T254 490T212 356T196 213Q196 115 229 60T314 4Q357 4 398 31T475 107T538 218T580 352T596 495Q596 593 563 648T478 704ZM46 226Q46 292 66 362T124 496T216 611T339 692T487
722Q609 722 678 660T747 481Q747 415 727 346T668 212T576 97T453 16T305 -14Q183 -14 115 48T46 226ZM468 783Q519 822 551 851T609 902T660 938Q673 945 689 948T720 947T743 926Q753 905 740 887T705 856Q681 843 650 833T576 810T475 772L468 783Z" />
<glyph unicode="&#xd4;" horiz-adv-x="761" d="M478 704Q435 704 394 677T317 601T254 490T212 356T196 213Q196 115 229 60T314 4Q357 4 398 31T475 107T538 218T580 352T596 495Q596 593 563 648T478 704ZM46 226Q46 292 66 362T124 496T216 611T339 692T487
722Q609 722 678 660T747 481Q747 415 727 346T668 212T576 97T453 16T305 -14Q183 -14 115 48T46 226ZM490 834Q448 818 392 801T277 771L272 785Q352 811 420 850T531 932H549Q572 883 602 847T688 785L684 771Q637 780 604 789T544 810T490 834Z" />
<glyph unicode="&#xd5;" horiz-adv-x="761" d="M478 704Q435 704 394 677T317 601T254 490T212 356T196 213Q196 115 229 60T314 4Q357 4 398 31T475 107T538 218T580 352T596 495Q596 593 563 648T478 704ZM46 226Q46 292 66 362T124 496T216 611T339 692T487
722Q609 722 678 660T747 481Q747 415 727 346T668 212T576 97T453 16T305 -14Q183 -14 115 48T46 226ZM450 916Q486 916 509 905T551 880T588 854T634 843Q654 843 672 856T709 901L727 896Q701 828 658 799T573 769Q537 769 514 780T472 805T435 831T389 842Q369
842 351 829T314 784L296 789Q323 858 365 887T450 916Z" />
<glyph unicode="&#xd6;" horiz-adv-x="761" d="M478 704Q435 704 394 677T317 601T254 490T212 356T196 213Q196 115 229 60T314 4Q357 4 398 31T475 107T538 218T580 352T596 495Q596 593 563 648T478 704ZM46 226Q46 292 66 362T124 496T216 611T339 692T487
722Q609 722 678 660T747 481Q747 415 727 346T668 212T576 97T453 16T305 -14Q183 -14 115 48T46 226ZM319 829Q319 864 343 885T399 907Q427 907 443 890T459 846Q459 823 448 805T418 778T379 768Q349 768 334 785T319 829ZM549 829Q549 864 573 885T629 907Q658
907 673 890T689 846Q689 823 678 805T648 778T609 768Q580 768 565 785T549 829Z" />
<glyph unicode="&#xd7;" horiz-adv-x="502" d="M21 182L244 355L119 530L145 548L268 373L495 550L511 528L284 352L409 179L384 161L260 334L36 160L21 182Z" />
<glyph unicode="&#xd8;" horiz-adv-x="761" d="M478 704Q435 704 394 677T317 601T254 490T212 356T196 213Q196 115 229 60T314 4Q357 4 398 31T475 107T538 218T580 352T596 495Q596 593 563 648T478 704ZM46 226Q46 292 66 362T124 496T216 611T339 692T487
722Q609 722 678 660T747 481Q747 415 727 346T668 212T576 97T453 16T305 -14Q183 -14 115 48T46 226ZM649 632L784 773L799 760L659 612L649 632ZM151 76L9 -73L-8 -59L138 94L151 76ZM159 95L638 632L648 612L172 77L159 95Z" />
<glyph unicode="&#xd9;" horiz-adv-x="690" d="M639 560Q652 609 651 635T633 673T576 688L582 708Q600 707 630 706T687 705Q712 705 736 706T777 708L771 688Q738 685 719 674T687 638T663 568L591 291Q555 153 493 79Q457 37 404 12T288 -14Q223 -14 178 4T107
56Q78 96 78 150T100 288L183 602Q193 639 191 656T174 680T124 688L130 708Q154 707 195 706T283 705Q324 705 362 706T428 708L422 688Q388 687 369 681T340 657T319 602L231 271Q216 213 211 167T212 88T243 38T307 21Q382 21 432 54T514 147T565 280L639 560ZM526
770Q479 797 446 812T389 838T347 863Q331 874 323 894T326 932Q340 953 363 952T403 938Q422 924 437 903T475 852T535 781L526 770Z" />
<glyph unicode="&#xda;" horiz-adv-x="690" d="M639 560Q652 609 651 635T633 673T576 688L582 708Q600 707 630 706T687 705Q712 705 736 706T777 708L771 688Q738 685 719 674T687 638T663 568L591 291Q555 153 493 79Q457 37 404 12T288 -14Q223 -14 178 4T107
56Q78 96 78 150T100 288L183 602Q193 639 191 656T174 680T124 688L130 708Q154 707 195 706T283 705Q324 705 362 706T428 708L422 688Q388 687 369 681T340 657T319 602L231 271Q216 213 211 167T212 88T243 38T307 21Q382 21 432 54T514 147T565 280L639 560ZM470
783Q521 822 553 851T611 902T662 938Q675 945 691 948T722 947T745 926Q755 905 742 887T707 856Q683 843 652 833T578 810T477 772L470 783Z" />
<glyph unicode="&#xdb;" horiz-adv-x="690" d="M639 560Q652 609 651 635T633 673T576 688L582 708Q600 707 630 706T687 705Q712 705 736 706T777 708L771 688Q738 685 719 674T687 638T663 568L591 291Q555 153 493 79Q457 37 404 12T288 -14Q223 -14 178 4T107
56Q78 96 78 150T100 288L183 602Q193 639 191 656T174 680T124 688L130 708Q154 707 195 706T283 705Q324 705 362 706T428 708L422 688Q388 687 369 681T340 657T319 602L231 271Q216 213 211 167T212 88T243 38T307 21Q382 21 432 54T514 147T565 280L639 560ZM492
834Q450 818 394 801T279 771L274 785Q354 811 422 850T533 932H551Q574 883 604 847T690 785L686 771Q639 780 606 789T546 810T492 834Z" />
<glyph unicode="&#xdc;" horiz-adv-x="690" d="M639 560Q652 609 651 635T633 673T576 688L582 708Q600 707 630 706T687 705Q712 705 736 706T777 708L771 688Q738 685 719 674T687 638T663 568L591 291Q555 153 493 79Q457 37 404 12T288 -14Q223 -14 178 4T107
56Q78 96 78 150T100 288L183 602Q193 639 191 656T174 680T124 688L130 708Q154 707 195 706T283 705Q324 705 362 706T428 708L422 688Q388 687 369 681T340 657T319 602L231 271Q216 213 211 167T212 88T243 38T307 21Q382 21 432 54T514 147T565 280L639 560ZM320
829Q320 864 344 885T400 907Q428 907 444 890T460 846Q460 823 449 805T419 778T380 768Q350 768 335 785T320 829ZM550 829Q550 864 574 885T630 907Q659 907 674 890T690 846Q690 823 679 805T649 778T610 768Q581 768 566 785T550 829Z" />
<glyph unicode="&#xdd;" horiz-adv-x="712" d="M376 106Q367 70 370 52T391 28T443 20L438 0Q421 1 395 1T340 2T282 3Q237 3 197 3T131 0L136 20Q170 22 189 28T219 52T239 106L308 380L363 317L420 336L454 416L376 106ZM706 703Q690 702 676 697T647 680Q617
658 577 606T493 471T412 270L301 265Q297 311 291 364T275 468T252 561T221 629T180 655Q162 655 151 643T133 608L109 538Q109 538 98 538T87 538L116 622Q134 676 164 699T242 722Q306 722 341 679T394 556T425 364Q460 459 504 533T596 659Q619 684 650 703T715
722Q756 722 776 699T795 644Q795 613 773 588T715 563Q685 563 671 579T657 619Q657 646 674 667T717 699Q715 701 712 702T706 703ZM463 783Q514 822 546 851T604 902T655 938Q668 945 684 948T715 947T738 926Q748 905 735 887T700 856Q676 843 645 833T571
810T470 772L463 783Z" />
<glyph unicode="&#xde;" horiz-adv-x="642" d="M269 565Q305 565 341 566T415 567Q528 567 583 526T638 416Q638 338 588 277T447 180T237 144H197Q197 144 199 154T202 164H247Q313 164 359 185T435 244T479 330T493 432Q493 487 465 517T378 548Q351 548 335
547T305 545T270 542L269 565ZM204 106Q195 70 196 52T213 28T263 20L259 0Q233 2 192 2T108 3Q63 3 25 3T-39 0L-34 20Q-1 22 17 28T47 52T67 106L199 602Q209 639 207 656T190 680T140 688L145 708Q169 707 208 706T292 705Q335 705 375 706T444 708L439 688Q405
687 386 681T357 657T336 602L204 106Z" />
<glyph unicode="&#xdf;" horiz-adv-x="587" d="M388 767Q349 767 324 729T276 608L70 -174Q35 -175 4 -178T-56 -188L128 510Q152 600 185 660T271 751T405 782Q467 782 504 768T557 730T574 682Q574 654 561 631T523 586T470 543T411 495Q392 479 383 467T370
444T366 421Q366 395 379 374T411 332T450 290Q472 267 489 245T515 199T525 147Q525 95 497 60T424 5T325 -14Q288 -14 257 -2T208 32T190 86Q190 114 204 132T242 151Q261 151 273 139T290 109T295 72Q295 55 291 39T278 12Q283 9 290 8T309 6Q345 6 369 33T393
106Q393 136 384 167T352 233Q337 260 319 294T300 367Q300 398 314 419T350 460T396 505Q429 538 444 580T459 668Q459 721 438 744T388 767Z" />
<glyph unicode="&#xe0;" horiz-adv-x="547" d="M161 32Q179 32 202 53T249 114T295 207T333 325L312 217Q283 132 251 81T183 8T109 -14Q55 -14 29 19T3 109Q3 161 20 218T67 331T137 431T220 503T308 530Q342 530 360 502T369 415L358 409Q365 451 355 475T320
499Q297 499 272 475T221 410T176 317T143 209T131 100Q131 63 138 48T161 32ZM386 516Q422 517 453 520T514 530L385 86Q381 74 380 62T381 41T398 32Q414 32 431 49T466 118L481 163H500L475 90Q461 49 440 27T396 -5T349 -14Q301 -14 281 16Q268 38 271 70T284
139L386 516ZM366 599Q329 647 301 677T253 728T219 772Q206 795 209 815T229 844Q248 854 269 847T303 818Q317 796 325 768T344 702T379 605L366 599Z" />
<glyph unicode="&#xe1;" horiz-adv-x="547" d="M161 32Q179 32 202 53T249 114T295 207T333 325L312 217Q283 132 251 81T183 8T109 -14Q55 -14 29 19T3 109Q3 161 20 218T67 331T137 431T220 503T308 530Q342 530 360 502T369 415L358 409Q365 451 355 475T320
499Q297 499 272 475T221 410T176 317T143 209T131 100Q131 63 138 48T161 32ZM386 516Q422 517 453 520T514 530L385 86Q381 74 380 62T381 41T398 32Q414 32 431 49T466 118L481 163H500L475 90Q461 49 440 27T396 -5T349 -14Q301 -14 281 16Q268 38 271 70T284
139L386 516ZM308 608Q346 659 369 696T410 761T449 810Q467 830 490 834T531 823Q546 808 542 788T515 745Q496 725 469 707T404 663T318 599L308 608Z" />
<glyph unicode="&#xe2;" horiz-adv-x="547" d="M161 32Q179 32 202 53T249 114T295 207T333 325L312 217Q283 132 251 81T183 8T109 -14Q55 -14 29 19T3 109Q3 161 20 218T67 331T137 431T220 503T308 530Q342 530 360 502T369 415L358 409Q365 451 355 475T320
499Q297 499 272 475T221 410T176 317T143 209T131 100Q131 63 138 48T161 32ZM386 516Q422 517 453 520T514 530L385 86Q381 74 380 62T381 41T398 32Q414 32 431 49T466 118L481 163H500L475 90Q461 49 440 27T396 -5T349 -14Q301 -14 281 16Q268 38 271 70T284
139L386 516ZM356 696Q321 673 274 651T177 612L172 626Q244 657 304 708T403 814H421Q434 748 460 704T540 626L536 612Q472 627 431 648T356 696Z" />
<glyph unicode="&#xe3;" horiz-adv-x="547" d="M161 32Q179 32 202 53T249 114T295 207T333 325L312 217Q283 132 251 81T183 8T109 -14Q55 -14 29 19T3 109Q3 161 20 218T67 331T137 431T220 503T308 530Q342 530 360 502T369 415L358 409Q365 451 355 475T320
499Q297 499 272 475T221 410T176 317T143 209T131 100Q131 63 138 48T161 32ZM386 516Q422 517 453 520T514 530L385 86Q381 74 380 62T381 41T398 32Q414 32 431 49T466 118L481 163H500L475 90Q461 49 440 27T396 -5T349 -14Q301 -14 281 16Q268 38 271 70T284
139L386 516ZM335 780Q365 780 384 769T419 744T449 718T487 707Q506 707 523 720T558 765L576 760Q550 692 510 663T430 633Q400 633 381 644T346 669T316 695T278 706Q259 706 242 693T207 648L189 653Q214 721 254 750T335 780Z" />
<glyph unicode="&#xe4;" horiz-adv-x="547" d="M161 32Q179 32 202 53T249 114T295 207T333 325L312 217Q283 132 251 81T183 8T109 -14Q55 -14 29 19T3 109Q3 161 20 218T67 331T137 431T220 503T308 530Q342 530 360 502T369 415L358 409Q365 451 355 475T320
499Q297 499 272 475T221 410T176 317T143 209T131 100Q131 63 138 48T161 32ZM386 516Q422 517 453 520T514 530L385 86Q381 74 380 62T381 41T398 32Q414 32 431 49T466 118L481 163H500L475 90Q461 49 440 27T396 -5T349 -14Q301 -14 281 16Q268 38 271 70T284
139L386 516ZM206 676Q206 711 230 733T286 755Q315 755 330 738T346 693Q346 670 335 652T305 625T266 615Q237 615 222 632T206 676ZM429 676Q429 711 453 733T509 755Q537 755 553 738T569 693Q569 670 558 652T528 625T488 615Q459 615 444 632T429 676Z" />
<glyph unicode="&#xe5;" horiz-adv-x="547" d="M161 32Q179 32 202 53T249 114T295 207T333 325L312 217Q283 132 251 81T183 8T109 -14Q55 -14 29 19T3 109Q3 161 20 218T67 331T137 431T220 503T308 530Q342 530 360 502T369 415L358 409Q365 451 355 475T320
499Q297 499 272 475T221 410T176 317T143 209T131 100Q131 63 138 48T161 32ZM386 516Q422 517 453 520T514 530L385 86Q381 74 380 62T381 41T398 32Q414 32 431 49T466 118L481 163H500L475 90Q461 49 440 27T396 -5T349 -14Q301 -14 281 16Q268 38 271 70T284
139L386 516ZM405 795Q444 795 471 773T499 711Q499 682 482 658T438 619T378 604Q340 604 314 626T288 688Q288 718 303 742T345 781T405 795ZM383 625Q406 625 426 636T460 667T473 711Q473 743 450 758T401 774Q366 774 340 748T314 689Q314 657 335 641T383
625Z" />
<glyph unicode="&#xe6;" horiz-adv-x="709" d="M368 220Q413 237 453 255T520 294Q559 327 581 373T604 474Q604 511 576 511Q555 511 530 489T480 429T435 342T402 241T390 136Q390 83 410 62T465 40Q494 40 533 59T611 128L629 120Q609 87 576 56T501 6T407
-14Q365 -14 331 2T278 49T259 127Q259 176 275 231T322 340T394 436T488 504T598 530Q643 530 673 510T704 449Q704 411 682 378T623 317T541 268T451 231T367 206L368 220ZM171 32Q188 32 208 42T248 76T286 140L293 125Q261 57 213 22T107 -14Q50 -14 24 17T-3
103Q-3 156 19 214T79 325T167 422T270 490T378 516Q393 516 409 512T438 495T458 458L445 449Q437 477 420 484T393 492Q361 492 324 471T252 411T188 323T142 216T125 98Q125 66 137 49T171 32Z" />
<glyph unicode="&#xe7;" horiz-adv-x="453" d="M347 510Q309 510 273 479T207 395T160 274T142 134Q142 82 162 59T216 36Q249 36 284 56T354 128L374 120Q354 87 323 56T252 6T162 -14Q96 -14 54 23T12 137Q12 186 26 240T69 345T137 438T228 505T340 530Q391
530 423 504T456 437Q456 413 445 390T413 352T367 337Q344 337 330 351T315 388Q315 425 341 452T401 487Q392 497 380 503T347 510ZM173 0L133 -70Q143 -66 156 -64T182 -61Q206 -61 221 -71T237 -102Q237 -133 214 -152T156 -179T87 -188Q57 -188 34 -181T0
-168L7 -152Q14 -155 29 -159T67 -164Q79 -164 97 -160T129 -146T143 -117Q143 -93 115 -93Q110 -93 101 -94T84 -100L145 0H173Z" />
<glyph unicode="&#xe8;" horiz-adv-x="456" d="M115 220Q162 238 201 257T268 299Q305 332 328 376T351 474Q351 497 347 504T335 511Q312 511 285 489T232 429T185 342T150 241T137 136Q137 83 157 62T212 40Q241 40 281 59T360 128L376 120Q356 87 323 56T248
6T154 -14Q112 -14 78 2T25 49T6 127Q6 176 23 231T71 340T146 436T243 504T357 530Q397 530 424 512T451 455Q451 416 429 382T370 320T288 270T198 232T114 206L115 220ZM343 599Q306 647 278 677T230 728T196 772Q183 795 186 815T206 844Q225 854 246 847T280
818Q294 796 302 768T321 702T356 605L343 599Z" />
<glyph unicode="&#xe9;" horiz-adv-x="456" d="M115 220Q162 238 201 257T268 299Q305 332 328 376T351 474Q351 497 347 504T335 511Q312 511 285 489T232 429T185 342T150 241T137 136Q137 83 157 62T212 40Q241 40 281 59T360 128L376 120Q356 87 323 56T248
6T154 -14Q112 -14 78 2T25 49T6 127Q6 176 23 231T71 340T146 436T243 504T357 530Q397 530 424 512T451 455Q451 416 429 382T370 320T288 270T198 232T114 206L115 220ZM285 608Q323 659 346 696T387 761T426 810Q444 830 467 834T508 823Q523 808 519 788T492
745Q473 725 446 707T381 663T295 599L285 608Z" />
<glyph unicode="&#xea;" horiz-adv-x="456" d="M115 220Q162 238 201 257T268 299Q305 332 328 376T351 474Q351 497 347 504T335 511Q312 511 285 489T232 429T185 342T150 241T137 136Q137 83 157 62T212 40Q241 40 281 59T360 128L376 120Q356 87 323 56T248
6T154 -14Q112 -14 78 2T25 49T6 127Q6 176 23 231T71 340T146 436T243 504T357 530Q397 530 424 512T451 455Q451 416 429 382T370 320T288 270T198 232T114 206L115 220ZM332 696Q297 673 250 651T153 612L148 626Q220 657 280 708T379 814H397Q410 748 436 704T516
626L512 612Q448 627 407 648T332 696Z" />
<glyph unicode="&#xeb;" horiz-adv-x="456" d="M115 220Q162 238 201 257T268 299Q305 332 328 376T351 474Q351 497 347 504T335 511Q312 511 285 489T232 429T185 342T150 241T137 136Q137 83 157 62T212 40Q241 40 281 59T360 128L376 120Q356 87 323 56T248
6T154 -14Q112 -14 78 2T25 49T6 127Q6 176 23 231T71 340T146 436T243 504T357 530Q397 530 424 512T451 455Q451 416 429 382T370 320T288 270T198 232T114 206L115 220ZM182 676Q182 711 206 733T262 755Q291 755 306 738T322 693Q322 670 311 652T281 625T242
615Q213 615 198 632T182 676ZM405 676Q405 711 429 733T485 755Q513 755 529 738T545 693Q545 670 534 652T504 625T464 615Q435 615 420 632T405 676Z" />
<glyph unicode="&#xec;" horiz-adv-x="315" d="M145 431Q163 485 133 485Q113 485 97 465T64 399L46 352H27L54 427Q69 467 90 489T136 521T188 530Q222 530 240 517T264 483T267 438T256 390L151 85Q141 58 145 45T165 31Q181 31 197 48T233 117L250 162H269L243
89Q229 49 208 27T162 -5T112 -14Q69 -14 49 5T29 59T44 139L145 431ZM480 599Q443 647 415 677T367 728T333 772Q320 795 323 815T343 844Q362 854 383 847T417 818Q431 796 439 768T458 702T493 605L480 599Z" />
<glyph unicode="&#xed;" horiz-adv-x="315" d="M145 431Q163 485 133 485Q113 485 97 465T64 399L46 352H27L54 427Q69 467 90 489T136 521T188 530Q222 530 240 517T264 483T267 438T256 390L151 85Q141 58 145 45T165 31Q181 31 197 48T233 117L250 162H269L243
89Q229 49 208 27T162 -5T112 -14Q69 -14 49 5T29 59T44 139L145 431ZM166 608Q204 659 227 696T268 761T307 810Q325 830 348 834T389 823Q404 808 400 788T373 745Q354 725 327 707T262 663T176 599L166 608Z" />
<glyph unicode="&#xee;" horiz-adv-x="315" d="M145 431Q163 485 133 485Q113 485 97 465T64 399L46 352H27L54 427Q69 467 90 489T136 521T188 530Q222 530 240 517T264 483T267 438T256 390L151 85Q141 58 145 45T165 31Q181 31 197 48T233 117L250 162H269L243
89Q229 49 208 27T162 -5T112 -14Q69 -14 49 5T29 59T44 139L145 431ZM470 696Q435 673 388 651T291 612L286 626Q358 657 418 708T517 814H535Q548 748 574 704T654 626L650 612Q586 627 545 648T470 696Z" />
<glyph unicode="&#xef;" horiz-adv-x="315" d="M145 431Q163 485 133 485Q113 485 97 465T64 399L46 352H27L54 427Q69 467 90 489T136 521T188 530Q222 530 240 517T264 483T267 438T256 390L151 85Q141 58 145 45T165 31Q181 31 197 48T233 117L250 162H269L243
89Q229 49 208 27T162 -5T112 -14Q69 -14 49 5T29 59T44 139L145 431ZM320 676Q320 711 344 733T400 755Q429 755 444 738T460 693Q460 670 449 652T419 625T380 615Q351 615 336 632T320 676ZM543 676Q543 711 567 733T623 755Q651 755 667 738T683 693Q683 670
672 652T642 625T602 615Q573 615 558 632T543 676Z" />
<glyph unicode="&#xf0;" horiz-adv-x="515" d="M329 684L501 760L507 742L343 670L329 684ZM343 669L124 572L118 590L329 683L343 669ZM355 421Q355 514 332 579T269 689T175 765L187 782Q273 752 339 698T443 567T481 392Q481 338 468 281T430 172T367 77T280
11T168 -14Q124 -14 90 2T35 55T15 149Q15 193 27 245T64 347T124 438T204 503T305 528Q335 528 351 519T381 494L374 482Q364 495 348 501T311 508Q282 508 256 482T209 410T172 309T149 194T141 83Q141 40 151 23T183 6Q211 6 236 31T284 101T321 199T346 310T355
421Z" />
<glyph unicode="&#xf1;" horiz-adv-x="596" d="M145 0H22L143 431Q147 445 149 457T148 477T130 485Q111 485 96 467T62 399L45 352H26L52 427Q73 486 106 508T179 530Q212 530 229 517T252 484T254 439T245 390L145 0ZM182 182Q219 285 253 352T319 458T385 514T456
530Q505 530 524 509T544 453T530 379L432 85Q423 58 427 45T447 31Q462 31 478 48T514 117L530 162H549L524 89Q510 47 489 25T443 -5T394 -14Q368 -14 350 -6T321 18Q308 37 310 67T326 139L417 414Q422 430 425 446T424 474T403 486Q382 486 357 463T305 397T251
299T200 178T156 42L182 182ZM336 780Q366 780 385 769T420 744T450 718T488 707Q507 707 524 720T559 765L577 760Q551 692 511 663T431 633Q401 633 382 644T347 669T317 695T279 706Q260 706 243 693T208 648L190 653Q215 721 255 750T336 780Z" />
<glyph unicode="&#xf2;" horiz-adv-x="516" d="M322 510Q296 510 269 484T218 412T175 310T144 195T133 81Q133 41 143 24T175 6Q200 6 227 32T278 102T322 202T352 318T363 435Q363 477 353 493T322 510ZM15 148Q15 193 27 245T65 347T127 439T215 505T328 530Q400
530 440 490T481 368Q481 323 469 271T431 169T369 77T281 11T168 -14Q96 -14 56 27T15 148ZM358 599Q321 647 293 677T245 728T211 772Q198 795 201 815T221 844Q240 854 261 847T295 818Q309 796 317 768T336 702T371 605L358 599Z" />
<glyph unicode="&#xf3;" horiz-adv-x="516" d="M322 510Q296 510 269 484T218 412T175 310T144 195T133 81Q133 41 143 24T175 6Q200 6 227 32T278 102T322 202T352 318T363 435Q363 477 353 493T322 510ZM15 148Q15 193 27 245T65 347T127 439T215 505T328 530Q400
530 440 490T481 368Q481 323 469 271T431 169T369 77T281 11T168 -14Q96 -14 56 27T15 148ZM299 608Q337 659 360 696T401 761T440 810Q458 830 481 834T522 823Q537 808 533 788T506 745Q487 725 460 707T395 663T309 599L299 608Z" />
<glyph unicode="&#xf4;" horiz-adv-x="516" d="M322 510Q296 510 269 484T218 412T175 310T144 195T133 81Q133 41 143 24T175 6Q200 6 227 32T278 102T322 202T352 318T363 435Q363 477 353 493T322 510ZM15 148Q15 193 27 245T65 347T127 439T215 505T328 530Q400
530 440 490T481 368Q481 323 469 271T431 169T369 77T281 11T168 -14Q96 -14 56 27T15 148ZM347 696Q312 673 265 651T168 612L163 626Q235 657 295 708T394 814H412Q425 748 451 704T531 626L527 612Q463 627 422 648T347 696Z" />
<glyph unicode="&#xf5;" horiz-adv-x="516" d="M322 510Q296 510 269 484T218 412T175 310T144 195T133 81Q133 41 143 24T175 6Q200 6 227 32T278 102T322 202T352 318T363 435Q363 477 353 493T322 510ZM15 148Q15 193 27 245T65 347T127 439T215 505T328 530Q400
530 440 490T481 368Q481 323 469 271T431 169T369 77T281 11T168 -14Q96 -14 56 27T15 148ZM326 780Q356 780 375 769T410 744T440 718T478 707Q497 707 514 720T549 765L567 760Q541 692 501 663T421 633Q391 633 372 644T337 669T307 695T269 706Q250 706 233
693T198 648L180 653Q205 721 245 750T326 780Z" />
<glyph unicode="&#xf6;" horiz-adv-x="516" d="M322 510Q296 510 269 484T218 412T175 310T144 195T133 81Q133 41 143 24T175 6Q200 6 227 32T278 102T322 202T352 318T363 435Q363 477 353 493T322 510ZM15 148Q15 193 27 245T65 347T127 439T215 505T328 530Q400
530 440 490T481 368Q481 323 469 271T431 169T369 77T281 11T168 -14Q96 -14 56 27T15 148ZM197 676Q197 711 221 733T277 755Q306 755 321 738T337 693Q337 670 326 652T296 625T257 615Q228 615 213 632T197 676ZM420 676Q420 711 444 733T500 755Q528 755 544
738T560 693Q560 670 549 652T519 625T479 615Q450 615 435 632T420 676Z" />
<glyph unicode="&#xf7;" horiz-adv-x="643" d="M335 499Q342 522 363 538T406 554Q429 554 441 538T446 499Q439 476 418 460T374 444Q352 444 340 460T335 499ZM252 211Q259 234 280 250T323 266Q346 266 358 250T363 211Q356 188 335 172T291 155Q269 155 257
171T252 211ZM81 340L90 370H591L582 340H81Z" />
<glyph unicode="&#xf8;" horiz-adv-x="516" d="M322 510Q296 510 269 484T218 412T175 310T144 195T133 81Q133 41 143 24T175 6Q200 6 227 32T278 102T322 202T352 318T363 435Q363 477 353 493T322 510ZM15 148Q15 193 27 245T65 347T127 439T215 505T328 530Q400
530 440 490T481 368Q481 323 469 271T431 169T369 77T281 11T168 -14Q96 -14 56 27T15 148ZM385 465L482 595L497 584L395 448L385 465ZM387 451L121 47L111 65L378 468L387 451ZM111 47L14 -80L-1 -68L100 65L111 47Z" />
<glyph unicode="&#xf9;" horiz-adv-x="587" d="M395 349Q357 242 324 172T259 61T192 3T120 -14Q78 -14 57 5T33 57T46 137L143 431Q153 461 148 473T128 485Q113 485 97 468T61 399L45 354H26L51 427Q66 469 87 491T133 521T181 530Q225 530 244 511T264 457T249
377L158 102Q134 30 172 30Q193 30 218 53T269 120T322 222T373 348T418 491L395 349ZM426 85Q419 60 420 46T438 31Q457 31 473 50T507 117L524 164H543L517 89Q503 49 482 27T436 -5T387 -14Q363 -14 346 -6T321 18Q311 36 312 62T324 126L424 516Q460 517 492
520T551 530L426 85ZM349 599Q312 647 284 677T236 728T202 772Q189 795 192 815T212 844Q231 854 252 847T286 818Q300 796 308 768T327 702T362 605L349 599Z" />
<glyph unicode="&#xfa;" horiz-adv-x="587" d="M395 349Q357 242 324 172T259 61T192 3T120 -14Q78 -14 57 5T33 57T46 137L143 431Q153 461 148 473T128 485Q113 485 97 468T61 399L45 354H26L51 427Q66 469 87 491T133 521T181 530Q225 530 244 511T264 457T249
377L158 102Q134 30 172 30Q193 30 218 53T269 120T322 222T373 348T418 491L395 349ZM426 85Q419 60 420 46T438 31Q457 31 473 50T507 117L524 164H543L517 89Q503 49 482 27T436 -5T387 -14Q363 -14 346 -6T321 18Q311 36 312 62T324 126L424 516Q460 517 492
520T551 530L426 85ZM291 608Q329 659 352 696T393 761T432 810Q450 830 473 834T514 823Q529 808 525 788T498 745Q479 725 452 707T387 663T301 599L291 608Z" />
<glyph unicode="&#xfb;" horiz-adv-x="587" d="M395 349Q357 242 324 172T259 61T192 3T120 -14Q78 -14 57 5T33 57T46 137L143 431Q153 461 148 473T128 485Q113 485 97 468T61 399L45 354H26L51 427Q66 469 87 491T133 521T181 530Q225 530 244 511T264 457T249
377L158 102Q134 30 172 30Q193 30 218 53T269 120T322 222T373 348T418 491L395 349ZM426 85Q419 60 420 46T438 31Q457 31 473 50T507 117L524 164H543L517 89Q503 49 482 27T436 -5T387 -14Q363 -14 346 -6T321 18Q311 36 312 62T324 126L424 516Q460 517 492
520T551 530L426 85ZM338 696Q303 673 256 651T159 612L154 626Q226 657 286 708T385 814H403Q416 748 442 704T522 626L518 612Q454 627 413 648T338 696Z" />
<glyph unicode="&#xfc;" horiz-adv-x="587" d="M395 349Q357 242 324 172T259 61T192 3T120 -14Q78 -14 57 5T33 57T46 137L143 431Q153 461 148 473T128 485Q113 485 97 468T61 399L45 354H26L51 427Q66 469 87 491T133 521T181 530Q225 530 244 511T264 457T249
377L158 102Q134 30 172 30Q193 30 218 53T269 120T322 222T373 348T418 491L395 349ZM426 85Q419 60 420 46T438 31Q457 31 473 50T507 117L524 164H543L517 89Q503 49 482 27T436 -5T387 -14Q363 -14 346 -6T321 18Q311 36 312 62T324 126L424 516Q460 517 492
520T551 530L426 85ZM188 676Q188 711 212 733T268 755Q297 755 312 738T328 693Q328 670 317 652T287 625T248 615Q219 615 204 632T188 676ZM411 676Q411 711 435 733T491 755Q519 755 535 738T551 693Q551 670 540 652T510 625T470 615Q441 615 426 632T411
676Z" />
<glyph unicode="&#xfd;" horiz-adv-x="482" d="M299 54L206 -51L126 429Q122 458 116 469T99 480Q88 480 77 465T47 399L31 355H12L37 428Q58 489 89 509T158 530Q195 530 217 509T248 427L299 54ZM67 -139Q112 -117 161 -78T264 29Q320 101 364 185T429 351Q407
363 387 380T354 420T341 469Q343 498 359 514T403 530Q435 530 450 508T465 443Q465 394 449 337T404 221T341 106T268 3Q241 -29 207 -62T131 -123T42 -170Q18 -180 -1 -184T-33 -188Q-61 -188 -79 -175T-97 -137Q-97 -112 -79 -97T-32 -81Q-4 -81 20 -97T67
-139ZM255 608Q293 659 316 696T357 761T396 810Q414 830 437 834T478 823Q493 808 489 788T462 745Q443 725 416 707T351 663T265 599L255 608Z" />
<glyph unicode="&#xfe;" horiz-adv-x="573" d="M376 484Q357 484 333 462T285 401T240 313T206 209L227 313Q258 392 289 439T353 508T423 530Q479 530 509 492T540 380Q540 334 528 281T490 176T429 81T347 12T243 -14Q212 -14 187 0T150 39L157 56Q169 33 183
23T217 13Q248 13 277 37T331 103T375 196T404 300T414 399Q414 447 404 465T376 484ZM245 771Q281 774 313 779T374 795L125 -80Q112 -128 134 -144T204 -160L198 -181Q176 -180 135 -179T48 -177Q11 -177 -26 -178T-83 -181L-77 -160Q-41 -160 -25 -147T1 -98L245
771ZM15 353Q52 391 84 429T148 520T212 653L215 637Q194 568 165 516T100 421T26 340L15 353Z" />
<glyph unicode="&#xff;" horiz-adv-x="482" d="M299 54L206 -51L126 429Q122 458 116 469T99 480Q88 480 77 465T47 399L31 355H12L37 428Q58 489 89 509T158 530Q195 530 217 509T248 427L299 54ZM67 -139Q112 -117 161 -78T264 29Q320 101 364 185T429 351Q407
363 387 380T354 420T341 469Q343 498 359 514T403 530Q435 530 450 508T465 443Q465 394 449 337T404 221T341 106T268 3Q241 -29 207 -62T131 -123T42 -170Q18 -180 -1 -184T-33 -188Q-61 -188 -79 -175T-97 -137Q-97 -112 -79 -97T-32 -81Q-4 -81 20 -97T67
-139ZM153 676Q153 711 177 733T233 755Q262 755 277 738T293 693Q293 670 282 652T252 625T213 615Q184 615 169 632T153 676ZM376 676Q376 711 400 733T456 755Q484 755 500 738T516 693Q516 670 505 652T475 625T435 615Q406 615 391 632T376 676Z" />
<glyph unicode="&#x2013;" horiz-adv-x="703" d="M72 307H638L615 227H49L72 307Z" />
<glyph unicode="&#x2014;" horiz-adv-x="984" d="M71 307H919L896 227H48L71 307Z" />
<glyph unicode="&#x2018;" horiz-adv-x="262" d="M122 531Q122 590 161 643T270 730L275 714Q231 690 201 655T167 581Q180 593 195 600T227 608Q253 608 267 596T281 561Q281 536 267 514T230 477T181 462Q152 462 137 481T122 531Z" />
<glyph unicode="&#x2019;" horiz-adv-x="259" d="M297 659Q297 600 258 547T149 460L144 476Q189 500 219 535T252 609Q239 597 224 590T192 582Q167 582 153 594T138 629Q138 655 152 677T189 713T238 728Q267 728 282 710T297 659Z" />
<glyph unicode="&#x201a;" horiz-adv-x="275" d="M154 63Q154 4 115 -49T6 -136L1 -120Q46 -96 76 -61T109 13Q96 1 81 -6T49 -14Q24 -14 10 -2T-5 33Q-5 59 9 81T46 117T95 132Q124 132 139 114T154 63Z" />
<glyph unicode="&#x201c;" horiz-adv-x="445" d="M309 532Q309 591 348 645T457 731L462 715Q418 691 388 656T354 582Q367 594 382 601T414 609Q437 609 449 597T462 562Q462 537 449 515T415 478T368 463Q339 463 324 480T309 532ZM122 532Q122 591 162 645T271
731L276 715Q231 691 201 656T168 582Q181 594 196 601T227 609Q251 609 263 597T275 562Q275 537 262 515T228 478T181 463Q152 463 137 480T122 532Z" />
<glyph unicode="&#x201d;" horiz-adv-x="443" d="M295 662Q295 603 256 549T147 463L142 479Q186 503 216 538T249 612Q236 600 221 593T190 585Q167 585 155 597T142 632Q142 658 155 680T189 716T236 731Q265 731 280 714T295 662ZM481 662Q481 603 442 549T333
463L328 479Q373 503 403 538T436 612Q423 600 408 593T376 585Q354 585 341 597T328 632Q328 658 341 680T376 716T422 731Q451 731 466 714T481 662Z" />
<glyph unicode="&#x201e;" horiz-adv-x="456" d="M149 63Q149 4 110 -50T1 -136L-4 -120Q40 -96 70 -61T103 13Q90 1 75 -6T44 -14Q21 -14 9 -2T-4 33Q-4 59 9 81T43 117T90 132Q119 132 134 115T149 63ZM335 63Q335 4 296 -50T187 -136L182 -120Q227 -96 257
-61T290 13Q277 1 262 -6T230 -14Q208 -14 195 -2T182 33Q182 59 195 81T230 117T276 132Q305 132 320 115T335 63Z" />
<glyph unicode="&#x2022;" horiz-adv-x="435" d="M63 249Q68 289 90 321T146 372T220 392Q260 392 290 373T337 321T348 249Q344 210 322 178T265 126T191 107Q152 107 122 126T75 177T63 249Z" />
<glyph unicode="&#x2039;" horiz-adv-x="374" d="M352 530Q337 498 313 459T259 379T201 305T145 250Q163 231 181 200T214 130T239 54T254 -14H236Q192 61 140 127T20 245L22 255Q111 312 186 381T334 530H352Z" />
<glyph unicode="&#x203a;" horiz-adv-x="372" d="M118 530Q163 456 215 390T334 270L332 261Q244 204 169 135T21 -14H3Q18 19 42 58T95 137T153 211T208 266Q190 284 173 316T141 386T115 462T100 530H118Z" />
</font>
</defs>
</svg>
