<?xml version="1.0" standalone="no"?>
<!DOCTYPE svg PUBLIC "-//W3C//DTD SVG 1.1//EN" "http://www.w3.org/Graphics/SVG/1.1/DTD/svg11.dtd">
<svg xmlns="http://www.w3.org/2000/svg">
<defs >
<font id="PlayfairDisplay" horiz-adv-x="582" ><font-face
    font-family="Playfair Display"
    units-per-em="1000"
    panose-1="0 0 0 0 0 0 0 0 0 0"
    ascent="1082"
    descent="-251"
    alphabetic="0" />
<glyph unicode=" " horiz-adv-x="255" />
<glyph unicode="!" horiz-adv-x="314" d="M119 199Q139 277 146 352T157 497T167 626Q168 652 174 680T192 731T223 768T271 782Q306 782 323 761T338 702Q333 655 310 599T255 478T190 344T137 196L119 199ZM24 46Q24 86 52 113T121 140Q153 140 171 124T189
79Q189 55 176 34T141 -1T91 -14Q60 -14 42 2T24 46Z" />
<glyph unicode="&quot;" horiz-adv-x="391" d="M275 683Q275 653 257 624T215 561T172 488H158Q157 530 153 558T146 607T145 650Q147 683 169 706T224 730Q248 730 261 717T275 683ZM437 683Q437 653 419 624T377 561T334 488H320Q319 530 315 558T308 607T307
650Q309 683 331 706T386 730Q410 730 423 717T437 683Z" />
<glyph unicode="#" horiz-adv-x="625" d="M626 454L618 434H117L125 454H626ZM540 267L530 247H30L39 267H540ZM320 101H296L528 602H552L320 101ZM133 101H109L341 602H365L133 101Z" />
<glyph unicode="$" horiz-adv-x="610" d="M414 840L144 -132H122L392 840H414ZM506 840L236 -132H214L484 840H506ZM382 701Q333 701 298 675T262 595Q262 561 282 530T333 469T400 408T467 345T519 276T539 198Q539 149 521 113T472 53T404 14T327 -7T251 -14Q207
-14 174 -7T116 11T69 37Q39 57 21 86T3 154Q3 196 24 226T80 257Q114 257 133 233T152 172Q152 146 144 122T125 79T105 45Q128 27 162 18T241 8Q291 8 322 20T367 57T382 117Q382 151 364 181T316 241T255 300T193 362T145 430T127 510Q127 568 149 609T207 674T287
710T372 722Q417 722 449 715T507 697T554 671Q584 653 602 623T620 554Q620 512 600 482T543 451Q509 451 491 475T472 536Q472 563 480 586T498 629T518 663Q495 681 460 691T382 701Z" />
<glyph unicode="%" horiz-adv-x="796" d="M329 746Q301 746 280 722T244 660T223 583T215 514Q215 483 224 467T249 450Q277 450 298 474T334 536T355 613T363 683Q363 714 355 730T329 746ZM112 551Q112 588 128 625T175 693T247 742T337 761Q398 761 432 731T466
645Q466 608 450 571T403 503T332 454T242 435Q182 435 147 465T112 551ZM589 297Q562 297 541 273T505 211T483 134T475 65Q475 34 484 18T509 1Q537 1 558 25T594 87T616 164T623 234Q623 265 615 281T589 297ZM372 102Q372 139 389 176T436 244T508 293T597
312Q658 312 692 282T726 196Q726 159 710 122T663 54T592 5T502 -14Q442 -14 407 16T372 102ZM838 824L853 811L20 -55L5 -42L838 824Z" />
<glyph unicode="&amp;" horiz-adv-x="863" d="M564 211Q556 195 540 178T500 150T440 138Q411 138 384 149T338 185T320 251Q320 313 365 356T495 428Q522 437 554 447T622 469T692 493T758 516Q787 527 814 540T860 572T879 623Q879 661 851 683T780 706Q760
706 751 700Q773 691 784 676T795 641Q795 620 782 604T748 578T705 569Q674 569 654 586T633 632Q633 660 650 679T695 708Q715 717 737 719T776 722Q815 722 845 709T894 667T912 589Q912 537 891 500T827 435T722 385Q694 375 662 364T596 341T528 319T467 298Q441
289 420 278T386 250T373 212Q373 183 395 170T444 157Q474 157 495 168T530 193T549 219L564 211ZM454 570Q477 570 493 583T509 619Q509 643 489 657T437 672Q401 672 370 654T320 604T301 529Q301 517 304 504T312 478Q330 481 348 482T375 484Q411 484 411
463Q411 452 401 447T380 442Q361 442 342 450T311 464Q276 451 248 420T204 347T188 257Q188 196 215 155T294 93T414 72Q466 72 514 83T599 118T659 176T682 258Q682 296 664 332T600 390L612 400Q656 377 679 338T703 249Q703 201 681 155T613 70T500 9T341
-14Q251 -14 181 11T70 84T29 205Q29 270 62 324T156 416T298 472Q253 488 232 516T210 576Q210 618 239 646T313 688T405 702Q468 702 499 680T531 622Q531 586 506 569T454 552V570Z" />
<glyph unicode="&apos;" horiz-adv-x="228" d="M275 683Q275 653 257 624T215 561T172 488H158Q157 530 153 558T146 607T145 650Q147 683 169 706T224 730Q248 730 261 717T275 683Z" />
<glyph unicode="(" horiz-adv-x="396" d="M241 -182Q179 -124 133 -65T62 65T36 223Q36 307 71 388T169 546T318 688T505 806L515 793Q412 719 335 632T216 436T173 191Q173 122 182 62T210 -56T259 -169L241 -182Z" />
<glyph unicode=")" horiz-adv-x="397" d="M165 806Q227 749 273 689T344 559T370 401Q370 317 335 236T237 78T88 -64T-99 -182L-109 -169Q-6 -95 71 -8T190 188T233 433Q233 502 224 563T196 680T147 793L165 806Z" />
<glyph unicode="*" horiz-adv-x="484" d="M302 518Q333 574 355 610T384 675Q392 705 380 717T349 729Q331 729 313 717T287 675Q281 647 287 609T299 518H302ZM301 519Q271 563 254 593T216 638Q194 653 174 646T142 623Q129 608 128 589T148 554Q168 540 207
534T298 516L301 519ZM300 518Q239 507 200 501T131 481Q102 466 95 447T92 412Q97 397 113 390T161 397Q187 411 220 443T300 516V518ZM299 517Q267 462 245 426T215 361Q208 331 220 319T251 307Q269 307 287 319T313 361Q319 390 314 427T303 518L299 517ZM457
413Q470 428 472 447T451 482Q431 496 392 502T302 520L298 517Q328 473 345 443T384 398Q406 383 425 390T457 413ZM507 624Q502 639 486 646T439 639Q412 625 380 594T300 520L299 517Q361 530 400 535T468 555Q498 570 505 589T507 624Z" />
<glyph unicode="+" horiz-adv-x="575" d="M58 370H291L358 606H394L327 370H559L550 340H318L251 105H215L282 340H49L58 370Z" />
<glyph unicode="," horiz-adv-x="287" d="M167 68Q167 5 128 -50T18 -136L13 -120Q56 -98 87 -63T121 15Q108 2 92 -6T59 -14Q29 -14 13 0T-3 40Q-3 67 11 90T48 126T101 140Q133 140 150 122T167 68Z" />
<glyph unicode="-" horiz-adv-x="506" d="M75 306H436L414 223H53L75 306Z" />
<glyph unicode="." horiz-adv-x="279" d="M-1 46Q-1 86 27 113T96 140Q128 140 146 124T164 79Q164 55 151 34T115 -1T66 -14Q34 -14 17 2T-1 46Z" />
<glyph unicode="/" horiz-adv-x="461" d="M-44 -14L504 722H537L-11 -14H-44Z" />
<glyph unicode="0" horiz-adv-x="621" d="M381 531Q474 531 526 483T578 349Q578 282 550 217T473 100T360 17T223 -14Q132 -14 78 34T24 169Q24 237 52 301T130 417T244 500T381 531ZM365 513Q323 513 287 482T225 397T184 279T170 149Q170 71 190 38T239 4Q283
4 318 37T378 124T418 243T432 371Q432 448 413 480T365 513Z" />
<glyph unicode="1" horiz-adv-x="371" d="M351 528L194 0H53L178 422Q152 412 122 402T45 380L48 401Q121 420 173 441T262 485T331 528H351Z" />
<glyph unicode="2" horiz-adv-x="535" d="M318 531Q393 531 436 503T479 426Q479 388 454 353T390 287T305 227T218 175T147 129Q172 129 202 122T266 108T331 101Q369 101 392 113T416 149Q416 179 380 198L391 211Q420 196 433 176T446 126Q446 94 431 64T381
14T291 -6Q259 -6 228 1T165 15T95 24Q57 26 32 20T-25 0L-20 21Q1 38 35 62T109 118T190 184T264 259T318 339T338 422Q338 462 318 482T262 503Q233 503 203 490T147 455T106 405T90 348Q90 324 103 312T148 300Q176 300 196 310T240 341L252 327Q224 301 195
290T141 279Q125 279 108 284T78 304T66 347Q66 380 85 412T137 472T217 515T318 531Z" />
<glyph unicode="3" horiz-adv-x="517" d="M310 532Q385 532 429 505T473 432Q473 397 452 368T396 315T321 275T242 250Q296 249 339 237T407 197T432 127Q432 76 399 33T309 -44T185 -101T46 -137T-87 -151L-82 -133Q-23 -129 41 -110T161 -57T251 27T285 143Q285
183 270 207T224 234Q208 227 194 222T166 217Q158 217 152 220T149 232Q152 246 171 249T216 250Q251 264 278 287T323 341T340 408Q340 450 316 474T247 498Q220 498 194 488T146 461T111 423T97 379Q97 355 110 343T155 331Q189 331 217 346L228 331Q207 320
187 315T148 310Q132 310 115 315T85 335T73 378Q73 415 104 450T190 508T310 532Z" />
<glyph unicode="4" horiz-adv-x="535" d="M428 531L431 508L-35 56L-23 81H463L453 46H-58L-52 67L428 531ZM454 531L273 -141H132L270 371L428 531H454Z" />
<glyph unicode="5" horiz-adv-x="472" d="M432 538L444 531Q420 467 383 429T295 391Q274 391 250 401T204 420T162 426L69 226Q101 243 139 252T224 261Q313 261 354 229T395 142Q395 86 363 41T279 -39T162 -97T33 -133T-88 -148L-83 -130Q-30 -130 27 -112T134
-60T215 25T246 140Q246 182 225 206T152 231Q137 231 113 227T54 204L44 209L182 518Q211 520 234 514T282 500T340 493Q370 493 393 502T432 538Z" />
<glyph unicode="6" horiz-adv-x="567" d="M546 722L552 702Q498 687 444 653T342 567T255 447T195 297T173 123Q173 53 186 30T225 6Q258 6 286 36T335 112T366 210T377 303Q377 352 363 371T327 391Q304 391 280 368T236 288L220 293Q235 348 260 379T317 424T383
438Q444 438 484 400T525 287Q525 228 500 174T429 78T326 11T200 -14Q117 -14 73 30T28 170Q28 258 62 336T154 481T279 598T417 680T546 722Z" />
<glyph unicode="7" horiz-adv-x="503" d="M199 522Q243 522 279 512T354 490T438 476Q467 475 492 482T537 516H564Q517 461 476 414T398 321T332 227T279 124T237 0Q230 -26 228 -39T224 -59T220 -79Q214 -107 192 -127T131 -148Q100 -148 87 -135T72 -100T76
-56Q89 -1 127 58T217 177T325 292T434 399T521 488Q521 488 528 490T536 492Q498 467 467 447T410 413T359 392T307 384Q272 384 248 392T201 407T151 415Q121 415 100 401T78 356Q78 318 110 293T199 255L194 239Q126 253 84 286T42 383Q42 417 58 449T108 501T199
522Z" />
<glyph unicode="8" horiz-adv-x="575" d="M418 722Q465 722 502 711T562 676T584 615Q584 578 562 545T504 485T428 435T350 396L346 404Q374 426 397 460T435 536T449 622Q449 704 393 704Q364 704 339 685T297 633T281 562Q281 517 303 483T357 420T422 361T476
295T498 209Q498 160 474 119T407 49T309 3T194 -14Q140 -14 96 0T24 42T-3 117Q-3 160 21 198T85 268T173 325T270 368L274 360Q237 335 206 296T157 207T139 103Q139 59 155 32T214 4Q252 4 286 26T341 86T362 172Q362 221 341 257T289 323T227 382T175 446T154
528Q154 572 176 607T235 668T319 708T418 722Z" />
<glyph unicode="9" horiz-adv-x="554" d="M344 531Q427 531 471 487T516 347Q516 262 482 186T392 46T269 -68T133 -148T8 -188L2 -168Q53 -154 106 -121T206 -36T290 81T349 226T371 394Q371 464 358 487T319 511Q285 511 257 481T209 405T178 308T167 214Q167
166 181 146T216 126Q239 126 264 149T307 229L324 224Q308 170 283 138T227 93T160 79Q100 79 60 117T19 230Q19 289 44 343T115 439T218 506T344 531Z" />
<glyph unicode=":" horiz-adv-x="311" d="M114 437Q114 477 142 504T211 531Q243 531 261 515T279 470Q279 446 266 425T230 390T181 377Q149 377 132 393T114 437ZM14 46Q14 86 42 113T111 140Q143 140 161 124T179 79Q179 55 166 34T130 -1T81 -14Q49 -14 32 2T14 46Z" />
<glyph unicode=";" horiz-adv-x="318" d="M119 437Q119 477 147 504T216 531Q248 531 266 515T284 470Q284 446 271 425T235 390T186 377Q154 377 137 393T119 437ZM179 68Q179 5 140 -50T30 -136L25 -120Q68 -98 99 -63T133 15Q120 2 104 -6T71 -14Q41 -14 25
0T9 40Q9 67 23 90T60 126T113 140Q145 140 162 122T179 68Z" />
<glyph unicode="&lt;" horiz-adv-x="594" d="M600 582L610 553L123 351L454 177L438 145L48 355L600 582Z" />
<glyph unicode="=" horiz-adv-x="650" d="M63 270L72 300H573L564 270H63ZM103 410L112 440H613L604 410H103Z" />
<glyph unicode="&gt;" horiz-adv-x="595" d="M58 155L48 184L508 376L138 574L154 603L583 372L58 155Z" />
<glyph unicode="?" horiz-adv-x="486" d="M300 760Q288 760 272 757T240 748T214 730Q232 731 247 722T273 699T284 665Q283 636 261 615T207 594Q178 594 157 612T136 662Q136 695 155 718T206 755T273 775T343 782Q394 782 437 768T507 727T534 658Q534 628
516 598T459 532T356 448Q295 404 260 375T210 323T195 272Q195 245 211 226T263 207Q284 207 305 214T340 233Q323 239 308 254T292 296Q292 323 311 342T361 361Q384 361 401 346T419 304Q419 273 401 251T354 215T293 194T232 187Q189 187 155 199T100 236T79
299Q79 339 101 372T161 435T242 500Q289 537 320 564T367 618T383 675Q383 713 363 736T300 760ZM111 46Q111 86 139 113T207 140Q239 140 257 124T275 79Q275 55 262 34T227 -1T177 -14Q146 -14 129 2T111 46Z" />
<glyph unicode="@" horiz-adv-x="863" d="M589 58Q605 58 632 70T691 107T750 169T796 257T814 371Q814 461 775 517T669 599T516 626Q432 626 360 601T230 529T132 424T70 296T48 158Q48 80 74 25T146 -65T251 -116T375 -132Q440 -132 501 -117T615 -71L621 -84Q578
-112 515 -130T376 -149Q307 -149 245 -132T133 -80T56 14T28 156Q28 228 49 298T113 431T214 541T350 616T516 644Q609 644 681 615T793 526T834 371Q834 287 804 223T727 115T627 49T530 26Q491 26 473 40T452 77T454 124T464 167L552 464Q583 464 616 467T678
478L572 117Q563 85 567 72T589 58ZM492 224Q470 151 444 108T385 45T313 26Q279 26 253 39T213 80T199 148Q199 191 213 236T252 324T310 402T383 457T465 478Q510 478 525 451T534 374L524 367Q525 385 523 402T513 431T486 443Q461 443 433 417T381 349T342
254T327 149Q327 111 336 93T368 74Q401 74 429 116T486 240L492 224Z" />
<glyph unicode="A" horiz-adv-x="653" d="M60 143Q29 100 28 74T50 35T112 20L107 0Q65 2 35 2T-23 3Q-46 3 -61 3T-92 0L-88 20Q-70 25 -55 36T-20 69T25 126L442 713Q455 712 468 712T493 713L533 84Q536 48 551 35T582 20L578 0Q553 2 512 2T433 3Q388 3 348
3T283 0L287 20Q335 22 355 37T373 104L349 564L383 600L60 143ZM153 288H445L437 268H135L153 288Z" />
<glyph unicode="B" horiz-adv-x="679" d="M441 707Q557 707 609 671T661 575Q661 523 628 480T534 408T392 372Q505 367 561 324T617 216Q617 164 593 124T524 56T419 14T288 0Q257 0 217 1T113 3Q88 3 59 3T3 2T-42 0L-38 20Q-4 22 15 28T45 52T65 106L197 602Q205
633 205 651T192 678T138 688L143 708Q161 707 187 707T242 706T295 705Q341 705 374 706T441 707ZM255 359L259 376H330Q387 376 425 407T484 487T504 591Q504 635 488 661T427 688Q397 688 384 674T359 617L224 106Q218 84 216 65T224 35T264 23Q325 23 366 52T428
129T450 234Q450 270 439 298T403 342T335 359H255Z" />
<glyph unicode="C" horiz-adv-x="693" d="M746 708Q731 669 715 614T682 478H660Q668 529 668 567T651 633Q632 668 602 683T533 698Q483 698 437 671T352 597T284 488T238 356T221 214Q221 112 257 64T356 16Q393 16 434 33T506 82Q533 110 552 146T596 240H618Q593
149 580 94T559 0H537Q540 21 540 34Q540 55 532 59T507 51Q480 33 451 18T387 -5T311 -14Q175 -14 109 50T43 234Q43 304 65 374T130 506T232 617T365 694T521 722Q562 722 589 713T636 689T670 657Q683 642 696 654T725 708H746Z" />
<glyph unicode="D" horiz-adv-x="771" d="M756 469Q756 404 737 337T679 210T581 103T443 28T263 0Q247 0 225 1T174 2T112 3Q89 3 61 3T6 2T-38 0L-35 20Q-3 22 15 28T45 52T65 106L196 602Q204 631 204 649T189 677T138 688L141 708Q159 707 187 706T246 705T305
705Q323 706 351 706T407 707T454 708Q599 708 677 648T756 469ZM263 18Q327 18 379 46T472 122T539 233T580 363T594 501Q594 593 556 641T432 690Q407 690 394 684T373 659T355 604L224 104Q216 72 214 53T222 26T263 18Z" />
<glyph unicode="E" horiz-adv-x="626" d="M225 346L230 366H428L423 346H225ZM330 366Q358 366 380 377T418 406T447 445T467 486H490Q474 440 467 413T453 356Q448 338 444 321T436 283T424 226H402Q403 246 402 267T392 306T367 335T319 346L330 366ZM598 528Q602
587 593 621T559 670T488 685H457Q424 685 406 680T377 657T356 602L224 106Q214 70 215 52T232 29T281 23H318Q372 23 409 40T475 95T534 200H557Q552 187 546 168T535 128Q530 109 522 74T509 0Q458 2 395 2T282 3Q257 3 219 3T135 3T44 2T-43 0L-38 20Q-4 22
15 28T44 52T65 106L197 602Q207 639 205 656T188 680T138 688L143 708Q184 707 230 707T321 706T404 705T468 705Q513 705 569 705T671 708Q658 673 649 645T633 590Q629 572 626 556T620 528H598Z" />
<glyph unicode="F" horiz-adv-x="588" d="M230 342L235 362H443L439 342H230ZM588 498Q597 569 588 609T551 667T474 685H451Q420 685 403 680T376 657T356 602L224 106Q214 70 217 52T240 28T302 20L298 0Q267 2 219 2T120 3Q70 3 27 3T-43 0L-38 20Q-4 22 15
28T44 52T65 106L197 602Q207 639 205 656T188 680T138 688L143 708Q184 707 230 707T321 706T404 705T468 705Q513 705 569 705T671 708Q658 672 649 643T632 586Q625 560 620 538T611 498H588ZM338 362Q365 362 386 372T423 399T452 438T475 482H497Q482 436
475 409T460 352Q454 323 447 290T429 204H407Q408 235 406 260T395 303T370 332T327 342L338 362Z" />
<glyph unicode="G" horiz-adv-x="739" d="M340 6Q362 6 382 12T417 27Q435 39 443 55T458 100L481 188Q492 229 490 249T468 276T406 284L411 304Q432 303 461 303T522 302T581 301Q625 301 662 302T722 304L717 284Q695 283 683 277T662 253T643 198L590 0H570Q572
26 566 41T542 57Q523 57 502 47T458 25Q420 5 385 -4T313 -14Q183 -14 111 46T38 215Q38 283 60 354T124 491T225 609T358 691T518 722Q583 722 618 703T682 657Q697 642 710 652T739 708H761Q746 669 730 614T697 478H675Q677 498 678 516T680 553Q680 574 678
591T666 626Q646 664 607 684T512 704Q450 704 401 669T313 575T249 447T210 308T197 182Q197 92 232 49T340 6Z" />
<glyph unicode="H" horiz-adv-x="810" d="M239 346L246 366H599L591 346H239ZM617 602Q627 639 626 656T608 680T558 688L563 708Q590 707 633 706T719 705Q768 705 812 706T884 708L879 688Q845 687 826 681T797 657T776 602L644 106Q635 70 636 52T653 28T703
20L699 0Q672 2 628 2T535 3Q492 3 449 3T378 0L382 20Q416 22 435 28T465 52T485 106L617 602ZM224 106Q215 70 216 52T233 28T283 20L279 0Q251 2 209 2T122 3Q72 3 29 3T-41 0L-36 20Q-3 22 15 28T45 52T65 106L197 602Q207 639 205 656T188 680T138 688L143
708Q168 707 212 706T306 705Q350 705 391 706T464 708L459 688Q425 687 406 681T377 657T356 602L224 106Z" />
<glyph unicode="I" horiz-adv-x="390" d="M224 106Q215 70 216 52T233 28T283 20L279 0Q250 2 206 2T116 3Q68 3 27 3T-41 0L-36 20Q-3 22 15 28T45 52T65 106L197 602Q207 639 205 656T188 680T138 688L143 708Q167 707 209 706T300 705Q345 705 388 706T464
708L459 688Q425 687 406 681T377 657T356 602L224 106Z" />
<glyph unicode="J" horiz-adv-x="683" d="M641 366L638 346H251L254 366H641ZM430 567Q399 567 371 574T318 592T267 609T216 617Q188 617 172 603T155 560Q156 528 182 509T268 483Q268 483 267 474T265 464Q216 468 177 484T115 531T91 606Q90 664 126 701T233
739Q272 739 302 729T358 704T410 674T467 649T536 638Q576 638 620 648T705 677Q726 709 746 726T781 730Q793 720 780 703T714 666Q643 609 599 516T525 307L463 65Q446 -3 410 -61T315 -153T167 -188Q128 -188 97 -181T46 -157T27 -113Q27 -81 49 -59T111 -37Q144
-37 166 -52T189 -97Q189 -121 175 -139T134 -168Q141 -170 148 -170T162 -171Q192 -171 212 -154T248 -105T276 -29T304 70L358 262Q378 338 410 395T483 496T575 579T684 655Q646 643 615 628T556 598T497 576T430 567Z" />
<glyph unicode="K" horiz-adv-x="740" d="M224 106Q215 70 216 52T233 28T283 20L279 0Q251 2 209 2T122 3Q72 3 29 3T-41 0L-36 20Q-3 22 15 28T45 52T65 106L197 602Q207 639 205 656T188 680T138 688L143 708Q168 707 212 706T306 705Q350 705 391 706T464
708L459 688Q425 687 406 681T377 657T356 602L224 106ZM587 59Q607 59 620 74T643 119L660 170H680L654 93Q635 37 600 12T520 -14Q456 -14 427 20T406 112L425 252Q429 288 427 309T417 343T393 365L395 375Q449 372 486 362T543 333T571 281T573 201L562 96Q560
80 566 70T587 59ZM407 360Q353 346 334 349T316 369Q319 385 337 388T407 378V360ZM625 681Q607 662 595 631T572 565T548 494T516 431T467 385T394 368L396 378Q445 383 473 409T519 473T547 553T572 633T610 693Q627 711 645 716T681 722Q726 722 751 697T775
631Q775 609 765 587T735 549T684 534Q656 534 637 551T618 601Q618 630 638 657T692 700Q690 702 686 702T676 703Q657 703 646 698T625 681Z" />
<glyph unicode="L" horiz-adv-x="605" d="M562 210Q556 194 550 173T538 128Q533 109 525 74T511 0Q460 2 397 2T284 3Q259 3 221 3T136 3T44 2T-43 0L-38 20Q-4 22 15 28T44 52T65 106L197 602Q207 639 205 656T188 680T138 688L143 708Q169 707 213 706T308
705Q352 705 393 706T464 708L459 688Q425 687 406 681T376 657T355 602L223 106Q214 70 215 52T231 29T281 23H321Q366 23 405 41T479 100T540 210H562Z" />
<glyph unicode="M" horiz-adv-x="917" d="M752 705H830Q875 705 917 706T991 708L986 688Q952 687 933 681T904 657T883 602L751 106Q742 70 743 52T761 28T810 20L806 0Q774 2 733 2T646 3Q598 3 555 3T486 0L490 20Q525 22 543 28T573 52T593 106L738 645L323
-5H301L220 609L94 129Q86 97 86 73T105 36T169 20L165 0Q153 1 133 1T92 2T53 3Q27 3 1 3T-42 0L-37 20Q-2 22 18 35T51 73T71 129L198 602Q208 639 206 656T189 680T139 688L144 708Q167 707 203 706T281 705Q305 705 329 706T371 708L428 197L752 705Z" />
<glyph unicode="N" horiz-adv-x="825" d="M525 -5L271 551Q271 551 271 559T271 576T270 594T269 602Q277 639 275 656T255 680T198 688L203 708Q219 707 242 706T292 705Q339 705 373 708L585 222Q585 222 582 206T575 164T566 109T558 54T550 12T547 -5H525ZM832
735Q806 735 785 720T748 682Q702 614 654 443T547 -5L533 23Q548 90 565 167T601 323T641 472T684 599T730 690Q749 717 775 735T838 754Q884 754 908 729T933 669Q933 631 908 605T842 578Q809 578 791 594T773 637Q773 671 795 696T848 731Q846 733 842 734T832
735ZM21 -55Q48 -55 69 -41T105 -1Q134 45 163 143T223 380T285 685L302 664Q286 582 269 498T233 333T196 183T158 64T121 -11Q103 -35 79 -54T14 -74Q-31 -74 -55 -49T-80 11Q-80 50 -54 76T11 102Q45 102 62 86T80 43Q80 9 58 -16T4 -51Q7 -53 11 -54T21 -55Z"
/>
<glyph unicode="O" horiz-adv-x="777" d="M486 704Q444 704 404 677T330 601T269 490T229 356T214 213Q214 115 244 60T322 4Q364 4 404 31T478 107T539 218T579 352T594 495Q594 593 564 648T486 704ZM42 226Q42 292 63 362T123 496T217 611T343 692T495 722Q622
722 694 660T767 481Q767 415 746 346T686 212T590 97T465 16T313 -14Q186 -14 114 48T42 226Z" />
<glyph unicode="P" horiz-adv-x="643" d="M230 284L235 304H280Q346 304 391 328T464 393T504 481T516 579Q516 632 494 660T419 688Q399 688 388 681T371 656T355 602L223 106Q216 77 216 59T231 31T282 20L278 0Q248 2 208 2T124 3Q74 3 29 3T-42 0L-38 20Q-4
22 15 28T45 52T65 106L197 602Q204 633 204 651T190 678T138 688L143 708Q168 707 213 706T302 705Q338 705 374 706T448 707Q568 707 625 668T683 556Q683 478 631 417T486 320T270 284H230Z" />
<glyph unicode="Q" horiz-adv-x="831" d="M310 243Q247 243 198 264T122 325T95 421Q95 486 129 541T224 636T359 699T516 722Q605 722 672 697T778 627T816 519Q816 463 787 404T707 286T592 173T455 73T313 -8T178 -62T66 -82Q18 -82 -10 -62T-38 -1Q-38 31
-20 56T30 96T102 111Q153 111 199 90T291 36T384 -27T482 -81T591 -103Q627 -103 651 -93T693 -67T720 -32Q707 -42 690 -48T656 -54Q623 -54 601 -35T578 19Q578 54 603 78T669 103Q704 103 727 82T751 19Q751 -18 730 -55T671 -122T582 -170T472 -188Q415 -188
370 -172T287 -129T219 -74T159 -18T102 24T42 41Q16 41 0 28T-17 -8Q-17 -35 7 -50T74 -65Q104 -65 142 -55T222 -29T300 5Q356 32 407 70T502 156T578 259T628 375T646 501Q646 596 607 650T495 704Q442 704 399 677T326 605T279 506T263 396Q263 357 273 329T306
287T365 272Q407 272 441 290T497 337T528 399Q531 411 532 423T532 447Q521 414 495 401T444 387Q411 387 392 408T372 461Q372 501 399 527T467 553Q509 553 533 523T557 443Q557 385 526 340T439 269T310 243Z" />
<glyph unicode="R" horiz-adv-x="711" d="M276 355Q305 353 324 352T358 349T387 346Q429 341 465 334T527 313T565 273T572 208L558 105Q555 73 562 54T589 35Q609 35 623 53T650 107L655 121H678L674 108Q656 46 620 16T521 -14Q452 -14 423 19T400 102L415
216Q420 257 412 284T372 326T274 340L276 355ZM260 340L265 358H298Q347 358 388 372T459 416T505 487T522 583Q522 637 499 662T429 688Q400 688 386 675T360 622L224 106Q216 76 215 58T228 31T282 20L278 0Q248 2 208 2T122 3Q74 3 29 3T-42 0L-38 20Q-4 22
15 28T45 52T65 106L196 602Q205 633 205 651T191 678T138 688L143 708Q161 707 187 707T241 706T294 705Q340 705 375 706T444 707Q566 707 624 673T683 568Q683 499 635 449T500 370T300 341L260 340Z" />
<glyph unicode="S" horiz-adv-x="587" d="M620 715Q610 689 593 640T561 511H541Q544 525 545 540T547 567Q547 606 531 635T483 681T404 698Q354 698 319 673T283 589Q283 554 300 522T343 458T400 396T457 332T501 263T518 186Q518 132 492 94T423 32T333 -3T242
-14Q195 -14 165 -8T112 8T69 32Q58 39 49 43T34 47Q21 47 13 35T-8 -7H-28Q-19 15 -9 44T13 118T40 233H60Q55 216 53 195T51 154Q54 83 95 46T214 8Q282 8 312 36T343 113Q343 155 328 190T288 256T236 316T185 377T145 444T130 522Q130 573 152 610T211 673T291
710T376 722Q435 722 472 708T534 678Q543 672 552 667T567 662Q581 662 600 715H620Z" />
<glyph unicode="T" horiz-adv-x="681" d="M781 858Q817 858 837 837T858 788Q858 756 840 732T789 693Q759 679 717 672T622 664Q585 664 543 667T456 676T369 684T289 688Q255 688 224 685T176 671Q202 664 219 642T236 590Q236 556 215 531T158 506Q123 506
105 529T86 585Q86 609 99 636T151 682Q175 694 201 699T250 705T285 706Q347 706 406 701T521 690T631 684Q670 684 696 688T745 700L743 692Q728 704 715 726T702 776Q702 812 723 835T781 858ZM411 689Q411 689 426 688T465 684T511 680T550 677T566 675L417
116Q408 80 410 60T432 31T492 20L488 0Q457 2 407 2T303 3Q251 3 204 3T127 0L131 20Q173 22 197 30T235 59T258 116L411 689Z" />
<glyph unicode="U" horiz-adv-x="694" d="M643 544Q658 599 658 628T642 671T583 688L588 708Q607 707 637 706T695 705Q719 705 743 706T783 708L778 688Q745 684 726 672T694 632T668 556L600 291Q564 153 502 79Q466 37 413 12T297 -14Q222 -14 174 7T102 65Q75
104 75 157T97 288L180 602Q190 639 188 656T171 680T121 688L127 708Q152 707 197 706T292 705Q336 705 376 706T447 708L441 688Q407 687 388 681T359 657T338 602L250 271Q234 209 228 163T230 85T259 37T316 21Q391 21 441 54T523 147T574 280L643 544Z" />
<glyph unicode="V" horiz-adv-x="661" d="M622 565Q652 610 652 636T631 674T569 688L574 708Q588 707 611 707T661 706T705 705Q728 705 746 706T780 708L775 688Q755 683 737 673T700 641T656 582L274 -5Q261 -4 249 -4T223 -5L144 624Q140 660 123 673T92 688L97
708Q123 707 163 706T241 705Q289 705 328 706T394 708L389 688Q357 687 338 681T312 657T309 604L361 143L332 119L622 565Z" />
<glyph unicode="W" horiz-adv-x="982" d="M573 497L270 -5H218L139 624Q135 661 118 674T86 688L91 708Q116 707 154 706T231 705Q271 705 304 706T361 708L356 688Q324 686 312 671T304 604L354 155L324 124L567 523L573 497ZM938 565Q964 613 964 639T942 675T879
688L884 708Q898 707 921 707T971 706T1015 705Q1038 705 1056 706T1091 708L1086 688Q1066 683 1047 673T1009 642T968 582L653 -5H601L514 624Q509 661 496 674T471 688L476 708Q499 707 534 706T606 705Q654 705 695 706T762 708L757 688Q707 686 690 671T679
604L735 163L705 136L938 565Z" />
<glyph unicode="X" horiz-adv-x="741" d="M498 125Q502 95 515 76T555 57Q579 57 595 71T623 119L640 170H660L634 93Q613 36 579 11T495 -14Q440 -14 408 6T361 62T340 142L286 586Q282 618 270 637T230 656Q207 656 191 640T162 589L145 538H125L151 615Q171
673 208 697T297 722Q349 722 379 703T424 648T446 566L498 125ZM710 703Q693 703 677 698T645 680Q615 656 575 602T493 467T412 278L425 354Q448 419 481 484T553 602T625 686Q670 722 716 722Q761 722 783 695T805 629Q804 589 779 562T716 534Q685 534 668
552T651 601Q652 634 673 661T727 699Q724 701 720 702T710 703ZM55 5Q74 5 89 11T121 28Q153 50 196 99T285 222T370 396L355 320Q331 262 295 204T219 97T141 20Q96 -14 48 -14Q4 -14 -18 13T-40 79Q-39 119 -15 146T49 174Q81 174 97 156T113 107Q113 74 92
48T38 9Q41 7 45 6T55 5Z" />
<glyph unicode="Y" horiz-adv-x="734" d="M392 106Q383 70 387 52T410 28T463 20L458 0Q439 1 411 1T349 2T286 3Q238 3 195 3T125 0L130 20Q164 22 183 28T213 52T233 106L302 380L367 317L436 336L470 416L392 106ZM714 703Q698 703 684 698T654 680Q626 660
586 608T505 471T429 270L293 265Q289 312 282 364T265 466T242 558T211 624T172 648Q154 648 143 635T126 601L105 538Q105 538 94 538T83 538L108 615Q128 674 164 698T249 722Q317 722 354 680T409 558T440 365Q474 461 516 535T604 660Q627 685 657 703T722
722Q768 722 792 696T815 634Q814 597 789 572T724 546Q691 546 673 563T655 607Q656 641 677 665T731 699Q728 701 724 702T714 703Z" />
<glyph unicode="Z" horiz-adv-x="658" d="M162 346L169 366H522L514 346H162ZM450 212Q450 212 452 221T454 231Q486 226 515 213T564 177T584 115Q584 59 545 23T439 -14Q396 -14 364 -1T302 30T242 61T168 75Q139 75 115 68T62 48Q40 16 14 -1T-26 -5Q-38 6
-24 28T43 70L623 640Q576 599 524 575T420 550Q384 550 356 556T305 572T259 587T213 594Q191 594 180 584T168 554Q168 533 185 519T241 496Q241 496 239 487T236 477Q205 483 175 495T126 532T106 593Q106 649 145 685T251 722Q294 722 326 709T388 678T448
647T522 633Q551 633 575 640T628 660Q651 692 676 709T716 713Q728 703 714 681T647 638L67 68Q114 109 166 133T271 158Q307 158 335 152T386 136T432 121T478 114Q499 114 511 124T523 154Q523 175 506 189T450 212Z" />
<glyph unicode="[" horiz-adv-x="362" d="M-22 -181L215 772H445L441 753H360L131 -162H212L208 -181H-22Z" />
<glyph unicode="\" horiz-adv-x="491" d="M162 722L390 -14H357L131 722H162Z" />
<glyph unicode="]" horiz-adv-x="363" d="M385 772L148 -181H-82L-78 -162H3L232 753H151L155 772H385Z" />
<glyph unicode="^" horiz-adv-x="528" d="M266 394Q229 370 177 348T72 310L68 324Q145 358 211 413T318 528H336Q345 468 381 413T480 325L472 310Q415 323 361 345T266 394Z" />
<glyph unicode="_" horiz-adv-x="744" d="M-23 -86H527L497 -185H-52L-23 -86Z" />
<glyph unicode="`" horiz-adv-x="324" d="M348 599Q310 647 281 675T232 724T198 766Q184 789 188 811T211 844Q232 857 255 849T292 819Q306 797 312 770T328 703T360 606L348 599Z" />
<glyph unicode="a" horiz-adv-x="558" d="M175 40Q191 40 210 57T249 106T288 186T323 295L301 186Q276 112 246 68T182 5T111 -14Q55 -14 27 19T-1 109Q-1 163 17 222T67 336T138 435T222 505T310 531Q343 531 361 505T372 424L361 418Q366 454 358 474T329 494Q309
494 285 471T236 408T192 318T159 212T147 102Q147 68 154 54T175 40ZM387 516Q430 517 465 520T532 531L401 85Q398 72 397 61T399 42T415 35Q428 35 444 50T477 114L495 162H514L489 89Q475 48 453 26T406 -5T357 -14Q305 -14 283 17Q268 39 269 71T283 146L387
516Z" />
<glyph unicode="b" horiz-adv-x="547" d="M338 478Q318 478 295 453T248 383T204 283T168 166L186 268Q220 362 252 420T318 504T394 531Q455 531 486 492T518 377Q518 331 505 278T465 173T402 79T315 12T207 -14Q178 -14 155 -2T121 30L128 46Q139 29 151 22T179
15Q209 15 237 40T290 108T332 203T361 308T372 409Q372 448 363 463T338 478ZM132 29Q99 28 62 15T-9 -16L-24 -9Q-17 5 -12 19T-3 50L178 667Q187 701 176 717T115 733L121 754Q192 755 247 765T352 795L132 29Z" />
<glyph unicode="c" horiz-adv-x="463" d="M358 511Q321 511 285 480T221 395T175 276T158 140Q158 87 179 64T234 40Q266 40 299 59T366 128L386 120Q366 87 335 56T262 6T168 -14Q98 -14 53 23T8 140Q8 189 23 243T68 348T139 441T234 506T349 531Q404 531 437
504T471 435Q471 408 458 383T423 341T372 324Q348 324 332 339T315 382Q315 423 342 452T406 491Q398 501 387 506T358 511Z" />
<glyph unicode="d" horiz-adv-x="579" d="M424 85Q415 61 419 48T438 35Q451 35 466 50T499 114L516 162H535L511 89Q498 48 476 26T429 -5T379 -14Q317 -14 300 32Q291 51 292 79T304 145L443 667Q453 701 441 717T380 733L386 754Q457 755 513 765T620 795L424
85ZM184 36Q201 36 224 58T273 123T323 230T366 376L351 268Q318 172 286 109T215 16T123 -14Q90 -14 63 1T20 46T4 126Q4 172 18 226T61 334T130 432T223 504T337 531Q369 531 384 517T403 476L395 456Q391 482 381 495T351 508Q325 508 297 485T244 421T197 329T164
220T152 105Q152 71 159 54T184 36Z" />
<glyph unicode="e" horiz-adv-x="469" d="M131 217Q172 233 209 253T272 297Q311 332 334 378T358 479Q358 499 354 505T342 512Q320 512 295 490T244 430T199 344T166 244T153 143Q153 87 174 67T230 46Q257 46 297 64T376 128L392 120Q371 87 337 56T258 6T160
-14Q115 -14 80 2T24 49T3 127Q3 180 20 236T70 344T147 439T247 506T364 531Q408 531 438 512T468 452Q468 413 447 379T389 317T309 267T218 229T130 204L131 217Z" />
<glyph unicode="f" horiz-adv-x="341" d="M55 497L61 517H392L386 497H55ZM420 764Q404 764 391 759T367 744Q354 732 344 711T324 660T306 594L100 -174Q58 -175 23 -178T-45 -188L142 508Q164 593 192 648T260 736Q289 759 324 770T401 782Q464 782 498 756T533
686Q533 666 522 646T490 612T441 599Q412 599 395 613T377 653Q377 686 397 712T454 751Q449 756 441 760T420 764Z" />
<glyph unicode="g" horiz-adv-x="472" d="M223 226L269 231Q230 214 201 200T156 174T140 151Q140 142 151 136T185 122L269 94Q298 85 324 72T366 38T383 -14Q383 -51 359 -83T293 -139T196 -177T79 -191Q28 -191 -13 -182T-78 -155T-103 -115Q-103 -96 -86 -80T-42
-53T17 -34T80 -23L84 -38Q50 -57 36 -77T22 -117Q22 -145 43 -159T101 -174Q128 -174 158 -166T215 -144T257 -110T273 -68Q273 -50 259 -43T221 -29L79 12Q54 19 37 35T19 77Q19 105 42 128T112 174T223 226ZM266 512Q248 512 233 498T206 460T187 407T177 348T173
292Q173 259 181 246T205 233Q230 233 247 253T276 306T293 376T298 449Q298 475 292 493T266 512ZM284 530Q349 530 392 504T435 417Q435 369 405 323T319 246T188 215Q124 215 81 242T38 327Q38 360 53 395T99 461T176 511T284 530ZM362 478L343 485Q358 524
391 549T464 575Q495 575 512 558T529 511Q529 483 514 468T482 453Q466 453 452 465T433 502T445 565L453 560Q415 546 396 528T362 478Z" />
<glyph unicode="h" horiz-adv-x="570" d="M123 0H-18L180 667Q190 701 178 717T117 733L123 754Q194 755 250 765T356 795L123 0ZM148 145Q188 260 222 335T290 453T358 513T433 531Q482 531 502 510T523 455T510 380L412 85Q403 58 408 47T426 35Q439 35 454
49T488 114L506 162H525L500 89Q486 47 464 25T416 -5T366 -14Q318 -14 297 7T275 65T290 145L379 415Q385 432 387 447T387 471T369 481Q350 481 325 456T274 386T221 281T170 152T126 10L148 145Z" />
<glyph unicode="i" horiz-adv-x="322" d="M177 684Q179 727 208 750T279 773Q316 773 335 756T353 707Q351 668 321 644T249 619Q214 619 195 636T177 684ZM139 432Q156 482 128 482Q110 482 95 464T64 403L44 352H25L53 428Q67 468 88 490T136 521T192 531Q227
531 247 518T274 485T279 440T269 391L164 85Q155 58 159 47T178 35Q191 35 206 50T241 114L259 162H278L252 89Q238 48 216 26T169 -5T117 -14Q74 -14 52 5T27 60T41 145L139 432Z" />
<glyph unicode="j" horiz-adv-x="301" d="M-138 -188L-134 -170Q-84 -169 -47 -132T10 -18L136 432Q144 459 141 470T124 482Q107 482 92 465T61 403L42 352H23L50 428Q70 487 109 509T189 531Q237 531 256 510T275 457T265 391L182 94Q169 39 152 -3T111 -77T54
-134Q23 -158 -24 -173T-138 -188ZM172 681Q172 724 201 749T275 775Q311 775 330 759T349 714Q349 675 319 648T245 621Q211 621 192 637T172 681Z" />
<glyph unicode="k" horiz-adv-x="552" d="M123 0H-18L180 667Q190 701 178 717T117 733L123 754Q194 755 250 765T356 795L123 0ZM394 77Q389 53 393 44T409 35Q422 35 437 50T470 114L488 162H507L482 89Q468 48 445 26T394 -5T338 -14Q289 -14 268 15T259 101L276
178Q289 232 271 256T188 286V290Q232 293 275 290T352 272T402 229T409 151L394 77ZM440 511Q427 511 417 507T398 496Q380 482 369 456T347 401T319 345T274 303T200 287L190 286L192 297Q237 300 263 317T304 360T330 413T352 466T383 508Q399 521 415 526T445
531Q494 531 516 504T538 439Q537 415 527 395T498 364T454 353Q422 353 406 370T390 411Q390 442 410 466T456 503Q453 507 449 509T440 511Z" />
<glyph unicode="l" horiz-adv-x="300" d="M142 85Q135 59 140 47T159 35Q170 35 186 49T219 114L237 162H256L231 89Q217 48 195 26T148 -5T98 -14Q65 -14 45 -3T16 30T7 81T19 145L176 667Q186 701 174 717T113 733L120 754Q192 755 246 765T352 795L142 85Z" />
<glyph unicode="m" horiz-adv-x="856" d="M156 0H15L137 432Q141 445 141 456T139 475T124 482Q107 482 92 464T61 403L42 352H23L50 428Q65 468 86 490T133 521T185 531Q219 531 237 519T261 485T265 440T257 391L156 0ZM398 415Q403 432 405 445T405 467T390
475Q367 475 341 448T288 370T233 251T182 100L187 169Q229 302 269 381T355 496T459 531Q492 531 509 519T533 486T537 438T526 380L419 0H276L398 415ZM665 415Q674 441 674 458T659 475Q640 475 616 452T563 381T505 261T445 90L447 144Q483 258 515 333T581
451T651 513T728 531Q771 531 790 511T809 456T796 380L698 85Q688 56 693 46T711 35Q724 35 740 49T774 114L792 162H811L786 89Q772 47 750 25T702 -5T651 -14Q622 -14 602 -5T571 22Q558 42 559 73T575 145L665 415Z" />
<glyph unicode="n" horiz-adv-x="603" d="M157 0H16L137 432Q142 446 143 457T141 475T126 482Q108 482 94 466T62 403L43 352H24L51 428Q71 485 103 508T180 531Q216 531 235 519T260 485T266 440T258 391L157 0ZM189 169Q228 278 261 348T327 459T394 515T467
531Q515 531 536 510T557 455T544 380L446 85Q436 57 441 46T459 35Q472 35 488 49T522 114L540 162H559L534 89Q520 47 498 25T450 -5T400 -14Q371 -14 351 -6T320 19Q307 39 307 69T323 145L413 415Q419 431 421 446T420 471T403 481Q384 481 360 457T310 389T257
287T207 164T164 29L189 169Z" />
<glyph unicode="o" horiz-adv-x="529" d="M331 511Q308 511 283 484T233 410T189 307T158 190T146 74Q146 38 154 22T180 6Q203 6 228 32T277 104T320 205T352 323T364 441Q364 483 356 497T331 511ZM12 151Q12 197 24 249T63 351T127 441T218 506T336 531Q413
531 455 489T498 366Q498 320 486 268T447 166T383 76T292 11T174 -14Q97 -14 55 28T12 151Z" />
<glyph unicode="p" horiz-adv-x="583" d="M374 478Q354 478 331 453T284 383T239 283T204 166L222 268Q254 362 286 420T353 504T429 531Q490 531 521 492T553 377Q553 331 541 278T503 173T442 79T358 12T254 -14Q222 -14 196 -2T157 30L164 46Q174 29 186 22T215
15Q245 15 273 39T325 103T368 192T397 294T407 395Q407 444 398 461T374 478ZM204 658Q246 661 282 668T353 686L137 -75Q123 -127 144 -143T214 -160L208 -181Q185 -180 142 -179T50 -177Q10 -177 -30 -178T-91 -181L-85 -160Q-49 -160 -33 -147T-7 -98L204 658ZM11
350Q47 389 79 427T141 519T203 652L206 636Q185 567 157 515T94 420T22 337L11 350Z" />
<glyph unicode="q" horiz-adv-x="551" d="M381 -87Q370 -126 386 -142T442 -160L436 -181Q413 -180 370 -179T281 -177Q239 -177 197 -178T134 -181L140 -160Q188 -159 209 -143T240 -90L395 487Q428 488 465 501T535 532L551 525Q544 512 539 497T529 466L381
-87ZM188 45Q206 45 228 65T271 121T312 202T343 298L324 196Q294 121 265 75T203 7T132 -14Q71 -14 40 25T8 140Q8 186 22 239T64 344T129 438T216 505T319 531Q348 531 371 519T405 487L398 471Q388 488 376 495T347 502Q317 502 289 476T236 406T194 310T165
205T154 108Q154 74 163 60T188 45Z" />
<glyph unicode="r" horiz-adv-x="470" d="M156 0H15L137 432Q144 459 142 470T126 482Q108 482 93 465T61 403L42 352H23L50 428Q65 468 86 490T133 521T188 531Q220 531 237 519T260 485T265 440T257 391L156 0ZM412 509Q392 509 369 497T322 454T272 368T218
228T161 21L183 156Q215 266 241 338T293 452T349 513T417 531Q456 531 477 508T498 450Q498 422 486 399T452 361T403 346Q374 346 358 361T342 406Q342 430 353 450T383 486T425 506Q422 507 419 508T412 509Z" />
<glyph unicode="s" horiz-adv-x="420" d="M74 14Q82 10 91 9T113 7Q150 7 173 29T197 93Q197 126 183 160T141 236Q118 272 99 306T79 384Q79 427 101 460T163 512T261 531Q298 531 332 522T390 491T413 427Q413 412 407 394T387 365T352 353Q327 353 312 371T297
420Q297 447 306 468T328 503Q315 511 293 511Q257 511 237 489T215 426Q215 403 223 383T245 341T275 294Q305 245 319 210T334 139Q334 96 312 62T247 7T146 -14Q104 -14 66 -3T5 33T-19 102Q-19 130 -5 152T37 174Q64 174 79 152T94 96Q94 70 87 49T74 14Z"
/>
<glyph unicode="t" horiz-adv-x="353" d="M402 517L399 497H52L57 517H402ZM164 85Q157 59 165 47T191 35Q212 35 233 56T270 121L285 162H304L284 104Q264 44 226 15T134 -14Q88 -14 63 7T34 64T41 145L191 666Q234 667 269 670T336 680L164 85Z" />
<glyph unicode="u" horiz-adv-x="597" d="M393 351Q356 241 322 170T256 59T189 3T117 -14Q75 -14 53 4T28 56T40 137L137 432Q147 461 142 471T124 482Q111 482 95 468T61 403L43 355H24L49 428Q64 470 86 492T134 522T183 531Q228 531 250 512T274 457T260 372L170
102Q148 36 180 36Q199 36 223 61T273 130T326 233T376 360T418 499L393 351ZM442 85Q435 60 436 48T453 35Q471 35 486 52T517 114L536 165H555L528 89Q515 50 494 28T447 -4T394 -14Q367 -14 349 -5T320 20Q310 39 311 65T321 126L422 517Q463 518 499 521T567
531L442 85Z" />
<glyph unicode="v" horiz-adv-x="525" d="M467 329Q427 349 398 384T369 465Q370 497 388 514T434 531Q472 531 488 500T501 416Q498 360 484 300T444 183T380 83T291 12T176 -14Q121 -14 90 4T47 51T35 110Q36 171 71 235T166 363T303 490Q278 487 258 474T221
446T188 420T153 409Q136 409 124 418T96 428Q82 428 74 417T56 380L48 353H29L51 426Q68 488 93 510T145 532Q164 532 177 524T206 507T247 499Q263 499 281 503T320 520L330 539L351 529Q315 477 286 423T236 314T203 209T189 115Q187 71 198 51T234 31Q271 31
304 49T364 99T412 169T447 249T467 329Z" />
<glyph unicode="w" horiz-adv-x="680" d="M298 55Q268 25 228 6T136 -14Q91 -14 62 2T17 47T2 108Q2 156 29 202T102 296T210 392T339 492L344 490Q315 488 292 475T250 447T213 421T175 409Q156 409 144 418T117 428Q103 428 95 417T78 380L69 353H50L72 426Q92
487 116 507T167 528Q187 528 202 521T235 506T281 499Q297 499 316 503T358 520L369 539L390 529Q342 479 300 425T225 315T174 206T155 104Q155 66 167 48T206 30Q227 30 249 40T291 70L298 55ZM453 47Q488 47 514 66T560 116T590 186T605 265T606 340Q578 351
548 368T497 410T475 473Q475 496 490 513T534 531Q559 531 576 514T604 470T620 413T627 357Q631 310 625 258T601 158T556 71T489 9T397 -14Q364 -14 334 -2T284 40T264 123Q264 169 280 211T321 286T373 339T425 359Q442 359 450 348T460 322T463 293Q463 233
435 175T350 68L344 86Q388 125 414 180T440 290Q440 311 436 324T423 337Q410 337 395 313T370 252T360 172Q360 138 370 110T400 65T453 47Z" />
<glyph unicode="x" horiz-adv-x="565" d="M366 84Q371 58 379 48T400 38Q414 38 428 54T461 124L474 161H493L468 88Q454 46 432 24T384 -6T334 -14Q290 -14 260 7T223 84L183 433Q179 459 170 467T148 475Q139 475 130 470T111 447T88 393L75 356H56L81 429Q96
471 118 493T167 523T219 531Q266 531 294 510T328 425L366 84ZM415 460Q390 432 371 397T339 327T317 262Q317 262 307 262T297 263Q301 276 308 299T328 351T357 411T396 470Q424 505 451 518T506 531Q538 531 558 514T579 465Q579 434 558 414T504 393Q476 393
452 409T415 460ZM122 57Q160 100 187 155T228 255Q228 255 237 254T247 253Q239 225 225 190T191 118T143 47Q114 13 86 0T32 -14Q-3 -14 -22 3T-41 49Q-41 83 -19 103T35 124Q68 124 89 105T122 57Z" />
<glyph unicode="y" horiz-adv-x="482" d="M307 61L200 -60L120 431Q115 458 110 468T94 478Q84 478 74 465T47 404L29 355H10L35 428Q56 489 88 510T158 531Q199 531 224 509T258 423L307 61ZM68 -139Q115 -116 165 -77T267 30Q323 99 365 179T427 334Q403 348
382 367T347 411T335 463Q335 495 353 513T402 531Q437 531 452 507T468 440Q468 393 452 337T408 222T345 106T271 4Q240 -35 202 -69T121 -130T32 -173Q10 -181 -8 -184T-39 -188Q-71 -188 -89 -174T-108 -132Q-108 -106 -89 -88T-39 -70Q-7 -70 19 -88T68 -139Z"
/>
<glyph unicode="z" horiz-adv-x="464" d="M33 56Q57 67 79 81T121 108T160 130T197 139Q221 139 237 131T268 115T303 107Q322 107 331 117T340 142Q340 165 323 179T282 199L288 214Q342 202 368 176T394 107Q394 76 380 49T339 6T267 -11Q237 -11 213 -3T168
16T124 35T68 43Q41 43 20 35T-23 0H-52L434 467Q407 455 383 439T335 407T291 382T250 371Q227 371 211 379T180 395T145 403Q127 403 118 394T108 368Q108 347 123 334T166 311L160 296Q109 308 82 333T54 400Q54 431 69 459T117 506T197 525Q229 525 251 517T294
499T338 481T391 473Q420 473 441 482T483 516H512L33 56Z" />
<glyph unicode="{" horiz-adv-x="361" d="M214 -188Q137 -189 96 -174T40 -130T29 -57T47 43Q64 110 72 154T80 227Q79 258 68 271T33 286H28L31 304H36Q68 307 90 328T131 402T173 547Q197 642 232 692T322 762T454 782L449 763Q425 763 408 757T378 729T350
664T317 547Q295 457 260 407T174 332T58 295Q116 282 149 261T196 210T207 138T191 43Q176 -18 169 -57T162 -119Q162 -150 176 -159T219 -169L214 -188Z" />
<glyph unicode="|" horiz-adv-x="369" d="M238 858V-195H150V858H238Z" />
<glyph unicode="}" horiz-adv-x="361" d="M148 782Q225 783 266 768T322 724T333 651T315 551Q299 484 291 440T282 367Q283 336 294 323T329 308H334L331 290H326Q295 288 273 266T231 193T189 47Q166 -48 131 -98T41 -168T-92 -188L-87 -169Q-63 -169 -46 -163T-16
-135T12 -70T45 47Q68 138 103 188T188 262T304 299Q246 312 213 333T167 384T155 456T171 551Q186 612 193 651T200 713Q200 744 186 753T143 763L148 782Z" />
<glyph unicode="~" horiz-adv-x="645" d="M401 213Q363 213 334 225T280 252T227 279T165 291Q136 291 110 278T63 233L49 238Q77 310 130 351T250 393Q288 393 317 381T371 354T424 327T486 315Q515 315 541 328T588 373L602 368Q574 297 521 255T401 213Z" />
<glyph unicode="&#xa0;" horiz-adv-x="255" />
<glyph unicode="&#xa1;" horiz-adv-x="296" d="M160 316Q142 243 137 172T131 34T125 -91Q124 -137 99 -162T27 -188Q-7 -188 -26 -171T-42 -120Q-38 -82 -16 -35T35 69T94 188T142 319L160 316ZM112 437Q112 477 140 504T209 531Q241 531 259 515T277 469Q277
446 264 425T228 390T179 377Q147 377 130 393T112 437Z" />
<glyph unicode="&#xa2;" horiz-adv-x="477" d="M378 708L139 -181H117L356 708H378ZM360 511Q322 511 286 480T222 395T176 276T159 140Q159 87 180 64T235 40Q267 40 300 59T367 128L387 120Q367 87 336 56T263 6T169 -14Q100 -14 55 23T10 140Q10 189 25 243T69
348T140 441T235 506T351 531Q405 531 438 504T472 435Q472 408 459 383T424 341T373 324Q349 324 333 339T316 382Q316 423 344 452T407 491Q399 501 388 506T360 511Z" />
<glyph unicode="&#xa3;" horiz-adv-x="672" d="M452 317L446 297H55L61 317H452ZM479 417L473 397H82L88 417H479ZM526 721Q494 721 471 709T431 674T401 619T377 548L332 376Q320 327 300 293T253 234T199 185T143 135T90 71Q133 108 179 130T275 152Q320 152
353 142T415 123T474 113Q495 113 510 124T526 156Q526 176 510 190T456 212L461 230Q493 226 522 213T570 177T589 120Q589 84 570 53T516 4T435 -14Q393 -14 361 -2T300 28T239 57T165 70Q145 70 125 67T83 55Q62 20 36 3T-15 -14Q-28 -14 -28 -4Q-28 12 -4 35T71
69Q88 103 105 145T142 258L190 439Q212 522 255 589T365 696T528 736Q584 736 615 709T646 645Q646 600 620 572T555 544Q525 544 507 560T488 607Q488 643 509 670T566 705Q564 712 553 716T526 721Z" />
<glyph unicode="&#xa4;" horiz-adv-x="658" d="M217 300Q217 263 232 236T274 193T332 177Q364 177 390 192T431 235T447 300Q447 337 432 365T390 408T332 424Q301 424 275 409T233 365T217 300ZM83 138L141 196Q128 219 121 245T113 300Q113 329 120 355T142
404L83 462L168 547L226 489Q249 503 275 510T331 518Q359 518 385 511T435 489L494 548L579 463L520 404Q534 381 541 355T549 300Q549 271 542 245T520 195L578 137L493 52L434 111Q411 98 385 91T331 83Q272 83 227 111L169 53L83 138Z" />
<glyph unicode="&#xa5;" horiz-adv-x="776" d="M569 217L564 197H133L138 217H569ZM591 297L586 277H155L160 297H591ZM409 106Q400 70 404 52T427 28T480 20L475 0Q457 1 428 1T366 2T303 3Q255 3 212 3T142 0L147 20Q181 22 200 28T230 52T250 106L319 380L384
317L453 336L487 416L409 106ZM732 703Q716 703 702 698T672 680Q643 660 604 608T523 471T447 270L310 265Q306 312 300 364T283 466T260 558T229 624T190 648Q172 648 161 635T144 601L122 538Q122 538 111 538T100 538L126 615Q146 674 182 698T267 722Q335
722 371 680T426 558T458 365Q491 461 533 535T621 660Q644 685 674 703T740 722Q785 722 809 696T832 634Q832 597 807 572T742 546Q708 546 691 563T673 607Q673 641 695 665T748 699Q745 701 741 702T732 703Z" />
<glyph unicode="&#xa6;" horiz-adv-x="372" d="M152 -195V326H240V-195H152ZM240 858V384H152V858H240Z" />
<glyph unicode="&#xa7;" horiz-adv-x="576" d="M506 740Q503 748 491 753T464 760T434 763Q400 763 370 750T320 708T300 638Q300 609 315 586T356 541T414 491Q452 460 480 434T523 381T539 321Q539 280 522 247T475 187T410 141T337 105L330 117Q351 130 369
144T400 178T416 225Q420 253 409 276T371 325T296 388Q253 423 222 452T174 512T157 576Q157 626 181 664T246 728T335 768T431 782Q452 782 479 778T531 765T573 737T590 691Q590 667 578 646T544 611T495 597Q466 597 450 612T434 652Q434 682 456 705T506 740ZM143
-169Q177 -169 207 -156T256 -114T276 -43Q276 -14 261 9T221 53T162 103Q125 135 97 161T53 214T38 273Q38 314 55 347T102 407T167 453T239 489L246 477Q226 465 206 448T172 408T158 357Q158 334 171 312T212 264T280 206Q324 171 355 142T403 82T420 18Q420
-32 395 -70T330 -134T242 -174T146 -188Q124 -188 97 -184T45 -171T4 -143T-12 -97Q-12 -73 0 -52T33 -17T82 -3Q111 -3 126 -17T142 -54Q142 -87 121 -110T71 -146Q75 -153 86 -158T112 -166T143 -169Z" />
<glyph unicode="&#xa8;" horiz-adv-x="480" d="M157 676Q157 716 183 738T243 760Q275 760 291 742T308 694Q308 667 296 648T263 620T221 610Q188 610 173 628T157 676ZM384 676Q384 716 410 738T470 760Q503 760 519 742T535 694Q535 667 523 648T491 620T449
610Q416 610 400 628T384 676Z" />
<glyph unicode="&#xa9;" horiz-adv-x="911" d="M81 384Q81 467 112 539T197 665T324 751T479 782Q562 782 634 751T760 666T846 539T877 384Q877 302 846 230T761 103T634 17T479 -14Q397 -14 325 17T198 102T112 229T81 384ZM121 384Q121 308 149 242T226 126T340
47T479 18Q553 18 618 46T732 125T809 242T837 384Q837 460 809 526T732 642T618 721T479 750Q405 750 340 722T226 643T149 526T121 384ZM537 176Q556 176 578 184T624 213T668 276L686 269Q675 233 650 196T585 136T487 112Q422 112 370 140T286 228T254 382Q254
472 286 533T374 626T502 657Q545 657 586 644T654 604T682 533Q682 498 660 476T603 453Q568 453 547 473T526 528Q526 559 545 580T592 609Q582 619 563 626T522 634Q489 634 463 614T421 542T405 395Q405 311 424 263T474 196T537 176Z" />
<glyph unicode="&#xaa;" horiz-adv-x="532" d="M451 450Q445 431 447 420T463 409Q477 409 488 419T507 453L516 478H535L522 442Q507 398 477 379T405 360Q376 360 357 371T333 408T341 481L407 713Q480 713 537 722L451 450ZM256 407Q271 407 289 425T326 476T360
547T383 627L371 548Q348 474 320 433T260 376T196 360Q149 360 124 384T99 453Q99 499 122 546T182 633T266 697T358 722Q375 722 389 713T399 667L392 651Q393 677 386 687T368 698Q349 698 326 678T281 623T246 545T232 458Q232 432 238 420T256 407Z" />
<glyph unicode="&#xab;" horiz-adv-x="586" d="M368 531Q353 499 330 460T278 380T221 307T169 253Q185 234 200 202T228 131T249 55T261 -14H243Q196 60 142 126T19 247L22 259Q114 317 193 385T350 531H368ZM558 507Q546 478 525 442T479 369T429 303T382 253Q396
236 409 207T434 142T452 73T463 10H445Q401 77 352 137T238 247L241 259Q325 312 398 374T540 507H558Z" />
<glyph unicode="&#xac;" horiz-adv-x="646" d="M86 340L95 370H596L537 165H501L551 340H86Z" />
<glyph unicode="&#xad;" horiz-adv-x="506" />
<glyph unicode="&#xae;" horiz-adv-x="685" d="M398 782Q456 782 506 761T595 701T655 612T677 503Q677 445 656 395T596 306T507 246T398 224Q340 224 290 245T201 305T141 394T119 503Q119 561 140 611T200 700T289 760T398 782ZM332 523Q366 523 380 522T402
520T421 516Q474 512 493 498T518 457L533 392Q535 380 538 374T548 368Q555 368 559 374L567 364Q559 355 546 351T515 346Q483 346 467 357T446 389L431 462Q428 481 421 491T395 504T334 508L332 523ZM398 750Q332 750 278 717T193 627T161 503Q161 436 192
380T278 290T398 256Q464 256 518 289T603 379T635 503Q635 571 604 627T518 716T398 750ZM410 676Q475 676 503 656T532 597Q532 580 521 561T478 528T388 511L327 508Q327 508 327 516T327 524H380Q418 524 433 542T448 591Q448 626 436 643T394 661Q379 661
374 655T368 633V404Q368 381 372 375T391 367V352Q379 352 363 352T329 353Q309 353 291 353T262 352V367Q276 369 280 375T285 404V623Q285 647 281 653T262 661V676Q273 675 290 675T324 675Q352 675 376 675T410 676Z" />
<glyph unicode="&#xaf;" horiz-adv-x="436" d="M499 712L493 687H157L163 712H499Z" />
<glyph unicode="&#xb0;" horiz-adv-x="333" d="M261 820Q310 820 346 788T383 700Q383 644 347 612T261 579Q213 579 177 611T140 700Q140 756 176 788T261 820ZM261 598Q284 598 306 609T344 643T359 700Q359 733 344 755T306 789T261 801Q239 801 217 790T179
756T164 700Q164 666 179 643T216 609T261 598Z" />
<glyph unicode="&#xb1;" horiz-adv-x="618" d="M-24 0L-15 30H486L477 0H-24ZM80 370H313L380 606H416L349 370H581L572 340H340L273 105H237L304 340H71L80 370Z" />
<glyph unicode="&#xb2;" horiz-adv-x="356" d="M302 754Q341 754 366 741T392 698Q392 669 371 644T317 595T252 552T194 514Q211 514 233 510T278 501T317 496Q335 496 346 503T358 526Q358 536 354 544L371 551Q378 540 382 528T387 502Q387 474 364 454T294
433Q261 433 229 441T154 451Q129 452 114 449T76 437L80 455Q95 466 122 483T179 523T236 570T280 621T297 675Q297 698 284 707T247 716Q223 716 198 705T148 668L134 679Q158 708 201 731T302 754Z" />
<glyph unicode="&#xb3;" horiz-adv-x="339" d="M306 754Q346 754 372 741T398 700Q398 679 382 660T341 627T288 602T235 586Q291 585 329 569T368 512Q368 475 336 446T253 396T145 363T38 347V365Q78 368 119 380T195 411T251 458T272 520Q272 547 260 558T229
572Q218 566 210 564T197 562Q191 562 185 565T179 575Q179 585 191 589T223 592Q258 607 281 630T304 681Q304 700 292 709T261 718Q236 718 210 707T153 667L139 679Q154 696 179 713T236 742T306 754Z" />
<glyph unicode="&#xb4;" horiz-adv-x="296" d="M137 609Q174 661 196 699T235 766T274 816Q293 836 319 841T365 827Q383 810 378 788T350 742Q330 722 302 704T235 661T147 599L137 609Z" />
<glyph unicode="&#xb6;" horiz-adv-x="708" d="M413 331Q395 252 386 188T375 86T376 48Q376 48 384 80T407 167T439 285T474 415T505 534T529 621T539 656Q536 656 525 634T496 572T460 481T424 372Q348 372 285 368T185 359T146 351Q146 348 181 343T276 335T413
331ZM358 -13Q243 -13 173 17T72 102T40 229Q40 328 76 415T176 568T326 671T511 709Q561 709 605 708T691 706Q714 706 739 706T787 708L782 689Q733 687 715 671T687 621L544 76Q524 -1 487 -60T391 -154T244 -188Q205 -188 174 -181T123 -157T104 -113Q104 -81
127 -59T190 -36Q222 -36 243 -50T264 -92Q264 -116 250 -135T211 -168Q218 -170 225 -170T239 -171Q270 -171 290 -153T327 -100T358 -13Z" />
<glyph unicode="&#xb7;" horiz-adv-x="289" d="M54 247Q54 287 82 314T151 341Q183 341 201 325T219 280Q219 256 206 235T170 200T121 187Q89 187 72 203T54 247Z" />
<glyph unicode="&#xb8;" horiz-adv-x="339" d="M127 0L83 -69Q95 -65 109 -62T137 -59Q162 -59 179 -69T197 -101Q197 -132 172 -151T109 -179T33 -188Q2 -188 -21 -182T-56 -168L-50 -153Q-42 -155 -27 -159T11 -164Q22 -164 40 -161T74 -147T89 -118Q89 -95
61 -95Q56 -95 47 -96T30 -102L99 0H127Z" />
<glyph unicode="&#xb9;" horiz-adv-x="268" d="M336 753L235 437H140L216 671Q193 661 169 652T107 634L112 653Q166 668 203 684T267 719T317 753H336Z" />
<glyph unicode="&#xba;" horiz-adv-x="491" d="M354 704Q331 704 309 680T270 615T242 529T231 437Q231 379 267 379Q290 379 312 403T351 467T379 554T390 646Q390 704 354 704ZM105 483Q105 517 121 558T169 636T248 698T359 722Q431 722 473 692T516 599Q516
565 500 524T452 446T373 385T262 361Q191 361 148 391T105 483Z" />
<glyph unicode="&#xbb;" horiz-adv-x="585" d="M324 531Q371 457 425 391T549 269L546 257Q454 200 374 132T217 -14H199Q214 18 237 57T289 136T345 209T398 263Q382 283 367 315T339 385T318 462T306 531H324ZM122 507Q166 441 216 380T329 269L326 257Q243
205 170 143T28 10H10Q22 39 43 75T89 147T138 214T184 263Q171 281 158 310T133 374T115 444T104 507H122Z" />
<glyph unicode="&#xbc;" horiz-adv-x="668" d="M720 824L735 811L-98 -55L-113 -42L720 824ZM336 753L235 437H140L216 671Q193 661 169 652T107 634L112 653Q166 668 203 684T267 719T317 753H336ZM479 317L484 296L185 39L204 67H477L460 8H138L143 26L479 317ZM498
317L381 -85H305L397 232L479 317H498Z" />
<glyph unicode="&#xbd;" horiz-adv-x="621" d="M720 824L735 811L-98 -55L-113 -42L720 824ZM336 753L235 437H140L216 671Q193 661 169 652T107 634L112 653Q166 668 203 684T267 719T317 753H336ZM469 317Q508 317 533 304T559 261Q559 232 538 207T484 158T419
115T361 77Q378 77 400 73T445 64T484 59Q502 59 513 66T525 89Q525 99 521 107L538 114Q545 103 549 91T554 65Q554 37 531 17T461 -4Q428 -4 396 4T321 14Q296 15 281 12T243 0L247 18Q262 29 289 46T346 86T403 133T447 184T464 238Q464 261 451 270T414 279Q390
279 365 268T315 231L301 242Q325 271 368 294T469 317Z" />
<glyph unicode="&#xbe;" horiz-adv-x="750" d="M820 824L835 811L2 -55L-13 -42L820 824ZM306 754Q346 754 372 741T398 700Q398 679 382 660T341 627T288 602T235 586Q291 585 329 569T368 512Q368 475 336 446T253 396T145 363T38 347V365Q78 368 119 380T195
411T251 458T272 520Q272 547 260 558T229 572Q218 566 210 564T197 562Q191 562 185 565T179 575Q179 585 191 589T223 592Q258 607 281 630T304 681Q304 700 292 709T261 718Q236 718 210 707T153 667L139 679Q154 696 179 713T236 742T306 754ZM579 317L584
296L285 39L304 67H577L560 8H238L243 26L579 317ZM598 317L481 -85H405L497 232L579 317H598Z" />
<glyph unicode="&#xbf;" horiz-adv-x="488" d="M187 -166Q200 -166 217 -164T250 -156T274 -141Q250 -138 232 -120T214 -77Q215 -48 237 -30T290 -12Q317 -12 336 -27T356 -74Q356 -105 337 -127T286 -162T216 -182T142 -188Q58 -188 7 -159T-44 -76Q-44 -46
-28 -22T23 29T112 92Q155 122 184 143T227 186T242 235Q242 259 227 277T176 296Q155 296 133 290T100 272Q118 271 134 257T150 219Q150 195 131 178T81 161Q58 161 42 173T26 212Q26 241 44 260T92 292T156 311T220 317Q266 317 303 305T363 270T385 213Q385
179 363 151T307 96T233 43Q166 -1 135 -30T103 -98Q103 -130 126 -148T187 -166ZM209 437Q209 477 237 504T306 531Q338 531 356 515T374 469Q374 446 361 425T325 390T276 377Q244 377 227 393T209 437Z" />
<glyph unicode="&#xc0;" horiz-adv-x="653" d="M60 143Q29 100 28 74T50 35T112 20L107 0Q65 2 35 2T-23 3Q-46 3 -61 3T-92 0L-88 20Q-70 25 -55 36T-20 69T25 126L442 713Q455 712 468 712T493 713L533 84Q536 48 551 35T582 20L578 0Q553 2 512 2T433 3Q388
3 348 3T283 0L287 20Q335 22 355 37T373 104L349 564L383 600L60 143ZM153 288H445L437 268H135L153 288ZM515 771Q464 795 429 807T370 827T324 849Q305 862 297 883T300 925Q313 947 338 948T383 938Q404 926 419 905T458 853T523 782L515 771Z" />
<glyph unicode="&#xc1;" horiz-adv-x="653" d="M60 143Q29 100 28 74T50 35T112 20L107 0Q65 2 35 2T-23 3Q-46 3 -61 3T-92 0L-88 20Q-70 25 -55 36T-20 69T25 126L442 713Q455 712 468 712T493 713L533 84Q536 48 551 35T582 20L578 0Q553 2 512 2T433 3Q388
3 348 3T283 0L287 20Q335 22 355 37T373 104L349 564L383 600L60 143ZM153 288H445L437 268H135L153 288ZM453 784Q503 823 535 854T591 907T643 945Q657 953 675 955T709 953T734 929Q746 906 733 886T694 852Q669 838 637 829T561 807T460 772L453 784Z" />
<glyph unicode="&#xc2;" horiz-adv-x="653" d="M60 143Q29 100 28 74T50 35T112 20L107 0Q65 2 35 2T-23 3Q-46 3 -61 3T-92 0L-88 20Q-70 25 -55 36T-20 69T25 126L442 713Q455 712 468 712T493 713L533 84Q536 48 551 35T582 20L578 0Q553 2 512 2T433 3Q388
3 348 3T283 0L287 20Q335 22 355 37T373 104L349 564L383 600L60 143ZM153 288H445L437 268H135L153 288ZM474 830Q431 814 374 798T256 771L251 785Q335 811 407 853T522 940H540Q562 888 593 850T679 785L675 771Q627 779 592 788T529 808T474 830Z" />
<glyph unicode="&#xc3;" horiz-adv-x="653" d="M60 143Q29 100 28 74T50 35T112 20L107 0Q65 2 35 2T-23 3Q-46 3 -61 3T-92 0L-88 20Q-70 25 -55 36T-20 69T25 126L442 713Q455 712 468 712T493 713L533 84Q536 48 551 35T582 20L578 0Q553 2 512 2T433 3Q388
3 348 3T283 0L287 20Q335 22 355 37T373 104L349 564L383 600L60 143ZM153 288H445L437 268H135L153 288ZM438 927Q475 927 499 916T542 891T580 865T628 854Q649 854 668 867T705 912L723 907Q694 833 649 801T557 768Q520 768 496 779T453 804T415 830T367 841Q346
841 328 828T290 783L272 788Q300 862 346 894T438 927Z" />
<glyph unicode="&#xc4;" horiz-adv-x="653" d="M60 143Q29 100 28 74T50 35T112 20L107 0Q65 2 35 2T-23 3Q-46 3 -61 3T-92 0L-88 20Q-70 25 -55 36T-20 69T25 126L442 713Q455 712 468 712T493 713L533 84Q536 48 551 35T582 20L578 0Q553 2 512 2T433 3Q388
3 348 3T283 0L287 20Q335 22 355 37T373 104L349 564L383 600L60 143ZM153 288H445L437 268H135L153 288ZM292 832Q292 872 318 894T378 917Q411 917 427 898T443 850Q443 823 431 804T399 776T356 766Q324 766 308 784T292 832ZM532 832Q532 872 558 894T618
917Q650 917 666 898T683 850Q683 823 671 804T638 776T596 766Q563 766 548 784T532 832Z" />
<glyph unicode="&#xc5;" horiz-adv-x="653" d="M60 143Q29 100 28 74T50 35T112 20L107 0Q65 2 35 2T-23 3Q-46 3 -61 3T-92 0L-88 20Q-70 25 -55 36T-20 69T25 126L442 713Q455 712 468 712T493 713L533 84Q536 48 551 35T582 20L578 0Q553 2 512 2T433 3Q388
3 348 3T283 0L287 20Q335 22 355 37T373 104L349 564L383 600L60 143ZM153 288H445L437 268H135L153 288ZM497 937Q539 937 567 914T595 852Q595 822 578 797T533 757T471 742Q431 742 404 765T376 828Q376 859 392 883T436 922T497 937ZM475 763Q499 763 521
774T556 806T569 851Q569 884 545 900T494 916Q457 916 430 890T403 828Q403 796 425 780T475 763Z" />
<glyph unicode="&#xc6;" horiz-adv-x="905" d="M611 773L34 94Q15 72 8 57T14 32T67 20V0Q54 2 30 2T-19 3Q-37 3 -55 3T-86 0V20Q-55 22 0 84L585 773H611ZM234 346L253 366H721L717 346H234ZM650 366Q680 366 698 382T729 423T753 478H775Q762 439 756 414T741
356Q735 334 730 309T715 234H693Q693 251 696 270T698 305T686 333T646 346L650 366ZM503 106Q494 70 495 52T511 29T560 23H633Q681 23 712 40T767 95T812 200H834Q829 187 824 168T813 128Q808 109 800 74T787 0Q736 2 674 2T561 3Q536 3 498 3T415 3T324 2T237
0L241 20Q275 22 294 28T324 52T344 106L476 602Q486 639 484 656T467 680T417 688L422 708Q462 707 508 707T599 706T682 705T745 705Q791 705 848 705T952 708Q939 673 929 640T914 590Q909 572 906 556T901 528H879Q895 617 877 651T798 685H735Q702 685 684
680T655 657T635 602L503 106Z" />
<glyph unicode="&#xc7;" horiz-adv-x="693" d="M746 708Q731 669 715 614T682 478H660Q668 529 668 567T651 633Q632 668 602 683T533 698Q483 698 437 671T352 597T284 488T238 356T221 214Q221 112 257 64T356 16Q393 16 434 33T506 82Q533 110 552 146T596
240H618Q593 149 580 94T559 0H537Q540 21 540 34Q540 55 532 59T507 51Q480 33 451 18T387 -5T311 -14Q175 -14 109 50T43 234Q43 304 65 374T130 506T232 617T365 694T521 722Q562 722 589 713T636 689T670 657Q683 642 696 654T725 708H746ZM332 6L301 -63Q314
-59 329 -56T359 -53Q389 -53 407 -64T426 -101Q426 -132 400 -151T335 -179T256 -188Q220 -188 191 -182T147 -168L153 -153Q162 -155 184 -159T234 -164Q249 -164 270 -161T308 -147T324 -118Q324 -95 292 -95Q286 -95 276 -96T257 -102L305 6H332Z" />
<glyph unicode="&#xc8;" horiz-adv-x="626" d="M225 346L230 366H428L423 346H225ZM330 366Q358 366 380 377T418 406T447 445T467 486H490Q474 440 467 413T453 356Q448 338 444 321T436 283T424 226H402Q403 246 402 267T392 306T367 335T319 346L330 366ZM598
528Q602 587 593 621T559 670T488 685H457Q424 685 406 680T377 657T356 602L224 106Q214 70 215 52T232 29T281 23H318Q372 23 409 40T475 95T534 200H557Q552 187 546 168T535 128Q530 109 522 74T509 0Q458 2 395 2T282 3Q257 3 219 3T135 3T44 2T-43 0L-38
20Q-4 22 15 28T44 52T65 106L197 602Q207 639 205 656T188 680T138 688L143 708Q184 707 230 707T321 706T404 705T468 705Q513 705 569 705T671 708Q658 673 649 645T633 590Q629 572 626 556T620 528H598ZM475 771Q424 795 389 807T330 827T284 849Q265 862
257 883T260 925Q273 947 298 948T343 938Q364 926 379 905T418 853T483 782L475 771Z" />
<glyph unicode="&#xc9;" horiz-adv-x="626" d="M225 346L230 366H428L423 346H225ZM330 366Q358 366 380 377T418 406T447 445T467 486H490Q474 440 467 413T453 356Q448 338 444 321T436 283T424 226H402Q403 246 402 267T392 306T367 335T319 346L330 366ZM598
528Q602 587 593 621T559 670T488 685H457Q424 685 406 680T377 657T356 602L224 106Q214 70 215 52T232 29T281 23H318Q372 23 409 40T475 95T534 200H557Q552 187 546 168T535 128Q530 109 522 74T509 0Q458 2 395 2T282 3Q257 3 219 3T135 3T44 2T-43 0L-38
20Q-4 22 15 28T44 52T65 106L197 602Q207 639 205 656T188 680T138 688L143 708Q184 707 230 707T321 706T404 705T468 705Q513 705 569 705T671 708Q658 673 649 645T633 590Q629 572 626 556T620 528H598ZM413 784Q463 823 495 854T551 907T603 945Q617 953
635 955T669 953T694 929Q706 906 693 886T654 852Q629 838 597 829T521 807T420 772L413 784Z" />
<glyph unicode="&#xca;" horiz-adv-x="626" d="M225 346L230 366H428L423 346H225ZM330 366Q358 366 380 377T418 406T447 445T467 486H490Q474 440 467 413T453 356Q448 338 444 321T436 283T424 226H402Q403 246 402 267T392 306T367 335T319 346L330 366ZM598
528Q602 587 593 621T559 670T488 685H457Q424 685 406 680T377 657T356 602L224 106Q214 70 215 52T232 29T281 23H318Q372 23 409 40T475 95T534 200H557Q552 187 546 168T535 128Q530 109 522 74T509 0Q458 2 395 2T282 3Q257 3 219 3T135 3T44 2T-43 0L-38
20Q-4 22 15 28T44 52T65 106L197 602Q207 639 205 656T188 680T138 688L143 708Q184 707 230 707T321 706T404 705T468 705Q513 705 569 705T671 708Q658 673 649 645T633 590Q629 572 626 556T620 528H598ZM434 830Q391 814 334 798T216 771L211 785Q295 811
367 853T482 940H500Q522 888 553 850T639 785L635 771Q587 779 552 788T489 808T434 830Z" />
<glyph unicode="&#xcb;" horiz-adv-x="626" d="M225 346L230 366H428L423 346H225ZM330 366Q358 366 380 377T418 406T447 445T467 486H490Q474 440 467 413T453 356Q448 338 444 321T436 283T424 226H402Q403 246 402 267T392 306T367 335T319 346L330 366ZM598
528Q602 587 593 621T559 670T488 685H457Q424 685 406 680T377 657T356 602L224 106Q214 70 215 52T232 29T281 23H318Q372 23 409 40T475 95T534 200H557Q552 187 546 168T535 128Q530 109 522 74T509 0Q458 2 395 2T282 3Q257 3 219 3T135 3T44 2T-43 0L-38
20Q-4 22 15 28T44 52T65 106L197 602Q207 639 205 656T188 680T138 688L143 708Q184 707 230 707T321 706T404 705T468 705Q513 705 569 705T671 708Q658 673 649 645T633 590Q629 572 626 556T620 528H598ZM251 832Q251 872 277 894T337 917Q370 917 386 898T402
850Q402 823 390 804T358 776T315 766Q283 766 267 784T251 832ZM491 832Q491 872 517 894T577 917Q609 917 625 898T642 850Q642 823 630 804T597 776T555 766Q522 766 507 784T491 832Z" />
<glyph unicode="&#xcc;" horiz-adv-x="390" d="M224 106Q215 70 216 52T233 28T283 20L279 0Q250 2 206 2T116 3Q68 3 27 3T-41 0L-36 20Q-3 22 15 28T45 52T65 106L197 602Q207 639 205 656T188 680T138 688L143 708Q167 707 209 706T300 705Q345 705 388 706T464
708L459 688Q425 687 406 681T377 657T356 602L224 106ZM619 771Q568 795 533 807T474 827T428 849Q409 862 401 883T404 925Q417 947 442 948T487 938Q508 926 523 905T562 853T627 782L619 771Z" />
<glyph unicode="&#xcd;" horiz-adv-x="390" d="M224 106Q215 70 216 52T233 28T283 20L279 0Q250 2 206 2T116 3Q68 3 27 3T-41 0L-36 20Q-3 22 15 28T45 52T65 106L197 602Q207 639 205 656T188 680T138 688L143 708Q167 707 209 706T300 705Q345 705 388 706T464
708L459 688Q425 687 406 681T377 657T356 602L224 106ZM301 784Q351 823 383 854T439 907T491 945Q505 953 523 955T557 953T582 929Q594 906 581 886T542 852Q517 838 485 829T409 807T308 772L301 784Z" />
<glyph unicode="&#xce;" horiz-adv-x="390" d="M224 106Q215 70 216 52T233 28T283 20L279 0Q250 2 206 2T116 3Q68 3 27 3T-41 0L-36 20Q-3 22 15 28T45 52T65 106L197 602Q207 639 205 656T188 680T138 688L143 708Q167 707 209 706T300 705Q345 705 388 706T464
708L459 688Q425 687 406 681T377 657T356 602L224 106ZM578 830Q535 814 478 798T360 771L355 785Q439 811 511 853T626 940H644Q666 888 697 850T783 785L779 771Q731 779 696 788T633 808T578 830Z" />
<glyph unicode="&#xcf;" horiz-adv-x="390" d="M224 106Q215 70 216 52T233 28T283 20L279 0Q250 2 206 2T116 3Q68 3 27 3T-41 0L-36 20Q-3 22 15 28T45 52T65 106L197 602Q207 639 205 656T188 680T138 688L143 708Q167 707 209 706T300 705Q345 705 388 706T464
708L459 688Q425 687 406 681T377 657T356 602L224 106ZM396 832Q396 872 422 894T482 917Q515 917 531 898T547 850Q547 823 535 804T503 776T460 766Q428 766 412 784T396 832ZM636 832Q636 872 662 894T722 917Q754 917 770 898T787 850Q787 823 775 804T742
776T700 766Q667 766 652 784T636 832Z" />
<glyph unicode="&#xd0;" horiz-adv-x="771" d="M756 469Q756 404 737 337T679 210T581 103T443 28T263 0Q247 0 225 1T174 2T112 3Q89 3 61 3T6 2T-38 0L-35 20Q-3 22 15 28T45 52T65 106L196 602Q204 631 204 649T189 677T138 688L141 708Q159 707 187 706T246
705T305 705Q323 706 351 706T407 707T454 708Q599 708 677 648T756 469ZM263 18Q327 18 379 46T472 122T539 233T580 363T594 501Q594 593 556 641T432 690Q407 690 394 684T373 659T355 604L224 104Q216 72 214 53T222 26T263 18ZM706 622L700 597H276L282 622H706Z"
/>
<glyph unicode="&#xd1;" horiz-adv-x="825" d="M525 -5L271 551Q271 551 271 559T271 576T270 594T269 602Q277 639 275 656T255 680T198 688L203 708Q219 707 242 706T292 705Q339 705 373 708L585 222Q585 222 582 206T575 164T566 109T558 54T550 12T547 -5H525ZM832
735Q806 735 785 720T748 682Q702 614 654 443T547 -5L533 23Q548 90 565 167T601 323T641 472T684 599T730 690Q749 717 775 735T838 754Q884 754 908 729T933 669Q933 631 908 605T842 578Q809 578 791 594T773 637Q773 671 795 696T848 731Q846 733 842 734T832
735ZM21 -55Q48 -55 69 -41T105 -1Q134 45 163 143T223 380T285 685L302 664Q286 582 269 498T233 333T196 183T158 64T121 -11Q103 -35 79 -54T14 -74Q-31 -74 -55 -49T-80 11Q-80 50 -54 76T11 102Q45 102 62 86T80 43Q80 9 58 -16T4 -51Q7 -53 11 -54T21 -55ZM495
927Q532 927 556 916T599 891T637 865T685 854Q706 854 725 867T762 912L780 907Q751 833 706 801T614 768Q577 768 553 779T510 804T472 830T424 841Q403 841 385 828T347 783L329 788Q357 862 403 894T495 927Z" />
<glyph unicode="&#xd2;" horiz-adv-x="777" d="M486 704Q444 704 404 677T330 601T269 490T229 356T214 213Q214 115 244 60T322 4Q364 4 404 31T478 107T539 218T579 352T594 495Q594 593 564 648T486 704ZM42 226Q42 292 63 362T123 496T217 611T343 692T495
722Q622 722 694 660T767 481Q767 415 746 346T686 212T590 97T465 16T313 -14Q186 -14 114 48T42 226ZM539 771Q488 795 453 807T394 827T348 849Q329 862 321 883T324 925Q337 947 362 948T407 938Q428 926 443 905T482 853T547 782L539 771Z" />
<glyph unicode="&#xd3;" horiz-adv-x="777" d="M486 704Q444 704 404 677T330 601T269 490T229 356T214 213Q214 115 244 60T322 4Q364 4 404 31T478 107T539 218T579 352T594 495Q594 593 564 648T486 704ZM42 226Q42 292 63 362T123 496T217 611T343 692T495
722Q622 722 694 660T767 481Q767 415 746 346T686 212T590 97T465 16T313 -14Q186 -14 114 48T42 226ZM477 784Q527 823 559 854T615 907T667 945Q681 953 699 955T733 953T758 929Q770 906 757 886T718 852Q693 838 661 829T585 807T484 772L477 784Z" />
<glyph unicode="&#xd4;" horiz-adv-x="777" d="M486 704Q444 704 404 677T330 601T269 490T229 356T214 213Q214 115 244 60T322 4Q364 4 404 31T478 107T539 218T579 352T594 495Q594 593 564 648T486 704ZM42 226Q42 292 63 362T123 496T217 611T343 692T495
722Q622 722 694 660T767 481Q767 415 746 346T686 212T590 97T465 16T313 -14Q186 -14 114 48T42 226ZM498 830Q455 814 398 798T280 771L275 785Q359 811 431 853T546 940H564Q586 888 617 850T703 785L699 771Q651 779 616 788T553 808T498 830Z" />
<glyph unicode="&#xd5;" horiz-adv-x="777" d="M486 704Q444 704 404 677T330 601T269 490T229 356T214 213Q214 115 244 60T322 4Q364 4 404 31T478 107T539 218T579 352T594 495Q594 593 564 648T486 704ZM42 226Q42 292 63 362T123 496T217 611T343 692T495
722Q622 722 694 660T767 481Q767 415 746 346T686 212T590 97T465 16T313 -14Q186 -14 114 48T42 226ZM461 927Q498 927 522 916T565 891T603 865T651 854Q672 854 691 867T728 912L746 907Q717 833 672 801T580 768Q543 768 519 779T476 804T438 830T390 841Q369
841 351 828T313 783L295 788Q323 862 369 894T461 927Z" />
<glyph unicode="&#xd6;" horiz-adv-x="777" d="M486 704Q444 704 404 677T330 601T269 490T229 356T214 213Q214 115 244 60T322 4Q364 4 404 31T478 107T539 218T579 352T594 495Q594 593 564 648T486 704ZM42 226Q42 292 63 362T123 496T217 611T343 692T495
722Q622 722 694 660T767 481Q767 415 746 346T686 212T590 97T465 16T313 -14Q186 -14 114 48T42 226ZM315 832Q315 872 341 894T401 917Q434 917 450 898T466 850Q466 823 454 804T422 776T379 766Q347 766 331 784T315 832ZM555 832Q555 872 581 894T641 917Q673
917 689 898T706 850Q706 823 694 804T661 776T619 766Q586 766 571 784T555 832Z" />
<glyph unicode="&#xd7;" horiz-adv-x="496" d="M19 182L242 355L117 530L143 548L266 373L493 550L509 528L282 352L407 179L382 161L258 334L34 160L19 182Z" />
<glyph unicode="&#xd8;" horiz-adv-x="777" d="M486 704Q444 704 404 677T330 601T269 490T229 356T214 213Q214 115 244 60T322 4Q364 4 404 31T478 107T539 218T579 352T594 495Q594 593 564 648T486 704ZM42 226Q42 292 63 362T123 496T217 611T343 692T495
722Q622 722 694 660T767 481Q767 415 746 346T686 212T590 97T465 16T313 -14Q186 -14 114 48T42 226ZM654 632L789 773L804 760L664 612L654 632ZM157 75L15 -73L-3 -59L144 93L157 75ZM173 96L641 632L651 612L186 78L173 96Z" />
<glyph unicode="&#xd9;" horiz-adv-x="694" d="M643 544Q658 599 658 628T642 671T583 688L588 708Q607 707 637 706T695 705Q719 705 743 706T783 708L778 688Q745 684 726 672T694 632T668 556L600 291Q564 153 502 79Q466 37 413 12T297 -14Q222 -14 174 7T102
65Q75 104 75 157T97 288L180 602Q190 639 188 656T171 680T121 688L127 708Q152 707 197 706T292 705Q336 705 376 706T447 708L441 688Q407 687 388 681T359 657T338 602L250 271Q234 209 228 163T230 85T259 37T316 21Q391 21 441 54T523 147T574 280L643 544ZM536
771Q485 795 450 807T391 827T345 849Q326 862 318 883T321 925Q334 947 359 948T404 938Q425 926 440 905T479 853T544 782L536 771Z" />
<glyph unicode="&#xda;" horiz-adv-x="694" d="M643 544Q658 599 658 628T642 671T583 688L588 708Q607 707 637 706T695 705Q719 705 743 706T783 708L778 688Q745 684 726 672T694 632T668 556L600 291Q564 153 502 79Q466 37 413 12T297 -14Q222 -14 174 7T102
65Q75 104 75 157T97 288L180 602Q190 639 188 656T171 680T121 688L127 708Q152 707 197 706T292 705Q336 705 376 706T447 708L441 688Q407 687 388 681T359 657T338 602L250 271Q234 209 228 163T230 85T259 37T316 21Q391 21 441 54T523 147T574 280L643 544ZM474
784Q524 823 556 854T612 907T664 945Q678 953 696 955T730 953T755 929Q767 906 754 886T715 852Q690 838 658 829T582 807T481 772L474 784Z" />
<glyph unicode="&#xdb;" horiz-adv-x="694" d="M643 544Q658 599 658 628T642 671T583 688L588 708Q607 707 637 706T695 705Q719 705 743 706T783 708L778 688Q745 684 726 672T694 632T668 556L600 291Q564 153 502 79Q466 37 413 12T297 -14Q222 -14 174 7T102
65Q75 104 75 157T97 288L180 602Q190 639 188 656T171 680T121 688L127 708Q152 707 197 706T292 705Q336 705 376 706T447 708L441 688Q407 687 388 681T359 657T338 602L250 271Q234 209 228 163T230 85T259 37T316 21Q391 21 441 54T523 147T574 280L643 544ZM495
830Q452 814 395 798T277 771L272 785Q356 811 428 853T543 940H561Q583 888 614 850T700 785L696 771Q648 779 613 788T550 808T495 830Z" />
<glyph unicode="&#xdc;" horiz-adv-x="694" d="M643 544Q658 599 658 628T642 671T583 688L588 708Q607 707 637 706T695 705Q719 705 743 706T783 708L778 688Q745 684 726 672T694 632T668 556L600 291Q564 153 502 79Q466 37 413 12T297 -14Q222 -14 174 7T102
65Q75 104 75 157T97 288L180 602Q190 639 188 656T171 680T121 688L127 708Q152 707 197 706T292 705Q336 705 376 706T447 708L441 688Q407 687 388 681T359 657T338 602L250 271Q234 209 228 163T230 85T259 37T316 21Q391 21 441 54T523 147T574 280L643 544ZM313
832Q313 872 339 894T399 917Q432 917 448 898T464 850Q464 823 452 804T420 776T377 766Q345 766 329 784T313 832ZM553 832Q553 872 579 894T639 917Q671 917 687 898T704 850Q704 823 692 804T659 776T617 766Q584 766 569 784T553 832Z" />
<glyph unicode="&#xdd;" horiz-adv-x="734" d="M392 106Q383 70 387 52T410 28T463 20L458 0Q439 1 411 1T349 2T286 3Q238 3 195 3T125 0L130 20Q164 22 183 28T213 52T233 106L302 380L367 317L436 336L470 416L392 106ZM714 703Q698 703 684 698T654 680Q626
660 586 608T505 471T429 270L293 265Q289 312 282 364T265 466T242 558T211 624T172 648Q154 648 143 635T126 601L105 538Q105 538 94 538T83 538L108 615Q128 674 164 698T249 722Q317 722 354 680T409 558T440 365Q474 461 516 535T604 660Q627 685 657 703T722
722Q768 722 792 696T815 634Q814 597 789 572T724 546Q691 546 673 563T655 607Q656 641 677 665T731 699Q728 701 724 702T714 703ZM467 784Q517 823 549 854T605 907T657 945Q671 953 689 955T723 953T748 929Q760 906 747 886T708 852Q683 838 651 829T575
807T474 772L467 784Z" />
<glyph unicode="&#xde;" horiz-adv-x="661" d="M278 561Q314 561 350 562T424 563Q544 563 601 522T659 412Q659 334 607 273T462 176T246 140H206Q206 140 208 150T211 160H256Q318 160 363 182T436 242T478 328T492 428Q492 482 466 513T383 544Q357 544 342
543T313 541T279 538L278 561ZM224 106Q215 70 216 52T233 28T283 20L279 0Q250 2 206 2T116 3Q68 3 27 3T-41 0L-36 20Q-3 22 15 28T45 52T65 106L197 602Q207 639 205 656T188 680T138 688L143 708Q167 707 209 706T300 705Q345 705 388 706T464 708L459 688Q425
687 406 681T377 657T356 602L224 106Z" />
<glyph unicode="&#xdf;" horiz-adv-x="608" d="M398 767Q361 767 338 730T293 617L85 -174Q45 -175 9 -178T-59 -188L125 512Q149 603 184 663T275 752T417 782Q485 782 526 768T585 731T603 683Q603 655 588 633T548 589T490 546T423 494Q402 477 391 465T377
442T374 421Q374 396 388 374T424 332T466 291Q490 267 509 246T539 201T550 148Q550 95 521 59T443 5T340 -14Q298 -14 267 -1T219 36T201 93Q201 123 217 145T259 167Q279 167 292 155T311 123T318 82Q318 63 312 44T294 10Q299 9 304 8T319 6Q351 6 372 33T394
103Q394 136 385 165T359 229Q346 258 330 293T313 365Q313 397 325 417T360 458T407 503Q440 539 454 583T468 671Q468 723 448 745T398 767Z" />
<glyph unicode="&#xe0;" horiz-adv-x="558" d="M175 40Q191 40 210 57T249 106T288 186T323 295L301 186Q276 112 246 68T182 5T111 -14Q55 -14 27 19T-1 109Q-1 163 17 222T67 336T138 435T222 505T310 531Q343 531 361 505T372 424L361 418Q366 454 358 474T329
494Q309 494 285 471T236 408T192 318T159 212T147 102Q147 68 154 54T175 40ZM387 516Q430 517 465 520T532 531L401 85Q398 72 397 61T399 42T415 35Q428 35 444 50T477 114L495 162H514L489 89Q475 48 453 26T406 -5T357 -14Q305 -14 283 17Q268 39 269 71T283
146L387 516ZM374 599Q336 647 307 675T258 724T224 766Q210 789 214 811T237 844Q258 857 281 849T318 819Q332 797 338 770T354 703T386 606L374 599Z" />
<glyph unicode="&#xe1;" horiz-adv-x="558" d="M175 40Q191 40 210 57T249 106T288 186T323 295L301 186Q276 112 246 68T182 5T111 -14Q55 -14 27 19T-1 109Q-1 163 17 222T67 336T138 435T222 505T310 531Q343 531 361 505T372 424L361 418Q366 454 358 474T329
494Q309 494 285 471T236 408T192 318T159 212T147 102Q147 68 154 54T175 40ZM387 516Q430 517 465 520T532 531L401 85Q398 72 397 61T399 42T415 35Q428 35 444 50T477 114L495 162H514L489 89Q475 48 453 26T406 -5T357 -14Q305 -14 283 17Q268 39 269 71T283
146L387 516ZM314 609Q351 661 373 699T412 766T451 816Q470 836 496 841T542 827Q560 810 555 788T527 742Q507 722 479 704T412 661T324 599L314 609Z" />
<glyph unicode="&#xe2;" horiz-adv-x="558" d="M175 40Q191 40 210 57T249 106T288 186T323 295L301 186Q276 112 246 68T182 5T111 -14Q55 -14 27 19T-1 109Q-1 163 17 222T67 336T138 435T222 505T310 531Q343 531 361 505T372 424L361 418Q366 454 358 474T329
494Q309 494 285 471T236 408T192 318T159 212T147 102Q147 68 154 54T175 40ZM387 516Q430 517 465 520T532 531L401 85Q398 72 397 61T399 42T415 35Q428 35 444 50T477 114L495 162H514L489 89Q475 48 453 26T406 -5T357 -14Q305 -14 283 17Q268 39 269 71T283
146L387 516ZM360 684Q324 664 277 645T179 610L174 624Q248 657 311 710T413 820H431Q445 752 471 705T550 624L546 610Q481 624 439 642T360 684Z" />
<glyph unicode="&#xe3;" horiz-adv-x="558" d="M175 40Q191 40 210 57T249 106T288 186T323 295L301 186Q276 112 246 68T182 5T111 -14Q55 -14 27 19T-1 109Q-1 163 17 222T67 336T138 435T222 505T310 531Q343 531 361 505T372 424L361 418Q366 454 358 474T329
494Q309 494 285 471T236 408T192 318T159 212T147 102Q147 68 154 54T175 40ZM387 516Q430 517 465 520T532 531L401 85Q398 72 397 61T399 42T415 35Q428 35 444 50T477 114L495 162H514L489 89Q475 48 453 26T406 -5T357 -14Q305 -14 283 17Q268 39 269 71T283
146L387 516ZM347 786Q377 786 396 775T431 750T461 724T499 713Q518 713 535 726T570 771L588 766Q562 692 519 660T434 627Q404 627 385 638T350 663T320 689T282 700Q263 700 246 687T211 642L193 647Q220 722 262 754T347 786Z" />
<glyph unicode="&#xe4;" horiz-adv-x="558" d="M175 40Q191 40 210 57T249 106T288 186T323 295L301 186Q276 112 246 68T182 5T111 -14Q55 -14 27 19T-1 109Q-1 163 17 222T67 336T138 435T222 505T310 531Q343 531 361 505T372 424L361 418Q366 454 358 474T329
494Q309 494 285 471T236 408T192 318T159 212T147 102Q147 68 154 54T175 40ZM387 516Q430 517 465 520T532 531L401 85Q398 72 397 61T399 42T415 35Q428 35 444 50T477 114L495 162H514L489 89Q475 48 453 26T406 -5T357 -14Q305 -14 283 17Q268 39 269 71T283
146L387 516ZM205 676Q205 716 231 738T291 760Q323 760 339 742T356 694Q356 667 344 648T311 620T269 610Q236 610 221 628T205 676ZM432 676Q432 716 458 738T518 760Q551 760 567 742T583 694Q583 667 571 648T539 620T497 610Q464 610 448 628T432 676Z" />
<glyph unicode="&#xe5;" horiz-adv-x="558" d="M175 40Q191 40 210 57T249 106T288 186T323 295L301 186Q276 112 246 68T182 5T111 -14Q55 -14 27 19T-1 109Q-1 163 17 222T67 336T138 435T222 505T310 531Q343 531 361 505T372 424L361 418Q366 454 358 474T329
494Q309 494 285 471T236 408T192 318T159 212T147 102Q147 68 154 54T175 40ZM387 516Q430 517 465 520T532 531L401 85Q398 72 397 61T399 42T415 35Q428 35 444 50T477 114L495 162H514L489 89Q475 48 453 26T406 -5T357 -14Q305 -14 283 17Q268 39 269 71T283
146L387 516ZM411 797Q453 797 481 774T509 712Q509 682 492 657T447 617T385 602Q345 602 318 625T290 688Q290 719 306 743T350 782T411 797ZM389 623Q413 623 435 634T470 666T483 711Q483 744 459 760T408 776Q372 776 345 750T317 688Q317 656 340 640T389
623Z" />
<glyph unicode="&#xe6;" horiz-adv-x="735" d="M396 217Q436 233 473 250T536 289Q577 325 600 373T623 479Q623 512 599 512Q578 512 554 490T505 430T462 344T430 244T418 143Q418 87 439 67T495 46Q522 46 561 64T639 128L657 120Q636 87 602 56T523 6T425
-14Q380 -14 345 2T289 49T268 127Q268 180 285 236T333 344T409 439T506 506T621 531Q669 531 701 511T733 448Q733 409 712 376T654 316T574 267T483 229T395 204L396 217ZM189 40Q205 40 221 47T256 74T291 124L297 110Q264 49 215 18T108 -14Q50 -14 22 18T-6
105Q-6 159 17 216T79 327T169 423T276 490T389 515Q404 515 420 511T450 494T470 457L457 448Q451 473 435 481T406 489Q374 489 338 468T268 411T205 325T159 220T142 104Q142 72 155 56T189 40Z" />
<glyph unicode="&#xe7;" horiz-adv-x="463" d="M358 511Q321 511 285 480T221 395T175 276T158 140Q158 87 179 64T234 40Q266 40 299 59T366 128L386 120Q366 87 335 56T262 6T168 -14Q98 -14 53 23T8 140Q8 189 23 243T68 348T139 441T234 506T349 531Q404 531
437 504T471 435Q471 408 458 383T423 341T372 324Q348 324 332 339T315 382Q315 423 342 452T406 491Q398 501 387 506T358 511ZM181 0L137 -69Q149 -65 163 -62T191 -59Q216 -59 233 -69T251 -101Q251 -132 226 -151T163 -179T87 -188Q56 -188 33 -182T-2 -168L4
-153Q12 -155 27 -159T65 -164Q76 -164 94 -161T128 -147T143 -118Q143 -95 115 -95Q110 -95 101 -96T84 -102L153 0H181Z" />
<glyph unicode="&#xe8;" horiz-adv-x="469" d="M131 217Q172 233 209 253T272 297Q311 332 334 378T358 479Q358 499 354 505T342 512Q320 512 295 490T244 430T199 344T166 244T153 143Q153 87 174 67T230 46Q257 46 297 64T376 128L392 120Q371 87 337 56T258
6T160 -14Q115 -14 80 2T24 49T3 127Q3 180 20 236T70 344T147 439T247 506T364 531Q408 531 438 512T468 452Q468 413 447 379T389 317T309 267T218 229T130 204L131 217ZM351 599Q313 647 284 675T235 724T201 766Q187 789 191 811T214 844Q235 857 258 849T295
819Q309 797 315 770T331 703T363 606L351 599Z" />
<glyph unicode="&#xe9;" horiz-adv-x="469" d="M131 217Q172 233 209 253T272 297Q311 332 334 378T358 479Q358 499 354 505T342 512Q320 512 295 490T244 430T199 344T166 244T153 143Q153 87 174 67T230 46Q257 46 297 64T376 128L392 120Q371 87 337 56T258
6T160 -14Q115 -14 80 2T24 49T3 127Q3 180 20 236T70 344T147 439T247 506T364 531Q408 531 438 512T468 452Q468 413 447 379T389 317T309 267T218 229T130 204L131 217ZM291 609Q328 661 350 699T389 766T428 816Q447 836 473 841T519 827Q537 810 532 788T504
742Q484 722 456 704T389 661T301 599L291 609Z" />
<glyph unicode="&#xea;" horiz-adv-x="469" d="M131 217Q172 233 209 253T272 297Q311 332 334 378T358 479Q358 499 354 505T342 512Q320 512 295 490T244 430T199 344T166 244T153 143Q153 87 174 67T230 46Q257 46 297 64T376 128L392 120Q371 87 337 56T258
6T160 -14Q115 -14 80 2T24 49T3 127Q3 180 20 236T70 344T147 439T247 506T364 531Q408 531 438 512T468 452Q468 413 447 379T389 317T309 267T218 229T130 204L131 217ZM338 684Q302 664 255 645T157 610L152 624Q226 657 289 710T391 820H409Q423 752 449 705T528
624L524 610Q459 624 417 642T338 684Z" />
<glyph unicode="&#xeb;" horiz-adv-x="469" d="M131 217Q172 233 209 253T272 297Q311 332 334 378T358 479Q358 499 354 505T342 512Q320 512 295 490T244 430T199 344T166 244T153 143Q153 87 174 67T230 46Q257 46 297 64T376 128L392 120Q371 87 337 56T258
6T160 -14Q115 -14 80 2T24 49T3 127Q3 180 20 236T70 344T147 439T247 506T364 531Q408 531 438 512T468 452Q468 413 447 379T389 317T309 267T218 229T130 204L131 217ZM183 676Q183 716 209 738T269 760Q301 760 317 742T334 694Q334 667 322 648T289 620T247
610Q214 610 199 628T183 676ZM410 676Q410 716 436 738T496 760Q529 760 545 742T561 694Q561 667 549 648T517 620T475 610Q442 610 426 628T410 676Z" />
<glyph unicode="&#xec;" horiz-adv-x="322" d="M139 432Q156 482 128 482Q110 482 95 464T63 403L44 352H25L52 428Q66 468 87 490T136 521T191 531Q227 531 246 518T273 485T279 440T269 391L163 85Q155 58 159 47T177 35Q190 35 206 50T240 114L258 162H277L252
89Q237 48 216 26T168 -5T117 -14Q73 -14 51 5T26 60T41 145L139 432ZM482 599Q444 647 415 675T366 724T332 766Q318 789 322 811T345 844Q366 857 389 849T426 819Q440 797 446 770T462 703T494 606L482 599Z" />
<glyph unicode="&#xed;" horiz-adv-x="322" d="M139 432Q156 482 128 482Q110 482 95 464T63 403L44 352H25L52 428Q66 468 87 490T136 521T191 531Q227 531 246 518T273 485T279 440T269 391L163 85Q155 58 159 47T177 35Q190 35 206 50T240 114L258 162H277L252
89Q237 48 216 26T168 -5T117 -14Q73 -14 51 5T26 60T41 145L139 432ZM166 609Q203 661 225 699T264 766T303 816Q322 836 348 841T394 827Q412 810 407 788T379 742Q359 722 331 704T264 661T176 599L166 609Z" />
<glyph unicode="&#xee;" horiz-adv-x="322" d="M139 432Q156 482 128 482Q110 482 95 464T63 403L44 352H25L52 428Q66 468 87 490T136 521T191 531Q227 531 246 518T273 485T279 440T269 391L163 85Q155 58 159 47T177 35Q190 35 206 50T240 114L258 162H277L252
89Q237 48 216 26T168 -5T117 -14Q73 -14 51 5T26 60T41 145L139 432ZM468 684Q432 664 385 645T287 610L282 624Q356 657 419 710T521 820H539Q553 752 579 705T658 624L654 610Q589 624 547 642T468 684Z" />
<glyph unicode="&#xef;" horiz-adv-x="322" d="M139 432Q156 482 128 482Q110 482 95 464T63 403L44 352H25L52 428Q66 468 87 490T136 521T191 531Q227 531 246 518T273 485T279 440T269 391L163 85Q155 58 159 47T177 35Q190 35 206 50T240 114L258 162H277L252
89Q237 48 216 26T168 -5T117 -14Q73 -14 51 5T26 60T41 145L139 432ZM313 676Q313 716 339 738T399 760Q431 760 447 742T464 694Q464 667 452 648T419 620T377 610Q344 610 329 628T313 676ZM540 676Q540 716 566 738T626 760Q659 760 675 742T691 694Q691 667
679 648T647 620T605 610Q572 610 556 628T540 676Z" />
<glyph unicode="&#xf0;" horiz-adv-x="528" d="M334 684L506 760L512 742L348 670L334 684ZM348 669L129 572L123 590L334 683L348 669ZM352 421Q352 510 332 575T273 686T180 765L192 782Q282 752 351 697T459 564T498 390Q498 335 485 278T445 169T380 76T289
10T174 -14Q128 -14 91 2T33 55T12 151Q12 197 25 248T62 348T123 438T205 503T307 528Q336 528 352 519T384 494L377 482Q368 495 351 501T316 508Q287 508 263 481T219 407T186 305T165 189T158 77Q158 35 166 21T192 6Q218 6 242 32T286 101T321 199T344 310T352
421Z" />
<glyph unicode="&#xf1;" horiz-adv-x="603" d="M157 0H16L137 432Q142 446 143 457T141 475T126 482Q108 482 94 466T62 403L43 352H24L51 428Q71 485 103 508T180 531Q216 531 235 519T260 485T266 440T258 391L157 0ZM189 169Q228 278 261 348T327 459T394 515T467
531Q515 531 536 510T557 455T544 380L446 85Q436 57 441 46T459 35Q472 35 488 49T522 114L540 162H559L534 89Q520 47 498 25T450 -5T400 -14Q371 -14 351 -6T320 19Q307 39 307 69T323 145L413 415Q419 431 421 446T420 471T403 481Q384 481 360 457T310 389T257
287T207 164T164 29L189 169ZM344 786Q374 786 393 775T428 750T458 724T496 713Q515 713 532 726T567 771L585 766Q559 692 516 660T431 627Q401 627 382 638T347 663T317 689T279 700Q260 700 243 687T208 642L190 647Q217 722 259 754T344 786Z" />
<glyph unicode="&#xf2;" horiz-adv-x="529" d="M331 511Q308 511 283 484T233 410T189 307T158 190T146 74Q146 38 154 22T180 6Q203 6 228 32T277 104T320 205T352 323T364 441Q364 483 356 497T331 511ZM12 151Q12 197 24 249T63 351T127 441T218 506T336 531Q413
531 455 489T498 366Q498 320 486 268T447 166T383 76T292 11T174 -14Q97 -14 55 28T12 151ZM363 599Q325 647 296 675T247 724T213 766Q199 789 203 811T226 844Q247 857 270 849T307 819Q321 797 327 770T343 703T375 606L363 599Z" />
<glyph unicode="&#xf3;" horiz-adv-x="529" d="M331 511Q308 511 283 484T233 410T189 307T158 190T146 74Q146 38 154 22T180 6Q203 6 228 32T277 104T320 205T352 323T364 441Q364 483 356 497T331 511ZM12 151Q12 197 24 249T63 351T127 441T218 506T336 531Q413
531 455 489T498 366Q498 320 486 268T447 166T383 76T292 11T174 -14Q97 -14 55 28T12 151ZM304 609Q341 661 363 699T402 766T441 816Q460 836 486 841T532 827Q550 810 545 788T517 742Q497 722 469 704T402 661T314 599L304 609Z" />
<glyph unicode="&#xf4;" horiz-adv-x="529" d="M331 511Q308 511 283 484T233 410T189 307T158 190T146 74Q146 38 154 22T180 6Q203 6 228 32T277 104T320 205T352 323T364 441Q364 483 356 497T331 511ZM12 151Q12 197 24 249T63 351T127 441T218 506T336 531Q413
531 455 489T498 366Q498 320 486 268T447 166T383 76T292 11T174 -14Q97 -14 55 28T12 151ZM350 684Q314 664 267 645T169 610L164 624Q238 657 301 710T403 820H421Q435 752 461 705T540 624L536 610Q471 624 429 642T350 684Z" />
<glyph unicode="&#xf5;" horiz-adv-x="529" d="M331 511Q308 511 283 484T233 410T189 307T158 190T146 74Q146 38 154 22T180 6Q203 6 228 32T277 104T320 205T352 323T364 441Q364 483 356 497T331 511ZM12 151Q12 197 24 249T63 351T127 441T218 506T336 531Q413
531 455 489T498 366Q498 320 486 268T447 166T383 76T292 11T174 -14Q97 -14 55 28T12 151ZM337 786Q367 786 386 775T421 750T451 724T489 713Q508 713 525 726T560 771L578 766Q552 692 509 660T424 627Q394 627 375 638T340 663T310 689T272 700Q253 700 236
687T201 642L183 647Q210 722 252 754T337 786Z" />
<glyph unicode="&#xf6;" horiz-adv-x="529" d="M331 511Q308 511 283 484T233 410T189 307T158 190T146 74Q146 38 154 22T180 6Q203 6 228 32T277 104T320 205T352 323T364 441Q364 483 356 497T331 511ZM12 151Q12 197 24 249T63 351T127 441T218 506T336 531Q413
531 455 489T498 366Q498 320 486 268T447 166T383 76T292 11T174 -14Q97 -14 55 28T12 151ZM195 676Q195 716 221 738T281 760Q313 760 329 742T346 694Q346 667 334 648T301 620T259 610Q226 610 211 628T195 676ZM422 676Q422 716 448 738T508 760Q541 760 557
742T573 694Q573 667 561 648T529 620T487 610Q454 610 438 628T422 676Z" />
<glyph unicode="&#xf7;" horiz-adv-x="636" d="M336 499Q343 522 364 538T407 554Q430 554 442 538T447 499Q440 476 419 460T375 444Q353 444 341 460T336 499ZM253 211Q260 234 281 250T324 266Q347 266 359 250T364 211Q357 188 336 172T292 155Q270 155 258
171T253 211ZM78 340L87 370H588L579 340H78Z" />
<glyph unicode="&#xf8;" horiz-adv-x="529" d="M331 511Q308 511 283 484T233 410T189 307T158 190T146 74Q146 38 154 22T180 6Q203 6 228 32T277 104T320 205T352 323T364 441Q364 483 356 497T331 511ZM12 151Q12 197 24 249T63 351T127 441T218 506T336 531Q413
531 455 489T498 366Q498 320 486 268T447 166T383 76T292 11T174 -14Q97 -14 55 28T12 151ZM384 466L478 600L493 591L394 449L384 466ZM387 454L135 40L124 58L377 471L387 454ZM123 40L35 -82L20 -72L113 58L123 40Z" />
<glyph unicode="&#xf9;" horiz-adv-x="597" d="M393 351Q356 241 322 170T256 59T189 3T117 -14Q75 -14 53 4T28 56T40 137L137 432Q147 461 142 471T124 482Q111 482 95 468T61 403L43 355H24L49 428Q64 470 86 492T134 522T183 531Q228 531 250 512T274 457T260
372L170 102Q148 36 180 36Q199 36 223 61T273 130T326 233T376 360T418 499L393 351ZM442 85Q435 60 436 48T453 35Q471 35 486 52T517 114L536 165H555L528 89Q515 50 494 28T447 -4T394 -14Q367 -14 349 -5T320 20Q310 39 311 65T321 126L422 517Q463 518 499
521T567 531L442 85ZM355 599Q317 647 288 675T239 724T205 766Q191 789 195 811T218 844Q239 857 262 849T299 819Q313 797 319 770T335 703T367 606L355 599Z" />
<glyph unicode="&#xfa;" horiz-adv-x="597" d="M393 351Q356 241 322 170T256 59T189 3T117 -14Q75 -14 53 4T28 56T40 137L137 432Q147 461 142 471T124 482Q111 482 95 468T61 403L43 355H24L49 428Q64 470 86 492T134 522T183 531Q228 531 250 512T274 457T260
372L170 102Q148 36 180 36Q199 36 223 61T273 130T326 233T376 360T418 499L393 351ZM442 85Q435 60 436 48T453 35Q471 35 486 52T517 114L536 165H555L528 89Q515 50 494 28T447 -4T394 -14Q367 -14 349 -5T320 20Q310 39 311 65T321 126L422 517Q463 518 499
521T567 531L442 85ZM295 609Q332 661 354 699T393 766T432 816Q451 836 477 841T523 827Q541 810 536 788T508 742Q488 722 460 704T393 661T305 599L295 609Z" />
<glyph unicode="&#xfb;" horiz-adv-x="597" d="M393 351Q356 241 322 170T256 59T189 3T117 -14Q75 -14 53 4T28 56T40 137L137 432Q147 461 142 471T124 482Q111 482 95 468T61 403L43 355H24L49 428Q64 470 86 492T134 522T183 531Q228 531 250 512T274 457T260
372L170 102Q148 36 180 36Q199 36 223 61T273 130T326 233T376 360T418 499L393 351ZM442 85Q435 60 436 48T453 35Q471 35 486 52T517 114L536 165H555L528 89Q515 50 494 28T447 -4T394 -14Q367 -14 349 -5T320 20Q310 39 311 65T321 126L422 517Q463 518 499
521T567 531L442 85ZM342 684Q306 664 259 645T161 610L156 624Q230 657 293 710T395 820H413Q427 752 453 705T532 624L528 610Q463 624 421 642T342 684Z" />
<glyph unicode="&#xfc;" horiz-adv-x="597" d="M393 351Q356 241 322 170T256 59T189 3T117 -14Q75 -14 53 4T28 56T40 137L137 432Q147 461 142 471T124 482Q111 482 95 468T61 403L43 355H24L49 428Q64 470 86 492T134 522T183 531Q228 531 250 512T274 457T260
372L170 102Q148 36 180 36Q199 36 223 61T273 130T326 233T376 360T418 499L393 351ZM442 85Q435 60 436 48T453 35Q471 35 486 52T517 114L536 165H555L528 89Q515 50 494 28T447 -4T394 -14Q367 -14 349 -5T320 20Q310 39 311 65T321 126L422 517Q463 518 499
521T567 531L442 85ZM187 676Q187 716 213 738T273 760Q305 760 321 742T338 694Q338 667 326 648T293 620T251 610Q218 610 203 628T187 676ZM414 676Q414 716 440 738T500 760Q533 760 549 742T565 694Q565 667 553 648T521 620T479 610Q446 610 430 628T414
676Z" />
<glyph unicode="&#xfd;" horiz-adv-x="482" d="M307 61L200 -60L120 431Q115 458 110 468T94 478Q84 478 74 465T47 404L29 355H10L35 428Q56 489 88 510T158 531Q199 531 224 509T258 423L307 61ZM68 -139Q115 -116 165 -77T267 30Q323 99 365 179T427 334Q403
348 382 367T347 411T335 463Q335 495 353 513T402 531Q437 531 452 507T468 440Q468 393 452 337T408 222T345 106T271 4Q240 -35 202 -69T121 -130T32 -173Q10 -181 -8 -184T-39 -188Q-71 -188 -89 -174T-108 -132Q-108 -106 -89 -88T-39 -70Q-7 -70 19 -88T68
-139ZM259 609Q296 661 318 699T357 766T396 816Q415 836 441 841T487 827Q505 810 500 788T472 742Q452 722 424 704T357 661T269 599L259 609Z" />
<glyph unicode="&#xfe;" horiz-adv-x="584" d="M375 478Q356 478 334 457T291 400T251 317T219 219L240 321Q268 397 297 443T360 510T430 531Q491 531 522 492T554 377Q554 331 541 278T504 173T443 79T359 12T255 -14Q222 -14 196 -2T157 30L165 46Q175 29 187
22T215 15Q245 15 273 39T326 103T368 192T397 294T408 395Q408 444 399 461T375 478ZM236 767Q277 770 314 777T385 795L138 -75Q123 -127 144 -143T215 -160L209 -181Q185 -180 142 -179T51 -177Q11 -177 -29 -178T-90 -181L-84 -160Q-48 -160 -32 -147T-6 -98L236
767ZM11 350Q48 389 80 427T142 519T204 652L207 636Q186 567 158 515T95 420T22 337L11 350Z" />
<glyph unicode="&#xff;" horiz-adv-x="482" d="M307 61L200 -60L120 431Q115 458 110 468T94 478Q84 478 74 465T47 404L29 355H10L35 428Q56 489 88 510T158 531Q199 531 224 509T258 423L307 61ZM68 -139Q115 -116 165 -77T267 30Q323 99 365 179T427 334Q403
348 382 367T347 411T335 463Q335 495 353 513T402 531Q437 531 452 507T468 440Q468 393 452 337T408 222T345 106T271 4Q240 -35 202 -69T121 -130T32 -173Q10 -181 -8 -184T-39 -188Q-71 -188 -89 -174T-108 -132Q-108 -106 -89 -88T-39 -70Q-7 -70 19 -88T68
-139ZM150 676Q150 716 176 738T236 760Q268 760 284 742T301 694Q301 667 289 648T256 620T214 610Q181 610 166 628T150 676ZM377 676Q377 716 403 738T463 760Q496 760 512 742T528 694Q528 667 516 648T484 620T442 610Q409 610 393 628T377 676Z" />
<glyph unicode="&#x2013;" horiz-adv-x="690" d="M77 318H627L597 219H48L77 318Z" />
<glyph unicode="&#x2014;" horiz-adv-x="976" d="M76 318H911L881 219H47L76 318Z" />
<glyph unicode="&#x2018;" horiz-adv-x="274" d="M121 526Q121 590 160 644T270 730L275 714Q232 693 201 658T167 579Q180 593 196 600T229 608Q259 608 275 594T291 554Q291 527 277 504T240 468T187 454Q155 454 138 472T121 526Z" />
<glyph unicode="&#x2019;" horiz-adv-x="269" d="M307 664Q307 601 268 546T158 460L153 476Q196 498 227 533T261 611Q248 598 232 590T199 582Q169 582 153 596T137 636Q137 663 151 686T188 722T241 736Q273 736 290 718T307 664Z" />
<glyph unicode="&#x201a;" horiz-adv-x="287" d="M167 68Q167 5 128 -50T18 -136L13 -120Q56 -98 87 -63T121 15Q108 2 92 -6T59 -14Q29 -14 13 0T-3 40Q-3 67 11 90T48 126T101 140Q133 140 150 122T167 68Z" />
<glyph unicode="&#x201c;" horiz-adv-x="469" d="M318 527Q318 591 358 645T467 731L472 715Q429 694 398 659T364 580Q377 594 393 601T426 609Q455 609 469 595T484 555Q484 528 471 505T435 469T384 455Q352 455 335 472T318 527ZM122 527Q122 591 161 645T270
731L275 715Q233 694 202 659T167 580Q180 594 196 601T230 609Q258 609 273 595T288 555Q288 528 275 505T238 469T188 455Q156 455 139 472T122 527Z" />
<glyph unicode="&#x201d;" horiz-adv-x="463" d="M306 667Q306 604 266 549T157 463L152 479Q196 501 227 536T261 614Q248 601 232 593T198 585Q171 585 156 599T140 639Q140 666 153 689T190 725T240 739Q272 739 289 722T306 667ZM503 667Q503 604 463 549T354
463L349 479Q392 501 423 536T457 614Q444 601 428 593T395 585Q367 585 352 599T337 639Q337 666 350 689T386 725T437 739Q469 739 486 722T503 667Z" />
<glyph unicode="&#x201e;" horiz-adv-x="480" d="M163 68Q163 5 123 -50T14 -136L9 -120Q53 -98 84 -63T118 15Q105 2 89 -6T55 -14Q28 -14 13 0T-3 40Q-3 67 10 90T47 126T97 140Q129 140 146 123T163 68ZM360 68Q360 5 320 -50T211 -136L206 -120Q249 -98 280
-63T314 15Q301 2 285 -6T252 -14Q224 -14 209 0T194 40Q194 67 207 90T243 126T294 140Q326 140 343 123T360 68Z" />
<glyph unicode="&#x2022;" horiz-adv-x="431" d="M61 249Q66 289 88 321T144 372T218 392Q258 392 288 373T335 321T346 249Q342 210 320 178T263 126T189 107Q150 107 120 126T73 177T61 249Z" />
<glyph unicode="&#x2039;" horiz-adv-x="384" d="M368 531Q353 499 330 460T278 380T221 307T169 253Q185 234 200 202T228 131T249 55T261 -14H243Q196 60 142 126T19 247L22 259Q114 317 193 385T350 531H368Z" />
<glyph unicode="&#x203a;" horiz-adv-x="383" d="M122 531Q169 457 223 391T347 269L344 257Q252 200 172 132T15 -14H-3Q12 18 35 57T87 136T143 209T196 263Q180 283 165 315T137 385T116 462T104 531H122Z" />
</font>
</defs>
</svg>
