<?xml version="1.0" standalone="no"?>
<!DOCTYPE svg PUBLIC "-//W3C//DTD SVG 1.1//EN" "http://www.w3.org/Graphics/SVG/1.1/DTD/svg11.dtd">
<svg xmlns="http://www.w3.org/2000/svg">
<defs >
<font id="PlayfairDisplay" horiz-adv-x="582" ><font-face
    font-family="Playfair Display"
    units-per-em="1000"
    panose-1="0 0 0 0 0 0 0 0 0 0"
    ascent="1082"
    descent="-251"
    alphabetic="0" />
<glyph unicode=" " horiz-adv-x="253" />
<glyph unicode="!" horiz-adv-x="263" d="M94 199Q122 305 140 408T172 598T201 743Q204 752 208 759T218 772T231 779T246 782Q277 782 286 763T288 720Q277 680 256 624T210 498T159 353T112 196L94 199ZM7 37Q7 67 30 90T81 114Q104 114 118 99T132 62Q132
42 122 25T94 -3T57 -14Q35 -14 21 0T7 37Z" />
<glyph unicode="&quot;" horiz-adv-x="296" d="M233 697Q233 675 222 652T192 597T154 518H140Q147 567 149 596T153 646T160 688Q165 711 177 720T202 730Q219 730 226 721T233 697ZM342 697Q342 675 331 652T301 597T263 518H249Q256 567 258 596T262 646T269
688Q274 711 286 720T311 730Q328 730 335 721T342 697Z" />
<glyph unicode="#" horiz-adv-x="639" d="M633 454L625 434H124L132 454H633ZM547 267L537 247H37L46 267H547ZM327 101H303L535 602H559L327 101ZM140 101H116L348 602H372L140 101Z" />
<glyph unicode="$" horiz-adv-x="551" d="M379 840L109 -132H87L357 840H379ZM483 840L213 -132H191L461 840H483ZM356 703Q296 703 256 672T216 576Q216 538 234 506T281 444T342 385T403 324T450 259T469 182Q469 141 454 109T414 54T355 15T287 -7T216 -14Q170
-14 139 -5T88 19T53 44Q33 60 17 87T1 149Q1 180 17 204T61 228Q88 228 100 208T112 163Q112 141 106 122T91 87T73 57Q96 35 133 21T219 6Q263 6 296 19T347 60T366 131Q366 173 350 206T307 267T251 323T195 379T152 445T135 527Q135 575 154 611T204 672T275
709T355 722Q401 722 432 713T483 690T518 664Q535 651 552 623T570 559Q570 528 555 504T510 480Q483 480 471 500T459 545Q459 567 465 586T480 621T498 651Q476 673 440 688T356 703Z" />
<glyph unicode="%" horiz-adv-x="766" d="M311 743Q279 743 254 718T213 656T188 580T179 515Q179 482 192 465T231 448Q263 448 288 473T329 535T354 611T363 677Q363 710 350 726T311 743ZM112 534Q112 573 127 613T171 686T236 740T319 761Q372 761 401 734T430
657Q430 618 415 578T372 505T307 451T224 430Q172 430 142 457T112 534ZM575 299Q543 299 518 274T477 212T452 136T443 71Q443 38 456 21T495 4Q527 4 552 29T593 91T618 167T627 233Q627 266 614 282T575 299ZM376 90Q376 129 391 169T435 242T500 296T583 317Q636
317 665 290T694 213Q694 174 679 134T636 61T571 7T488 -14Q436 -14 406 13T376 90ZM824 824L839 811L6 -55L-9 -42L824 824Z" />
<glyph unicode="&amp;" horiz-adv-x="817" d="M540 214Q531 199 516 184T478 159T421 148Q394 148 370 157T329 187T313 246Q313 308 358 345T479 411Q497 418 529 429T598 453T673 482T738 510Q768 524 791 540T827 576T841 621Q841 658 813 682T742 707Q716
707 710 698Q721 692 726 682T731 660Q731 645 722 632T697 611T665 603Q646 603 633 614T620 645Q620 667 635 683T670 708Q687 716 705 719T743 722Q780 722 808 710T852 673T868 608Q868 575 856 547T816 494T746 447Q719 434 680 419T598 387T515 357T445 330Q425
322 400 310T358 278T340 231Q340 199 365 182T425 164Q456 164 477 176T510 202T527 223L540 214ZM421 558Q448 558 465 572T483 613Q483 647 455 666T386 686Q345 686 313 667T263 614T245 537Q245 517 250 496T267 454Q285 457 303 458T330 460Q366 460 366
439Q366 428 356 423T335 418Q316 418 297 426T266 440Q221 427 187 398T133 329T113 243Q113 183 145 143T235 81T364 60Q422 60 472 73T559 110T618 169T639 246Q639 283 621 321T560 385L574 392Q615 362 637 323T659 233Q659 184 637 140T572 61T468 6T326
-14Q238 -14 174 11T74 84T38 197Q38 257 66 307T143 394T253 448Q219 467 201 497T183 560Q183 606 214 637T290 685T381 702Q437 702 470 678T504 615Q504 577 477 559T419 540L421 558Z" />
<glyph unicode="&apos;" horiz-adv-x="187" d="M233 697Q233 675 222 652T192 597T154 518H140Q147 567 149 596T153 646T160 688Q165 711 177 720T202 730Q219 730 226 721T233 697Z" />
<glyph unicode="(" horiz-adv-x="361" d="M207 -182Q156 -124 118 -65T59 65T38 223Q38 307 70 388T162 546T300 688T471 806L481 793Q371 719 289 633T161 442T115 212Q115 140 126 73T162 -54T225 -169L207 -182Z" />
<glyph unicode=")" horiz-adv-x="361" d="M163 806Q214 749 252 689T311 559T332 401Q332 317 300 236T208 78T70 -64T-101 -182L-111 -169Q-1 -95 81 -9T209 182T255 412Q255 484 244 551T208 679T145 793L163 806Z" />
<glyph unicode="*" horiz-adv-x="495" d="M307 518Q332 574 350 610T372 675Q379 705 371 717T348 729Q335 729 321 717T299 675Q295 647 297 609T304 518H307ZM306 519Q272 559 252 586T209 628Q187 643 170 639T145 624Q135 612 136 596T160 564Q180 551 217
542T302 516L306 519ZM305 519Q246 503 208 494T140 471Q112 455 104 440T99 413Q104 401 119 397T165 407Q191 421 224 450T304 516L305 519ZM305 518Q278 462 260 426T237 361Q230 330 238 319T260 307Q274 307 289 319T311 361Q315 389 313 427T308 518H305ZM464
412Q474 424 473 440T449 472Q429 486 392 495T307 520L302 517Q337 477 357 450T400 408Q422 393 439 397T464 412ZM510 623Q506 635 491 639T444 629Q418 615 385 587T305 520L303 517Q363 534 401 542T469 565Q498 580 506 596T510 623Z" />
<glyph unicode="+" horiz-adv-x="585" d="M63 370H296L363 606H399L332 370H564L555 340H323L256 105H220L287 340H54L63 370Z" />
<glyph unicode="," horiz-adv-x="252" d="M129 55Q129 3 90 -48T-18 -134L-23 -120Q24 -91 52 -57T83 11Q71 1 58 -6T31 -14Q13 -14 3 -5T-7 21Q-7 43 6 64T41 99T85 114Q108 114 118 96T129 55Z" />
<glyph unicode="-" horiz-adv-x="504" d="M68 283H429L414 225H53L68 283Z" />
<glyph unicode="." horiz-adv-x="244" d="M-1 37Q-1 67 22 90T73 114Q96 114 110 99T124 62Q124 42 114 25T86 -3T49 -14Q27 -14 13 0T-1 37Z" />
<glyph unicode="/" horiz-adv-x="468" d="M-40 -14L508 722H541L-7 -14H-40Z" />
<glyph unicode="0" horiz-adv-x="565" d="M356 529Q433 529 473 482T513 352Q513 285 488 220T419 102T318 18T195 -14Q119 -14 75 31T31 164Q31 232 57 296T128 414T232 498T356 529ZM337 511Q296 511 258 482T189 402T141 288T123 155Q123 70 149 37T214 4Q258
4 295 35T361 119T405 236T421 367Q421 448 398 479T337 511Z" />
<glyph unicode="1" horiz-adv-x="342" d="M314 526L159 0H72L200 433Q172 417 137 403T50 372L53 393Q116 412 159 434T235 480T294 526H314Z" />
<glyph unicode="2" horiz-adv-x="503" d="M304 528Q365 528 402 503T439 429Q439 388 413 348T345 269T257 198T169 136T103 87Q131 87 169 80T247 66T315 59Q349 59 366 71T384 107Q384 144 340 164L353 177Q379 165 393 146T408 98Q408 72 396 48T356 9T283
-6Q252 -6 224 1T165 15T99 24Q62 26 36 20T-21 0L-16 21Q9 41 45 66T123 121T203 185T276 257T328 335T348 418Q348 458 329 482T271 506Q244 506 214 493T158 456T116 404T100 345Q100 321 113 309T158 297Q186 297 206 307T250 338L262 324Q234 298 205 287T151
276Q135 276 118 281T88 301T76 344Q76 377 94 409T143 469T216 512T304 528Z" />
<glyph unicode="3" horiz-adv-x="485" d="M303 531Q364 531 401 506T438 432Q438 398 419 369T368 316T301 276T231 250Q276 249 312 236T369 198T391 136Q391 81 361 36T279 -43T166 -101T40 -137T-80 -151L-75 -133Q-15 -129 50 -110T171 -57T263 27T298 143Q298
183 276 207T213 234Q197 227 183 222T155 217Q147 217 141 220T138 232Q141 246 160 249T205 250Q244 265 277 290T331 349T352 419Q352 461 330 485T270 509Q244 509 216 498T164 468T124 426T109 378Q109 354 122 342T167 330Q201 330 229 345L240 330Q219 319
199 314T160 309Q144 309 127 314T97 334T85 377Q85 414 114 449T193 507T303 531Z" />
<glyph unicode="4" horiz-adv-x="515" d="M391 529V503L-28 45L3 91H434L418 34H-51L-45 55L391 529ZM417 529L238 -141H151L300 418L391 529H417Z" />
<glyph unicode="5" horiz-adv-x="459" d="M427 538L439 531Q416 481 382 451T302 421Q283 421 264 431T226 450T191 456L79 227Q109 243 142 252T219 261Q299 261 335 229T372 147Q372 88 342 42T263 -40T153 -98T32 -134T-81 -148L-76 -130Q-19 -130 43 -112T158
-60T244 26T277 145Q277 183 253 207T172 231Q154 231 127 227T61 204L51 209L201 518Q228 520 247 514T288 500T344 493Q369 493 390 503T427 538Z" />
<glyph unicode="6" horiz-adv-x="527" d="M524 722L530 702Q473 688 416 653T307 565T215 445T151 300T127 137Q127 60 146 33T199 6Q241 6 274 36T331 113T367 212T379 308Q379 361 362 385T314 409Q285 409 253 383T196 287L180 293Q198 350 226 381T286 425T347
438Q403 438 438 400T473 288Q473 229 450 175T387 79T294 11T183 -14Q107 -14 72 31T36 165Q36 256 69 336T156 482T275 599T405 680T524 722Z" />
<glyph unicode="7" horiz-adv-x="487" d="M190 520Q233 520 267 509T336 485T409 470Q442 469 468 477T515 514H541Q509 471 470 427T390 334T311 231T241 115T190 -18Q186 -34 183 -48T178 -74T173 -97Q167 -117 151 -132T111 -148Q96 -148 89 -141T80 -121T82
-92Q92 -37 126 26T210 153T313 278T413 391T491 483Q491 483 499 486T507 490Q488 473 467 461T424 441T378 430T333 426Q294 426 266 433T214 448T159 455Q122 455 98 439T73 388Q73 346 107 318T212 273L206 258Q136 272 93 305T49 399Q49 428 63 455T109 501T190
520Z" />
<glyph unicode="8" horiz-adv-x="544" d="M396 722Q436 722 468 711T518 676T537 616Q537 577 517 544T466 482T398 430T327 390L323 404Q358 426 388 460T437 535T456 619Q456 704 378 704Q341 704 310 686T259 635T240 560Q240 517 262 483T316 418T381 355T436
283T458 193Q458 145 437 107T379 42T292 1T187 -14Q136 -14 96 -1T33 41T10 115Q10 161 32 200T92 273T173 331T259 374L263 360Q215 334 178 294T120 206T98 106Q98 61 119 33T196 4Q241 4 280 23T344 81T369 172Q369 221 348 258T295 326T232 387T179 454T157
538Q157 580 177 614T232 672T309 709T396 722Z" />
<glyph unicode="9" horiz-adv-x="513" d="M319 528Q395 528 430 483T466 349Q466 261 434 184T349 42T233 -70T105 -148T-12 -188L-18 -168Q37 -155 93 -121T199 -36T289 80T352 220T375 377Q375 454 356 481T303 508Q261 508 228 478T171 401T135 302T123 206Q123
153 140 129T188 105Q217 105 249 131T306 227L322 221Q304 165 276 133T217 89T155 76Q99 76 64 114T29 226Q29 285 52 339T115 435T208 503T319 528Z" />
<glyph unicode=":" horiz-adv-x="278" d="M116 451Q116 481 139 504T190 528Q213 528 227 513T241 476Q241 456 231 439T203 411T166 400Q144 400 130 414T116 451ZM16 37Q16 67 39 90T90 114Q113 114 127 99T141 62Q141 42 131 25T103 -3T66 -14Q44 -14 30 0T16 37Z" />
<glyph unicode=";" horiz-adv-x="287" d="M117 451Q117 481 140 504T191 528Q214 528 228 513T242 476Q242 456 232 439T204 411T167 400Q145 400 131 414T117 451ZM149 55Q149 3 110 -48T2 -134L-3 -120Q44 -91 72 -57T103 11Q91 1 78 -6T51 -14Q33 -14 23 -5T13
21Q13 43 26 64T61 99T105 114Q128 114 138 96T149 55Z" />
<glyph unicode="&lt;" horiz-adv-x="602" d="M603 582L613 553L126 351L457 177L441 145L51 355L603 582Z" />
<glyph unicode="=" horiz-adv-x="663" d="M70 270L79 300H580L571 270H70ZM110 410L119 440H620L611 410H110Z" />
<glyph unicode="&gt;" horiz-adv-x="602" d="M62 155L52 184L512 376L142 574L158 603L587 372L62 155Z" />
<glyph unicode="?" horiz-adv-x="438" d="M311 765Q292 765 270 760T231 744T207 716Q213 715 219 709T229 693T232 672Q231 652 216 640T179 627Q159 627 149 638T139 669Q139 694 155 715T198 751T259 774T327 782Q371 782 404 769T456 729T475 664Q475 633
460 602T409 533T310 446Q258 406 222 380T168 330T149 274Q149 246 165 226T220 205Q248 205 277 216T316 249Q307 250 298 260T290 284Q290 299 302 312T335 325Q349 325 359 318T369 290Q369 266 354 248T313 216T258 195T201 188Q167 188 141 199T101 231T86
285Q86 328 111 362T179 429T272 500Q318 535 346 561T388 614T402 671Q402 712 380 738T311 765ZM107 37Q107 67 130 90T181 114Q204 114 218 99T232 62Q232 42 222 25T194 -3T157 -14Q135 -14 121 0T107 37Z" />
<glyph unicode="@" horiz-adv-x="848" d="M567 51Q587 51 617 65T679 108T740 177T786 273T804 394Q804 487 764 543T658 624T513 650Q440 650 371 624T244 551T142 440T74 301T49 145Q49 68 71 13T134 -76T230 -127T349 -143Q403 -143 454 -131T555 -89L562 -102Q525
-128 470 -144T348 -161Q278 -161 220 -143T119 -89T53 6T29 143Q29 224 53 300T121 443T226 560T358 639T512 668Q599 668 669 640T782 552T824 393Q824 309 796 241T723 125T628 52T534 26Q494 26 478 43T462 84T468 132T477 166L560 464Q583 464 607 467T650
478L544 111Q534 77 539 64T567 51ZM516 258Q489 180 462 129T402 52T323 26Q285 26 263 42T230 85T220 147Q220 193 235 239T276 329T335 405T405 458T480 478Q514 478 531 458T546 387L538 383Q538 409 532 425T513 448T484 455Q448 455 416 428T358 357T319
259T305 153Q305 104 318 80T357 56Q396 56 432 111T508 274L516 258Z" />
<glyph unicode="A" horiz-adv-x="629" d="M80 162Q43 110 36 79T47 35T107 20L102 0Q74 2 44 2T-12 3Q-37 3 -54 3T-87 0L-82 20Q-68 23 -53 32T-20 60T18 107L449 713Q453 713 456 713T464 713L504 84Q507 48 522 35T553 20L549 0Q529 2 499 2T440 3Q404 3 372
3T320 0L324 20Q372 22 392 37T410 104L383 598L390 600L80 162ZM160 288H452L444 268H142L160 288Z" />
<glyph unicode="B" horiz-adv-x="632" d="M412 707Q507 707 553 672T600 579Q600 528 570 488T493 419T395 374Q487 359 523 315T559 211Q559 157 533 118T464 52T368 13T261 0Q223 0 182 1T89 3Q66 3 43 3T1 2T-33 0L-29 20Q5 22 24 28T54 52T74 106L206 602Q213
632 214 650T201 678T147 688L152 708Q166 707 185 707T226 706T271 705Q306 705 340 706T412 707ZM222 359L226 376H304Q365 376 409 403T477 476T501 572Q501 631 476 659T393 688Q349 688 331 675T302 617L167 106Q159 76 159 58T171 31T218 23Q306 23 358 47T435
116T459 226Q459 268 444 297T398 343T316 359H222Z" />
<glyph unicode="C" horiz-adv-x="670" d="M712 708Q697 669 681 614T648 478H626Q634 530 632 565T616 626Q597 664 562 684T485 704Q433 704 384 674T293 591T219 474T169 338T151 200Q151 102 189 53T294 4Q336 4 385 24T472 82Q499 109 518 145T562 240H584Q559
149 546 94T525 0H503Q506 21 506 34Q506 57 498 59T473 51Q446 33 419 19T360 -5T284 -14Q174 -14 113 45T51 221Q51 289 72 359T132 495T225 611T345 692T487 722Q530 722 557 713T602 689T636 657Q650 643 662 653T691 708H712Z" />
<glyph unicode="D" horiz-adv-x="725" d="M704 487Q704 412 682 341T617 208T516 100T385 27T230 0Q215 0 190 1T139 2T90 3Q67 3 44 3T2 2T-30 0L-27 20Q5 22 23 28T53 52T73 106L204 602Q213 635 213 653T198 679T146 688L149 708Q163 707 183 706T226 705T271
705Q294 706 322 706T376 707T422 708Q564 708 634 652T704 487ZM218 18Q295 18 357 44T466 117T544 226T592 361T608 512Q608 601 558 645T394 690Q364 690 346 683T317 658T297 604L166 104Q158 75 157 56T169 27T218 18Z" />
<glyph unicode="E" horiz-adv-x="610" d="M200 346L206 366H379L373 346H200ZM302 366Q335 366 356 379T390 414T413 457T430 498H453Q434 441 427 411T412 356Q408 340 404 322T394 278T380 214H357Q360 238 363 261T363 304T344 334T296 346L302 366ZM567 528Q577
587 575 621T551 670T475 685H402Q368 685 350 680T320 657T299 602L166 106Q156 70 157 52T175 29T225 23H298Q361 23 398 40T460 95T509 200H532Q527 187 521 168T510 128Q505 109 497 74T483 0Q432 2 368 2T254 3Q232 3 198 3T123 3T42 2T-35 0L-30 20Q4 22
23 28T52 52T73 106L206 602Q216 639 215 656T198 680T148 688L153 708Q190 707 231 707T312 706T386 705T443 705Q487 705 542 705T642 708Q629 673 619 640T604 590Q599 572 596 556T590 528H567Z" />
<glyph unicode="F" horiz-adv-x="566" d="M198 336L203 356H403L398 336H198ZM559 498Q571 568 570 608T544 667T455 685H402Q368 685 350 680T320 657T299 602L166 106Q156 70 159 52T182 28T244 20L239 0Q213 2 173 2T92 3Q53 3 20 3T-35 0L-30 20Q4 22 23 28T52
52T73 106L206 602Q216 639 215 656T198 680T148 688L153 708Q190 707 231 707T312 706T386 705T443 705Q487 705 542 705T642 708Q629 670 618 635T601 580Q594 556 590 535T582 498H559ZM306 356Q339 356 360 369T395 404T418 447T434 488H457Q438 431 431 401T416
346Q410 321 403 291T384 204H361Q364 228 367 251T367 294T349 324T301 336L306 356Z" />
<glyph unicode="G" horiz-adv-x="705" d="M316 6Q352 6 382 16T430 37Q452 50 461 65T476 100L499 188Q510 229 508 249T486 276T424 284L429 304Q447 303 471 303T521 302T569 301Q602 301 629 302T674 304L669 284Q647 283 635 277T614 253T595 198L542 0H522Q526
17 525 37T510 57Q504 57 497 54T472 40Q433 15 392 1T302 -14Q179 -14 115 46T50 215Q50 283 70 354T129 491T221 609T342 691T488 722Q553 722 588 703T652 657Q667 642 680 652T709 708H731Q716 669 700 614T667 478H645Q647 498 648 516T650 553Q650 574 647
592T636 626Q615 663 574 683T482 704Q415 704 362 669T267 575T199 447T157 308T143 182Q143 92 185 49T316 6Z" />
<glyph unicode="H" horiz-adv-x="755" d="M211 346L218 366H571L563 346H211ZM619 602Q629 639 628 656T610 680T560 688L565 708Q588 707 622 706T691 705Q730 705 764 706T820 708L815 688Q781 687 762 681T733 657T712 602L580 106Q571 70 572 52T589 28T639
20L635 0Q614 2 580 2T507 3Q473 3 438 3T380 0L384 20Q418 22 437 28T467 52T487 106L619 602ZM166 106Q157 70 158 52T175 28T225 20L221 0Q198 2 164 2T94 3Q55 3 22 3T-33 0L-28 20Q5 22 23 28T53 52T73 106L205 602Q215 639 213 656T196 680T146 688L151 708Q171
707 205 706T278 705Q313 705 347 706T406 708L401 688Q367 687 348 681T319 657T298 602L166 106Z" />
<glyph unicode="I" horiz-adv-x="341" d="M166 106Q157 70 158 52T175 28T225 20L221 0Q198 2 164 2T94 3Q55 3 22 3T-33 0L-28 20Q5 22 23 28T53 52T73 106L205 602Q215 639 213 656T196 680T146 688L151 708Q171 707 205 706T278 705Q313 705 347 706T406 708L401
688Q367 687 348 681T319 657T298 602L166 106Z" />
<glyph unicode="J" horiz-adv-x="636" d="M561 366L558 346H237L240 366H561ZM455 603Q419 603 390 611T333 631T276 650T209 659Q175 659 159 642T144 593Q145 563 164 545T218 520Q218 520 217 510T215 500Q189 505 164 517T123 554T105 616Q103 669 134 704T221
739Q254 739 280 728T330 702T377 670T426 643T484 632Q535 632 573 644T661 677Q682 709 702 726T737 730Q749 720 736 703T670 666Q585 609 530 516T445 307L383 65Q366 -3 335 -60T257 -153T147 -188Q118 -188 95 -182T59 -164T45 -133Q44 -111 59 -93T100 -74Q118
-74 129 -85T142 -114Q143 -132 131 -145T102 -167Q109 -169 118 -170T137 -172Q178 -172 205 -145T250 -73T282 29T312 145L342 262Q361 337 392 395T463 499T552 585T653 663Q629 651 604 640T554 621T504 608T455 603Z" />
<glyph unicode="K" horiz-adv-x="675" d="M166 106Q157 70 158 52T175 28T225 20L221 0Q198 2 164 2T94 3Q55 3 22 3T-33 0L-28 20Q5 22 23 28T53 52T73 106L205 602Q215 639 213 656T196 680T146 688L151 708Q171 707 205 706T278 705Q313 705 347 706T406 708L401
688Q367 687 348 681T319 657T298 602L166 106ZM499 41Q525 41 542 60T573 119L590 170H610L584 93Q565 38 535 12T462 -14Q415 -14 395 16T378 102L385 215Q388 267 384 295T369 338T341 365L343 375Q372 369 396 362T439 340T466 293T473 205L469 92Q468 70 472
56T499 41ZM355 360Q300 345 281 350T261 369Q261 383 280 388T355 378V360ZM603 687Q584 670 571 640T545 573T518 501T481 434T425 386T342 368L344 378Q399 383 432 410T485 477T519 560T548 641T588 699Q605 713 620 717T648 722Q683 722 696 705T707 663Q706
651 700 636T682 610T649 599Q627 599 618 612T610 642Q611 656 620 672T642 701Q641 701 641 701T639 701Q626 700 619 697T603 687Z" />
<glyph unicode="L" horiz-adv-x="586" d="M535 210Q529 194 523 173T510 128Q505 109 497 74T483 0Q432 2 368 2T254 3Q232 3 198 3T123 3T42 2T-35 0L-30 20Q4 22 23 28T52 52T73 106L206 602Q216 639 215 656T198 680T148 688L153 708Q174 707 208 706T281 705Q316
705 350 706T408 708L403 688Q369 687 350 681T320 657T299 602L166 106Q156 70 157 52T175 29T225 23H298Q361 23 398 41T461 100T512 210H535Z" />
<glyph unicode="M" horiz-adv-x="868" d="M760 705H808Q843 705 876 706T933 708L928 688Q894 687 875 681T846 657T825 602L693 106Q684 70 685 52T703 28T752 20L748 0Q725 2 692 2T624 3Q585 3 550 3T494 0L498 20Q533 22 551 28T581 52T601 106L746 645L331
-5H309L241 653L99 116Q90 80 91 60T110 31T166 20L161 0Q150 1 133 1T96 2T60 3Q35 3 9 3T-34 0L-29 20Q6 22 25 30T55 59T76 116L206 602Q216 639 214 656T197 680T147 688L152 708Q168 707 191 706T241 705Q264 705 288 706T329 708L384 115L760 705Z" />
<glyph unicode="N" horiz-adv-x="770" d="M499 -5L266 653Q266 653 263 646T255 628T247 610T243 602Q251 639 249 656T229 680T172 688L177 708Q193 707 216 706T266 705Q313 705 347 708L539 146Q539 146 538 135T534 107T530 71T526 34T523 6T521 -5H499ZM804
733Q776 732 757 719T722 682Q676 614 628 443T521 -5L507 23Q522 90 539 167T575 323T615 472T658 599T704 690Q723 717 749 735T812 754Q847 754 859 739T872 703Q872 678 857 655T813 631Q791 631 783 644T775 670Q775 687 784 704T807 733Q806 733 806 733T804
733ZM-4 -53Q23 -52 43 -39T79 -1Q108 45 137 143T197 380T259 685L276 664Q260 582 243 498T207 333T170 183T132 64T95 -11Q77 -35 53 -54T-12 -74Q-47 -74 -59 -59T-72 -22Q-72 3 -57 26T-13 49Q10 49 17 36T25 10Q25 -7 16 -24T-7 -53Q-6 -53 -6 -53T-4 -53Z"
/>
<glyph unicode="O" horiz-adv-x="729" d="M462 704Q416 704 372 677T289 601T222 490T177 356T160 213Q160 115 198 60T298 4Q344 4 388 31T471 107T538 218T583 352T600 495Q600 593 562 648T462 704ZM54 226Q54 292 73 362T128 496T215 611T331 692T471 722Q582
722 644 660T707 481Q707 415 688 346T632 212T545 97T429 16T289 -14Q178 -14 116 48T54 226Z" />
<glyph unicode="P" horiz-adv-x="589" d="M203 284L208 304H253Q327 304 378 324T460 382T505 467T519 572Q519 631 490 659T392 688Q363 688 346 681T318 655T298 602L166 106Q158 75 157 57T170 30T225 20L221 0Q198 2 165 2T97 3Q58 3 23 3T-33 0L-29 20Q5
22 24 28T54 52T74 106L206 602Q215 634 215 652T199 679T147 688L152 708Q172 707 207 706T275 705Q311 705 347 706T421 707Q522 707 571 666T620 556Q620 478 573 417T440 320T243 284H203Z" />
<glyph unicode="Q" horiz-adv-x="781" d="M299 243Q242 243 202 265T142 327T121 418Q121 484 152 540T237 636T357 699T494 722Q574 722 632 697T721 626T752 515Q752 452 725 390T652 268T546 157T420 60T289 -15T164 -64T59 -82Q10 -82 -17 -62T-45 -8Q-45
18 -29 38T14 70T77 81Q126 81 165 61T241 11T318 -49T407 -99T524 -120Q555 -120 581 -114T630 -93T668 -52Q661 -55 653 -56T637 -58Q614 -58 601 -44T588 -10Q588 13 605 31T647 50Q669 50 683 35T697 -7Q697 -41 674 -73T614 -131T531 -172T441 -188Q392 -188
352 -170T277 -124T214 -65T157 -5T103 41T47 59Q20 59 -3 42T-26 -6Q-26 -37 0 -51T70 -65Q94 -65 120 -60T174 -45T229 -24Q291 3 351 45T464 140T559 255T624 380T648 509Q648 596 604 650T477 704Q419 704 373 679T293 610T241 515T223 409Q223 359 238 328T279
281T337 266Q383 266 418 290T474 352T494 424Q494 434 493 445T487 464Q477 443 456 431T413 419Q391 419 379 432T366 466Q366 492 385 509T435 527Q471 527 492 500T514 429Q514 380 487 338T411 269T299 243Z" />
<glyph unicode="R" horiz-adv-x="664" d="M223 353Q278 351 309 349T358 344T394 339Q424 333 446 325T481 301T501 264T504 207L496 105Q494 75 499 49T528 23Q546 24 559 45T587 107L592 121H615L611 108Q594 47 567 17T492 -14Q443 -14 421 15T402 82L410 194Q414
247 403 278T350 322T221 336L223 353ZM213 336L218 356H263Q335 356 384 372T462 419T505 488T519 572Q519 631 490 659T392 688Q348 688 330 671T298 602L166 106Q158 75 157 57T171 30T225 20L221 0Q198 2 165 2T97 3Q58 3 23 3T-33 0L-29 20Q5 22 24 28T54
52T74 106L206 602Q215 634 215 652T199 679T147 688L152 708Q166 707 186 707T229 706T275 705Q311 705 347 706T421 707Q522 707 571 669T620 566Q620 499 574 448T445 366T253 336H213Z" />
<glyph unicode="S" horiz-adv-x="554" d="M576 715Q566 689 550 640T517 511H497Q500 525 501 540T503 568Q503 605 489 635T443 684T361 703Q301 703 261 672T221 576Q221 538 239 506T286 444T347 385T408 324T455 259T474 182Q474 130 451 93T391 33T310 -2T221
-14Q181 -14 154 -7T109 12T79 32Q68 41 59 44T43 47Q30 47 22 34T2 -7H-18Q-9 15 1 44T23 118T50 233H70Q66 212 63 193T61 152Q64 84 103 45T224 6Q289 6 330 36T371 131Q371 173 355 206T312 267T256 323T200 379T157 445T140 527Q140 575 159 611T209 672T280
709T360 722Q402 722 432 712T490 680Q502 671 510 667T523 662Q537 662 556 715H576Z" />
<glyph unicode="T" horiz-adv-x="659" d="M768 817Q791 817 802 803T813 769Q813 746 800 728T766 697Q741 681 702 673T608 664Q566 664 525 668T443 679T364 689T287 694Q256 694 224 691T175 677Q183 667 188 651T193 619Q193 599 181 580T143 561Q121 561
110 575T99 611Q99 631 110 652T152 689Q175 700 201 705T251 711T286 712Q346 712 399 705T504 691T615 684Q661 684 692 689T749 709L748 702Q738 712 729 727T719 762Q719 782 731 799T768 817ZM418 691Q418 691 427 690T449 687T476 683T499 680T508 679L358
116Q348 78 350 58T371 29T433 20L429 0Q403 2 363 2T280 3Q237 3 198 3T134 0L138 20Q180 22 203 30T240 59T265 116L418 691Z" />
<glyph unicode="U" horiz-adv-x="682" d="M631 592Q641 629 637 649T616 678T564 688L569 708Q586 707 615 706T670 705Q696 705 721 706T764 708L759 688Q725 687 705 678T674 649T653 592L575 291Q539 153 477 79Q441 37 388 12T272 -14Q223 -14 184 -2T118
40Q82 81 83 139T108 288L191 602Q201 639 199 656T182 680T132 688L138 708Q158 707 193 706T267 705Q302 705 335 706T392 708L386 688Q352 687 333 681T304 657T283 602L195 271Q182 220 176 175T177 95T212 41T291 21Q366 21 416 54T498 147T549 280L631 592Z"
/>
<glyph unicode="V" horiz-adv-x="632" d="M578 546Q613 600 619 630T608 674T547 688L552 708Q571 707 590 707T629 706T666 705Q692 705 709 706T742 708L737 688Q723 685 707 676T673 649T636 601L242 -5Q238 -5 235 -5T227 -5L148 624Q144 660 127 673T96 688L101
708Q121 707 151 706T209 705Q248 705 277 706T329 708L324 688Q293 687 274 682T247 659T244 604L302 113L297 115L578 546Z" />
<glyph unicode="W" horiz-adv-x="902" d="M520 472L236 -5H220L141 624Q136 663 119 675T86 688L90 708Q110 707 135 706T189 705Q222 705 250 706T297 708L293 688Q259 686 245 670T237 604L294 118L285 114L511 496L520 472ZM843 546Q872 604 875 634T860 675T799
688L804 708Q823 707 842 707T881 706T918 705Q944 705 961 706T994 708L989 688Q975 685 959 677T927 651T894 601L595 -5H579L480 624Q474 662 462 674T435 688L439 708Q457 707 480 706T528 705Q567 705 601 706T656 708L652 688Q600 686 584 671T576 604L649
140L642 138L843 546Z" />
<glyph unicode="X" horiz-adv-x="699" d="M436 155Q441 109 458 75T515 41Q545 41 563 60T595 119L612 170H632L606 93Q587 38 557 12T484 -14Q436 -14 409 10T370 70T353 142L305 553Q300 600 283 633T226 667Q196 667 178 649T146 589L129 538H109L135 615Q154
671 184 696T257 722Q306 722 332 698T371 639T388 566L436 155ZM681 701Q662 701 647 696T617 680Q584 656 541 603T453 468T366 278L382 354Q407 419 443 484T521 603T598 687Q644 722 690 722Q726 722 738 704T749 663Q747 643 733 621T690 599Q668 599 660
612T652 642Q654 656 662 672T684 701Q683 701 683 701T681 701ZM36 7Q55 8 70 13T99 28Q134 51 178 99T270 221T360 396L344 320Q319 261 280 203T199 96T118 21Q72 -14 26 -14Q-10 -14 -22 4T-33 45Q-31 65 -17 87T26 109Q49 109 57 96T64 66Q63 52 55 36T32
7Q33 7 34 7T36 7Z" />
<glyph unicode="Y" horiz-adv-x="670" d="M346 106Q337 70 338 52T355 28T405 20L400 0Q385 1 365 1T322 2T276 3Q237 3 202 3T145 0L150 20Q184 22 203 28T233 52T253 106L322 380L357 317L390 336L424 416L346 106ZM688 701Q672 700 659 694T633 679Q600 655
557 605T468 472T378 270L319 265Q315 311 309 365T293 472T271 569T239 640T195 667Q178 667 167 657T147 620L119 538Q119 538 108 538T97 538L130 635Q145 679 165 700T228 722Q283 722 315 678T365 552T395 360Q433 456 481 530T582 657Q605 680 636 701T700
722Q734 722 746 704T756 663Q755 643 741 621T697 599Q674 599 666 612T659 642Q660 658 669 673T691 701Q690 701 690 701T688 701Z" />
<glyph unicode="Z" horiz-adv-x="652" d="M159 346L166 366H519L511 346H159ZM447 205Q447 205 449 215T451 225Q477 221 501 208T541 172T557 109Q557 56 525 21T436 -14Q399 -14 372 2T321 39T270 77T207 93Q165 93 133 81T59 48Q37 16 11 -1T-29 -5Q-41 6 -27
28T40 70L620 640Q578 615 534 601T447 586Q415 586 390 594T341 614T291 633T233 642Q199 642 182 625T165 576Q165 546 184 528T237 503Q237 503 235 493T233 483Q208 488 184 500T143 537T127 599Q127 652 159 687T248 722Q285 722 312 706T363 669T414 631T477
615Q519 615 552 627T625 660Q648 692 673 709T713 713Q725 703 711 681T644 638L64 68Q106 93 150 107T237 122Q269 122 294 114T343 94T393 75T451 66Q485 66 502 83T519 132Q519 162 501 180T447 205Z" />
<glyph unicode="[" horiz-adv-x="300" d="M-24 -181L213 772H383L379 753H298L69 -162H150L146 -181H-24Z" />
<glyph unicode="\" horiz-adv-x="492" d="M163 722L391 -14H358L132 722H163Z" />
<glyph unicode="]" horiz-adv-x="300" d="M324 772L87 -181H-83L-79 -162H2L231 753H150L154 772H324Z" />
<glyph unicode="^" horiz-adv-x="535" d="M289 442Q252 409 198 377T89 322L85 336Q159 368 222 420T323 528H341Q349 472 384 420T477 336L465 322Q411 344 363 376T289 442Z" />
<glyph unicode="_" horiz-adv-x="744" d="M-40 -120H561L550 -160H-50L-40 -120Z" />
<glyph unicode="`" horiz-adv-x="320" d="M344 599Q309 649 282 681T235 738T201 784Q188 807 191 822T207 844Q221 850 237 845T266 816Q279 794 289 766T315 699T357 605L344 599Z" />
<glyph unicode="a" horiz-adv-x="523" d="M132 18Q156 18 187 48T250 131T309 249T352 386L335 278Q297 172 259 108T182 15T103 -14Q56 -14 33 20T9 107Q9 155 25 211T69 324T135 426T215 500T304 528Q339 528 357 494T365 397L354 391Q361 444 347 476T301 509Q275
509 247 484T192 415T144 317T110 206T97 95Q97 52 106 35T132 18ZM384 514Q408 515 432 518T476 528L351 86Q349 77 346 63T345 36T366 24Q386 24 405 46T443 126L455 163H474L449 90Q435 50 416 28T375 -4T334 -14Q295 -14 279 12Q266 35 272 65T286 127L384
514Z" />
<glyph unicode="b" horiz-adv-x="504" d="M333 496Q307 496 275 460T209 361T146 220T96 58L113 166Q156 297 196 376T277 492T362 528Q409 528 437 493T466 387Q466 342 454 288T417 181T357 84T275 13T173 -14Q143 -14 120 4T88 56L96 76Q110 39 128 24T172
9Q206 9 237 35T294 106T339 203T369 310T380 409Q380 453 368 474T333 496ZM100 62Q76 43 52 24T4 -16L-11 -9Q-4 5 0 19T8 49L183 667Q191 701 180 717T120 733L125 754Q180 755 222 765T301 795L100 62Z" />
<glyph unicode="c" horiz-adv-x="432" d="M323 508Q285 508 248 477T179 392T130 269T111 124Q111 73 130 51T181 28Q217 28 255 50T331 128L351 120Q332 87 301 56T232 6T150 -14Q90 -14 54 23T18 133Q18 179 31 232T70 338T133 433T217 502T320 528Q364 528
396 506T428 443Q428 424 420 406T395 375T357 363Q336 363 326 374T316 402Q316 431 339 451T391 477Q381 491 365 499T323 508Z" />
<glyph unicode="d" horiz-adv-x="542" d="M369 85Q362 62 363 43T387 23Q407 23 424 45T460 125L472 162H491L468 89Q456 49 436 27T394 -5T352 -14Q292 -14 289 43Q288 59 291 80T302 126L446 667Q455 701 443 717T382 733L388 754Q443 755 485 765T565 795L369
85ZM145 18Q170 18 201 47T265 127T325 242T369 376L354 268Q315 165 277 103T199 14T116 -14Q85 -14 62 0T25 44T12 118Q12 166 27 221T72 331T141 429T231 501T335 528Q358 528 378 511T400 458L392 438Q388 474 372 489T336 505Q298 505 263 479T198 410T147
315T113 208T101 105Q101 61 112 40T145 18Z" />
<glyph unicode="e" horiz-adv-x="429" d="M84 227Q140 246 185 264T258 304Q294 333 315 374T336 464Q336 493 332 501T320 509Q295 509 266 487T209 427T158 339T120 235T106 124Q106 73 125 51T175 28Q211 28 251 50T329 128L345 120Q326 87 295 56T226 6T144
-14Q104 -14 74 2T28 49T12 127Q12 170 28 223T73 330T144 429T235 501T342 528Q373 528 394 512T416 462Q416 422 393 388T331 325T247 274T159 236T83 210L84 227Z" />
<glyph unicode="f" horiz-adv-x="321" d="M67 494L73 514H368L362 494H67ZM389 767Q370 767 356 759T331 741Q313 724 300 690T275 610T250 515L65 -174Q41 -175 18 -178T-25 -188L163 515Q184 595 207 647T265 732Q288 755 321 768T390 782Q436 782 460 762T485
711Q485 694 476 678T452 652T418 642Q399 642 388 651T378 676Q378 701 394 718T435 743Q435 752 422 759T389 767Z" />
<glyph unicode="g" horiz-adv-x="449" d="M216 225L241 224Q205 204 175 188T125 157T106 130Q106 120 120 112T166 95L239 76Q271 68 296 58T337 31T352 -11Q352 -36 336 -67T285 -128T195 -176T62 -195Q10 -195 -25 -186T-78 -159T-96 -120Q-96 -104 -87 -87T-61
-53T-17 -22T46 3L53 -12Q16 -31 2 -55T-12 -103Q-12 -143 16 -160T85 -178Q118 -178 153 -168T218 -140T266 -99T284 -51Q284 -36 275 -31T243 -21L90 18Q66 24 51 38T36 78Q36 98 50 119T103 165T216 225ZM267 510Q235 510 213 492T177 445T155 385T144 329T141
291Q141 259 155 245T194 231Q232 231 255 254T292 311T309 379T314 436Q314 470 305 490T267 510ZM271 528Q330 528 366 502T403 416Q403 368 376 321T300 244T184 213Q129 213 92 239T54 322Q54 349 65 384T102 452T168 506T271 528ZM342 476L324 483Q338 517
372 543T443 569Q469 569 485 555T501 509Q501 481 487 468T457 455Q441 455 427 465T409 499T422 558L435 555Q393 539 375 522T342 476Z" />
<glyph unicode="h" horiz-adv-x="536" d="M78 0H-9L189 667Q199 701 187 717T125 733L131 754Q186 755 230 765T311 795L78 0ZM106 148Q144 253 178 326T247 443T317 508T392 528Q439 528 456 506T472 448T458 377L361 85Q353 59 354 41T377 23Q396 23 414 44T454
125L467 162H486L461 89Q447 47 427 25T384 -5T340 -14Q300 -14 284 4T270 54T286 126L381 412Q386 427 390 447T389 481T359 496Q334 496 306 474T247 409T188 308T133 177T83 20L106 148Z" />
<glyph unicode="i" horiz-adv-x="302" d="M189 696Q194 722 215 741T262 760Q288 760 302 741T312 696Q307 670 286 651T238 632Q213 632 199 651T189 696ZM158 429Q179 491 144 491Q121 491 103 466T65 389L51 352H32L58 425Q73 467 94 489T138 519T182 528Q214
528 229 515T247 481T245 436T232 388L125 85Q115 56 118 40T141 23Q161 23 179 45T219 125L233 162H252L226 89Q212 50 192 28T149 -4T103 -14Q60 -14 45 6T34 58T51 126L158 429Z" />
<glyph unicode="j" horiz-adv-x="276" d="M-137 -188L-133 -173Q-70 -170 -27 -120T39 19L154 429Q164 463 161 477T139 491Q120 491 102 469T63 389L50 352H31L55 425Q75 486 108 507T178 528Q220 528 233 508T244 455T230 388L153 115Q141 65 123 20T79 -62T20
-127Q-12 -154 -52 -171T-137 -188ZM187 688Q187 714 208 739T261 765Q284 765 298 751T312 714Q312 687 291 662T237 637Q215 637 201 651T187 688Z" />
<glyph unicode="k" horiz-adv-x="515" d="M78 0H-9L189 667Q199 701 187 717T125 733L131 754Q186 755 230 765T311 795L78 0ZM336 64Q332 42 336 33T356 23Q376 23 393 45T430 125L442 162H461L437 89Q424 49 406 27T365 -5T318 -14Q286 -14 266 8T257 81L275
167Q287 225 263 252T154 286V290Q192 293 231 290T302 274T349 234T356 164L336 64ZM424 507Q412 507 404 503T387 493Q368 478 355 453T329 398T297 344T247 302T166 287L156 286L158 297Q207 300 236 317T283 359T313 411T338 464T372 505Q390 519 404 523T432
528Q467 528 480 511T491 469Q490 457 484 442T466 416T433 405Q411 405 402 418T394 448Q395 462 404 478T426 507Q425 507 425 507T424 507Z" />
<glyph unicode="l" horiz-adv-x="277" d="M102 85Q94 56 97 40T119 23Q139 23 156 45T194 125L207 162H226L201 89Q188 51 170 29T129 -4T81 -14Q48 -14 33 -2T14 32T14 77T26 126L189 667Q199 701 187 717T126 733L133 754Q188 755 230 765T311 795L102 85Z" />
<glyph unicode="m" horiz-adv-x="809" d="M121 0H34L154 429Q157 438 159 452T159 479T140 491Q118 491 100 468T62 389L49 352H30L55 425Q70 467 90 489T133 519T176 528Q206 528 219 515T233 480T230 434T219 388L121 0ZM404 412Q411 433 413 452T411 483T386
496Q358 496 325 462T257 366T190 223T133 48L166 208Q212 328 252 398T332 498T419 528Q451 528 465 514T483 476T482 427T471 377L369 0H279L404 412ZM654 412Q664 443 664 469T642 496Q612 496 579 461T511 362T442 211T375 20L398 148Q437 252 470 324T535
442T601 507T675 528Q717 528 732 504T745 446T731 377L634 85Q624 54 627 39T650 23Q669 23 687 44T727 125L740 162H759L734 89Q720 47 700 25T657 -5T613 -14Q588 -14 574 -7T551 13Q539 32 543 60T559 126L654 412Z" />
<glyph unicode="n" horiz-adv-x="580" d="M122 0H35L155 429Q159 441 161 455T160 480T140 491Q118 491 101 470T63 389L50 352H31L56 425Q78 488 110 508T175 528Q205 528 218 515T233 482T231 437T220 388L122 0ZM168 208Q203 298 236 359T301 457T366 511T436
528Q483 528 500 506T516 449T502 377L405 85Q396 58 397 41T421 23Q440 23 458 44T498 125L511 162H530L505 89Q491 47 471 25T428 -5T384 -14Q360 -14 345 -6T321 15Q310 33 314 62T330 126L425 412Q430 426 433 445T432 480T403 496Q379 496 352 475T296 416T239
324T186 206T139 68L168 208Z" />
<glyph unicode="o" horiz-adv-x="488" d="M304 508Q272 508 243 483T189 414T146 316T117 204T107 93Q107 48 121 27T164 6Q196 6 225 31T280 100T323 198T351 309T361 421Q361 467 347 487T304 508ZM21 143Q21 187 33 239T69 342T127 435T208 502T310 528Q372
528 409 490T447 371Q447 327 435 275T399 172T341 79T260 12T158 -14Q96 -14 59 25T21 143Z" />
<glyph unicode="p" horiz-adv-x="551" d="M380 496Q354 496 322 460T256 361T193 220T143 58L161 166Q204 297 244 376T324 492T409 528Q456 528 484 493T513 387Q513 342 501 288T464 181T404 84T322 13T220 -14Q190 -14 167 4T135 56L143 76Q157 39 175 24T219
9Q253 9 284 35T341 106T386 203T416 310T427 409Q427 453 415 474T380 496ZM230 667Q254 668 277 671T321 681L101 -88Q89 -130 113 -145T182 -160L176 -181Q156 -180 120 -179T42 -177Q11 -177 -21 -178T-69 -181L-63 -160Q-27 -160 -11 -147T15 -98L230 667ZM22
357Q61 395 95 432T161 522T226 653L229 637Q207 569 177 518T110 425T33 344L22 357Z" />
<glyph unicode="q" horiz-adv-x="507" d="M326 -88Q315 -129 334 -144T387 -160L381 -181Q361 -180 325 -179T247 -177Q216 -177 184 -178T136 -181L142 -160Q187 -160 208 -147T240 -98L384 452Q408 472 432 491T480 530L496 523Q489 510 484 495T475 465L326
-88ZM151 18Q174 18 202 43T258 111T311 209T351 324L331 216Q296 131 262 81T194 8T122 -14Q75 -14 47 21T18 127Q18 172 30 226T67 333T127 430T209 501T311 528Q341 528 364 510T396 458L388 438Q375 476 357 490T312 505Q278 505 247 479T190 408T145 311T115
204T104 105Q104 61 116 40T151 18Z" />
<glyph unicode="r" horiz-adv-x="426" d="M121 0H34L154 429Q164 463 161 477T140 491Q118 491 100 468T62 389L49 352H30L55 425Q70 467 90 489T133 519T176 528Q206 528 218 515T232 481T230 436T219 388L121 0ZM378 503Q355 503 331 482T281 420T230 323T180
197T132 48L157 176Q190 274 218 341T275 449T332 509T395 528Q423 528 438 512T454 471Q454 451 444 435T419 409T384 399Q367 399 356 408T344 435Q344 451 350 463T366 485T389 499Q387 501 385 502T378 503Z" />
<glyph unicode="s" horiz-adv-x="381" d="M59 15Q67 11 76 9T105 6Q149 6 177 32T206 109Q206 140 195 170T154 241Q131 273 110 306T89 386Q89 429 110 460T166 510T244 528Q273 528 301 521T347 496T366 441Q366 432 362 420T347 398T320 389Q304 389 292 400T280
431Q280 449 287 465T308 498Q289 510 258 510Q221 510 196 485T171 415Q171 392 178 375T198 338T231 290Q256 252 273 217T290 143Q290 97 267 62T204 6T118 -14Q84 -14 53 -4T3 27T-17 85Q-17 99 -9 114T22 130Q46 130 56 111T66 67Q66 51 64 39T59 15Z" />
<glyph unicode="t" horiz-adv-x="336" d="M375 514L372 494H61L66 514H375ZM121 85Q112 52 125 38T161 23Q183 23 205 42T250 123L264 162H283L262 99Q240 34 206 10T125 -14Q84 -14 63 3T37 53T45 126L200 666Q224 667 247 670T290 680L121 85Z" />
<glyph unicode="u" horiz-adv-x="567" d="M397 346Q361 246 328 177T263 66T197 5T127 -14Q83 -14 63 6T43 60T57 137L154 429Q164 459 161 475T138 491Q119 491 101 470T61 389L48 352H29L54 425Q69 467 89 489T132 519T175 528Q219 528 233 508T245 455T229
388L134 102Q106 18 156 18Q180 18 207 39T262 101T317 198T370 324T417 474L397 346ZM394 85Q387 58 387 41T408 23Q430 23 448 46T486 125L499 162H518L493 89Q479 47 459 25T416 -5T372 -14Q356 -14 342 -7T321 13Q313 30 315 56T329 126L427 514Q452 515 475
518T518 528L394 85Z" />
<glyph unicode="v" horiz-adv-x="533" d="M474 379Q446 393 422 420T401 487Q403 510 417 519T445 529Q480 529 493 490T499 388Q492 329 475 271T432 162T368 71T285 9T183 -14Q138 -14 113 4T77 51T69 110Q73 166 103 230T184 361T301 490Q285 484 267 474T232
453T199 435T169 427Q150 427 137 439T106 452Q90 452 80 439T57 390L46 353H27L49 426Q66 486 91 507T143 528Q162 528 175 518T201 499T234 489Q258 489 279 496T318 520L328 539L349 529Q309 480 278 431T224 332T188 231T169 127Q165 69 177 44T212 19Q259
19 299 44T370 110T424 199T459 295T474 379Z" />
<glyph unicode="w" horiz-adv-x="685" d="M297 69Q264 33 224 10T137 -14Q91 -14 64 2T25 44T13 100Q13 149 41 201T114 304T214 403T319 487L335 490Q319 484 301 474T266 453T233 435T203 427Q184 427 171 439T140 452Q124 452 113 439T91 390L79 353H60L83
426Q103 485 126 506T176 528Q195 528 208 518T235 499T268 489Q292 489 311 496T348 520L362 539L383 529Q331 486 283 437T196 335T134 224T111 106Q111 56 126 36T166 16Q196 16 229 34T293 88L297 69ZM408 15Q457 15 493 43T554 115T590 211T605 310T598 391Q579
395 557 405T519 434T503 480Q503 506 517 517T545 528Q560 528 571 519T592 494T608 457T619 410Q629 365 627 309T610 197T565 92T490 15T381 -14Q349 -14 322 -2T279 40T262 123Q262 167 276 209T314 285T362 339T408 359Q423 359 430 348T440 321T443 289Q443
235 414 179T322 76L317 94Q364 131 392 184T420 290Q420 310 416 323T401 337Q385 337 365 312T331 247T316 163Q316 127 324 93T353 37T408 15Z" />
<glyph unicode="x" horiz-adv-x="526" d="M322 78Q326 52 334 42T356 32Q371 32 387 49T423 124L436 161H455L430 88Q416 48 398 26T359 -5T316 -14Q285 -14 262 6T233 78L193 436Q189 462 181 472T159 482Q149 482 139 475T117 448T92 390L79 353H60L85 426Q100
466 118 488T157 519T199 528Q234 528 255 509T282 436L322 78ZM406 467Q375 439 352 402T313 328T286 259Q286 259 276 259T266 260Q273 280 282 304T304 356T335 411T378 467Q407 500 430 514T478 528Q497 528 509 518T522 491Q522 472 508 458T469 443Q447 443
431 451T406 467ZM81 47Q128 90 164 148T219 255Q219 255 227 253T236 251Q226 224 211 191T171 122T112 48Q82 17 58 2T11 -14Q-11 -14 -22 -4T-34 23Q-34 42 -19 56T18 71Q41 71 56 63T81 47Z" />
<glyph unicode="y" horiz-adv-x="481" d="M283 40L216 -33L140 427Q135 458 128 470T108 482Q97 482 83 465T49 390L36 353H17L42 426Q63 487 94 507T157 528Q188 528 205 509T229 436L283 40ZM64 -141Q107 -118 155 -79T256 28Q315 103 363 196T431 385Q415 394
397 407T366 439T355 481Q357 504 371 516T406 528Q433 528 445 508T458 447Q458 396 441 338T396 219T332 104T261 3Q245 -17 217 -47T151 -108T64 -163Q34 -177 13 -182T-23 -188Q-43 -188 -58 -178T-73 -147Q-73 -125 -57 -114T-19 -102Q4 -102 24 -114T64 -141Z"
/>
<glyph unicode="z" horiz-adv-x="445" d="M25 39Q46 53 63 62T96 78T124 88T152 91Q176 91 197 83T240 67T287 59Q313 59 327 71T342 109Q342 136 320 155T263 181L269 196Q315 186 340 162T366 99Q366 73 355 49T318 9T250 -6Q224 -6 205 0T167 15T128 30T78
37Q52 37 31 30T-12 0H-39L412 475Q391 462 374 452T341 436T313 426T285 423Q261 423 240 431T198 447T150 455Q125 455 110 443T95 405Q95 378 117 359T174 333L168 318Q122 329 97 353T71 415Q71 442 82 466T119 505T187 520Q213 520 232 514T270 499T309 484T359
477Q385 477 406 484T449 514H476L25 39Z" />
<glyph unicode="{" horiz-adv-x="306" d="M159 -188Q99 -188 69 -170T31 -121T28 -47T46 43Q63 110 71 154T79 227Q78 258 67 271T32 286H27L30 304H35Q67 307 88 328T129 402T172 547Q196 639 224 690T295 761T399 782L394 763Q370 763 353 757T322 729T294 664T262
547Q240 458 208 407T136 331T57 295Q102 282 124 255T151 192T151 118T136 43Q121 -18 114 -57T107 -119Q107 -150 121 -159T164 -169L159 -188Z" />
<glyph unicode="|" horiz-adv-x="318" d="M189 858V-195H149V858H189Z" />
<glyph unicode="}" horiz-adv-x="306" d="M148 782Q208 782 238 764T276 715T279 641T261 551Q245 484 237 440T228 367Q229 336 240 323T275 308H280L277 290H272Q241 288 219 266T178 193T135 47Q112 -45 83 -96T13 -167T-92 -188L-87 -169Q-63 -169 -46 -163T-15
-135T13 -70T45 47Q67 137 100 187T171 263T250 299Q205 313 183 340T156 402T156 476T171 551Q186 612 193 651T200 713Q200 744 186 753T143 763L148 782Z" />
<glyph unicode="~" horiz-adv-x="649" d="M420 237Q382 237 353 249T299 276T246 303T183 315Q155 315 129 302T82 257L68 262Q91 312 134 340T233 369Q271 369 300 357T354 330T407 303T470 291Q498 291 524 304T571 349L585 344Q563 295 520 266T420 237Z" />
<glyph unicode="&#xa0;" horiz-adv-x="253" />
<glyph unicode="&#xa1;" horiz-adv-x="249" d="M142 316Q120 226 105 138T79 -24T55 -149Q51 -168 39 -178T10 -188Q-20 -188 -30 -170T-32 -126Q-22 -92 -4 -44T37 62T83 186T124 319L142 316ZM106 451Q106 481 129 504T180 528Q203 528 217 513T231 476Q231
456 221 439T193 411T156 400Q134 400 120 414T106 451Z" />
<glyph unicode="&#xa2;" horiz-adv-x="433" d="M355 708L116 -181H94L333 708H355ZM320 508Q282 508 245 477T176 392T127 269T108 124Q108 73 127 51T178 28Q214 28 252 50T328 128L348 120Q329 87 298 56T229 6T147 -14Q87 -14 51 23T15 133Q15 179 28 232T67
338T130 433T214 502T317 528Q361 528 393 506T425 443Q425 424 417 406T392 375T354 363Q333 363 323 374T313 402Q313 431 336 451T388 477Q378 491 362 499T320 508Z" />
<glyph unicode="&#xa3;" horiz-adv-x="624" d="M390 317L384 297H59L65 317H390ZM417 417L411 397H86L92 417H417ZM494 721Q446 721 414 700T359 642T322 559T294 465L255 317Q247 286 236 260T209 211T176 165T138 121T94 76Q123 90 154 99T220 108Q255 108 284
97T344 74T413 63Q446 63 472 83T499 137Q499 166 482 183T434 206L440 223Q467 219 490 206T527 172T541 121Q541 88 522 57T470 6T398 -14Q363 -14 337 0T286 33T235 66T172 80Q152 80 131 76T85 60Q60 25 35 6T-11 -14Q-24 -14 -24 -4Q-24 10 2 32T75 69Q92
103 109 144T146 258L194 439Q216 521 254 588T352 696T496 736Q550 736 575 715T600 668Q600 643 583 624T538 605Q523 605 513 614T502 639Q502 659 515 675T550 697Q550 707 533 714T494 721Z" />
<glyph unicode="&#xa4;" horiz-adv-x="569" d="M138 300Q138 259 158 224T213 169T287 148Q328 148 361 168T415 224T435 300Q435 341 415 376T362 432T287 453Q246 453 212 432T158 377T138 300ZM96 138L139 181Q120 205 109 235T97 300Q97 334 108 364T140 420L96
464L124 492L168 448Q192 468 222 479T287 490Q321 490 351 479T406 447L451 492L479 464L434 419Q454 394 465 364T476 300Q476 266 465 236T434 181L478 138L450 109L406 153Q381 134 351 123T287 111Q218 111 168 152L125 109L96 138Z" />
<glyph unicode="&#xa5;" horiz-adv-x="703" d="M521 217L516 197H143L148 217H521ZM543 297L538 277H165L170 297H543ZM354 106Q345 70 346 52T363 28T413 20L408 0Q393 1 373 1T330 2T284 3Q245 3 210 3T153 0L158 20Q192 22 211 28T241 52T261 106L330 380L365
317L398 336L432 416L354 106ZM696 701Q680 700 667 694T641 679Q608 655 565 605T476 472T386 270L327 265Q323 311 317 365T301 472T279 569T247 640T203 667Q186 667 175 657T155 620L127 538Q127 538 116 538T105 538L138 635Q153 679 173 700T236 722Q291
722 323 678T373 552T403 360Q441 456 489 530T590 657Q613 680 644 701T708 722Q742 722 754 704T764 663Q763 643 749 621T705 599Q682 599 674 612T667 642Q668 658 677 673T699 701Q698 701 698 701T696 701Z" />
<glyph unicode="&#xa6;" horiz-adv-x="322" d="M151 -195V326H191V-195H151ZM191 858V384H151V858H191Z" />
<glyph unicode="&#xa7;" horiz-adv-x="508" d="M469 727Q465 742 449 750T414 760T381 763Q348 763 316 751T261 710T239 630Q239 597 257 569T304 516T361 467Q393 441 416 417T452 368T465 312Q465 276 451 245T413 188T357 142T291 105L284 119Q310 132 336
151T381 196T400 256Q400 284 385 308T347 354T295 400Q258 431 228 458T179 516T161 585Q161 627 179 662T228 725T298 767T381 782Q403 782 427 777T473 762T508 734T522 692Q522 674 514 658T490 632T454 621Q435 621 423 632T411 663Q411 687 428 703T469 727ZM127
-169Q161 -169 193 -157T247 -115T269 -34Q269 -1 251 26T204 78T147 127Q116 154 93 177T56 226T43 282Q43 318 57 349T95 406T151 452T217 489L224 475Q199 462 172 443T127 398T108 338Q108 311 123 287T162 240T213 194Q250 164 280 136T329 78T347 9Q347 -33
329 -68T280 -131T210 -173T127 -188Q105 -188 81 -183T35 -168T1 -139T-13 -95Q-13 -78 -4 -63T20 -37T54 -27Q74 -27 85 -37T97 -67Q97 -92 80 -109T39 -133Q44 -147 59 -155T94 -166T127 -169Z" />
<glyph unicode="&#xa8;" horiz-adv-x="428" d="M156 678Q156 701 176 722T223 743Q244 743 258 729T273 693Q273 677 264 662T240 637T206 627Q184 627 170 641T156 678ZM368 678Q368 701 388 722T435 743Q456 743 470 729T485 693Q485 677 476 662T452 637T418
627Q396 627 382 641T368 678Z" />
<glyph unicode="&#xa9;" horiz-adv-x="924" d="M88 384Q88 467 119 539T204 665T331 751T486 782Q569 782 641 751T767 666T853 539T884 384Q884 302 853 230T768 103T641 17T486 -14Q404 -14 332 17T205 102T119 229T88 384ZM128 384Q128 308 156 242T233 126T347
47T486 18Q560 18 625 46T739 125T816 242T844 384Q844 460 816 526T739 642T625 721T486 750Q412 750 347 722T233 643T156 526T128 384ZM509 156Q536 156 562 166T613 198T655 259L674 252Q664 220 641 188T581 134T491 113Q429 113 379 145T299 236T269 378Q269
460 298 522T381 620T503 656Q545 656 582 643T642 605T665 547Q665 520 650 506T612 491Q590 491 574 505T557 545Q557 566 568 579T599 596Q589 614 564 626T509 638Q476 638 443 616T388 541T366 390Q366 304 386 253T438 179T509 156Z" />
<glyph unicode="&#xaa;" horiz-adv-x="454" d="M363 430Q356 409 358 399T374 389Q390 389 402 402T427 453L436 478H455L437 429Q422 389 400 375T347 360Q326 360 315 369T304 398T313 454L387 713Q427 713 457 722L363 430ZM195 385Q213 385 237 405T285 460T330
538T363 627L348 548Q320 479 292 438T234 379T175 360Q138 360 118 382T97 440Q97 484 119 533T178 625T258 695T342 722Q357 722 370 711T379 667L372 651Q373 677 366 687T347 698Q322 698 292 676T233 616T188 531T170 432Q170 410 176 398T195 385Z" />
<glyph unicode="&#xab;" horiz-adv-x="517" d="M318 528Q303 495 278 455T222 374T159 299T99 244Q121 226 143 195T184 127T218 52T240 -14H222Q183 63 135 128T24 243V245Q104 301 171 372T300 528H318ZM483 528Q469 496 444 456T388 375T325 300T264 244Q286
226 308 195T349 127T383 52T405 -14H387Q348 63 300 128T189 243V245Q269 301 336 372T465 528H483Z" />
<glyph unicode="&#xac;" horiz-adv-x="661" d="M94 340L103 370H604L545 165H509L559 340H94Z" />
<glyph unicode="&#xad;" horiz-adv-x="504" />
<glyph unicode="&#xae;" horiz-adv-x="699" d="M405 782Q463 782 513 761T602 701T662 612T684 503Q684 445 663 395T603 306T514 246T405 224Q347 224 297 245T208 305T148 394T126 503Q126 561 147 611T207 700T296 760T405 782ZM336 520Q370 520 384 519T406
517T425 513Q472 509 489 495T512 454L524 397Q527 384 529 374T542 364Q550 364 554 372L564 365Q558 353 548 349T520 344Q494 344 482 354T465 385L448 459Q444 479 436 489T406 502T338 505L336 520ZM405 750Q339 750 285 717T200 627T168 503Q168 436 199
380T285 290T405 256Q471 256 525 289T610 379T642 503Q642 571 611 627T525 716T405 750ZM414 676Q471 676 500 656T530 597Q530 577 519 558T478 525T391 508L331 505Q331 505 331 513T331 521H384Q437 521 452 540T468 587Q468 625 453 643T398 661Q374 661
367 655T360 628V404Q360 381 364 375T383 367V352Q373 352 360 352T332 353Q316 353 303 353T280 352V367Q294 369 298 375T303 404V623Q303 647 299 653T280 661V676Q289 675 302 675T328 675Q356 675 380 675T414 676Z" />
<glyph unicode="&#xaf;" horiz-adv-x="412" d="M475 712L469 687H157L163 712H475Z" />
<glyph unicode="&#xb0;" horiz-adv-x="335" d="M261 820Q310 820 346 788T383 700Q383 644 347 612T261 579Q213 579 177 611T140 700Q140 756 176 788T261 820ZM261 596Q284 596 306 607T343 641T358 699Q358 733 343 756T306 791T261 803Q239 803 217 791T180
756T165 699Q165 664 179 641T216 607T261 596Z" />
<glyph unicode="&#xb1;" horiz-adv-x="635" d="M-9 0L0 30H501L492 0H-9ZM84 370H317L384 606H420L353 370H585L576 340H344L277 105H241L308 340H75L84 370Z" />
<glyph unicode="&#xb2;" horiz-adv-x="341" d="M294 754Q329 754 351 741T373 697Q373 665 351 636T296 581T229 532T172 490Q189 490 212 486T258 477T298 472Q318 472 331 481T345 507Q345 518 341 526L358 533Q363 526 365 518T368 501Q368 473 345 453T278
433Q247 433 222 441T159 451Q133 453 117 449T81 437L85 455Q103 467 131 485T191 524T251 571T296 622T314 677Q314 700 300 710T260 720Q234 720 207 709T153 668L139 679Q162 708 202 731T294 754Z" />
<glyph unicode="&#xb3;" horiz-adv-x="326" d="M299 754Q334 754 356 741T379 700Q379 679 366 660T331 627T285 602T240 586Q282 585 315 569T349 512Q349 475 320 446T243 395T143 362T43 346V364Q86 367 129 379T209 411T267 458T289 520Q289 547 275 559T234
572Q223 566 215 564T202 562Q196 562 190 565T184 575Q184 585 196 589T228 592Q269 607 295 631T321 686Q321 705 309 714T274 723Q248 723 219 711T158 667L144 679Q158 696 181 713T234 742T299 754Z" />
<glyph unicode="&#xb4;" horiz-adv-x="276" d="M138 608Q179 657 205 692T250 753T288 798Q305 818 322 820T351 813Q361 803 359 787T336 751Q318 732 292 713T231 668T148 599L138 608Z" />
<glyph unicode="&#xb6;" horiz-adv-x="640" d="M418 337Q397 256 386 191T372 87T372 48Q372 48 380 80T403 167T435 285T470 415T501 534T525 621T535 656Q533 656 522 633T495 570T461 478T426 366Q349 366 285 363T182 357T142 351Q142 349 178 346T278 340T418
337ZM354 -13Q239 -13 169 17T68 102T36 229Q36 328 72 415T172 568T322 671T507 709Q548 709 585 708T657 706Q672 706 687 706T717 708L712 689Q663 687 645 671T617 621L478 93Q457 12 424 -51T343 -151T233 -188Q204 -188 181 -182T145 -164T131 -133Q131 -111
148 -92T190 -72Q206 -72 214 -80T223 -103Q223 -121 213 -137T188 -167Q195 -169 204 -170T223 -172Q259 -172 283 -151T324 -94T354 -13Z" />
<glyph unicode="&#xb7;" horiz-adv-x="258" d="M55 238Q55 268 78 291T129 315Q152 315 166 300T180 263Q180 243 170 226T142 198T105 187Q83 187 69 201T55 238Z" />
<glyph unicode="&#xb8;" horiz-adv-x="290" d="M98 0L64 -72Q72 -69 83 -67T105 -65Q125 -65 136 -75T148 -105Q148 -134 128 -152T80 -179T25 -188Q-3 -188 -24 -181T-55 -166L-48 -151Q-41 -154 -27 -159T12 -164Q23 -164 40 -160T70 -144T84 -113Q84 -89 56
-89Q51 -89 42 -90T25 -96L71 0H98Z" />
<glyph unicode="&#xb9;" horiz-adv-x="253" d="M316 753L215 437H156L237 688Q212 673 184 660T111 634L116 653Q164 668 196 684T253 719T297 753H316Z" />
<glyph unicode="&#xba;" horiz-adv-x="411" d="M314 704Q286 704 262 680T219 615T190 529T179 437Q179 379 227 379Q255 379 279 403T322 467T351 554T362 646Q362 704 314 704ZM107 465Q107 502 120 546T161 630T227 696T319 722Q372 722 403 696T434 617Q434
580 421 536T380 452T314 387T222 361Q170 361 139 387T107 465Z" />
<glyph unicode="&#xbb;" horiz-adv-x="516" d="M276 528Q315 452 363 386T474 270V269Q395 213 328 143T198 -14H180Q195 19 220 59T276 140T339 215T399 270Q377 288 355 319T314 387T280 462T258 528H276ZM111 528Q150 452 198 386T309 270V269Q230 213 163
143T33 -14H15Q30 19 55 59T111 140T174 215T234 270Q212 288 190 319T149 387T115 462T93 528H111Z" />
<glyph unicode="&#xbc;" horiz-adv-x="606" d="M719 824L734 811L-99 -55L-114 -42L719 824ZM316 753L215 437H156L237 688Q212 673 184 660T111 634L116 653Q164 668 196 684T253 719T297 753H316ZM454 317L459 296L196 63L191 73H458L447 32H149L154 50L454
317ZM473 317L356 -85H304L402 254L454 317H473Z" />
<glyph unicode="&#xbd;" horiz-adv-x="606" d="M719 824L734 811L-99 -55L-114 -42L719 824ZM316 753L215 437H156L237 688Q212 673 184 660T111 634L116 653Q164 668 196 684T253 719T297 753H316ZM461 317Q496 317 518 304T540 260Q540 228 518 199T463 144T396
95T339 53Q356 53 379 49T425 40T465 35Q485 35 498 44T512 70Q512 81 508 89L525 96Q530 89 532 81T535 64Q535 36 512 16T445 -4Q414 -4 389 4T326 14Q300 16 284 12T248 0L252 18Q270 30 298 48T358 87T418 134T463 185T481 240Q481 263 467 273T427 283Q401
283 374 272T320 231L306 242Q329 271 369 294T461 317Z" />
<glyph unicode="&#xbe;" horiz-adv-x="706" d="M819 824L834 811L1 -55L-14 -42L819 824ZM299 754Q334 754 356 741T379 700Q379 679 366 660T331 627T285 602T240 586Q282 585 315 569T349 512Q349 475 320 446T243 395T143 362T43 346V364Q86 367 129 379T209
411T267 458T289 520Q289 547 275 559T234 572Q223 566 215 564T202 562Q196 562 190 565T184 575Q184 585 196 589T228 592Q269 607 295 631T321 686Q321 705 309 714T274 723Q248 723 219 711T158 667L144 679Q158 696 181 713T234 742T299 754ZM554 317L559
296L296 63L291 73H558L547 32H249L254 50L554 317ZM573 317L456 -85H404L502 254L554 317H573Z" />
<glyph unicode="&#xbf;" horiz-adv-x="446" d="M123 -171Q146 -171 172 -166T219 -150T246 -122Q237 -120 229 -108T221 -78Q223 -58 238 -46T274 -33Q294 -33 304 -44T314 -75Q314 -100 296 -121T248 -157T181 -180T104 -188Q40 -188 -1 -163T-42 -90Q-42 -60
-26 -35T26 19T123 88Q168 120 198 141T244 183T260 231Q260 258 242 278T192 299Q162 299 131 288T87 255Q96 254 105 244T113 220Q113 205 101 192T68 179Q55 179 45 186T34 214Q34 238 50 256T94 288T152 309T212 316Q246 316 272 305T312 273T327 220Q327 182
305 153T246 95T161 33Q95 -10 66 -38T36 -103Q36 -131 58 -151T123 -171ZM200 451Q200 481 223 504T274 528Q297 528 311 513T325 476Q325 456 315 439T287 411T250 400Q228 400 214 414T200 451Z" />
<glyph unicode="&#xc0;" horiz-adv-x="629" d="M80 162Q43 110 36 79T47 35T107 20L102 0Q74 2 44 2T-12 3Q-37 3 -54 3T-87 0L-82 20Q-68 23 -53 32T-20 60T18 107L449 713Q453 713 456 713T464 713L504 84Q507 48 522 35T553 20L549 0Q529 2 499 2T440 3Q404
3 372 3T320 0L324 20Q372 22 392 37T410 104L383 598L390 600L80 162ZM160 288H452L444 268H142L160 288ZM487 769Q447 802 418 823T367 859T329 889Q319 900 312 916T317 948Q330 963 350 957T383 937Q398 922 412 900T446 849T497 779L487 769Z" />
<glyph unicode="&#xc1;" horiz-adv-x="629" d="M80 162Q43 110 36 79T47 35T107 20L102 0Q74 2 44 2T-12 3Q-37 3 -54 3T-87 0L-82 20Q-68 23 -53 32T-20 60T18 107L449 713Q453 713 456 713T464 713L504 84Q507 48 522 35T553 20L549 0Q529 2 499 2T440 3Q404
3 372 3T320 0L324 20Q372 22 392 37T410 104L383 598L390 600L80 162ZM160 288H452L444 268H142L160 288ZM443 783Q496 819 530 845T590 891T639 925Q649 931 662 934T688 936T705 920Q712 904 700 889T672 866Q649 853 619 842T548 816T450 772L443 783Z" />
<glyph unicode="&#xc2;" horiz-adv-x="629" d="M80 162Q43 110 36 79T47 35T107 20L102 0Q74 2 44 2T-12 3Q-37 3 -54 3T-87 0L-82 20Q-68 23 -53 32T-20 60T18 107L449 713Q453 713 456 713T464 713L504 84Q507 48 522 35T553 20L549 0Q529 2 499 2T440 3Q404
3 372 3T320 0L324 20Q372 22 392 37T410 104L383 598L390 600L80 162ZM160 288H452L444 268H142L160 288ZM469 840Q430 824 374 804T263 772L258 786Q331 809 393 843T493 916H511Q537 873 568 840T650 786L646 772Q601 781 571 791T517 814T469 840Z" />
<glyph unicode="&#xc3;" horiz-adv-x="629" d="M80 162Q43 110 36 79T47 35T107 20L102 0Q74 2 44 2T-12 3Q-37 3 -54 3T-87 0L-82 20Q-68 23 -53 32T-20 60T18 107L449 713Q453 713 456 713T464 713L504 84Q507 48 522 35T553 20L549 0Q529 2 499 2T440 3Q404
3 372 3T320 0L324 20Q372 22 392 37T410 104L383 598L390 600L80 162ZM160 288H452L444 268H142L160 288ZM420 895Q454 895 476 884T514 859T549 833T593 822Q611 822 628 835T663 880L681 875Q658 820 622 796T551 772Q517 772 495 783T457 808T422 834T378 845Q360
845 343 832T308 787L290 792Q313 848 349 871T420 895Z" />
<glyph unicode="&#xc4;" horiz-adv-x="629" d="M80 162Q43 110 36 79T47 35T107 20L102 0Q74 2 44 2T-12 3Q-37 3 -54 3T-87 0L-82 20Q-68 23 -53 32T-20 60T18 107L449 713Q453 713 456 713T464 713L504 84Q507 48 522 35T553 20L549 0Q529 2 499 2T440 3Q404
3 372 3T320 0L324 20Q372 22 392 37T410 104L383 598L390 600L80 162ZM160 288H452L444 268H142L160 288ZM318 823Q318 846 338 867T385 888Q406 888 420 874T435 838Q435 822 426 807T402 782T368 772Q346 772 332 786T318 823ZM530 823Q530 846 550 867T597
888Q618 888 632 874T647 838Q647 822 638 807T614 782T580 772Q558 772 544 786T530 823Z" />
<glyph unicode="&#xc5;" horiz-adv-x="629" d="M80 162Q43 110 36 79T47 35T107 20L102 0Q74 2 44 2T-12 3Q-37 3 -54 3T-87 0L-82 20Q-68 23 -53 32T-20 60T18 107L449 713Q453 713 456 713T464 713L504 84Q507 48 522 35T553 20L549 0Q529 2 499 2T440 3Q404
3 372 3T320 0L324 20Q372 22 392 37T410 104L383 598L390 600L80 162ZM160 288H452L444 268H142L160 288ZM487 925Q523 925 548 904T573 845Q573 817 558 794T517 756T461 742Q426 742 402 763T378 822Q378 851 393 874T432 911T487 925ZM465 763Q486 763 505
774T535 803T547 846Q547 875 527 889T483 904Q452 904 428 880T404 823Q404 793 423 778T465 763Z" />
<glyph unicode="&#xc6;" horiz-adv-x="897" d="M641 773L40 94Q21 72 14 57T20 32T73 20V0Q60 2 36 2T-13 3Q-31 3 -49 3T-80 0V20Q-49 22 6 84L615 773H641ZM252 346L271 366H703L699 346H252ZM632 366Q662 366 680 382T711 423T735 478H757Q744 439 738 414T723
356Q717 334 712 309T697 234H675Q675 251 678 270T680 305T668 333T628 346L632 366ZM455 106Q446 70 447 52T463 29T512 23H615Q663 23 694 40T749 95T794 200H816Q811 187 806 168T795 128Q790 109 782 74T769 0Q718 2 656 2T543 3Q521 3 487 3T414 3T333 2T255
0L259 20Q293 22 312 28T342 52T362 106L494 602Q504 639 502 656T485 680T435 688L440 708Q476 707 517 707T597 706T671 705T727 705Q773 705 830 705T934 708Q921 673 911 640T896 590Q891 572 888 556T883 528H861Q877 617 859 651T780 685H687Q654 685 636
680T607 657T587 602L455 106Z" />
<glyph unicode="&#xc7;" horiz-adv-x="670" d="M712 708Q697 669 681 614T648 478H626Q634 530 632 565T616 626Q597 664 562 684T485 704Q433 704 384 674T293 591T219 474T169 338T151 200Q151 102 189 53T294 4Q336 4 385 24T472 82Q499 109 518 145T562 240H584Q559
149 546 94T525 0H503Q506 21 506 34Q506 57 498 59T473 51Q446 33 419 19T360 -5T284 -14Q174 -14 113 45T51 221Q51 289 72 359T132 495T225 611T345 692T487 722Q530 722 557 713T602 689T636 657Q650 643 662 653T691 708H712ZM302 4L266 -72Q277 -69 290 -67T317
-65Q342 -65 356 -75T370 -105Q370 -134 345 -152T285 -179T217 -188Q182 -188 156 -181T117 -166L124 -151Q132 -154 151 -159T204 -164Q219 -164 243 -160T287 -144T306 -113Q306 -89 268 -89Q261 -89 250 -90T227 -96L275 4H302Z" />
<glyph unicode="&#xc8;" horiz-adv-x="610" d="M200 346L206 366H379L373 346H200ZM302 366Q335 366 356 379T390 414T413 457T430 498H453Q434 441 427 411T412 356Q408 340 404 322T394 278T380 214H357Q360 238 363 261T363 304T344 334T296 346L302 366ZM567
528Q577 587 575 621T551 670T475 685H402Q368 685 350 680T320 657T299 602L166 106Q156 70 157 52T175 29T225 23H298Q361 23 398 40T460 95T509 200H532Q527 187 521 168T510 128Q505 109 497 74T483 0Q432 2 368 2T254 3Q232 3 198 3T123 3T42 2T-35 0L-30
20Q4 22 23 28T52 52T73 106L206 602Q216 639 215 656T198 680T148 688L153 708Q190 707 231 707T312 706T386 705T443 705Q487 705 542 705T642 708Q629 673 619 640T604 590Q599 572 596 556T590 528H567ZM452 769Q412 802 383 823T332 859T294 889Q284 900 277
916T282 948Q295 963 315 957T348 937Q363 922 377 900T411 849T462 779L452 769Z" />
<glyph unicode="&#xc9;" horiz-adv-x="610" d="M200 346L206 366H379L373 346H200ZM302 366Q335 366 356 379T390 414T413 457T430 498H453Q434 441 427 411T412 356Q408 340 404 322T394 278T380 214H357Q360 238 363 261T363 304T344 334T296 346L302 366ZM567
528Q577 587 575 621T551 670T475 685H402Q368 685 350 680T320 657T299 602L166 106Q156 70 157 52T175 29T225 23H298Q361 23 398 40T460 95T509 200H532Q527 187 521 168T510 128Q505 109 497 74T483 0Q432 2 368 2T254 3Q232 3 198 3T123 3T42 2T-35 0L-30
20Q4 22 23 28T52 52T73 106L206 602Q216 639 215 656T198 680T148 688L153 708Q190 707 231 707T312 706T386 705T443 705Q487 705 542 705T642 708Q629 673 619 640T604 590Q599 572 596 556T590 528H567ZM408 783Q461 819 495 845T555 891T604 925Q614 931 627
934T653 936T670 920Q677 904 665 889T637 866Q614 853 584 842T513 816T415 772L408 783Z" />
<glyph unicode="&#xca;" horiz-adv-x="610" d="M200 346L206 366H379L373 346H200ZM302 366Q335 366 356 379T390 414T413 457T430 498H453Q434 441 427 411T412 356Q408 340 404 322T394 278T380 214H357Q360 238 363 261T363 304T344 334T296 346L302 366ZM567
528Q577 587 575 621T551 670T475 685H402Q368 685 350 680T320 657T299 602L166 106Q156 70 157 52T175 29T225 23H298Q361 23 398 40T460 95T509 200H532Q527 187 521 168T510 128Q505 109 497 74T483 0Q432 2 368 2T254 3Q232 3 198 3T123 3T42 2T-35 0L-30
20Q4 22 23 28T52 52T73 106L206 602Q216 639 215 656T198 680T148 688L153 708Q190 707 231 707T312 706T386 705T443 705Q487 705 542 705T642 708Q629 673 619 640T604 590Q599 572 596 556T590 528H567ZM434 840Q395 824 339 804T228 772L223 786Q296 809 358
843T458 916H476Q502 873 533 840T615 786L611 772Q566 781 536 791T482 814T434 840Z" />
<glyph unicode="&#xcb;" horiz-adv-x="610" d="M200 346L206 366H379L373 346H200ZM302 366Q335 366 356 379T390 414T413 457T430 498H453Q434 441 427 411T412 356Q408 340 404 322T394 278T380 214H357Q360 238 363 261T363 304T344 334T296 346L302 366ZM567
528Q577 587 575 621T551 670T475 685H402Q368 685 350 680T320 657T299 602L166 106Q156 70 157 52T175 29T225 23H298Q361 23 398 40T460 95T509 200H532Q527 187 521 168T510 128Q505 109 497 74T483 0Q432 2 368 2T254 3Q232 3 198 3T123 3T42 2T-35 0L-30
20Q4 22 23 28T52 52T73 106L206 602Q216 639 215 656T198 680T148 688L153 708Q190 707 231 707T312 706T386 705T443 705Q487 705 542 705T642 708Q629 673 619 640T604 590Q599 572 596 556T590 528H567ZM283 823Q283 846 303 867T350 888Q371 888 385 874T400
838Q400 822 391 807T367 782T333 772Q311 772 297 786T283 823ZM495 823Q495 846 515 867T562 888Q583 888 597 874T612 838Q612 822 603 807T579 782T545 772Q523 772 509 786T495 823Z" />
<glyph unicode="&#xcc;" horiz-adv-x="341" d="M166 106Q157 70 158 52T175 28T225 20L221 0Q198 2 164 2T94 3Q55 3 22 3T-33 0L-28 20Q5 22 23 28T53 52T73 106L205 602Q215 639 213 656T196 680T146 688L151 708Q171 707 205 706T278 705Q313 705 347 706T406
708L401 688Q367 687 348 681T319 657T298 602L166 106ZM570 769Q530 802 501 823T450 859T412 889Q402 900 395 916T400 948Q413 963 433 957T466 937Q481 922 495 900T529 849T580 779L570 769Z" />
<glyph unicode="&#xcd;" horiz-adv-x="341" d="M166 106Q157 70 158 52T175 28T225 20L221 0Q198 2 164 2T94 3Q55 3 22 3T-33 0L-28 20Q5 22 23 28T53 52T73 106L205 602Q215 639 213 656T196 680T146 688L151 708Q171 707 205 706T278 705Q313 705 347 706T406
708L401 688Q367 687 348 681T319 657T298 602L166 106ZM270 783Q323 819 357 845T417 891T466 925Q476 931 489 934T515 936T532 920Q539 904 527 889T499 866Q476 853 446 842T375 816T277 772L270 783Z" />
<glyph unicode="&#xce;" horiz-adv-x="341" d="M166 106Q157 70 158 52T175 28T225 20L221 0Q198 2 164 2T94 3Q55 3 22 3T-33 0L-28 20Q5 22 23 28T53 52T73 106L205 602Q215 639 213 656T196 680T146 688L151 708Q171 707 205 706T278 705Q313 705 347 706T406
708L401 688Q367 687 348 681T319 657T298 602L166 106ZM552 840Q513 824 457 804T346 772L341 786Q414 809 476 843T576 916H594Q620 873 651 840T733 786L729 772Q684 781 654 791T600 814T552 840Z" />
<glyph unicode="&#xcf;" horiz-adv-x="341" d="M166 106Q157 70 158 52T175 28T225 20L221 0Q198 2 164 2T94 3Q55 3 22 3T-33 0L-28 20Q5 22 23 28T53 52T73 106L205 602Q215 639 213 656T196 680T146 688L151 708Q171 707 205 706T278 705Q313 705 347 706T406
708L401 688Q367 687 348 681T319 657T298 602L166 106ZM401 823Q401 846 421 867T468 888Q489 888 503 874T518 838Q518 822 509 807T485 782T451 772Q429 772 415 786T401 823ZM613 823Q613 846 633 867T680 888Q701 888 715 874T730 838Q730 822 721 807T697
782T663 772Q641 772 627 786T613 823Z" />
<glyph unicode="&#xd0;" horiz-adv-x="725" d="M704 487Q704 412 682 341T617 208T516 100T385 27T230 0Q215 0 190 1T139 2T90 3Q67 3 44 3T2 2T-30 0L-27 20Q5 22 23 28T53 52T73 106L204 602Q213 635 213 653T198 679T146 688L149 708Q163 707 183 706T226
705T271 705Q294 706 322 706T376 707T422 708Q564 708 634 652T704 487ZM218 18Q295 18 357 44T466 117T544 226T592 361T608 512Q608 601 558 645T394 690Q364 690 346 683T317 658T297 604L166 104Q158 75 157 56T169 27T218 18ZM694 622L688 597H276L282 622H694Z"
/>
<glyph unicode="&#xd1;" horiz-adv-x="770" d="M499 -5L266 653Q266 653 263 646T255 628T247 610T243 602Q251 639 249 656T229 680T172 688L177 708Q193 707 216 706T266 705Q313 705 347 708L539 146Q539 146 538 135T534 107T530 71T526 34T523 6T521 -5H499ZM804
733Q776 732 757 719T722 682Q676 614 628 443T521 -5L507 23Q522 90 539 167T575 323T615 472T658 599T704 690Q723 717 749 735T812 754Q847 754 859 739T872 703Q872 678 857 655T813 631Q791 631 783 644T775 670Q775 687 784 704T807 733Q806 733 806 733T804
733ZM-4 -53Q23 -52 43 -39T79 -1Q108 45 137 143T197 380T259 685L276 664Q260 582 243 498T207 333T170 183T132 64T95 -11Q77 -35 53 -54T-12 -74Q-47 -74 -59 -59T-72 -22Q-72 3 -57 26T-13 49Q10 49 17 36T25 10Q25 -7 16 -24T-7 -53Q-6 -53 -6 -53T-4 -53ZM473
895Q507 895 529 884T567 859T602 833T646 822Q664 822 681 835T716 880L734 875Q711 820 675 796T604 772Q570 772 548 783T510 808T475 834T431 845Q413 845 396 832T361 787L343 792Q366 848 402 871T473 895Z" />
<glyph unicode="&#xd2;" horiz-adv-x="729" d="M462 704Q416 704 372 677T289 601T222 490T177 356T160 213Q160 115 198 60T298 4Q344 4 388 31T471 107T538 218T583 352T600 495Q600 593 562 648T462 704ZM54 226Q54 292 73 362T128 496T215 611T331 692T471
722Q582 722 644 660T707 481Q707 415 688 346T632 212T545 97T429 16T289 -14Q178 -14 116 48T54 226ZM495 769Q455 802 426 823T375 859T337 889Q327 900 320 916T325 948Q338 963 358 957T391 937Q406 922 420 900T454 849T505 779L495 769Z" />
<glyph unicode="&#xd3;" horiz-adv-x="729" d="M462 704Q416 704 372 677T289 601T222 490T177 356T160 213Q160 115 198 60T298 4Q344 4 388 31T471 107T538 218T583 352T600 495Q600 593 562 648T462 704ZM54 226Q54 292 73 362T128 496T215 611T331 692T471
722Q582 722 644 660T707 481Q707 415 688 346T632 212T545 97T429 16T289 -14Q178 -14 116 48T54 226ZM451 783Q504 819 538 845T598 891T647 925Q657 931 670 934T696 936T713 920Q720 904 708 889T680 866Q657 853 627 842T556 816T458 772L451 783Z" />
<glyph unicode="&#xd4;" horiz-adv-x="729" d="M462 704Q416 704 372 677T289 601T222 490T177 356T160 213Q160 115 198 60T298 4Q344 4 388 31T471 107T538 218T583 352T600 495Q600 593 562 648T462 704ZM54 226Q54 292 73 362T128 496T215 611T331 692T471
722Q582 722 644 660T707 481Q707 415 688 346T632 212T545 97T429 16T289 -14Q178 -14 116 48T54 226ZM477 840Q438 824 382 804T271 772L266 786Q339 809 401 843T501 916H519Q545 873 576 840T658 786L654 772Q609 781 579 791T525 814T477 840Z" />
<glyph unicode="&#xd5;" horiz-adv-x="729" d="M462 704Q416 704 372 677T289 601T222 490T177 356T160 213Q160 115 198 60T298 4Q344 4 388 31T471 107T538 218T583 352T600 495Q600 593 562 648T462 704ZM54 226Q54 292 73 362T128 496T215 611T331 692T471
722Q582 722 644 660T707 481Q707 415 688 346T632 212T545 97T429 16T289 -14Q178 -14 116 48T54 226ZM428 895Q462 895 484 884T522 859T557 833T601 822Q619 822 636 835T671 880L689 875Q666 820 630 796T559 772Q525 772 503 783T465 808T430 834T386 845Q368
845 351 832T316 787L298 792Q321 848 357 871T428 895Z" />
<glyph unicode="&#xd6;" horiz-adv-x="729" d="M462 704Q416 704 372 677T289 601T222 490T177 356T160 213Q160 115 198 60T298 4Q344 4 388 31T471 107T538 218T583 352T600 495Q600 593 562 648T462 704ZM54 226Q54 292 73 362T128 496T215 611T331 692T471
722Q582 722 644 660T707 481Q707 415 688 346T632 212T545 97T429 16T289 -14Q178 -14 116 48T54 226ZM326 823Q326 846 346 867T393 888Q414 888 428 874T443 838Q443 822 434 807T410 782T376 772Q354 772 340 786T326 823ZM538 823Q538 846 558 867T605 888Q626
888 640 874T655 838Q655 822 646 807T622 782T588 772Q566 772 552 786T538 823Z" />
<glyph unicode="&#xd7;" horiz-adv-x="513" d="M27 182L250 355L125 530L151 548L274 373L501 550L517 528L290 352L415 179L390 161L266 334L42 160L27 182Z" />
<glyph unicode="&#xd8;" horiz-adv-x="729" d="M462 704Q416 704 372 677T289 601T222 490T177 356T160 213Q160 115 198 60T298 4Q344 4 388 31T471 107T538 218T583 352T600 495Q600 593 562 648T462 704ZM54 226Q54 292 73 362T128 496T215 611T331 692T471
722Q582 722 644 660T707 481Q707 415 688 346T632 212T545 97T429 16T289 -14Q178 -14 116 48T54 226ZM637 632L772 773L787 760L647 612L637 632ZM138 77L-3 -73L-20 -59L125 95L138 77ZM133 95L630 632L640 612L146 77L133 95Z" />
<glyph unicode="&#xd9;" horiz-adv-x="682" d="M631 592Q641 629 637 649T616 678T564 688L569 708Q586 707 615 706T670 705Q696 705 721 706T764 708L759 688Q725 687 705 678T674 649T653 592L575 291Q539 153 477 79Q441 37 388 12T272 -14Q223 -14 184 -2T118
40Q82 81 83 139T108 288L191 602Q201 639 199 656T182 680T132 688L138 708Q158 707 193 706T267 705Q302 705 335 706T392 708L386 688Q352 687 333 681T304 657T283 602L195 271Q182 220 176 175T177 95T212 41T291 21Q366 21 416 54T498 147T549 280L631 592ZM505
769Q465 802 436 823T385 859T347 889Q337 900 330 916T335 948Q348 963 368 957T401 937Q416 922 430 900T464 849T515 779L505 769Z" />
<glyph unicode="&#xda;" horiz-adv-x="682" d="M631 592Q641 629 637 649T616 678T564 688L569 708Q586 707 615 706T670 705Q696 705 721 706T764 708L759 688Q725 687 705 678T674 649T653 592L575 291Q539 153 477 79Q441 37 388 12T272 -14Q223 -14 184 -2T118
40Q82 81 83 139T108 288L191 602Q201 639 199 656T182 680T132 688L138 708Q158 707 193 706T267 705Q302 705 335 706T392 708L386 688Q352 687 333 681T304 657T283 602L195 271Q182 220 176 175T177 95T212 41T291 21Q366 21 416 54T498 147T549 280L631 592ZM461
783Q514 819 548 845T608 891T657 925Q667 931 680 934T706 936T723 920Q730 904 718 889T690 866Q667 853 637 842T566 816T468 772L461 783Z" />
<glyph unicode="&#xdb;" horiz-adv-x="682" d="M631 592Q641 629 637 649T616 678T564 688L569 708Q586 707 615 706T670 705Q696 705 721 706T764 708L759 688Q725 687 705 678T674 649T653 592L575 291Q539 153 477 79Q441 37 388 12T272 -14Q223 -14 184 -2T118
40Q82 81 83 139T108 288L191 602Q201 639 199 656T182 680T132 688L138 708Q158 707 193 706T267 705Q302 705 335 706T392 708L386 688Q352 687 333 681T304 657T283 602L195 271Q182 220 176 175T177 95T212 41T291 21Q366 21 416 54T498 147T549 280L631 592ZM487
840Q448 824 392 804T281 772L276 786Q349 809 411 843T511 916H529Q555 873 586 840T668 786L664 772Q619 781 589 791T535 814T487 840Z" />
<glyph unicode="&#xdc;" horiz-adv-x="682" d="M631 592Q641 629 637 649T616 678T564 688L569 708Q586 707 615 706T670 705Q696 705 721 706T764 708L759 688Q725 687 705 678T674 649T653 592L575 291Q539 153 477 79Q441 37 388 12T272 -14Q223 -14 184 -2T118
40Q82 81 83 139T108 288L191 602Q201 639 199 656T182 680T132 688L138 708Q158 707 193 706T267 705Q302 705 335 706T392 708L386 688Q352 687 333 681T304 657T283 602L195 271Q182 220 176 175T177 95T212 41T291 21Q366 21 416 54T498 147T549 280L631 592ZM336
823Q336 846 356 867T403 888Q424 888 438 874T453 838Q453 822 444 807T420 782T386 772Q364 772 350 786T336 823ZM548 823Q548 846 568 867T615 888Q636 888 650 874T665 838Q665 822 656 807T632 782T598 772Q576 772 562 786T548 823Z" />
<glyph unicode="&#xdd;" horiz-adv-x="670" d="M346 106Q337 70 338 52T355 28T405 20L400 0Q385 1 365 1T322 2T276 3Q237 3 202 3T145 0L150 20Q184 22 203 28T233 52T253 106L322 380L357 317L390 336L424 416L346 106ZM688 701Q672 700 659 694T633 679Q600
655 557 605T468 472T378 270L319 265Q315 311 309 365T293 472T271 569T239 640T195 667Q178 667 167 657T147 620L119 538Q119 538 108 538T97 538L130 635Q145 679 165 700T228 722Q283 722 315 678T365 552T395 360Q433 456 481 530T582 657Q605 680 636 701T700
722Q734 722 746 704T756 663Q755 643 741 621T697 599Q674 599 666 612T659 642Q660 658 669 673T691 701Q690 701 690 701T688 701ZM457 783Q510 819 544 845T604 891T653 925Q663 931 676 934T702 936T719 920Q726 904 714 889T686 866Q663 853 633 842T562
816T464 772L457 783Z" />
<glyph unicode="&#xde;" horiz-adv-x="605" d="M250 573Q286 573 322 574T396 575Q497 575 546 534T595 424Q595 346 548 285T415 188T218 152H178Q178 152 180 162T183 172H228Q302 172 353 192T435 250T480 335T494 440Q494 499 465 527T367 556Q338 556 321
555T289 553T251 550L250 573ZM166 106Q157 70 158 52T175 28T225 20L221 0Q198 2 164 2T94 3Q55 3 22 3T-33 0L-28 20Q5 22 23 28T53 52T73 106L205 602Q215 639 213 656T196 680T146 688L151 708Q171 707 205 706T278 705Q313 705 347 706T406 708L401 688Q367
687 348 681T319 657T298 602L166 106Z" />
<glyph unicode="&#xdf;" horiz-adv-x="547" d="M366 767Q323 767 296 727T242 589L41 -174Q17 -175 -6 -178T-49 -188L133 507Q157 596 186 657T262 750T381 782Q431 782 461 768T504 730T517 681Q517 653 505 628T473 581T430 537T385 495Q374 485 367 474T355
450T351 420Q351 393 361 372T386 331T417 290Q434 267 447 244T468 196T476 145Q476 97 452 62T387 6T297 -14Q266 -14 237 -5T188 23T169 72Q169 95 180 107T208 120Q226 120 235 108T248 80T251 52Q251 41 249 32T245 14Q253 11 262 9T287 6Q332 6 362 33T392
110Q392 138 381 171T340 241Q321 266 298 296T275 369Q275 402 290 423T329 464T376 507Q405 538 422 576T440 661Q440 716 419 741T366 767Z" />
<glyph unicode="&#xe0;" horiz-adv-x="523" d="M132 18Q156 18 187 48T250 131T309 249T352 386L335 278Q297 172 259 108T182 15T103 -14Q56 -14 33 20T9 107Q9 155 25 211T69 324T135 426T215 500T304 528Q339 528 357 494T365 397L354 391Q361 444 347 476T301
509Q275 509 247 484T192 415T144 317T110 206T97 95Q97 52 106 35T132 18ZM384 514Q408 515 432 518T476 528L351 86Q349 77 346 63T345 36T366 24Q386 24 405 46T443 126L455 163H474L449 90Q435 50 416 28T375 -4T334 -14Q295 -14 279 12Q266 35 272 65T286
127L384 514ZM353 599Q318 649 291 681T244 738T210 784Q197 807 200 822T216 844Q230 850 246 845T275 816Q288 794 298 766T324 699T366 605L353 599Z" />
<glyph unicode="&#xe1;" horiz-adv-x="523" d="M132 18Q156 18 187 48T250 131T309 249T352 386L335 278Q297 172 259 108T182 15T103 -14Q56 -14 33 20T9 107Q9 155 25 211T69 324T135 426T215 500T304 528Q339 528 357 494T365 397L354 391Q361 444 347 476T301
509Q275 509 247 484T192 415T144 317T110 206T97 95Q97 52 106 35T132 18ZM384 514Q408 515 432 518T476 528L351 86Q349 77 346 63T345 36T366 24Q386 24 405 46T443 126L455 163H474L449 90Q435 50 416 28T375 -4T334 -14Q295 -14 279 12Q266 35 272 65T286
127L384 514ZM294 608Q335 657 361 692T406 753T444 798Q461 818 478 820T507 813Q517 803 515 787T492 751Q474 732 448 713T387 668T304 599L294 608Z" />
<glyph unicode="&#xe2;" horiz-adv-x="523" d="M132 18Q156 18 187 48T250 131T309 249T352 386L335 278Q297 172 259 108T182 15T103 -14Q56 -14 33 20T9 107Q9 155 25 211T69 324T135 426T215 500T304 528Q339 528 357 494T365 397L354 391Q361 444 347 476T301
509Q275 509 247 484T192 415T144 317T110 206T97 95Q97 52 106 35T132 18ZM384 514Q408 515 432 518T476 528L351 86Q349 77 346 63T345 36T366 24Q386 24 405 46T443 126L455 163H474L449 90Q435 50 416 28T375 -4T334 -14Q295 -14 279 12Q266 35 272 65T286
127L384 514ZM346 720Q312 693 266 665T171 616L166 630Q233 659 289 705T381 802H399Q410 741 436 700T518 630L514 616Q452 633 415 659T346 720Z" />
<glyph unicode="&#xe3;" horiz-adv-x="523" d="M132 18Q156 18 187 48T250 131T309 249T352 386L335 278Q297 172 259 108T182 15T103 -14Q56 -14 33 20T9 107Q9 155 25 211T69 324T135 426T215 500T304 528Q339 528 357 494T365 397L354 391Q361 444 347 476T301
509Q275 509 247 484T192 415T144 317T110 206T97 95Q97 52 106 35T132 18ZM384 514Q408 515 432 518T476 528L351 86Q349 77 346 63T345 36T366 24Q386 24 405 46T443 126L455 163H474L449 90Q435 50 416 28T375 -4T334 -14Q295 -14 279 12Q266 35 272 65T286
127L384 514ZM309 768Q339 768 358 757T393 732T423 706T462 695Q480 695 497 708T532 753L550 748Q527 693 491 669T420 645Q390 645 371 656T336 681T306 707T267 718Q249 718 232 705T197 660L179 665Q202 721 238 744T309 768Z" />
<glyph unicode="&#xe4;" horiz-adv-x="523" d="M132 18Q156 18 187 48T250 131T309 249T352 386L335 278Q297 172 259 108T182 15T103 -14Q56 -14 33 20T9 107Q9 155 25 211T69 324T135 426T215 500T304 528Q339 528 357 494T365 397L354 391Q361 444 347 476T301
509Q275 509 247 484T192 415T144 317T110 206T97 95Q97 52 106 35T132 18ZM384 514Q408 515 432 518T476 528L351 86Q349 77 346 63T345 36T366 24Q386 24 405 46T443 126L455 163H474L449 90Q435 50 416 28T375 -4T334 -14Q295 -14 279 12Q266 35 272 65T286
127L384 514ZM209 678Q209 701 229 722T276 743Q297 743 311 729T326 693Q326 677 317 662T293 637T259 627Q237 627 223 641T209 678ZM421 678Q421 701 441 722T488 743Q509 743 523 729T538 693Q538 677 529 662T505 637T471 627Q449 627 435 641T421 678Z" />
<glyph unicode="&#xe5;" horiz-adv-x="523" d="M132 18Q156 18 187 48T250 131T309 249T352 386L335 278Q297 172 259 108T182 15T103 -14Q56 -14 33 20T9 107Q9 155 25 211T69 324T135 426T215 500T304 528Q339 528 357 494T365 397L354 391Q361 444 347 476T301
509Q275 509 247 484T192 415T144 317T110 206T97 95Q97 52 106 35T132 18ZM384 514Q408 515 432 518T476 528L351 86Q349 77 346 63T345 36T366 24Q386 24 405 46T443 126L455 163H474L449 90Q435 50 416 28T375 -4T334 -14Q295 -14 279 12Q266 35 272 65T286
127L384 514ZM391 791Q427 791 452 770T477 711Q477 683 462 660T421 622T365 608Q330 608 306 629T282 688Q282 717 297 740T336 777T391 791ZM369 629Q390 629 409 640T439 669T451 712Q451 741 431 755T387 770Q356 770 332 746T308 689Q308 659 327 644T369
629Z" />
<glyph unicode="&#xe6;" horiz-adv-x="659" d="M313 227Q369 246 414 264T487 304Q523 333 544 374T565 464Q565 509 529 509Q507 509 481 487T429 427T382 339T348 235T335 124Q335 73 354 51T404 28Q440 28 478 50T554 128L574 120Q555 87 524 56T455 6T373
-14Q333 -14 303 2T257 49T241 127Q241 170 256 223T299 330T365 429T450 501T551 528Q591 528 618 509T645 452Q645 413 622 380T560 320T476 272T388 235T312 210L313 227ZM135 18Q155 18 180 32T231 80T278 170L287 157Q257 74 211 30T103 -14Q51 -14 27 17T3
97Q3 149 24 207T80 321T162 420T258 491T358 518Q372 518 387 513T414 496T434 460L422 451Q411 483 392 490T365 497Q333 497 296 475T223 413T157 321T109 208T91 85Q91 55 101 37T135 18Z" />
<glyph unicode="&#xe7;" horiz-adv-x="432" d="M323 508Q285 508 248 477T179 392T130 269T111 124Q111 73 130 51T181 28Q217 28 255 50T331 128L351 120Q332 87 301 56T232 6T150 -14Q90 -14 54 23T18 133Q18 179 31 232T70 338T133 433T217 502T320 528Q364
528 396 506T428 443Q428 424 420 406T395 375T357 363Q336 363 326 374T316 402Q316 431 339 451T391 477Q381 491 365 499T323 508ZM157 0L123 -72Q131 -69 142 -67T164 -65Q184 -65 195 -75T207 -105Q207 -134 187 -152T139 -179T84 -188Q56 -188 35 -181T4
-166L11 -151Q18 -154 32 -159T71 -164Q82 -164 99 -160T129 -144T143 -113Q143 -89 115 -89Q110 -89 101 -90T84 -96L130 0H157Z" />
<glyph unicode="&#xe8;" horiz-adv-x="429" d="M84 227Q140 246 185 264T258 304Q294 333 315 374T336 464Q336 493 332 501T320 509Q295 509 266 487T209 427T158 339T120 235T106 124Q106 73 125 51T175 28Q211 28 251 50T329 128L345 120Q326 87 295 56T226
6T144 -14Q104 -14 74 2T28 49T12 127Q12 170 28 223T73 330T144 429T235 501T342 528Q373 528 394 512T416 462Q416 422 393 388T331 325T247 274T159 236T83 210L84 227ZM328 599Q293 649 266 681T219 738T185 784Q172 807 175 822T191 844Q205 850 221 845T250
816Q263 794 273 766T299 699T341 605L328 599Z" />
<glyph unicode="&#xe9;" horiz-adv-x="429" d="M84 227Q140 246 185 264T258 304Q294 333 315 374T336 464Q336 493 332 501T320 509Q295 509 266 487T209 427T158 339T120 235T106 124Q106 73 125 51T175 28Q211 28 251 50T329 128L345 120Q326 87 295 56T226
6T144 -14Q104 -14 74 2T28 49T12 127Q12 170 28 223T73 330T144 429T235 501T342 528Q373 528 394 512T416 462Q416 422 393 388T331 325T247 274T159 236T83 210L84 227ZM269 608Q310 657 336 692T381 753T419 798Q436 818 453 820T482 813Q492 803 490 787T467
751Q449 732 423 713T362 668T279 599L269 608Z" />
<glyph unicode="&#xea;" horiz-adv-x="429" d="M84 227Q140 246 185 264T258 304Q294 333 315 374T336 464Q336 493 332 501T320 509Q295 509 266 487T209 427T158 339T120 235T106 124Q106 73 125 51T175 28Q211 28 251 50T329 128L345 120Q326 87 295 56T226
6T144 -14Q104 -14 74 2T28 49T12 127Q12 170 28 223T73 330T144 429T235 501T342 528Q373 528 394 512T416 462Q416 422 393 388T331 325T247 274T159 236T83 210L84 227ZM321 720Q287 693 241 665T146 616L141 630Q208 659 264 705T356 802H374Q385 741 411 700T493
630L489 616Q427 633 390 659T321 720Z" />
<glyph unicode="&#xeb;" horiz-adv-x="429" d="M84 227Q140 246 185 264T258 304Q294 333 315 374T336 464Q336 493 332 501T320 509Q295 509 266 487T209 427T158 339T120 235T106 124Q106 73 125 51T175 28Q211 28 251 50T329 128L345 120Q326 87 295 56T226
6T144 -14Q104 -14 74 2T28 49T12 127Q12 170 28 223T73 330T144 429T235 501T342 528Q373 528 394 512T416 462Q416 422 393 388T331 325T247 274T159 236T83 210L84 227ZM184 678Q184 701 204 722T251 743Q272 743 286 729T301 693Q301 677 292 662T268 637T234
627Q212 627 198 641T184 678ZM396 678Q396 701 416 722T463 743Q484 743 498 729T513 693Q513 677 504 662T480 637T446 627Q424 627 410 641T396 678Z" />
<glyph unicode="&#xec;" horiz-adv-x="302" d="M158 429Q179 491 144 491Q121 491 103 466T65 389L51 352H32L58 425Q73 467 94 489T138 519T182 528Q214 528 229 515T247 481T245 436T232 388L125 85Q115 56 118 40T141 23Q161 23 179 45T219 125L233 162H252L226
89Q212 50 192 28T149 -4T103 -14Q60 -14 45 6T34 58T51 126L158 429ZM478 599Q443 649 416 681T369 738T335 784Q322 807 325 822T341 844Q355 850 371 845T400 816Q413 794 423 766T449 699T491 605L478 599Z" />
<glyph unicode="&#xed;" horiz-adv-x="302" d="M158 429Q179 491 144 491Q121 491 103 466T65 389L51 352H32L58 425Q73 467 94 489T138 519T182 528Q214 528 229 515T247 481T245 436T232 388L125 85Q115 56 118 40T141 23Q161 23 179 45T219 125L233 162H252L226
89Q212 50 192 28T149 -4T103 -14Q60 -14 45 6T34 58T51 126L158 429ZM163 608Q204 657 230 692T275 753T313 798Q330 818 347 820T376 813Q386 803 384 787T361 751Q343 732 317 713T256 668T173 599L163 608Z" />
<glyph unicode="&#xee;" horiz-adv-x="302" d="M158 429Q179 491 144 491Q121 491 103 466T65 389L51 352H32L58 425Q73 467 94 489T138 519T182 528Q214 528 229 515T247 481T245 436T232 388L125 85Q115 56 118 40T141 23Q161 23 179 45T219 125L233 162H252L226
89Q212 50 192 28T149 -4T103 -14Q60 -14 45 6T34 58T51 126L158 429ZM471 720Q437 693 391 665T296 616L291 630Q358 659 414 705T506 802H524Q535 741 561 700T643 630L639 616Q577 633 540 659T471 720Z" />
<glyph unicode="&#xef;" horiz-adv-x="302" d="M158 429Q179 491 144 491Q121 491 103 466T65 389L51 352H32L58 425Q73 467 94 489T138 519T182 528Q214 528 229 515T247 481T245 436T232 388L125 85Q115 56 118 40T141 23Q161 23 179 45T219 125L233 162H252L226
89Q212 50 192 28T149 -4T103 -14Q60 -14 45 6T34 58T51 126L158 429ZM334 678Q334 701 354 722T401 743Q422 743 436 729T451 693Q451 677 442 662T418 637T384 627Q362 627 348 641T334 678ZM546 678Q546 701 566 722T613 743Q634 743 648 729T663 693Q663 677
654 662T630 637T596 627Q574 627 560 641T546 678Z" />
<glyph unicode="&#xf0;" horiz-adv-x="487" d="M319 684L491 760L497 742L333 670L319 684ZM333 669L114 572L108 590L319 683L333 669ZM361 421Q361 522 334 588T263 696T165 765L177 782Q257 752 318 701T413 574T447 394Q447 343 435 287T399 177T341 81T260
12T158 -14Q117 -14 86 3T38 55T21 143Q21 187 33 239T68 342T126 435T204 502T301 528Q333 528 349 517T375 494L368 482Q358 495 343 501T301 508Q270 508 241 483T188 414T145 316T117 204T107 93Q107 48 121 27T164 6Q196 6 225 31T280 100T323 198T351 309T361
421Z" />
<glyph unicode="&#xf1;" horiz-adv-x="580" d="M122 0H35L155 429Q159 441 161 455T160 480T140 491Q118 491 101 470T63 389L50 352H31L56 425Q78 488 110 508T175 528Q205 528 218 515T233 482T231 437T220 388L122 0ZM168 208Q203 298 236 359T301 457T366
511T436 528Q483 528 500 506T516 449T502 377L405 85Q396 58 397 41T421 23Q440 23 458 44T498 125L511 162H530L505 89Q491 47 471 25T428 -5T384 -14Q360 -14 345 -6T321 15Q310 33 314 62T330 126L425 412Q430 426 433 445T432 480T403 496Q379 496 352 475T296
416T239 324T186 206T139 68L168 208ZM321 768Q351 768 370 757T405 732T435 706T474 695Q492 695 509 708T544 753L562 748Q539 693 503 669T432 645Q402 645 383 656T348 681T318 707T279 718Q261 718 244 705T209 660L191 665Q214 721 250 744T321 768Z" />
<glyph unicode="&#xf2;" horiz-adv-x="488" d="M304 508Q272 508 243 483T189 414T146 316T117 204T107 93Q107 48 121 27T164 6Q196 6 225 31T280 100T323 198T351 309T361 421Q361 467 347 487T304 508ZM21 143Q21 187 33 239T69 342T127 435T208 502T310 528Q372
528 409 490T447 371Q447 327 435 275T399 172T341 79T260 12T158 -14Q96 -14 59 25T21 143ZM348 599Q313 649 286 681T239 738T205 784Q192 807 195 822T211 844Q225 850 241 845T270 816Q283 794 293 766T319 699T361 605L348 599Z" />
<glyph unicode="&#xf3;" horiz-adv-x="488" d="M304 508Q272 508 243 483T189 414T146 316T117 204T107 93Q107 48 121 27T164 6Q196 6 225 31T280 100T323 198T351 309T361 421Q361 467 347 487T304 508ZM21 143Q21 187 33 239T69 342T127 435T208 502T310 528Q372
528 409 490T447 371Q447 327 435 275T399 172T341 79T260 12T158 -14Q96 -14 59 25T21 143ZM289 608Q330 657 356 692T401 753T439 798Q456 818 473 820T502 813Q512 803 510 787T487 751Q469 732 443 713T382 668T299 599L289 608Z" />
<glyph unicode="&#xf4;" horiz-adv-x="488" d="M304 508Q272 508 243 483T189 414T146 316T117 204T107 93Q107 48 121 27T164 6Q196 6 225 31T280 100T323 198T351 309T361 421Q361 467 347 487T304 508ZM21 143Q21 187 33 239T69 342T127 435T208 502T310 528Q372
528 409 490T447 371Q447 327 435 275T399 172T341 79T260 12T158 -14Q96 -14 59 25T21 143ZM341 720Q307 693 261 665T166 616L161 630Q228 659 284 705T376 802H394Q405 741 431 700T513 630L509 616Q447 633 410 659T341 720Z" />
<glyph unicode="&#xf5;" horiz-adv-x="488" d="M304 508Q272 508 243 483T189 414T146 316T117 204T107 93Q107 48 121 27T164 6Q196 6 225 31T280 100T323 198T351 309T361 421Q361 467 347 487T304 508ZM21 143Q21 187 33 239T69 342T127 435T208 502T310 528Q372
528 409 490T447 371Q447 327 435 275T399 172T341 79T260 12T158 -14Q96 -14 59 25T21 143ZM304 768Q334 768 353 757T388 732T418 706T457 695Q475 695 492 708T527 753L545 748Q522 693 486 669T415 645Q385 645 366 656T331 681T301 707T262 718Q244 718 227
705T192 660L174 665Q197 721 233 744T304 768Z" />
<glyph unicode="&#xf6;" horiz-adv-x="488" d="M304 508Q272 508 243 483T189 414T146 316T117 204T107 93Q107 48 121 27T164 6Q196 6 225 31T280 100T323 198T351 309T361 421Q361 467 347 487T304 508ZM21 143Q21 187 33 239T69 342T127 435T208 502T310 528Q372
528 409 490T447 371Q447 327 435 275T399 172T341 79T260 12T158 -14Q96 -14 59 25T21 143ZM204 678Q204 701 224 722T271 743Q292 743 306 729T321 693Q321 677 312 662T288 637T254 627Q232 627 218 641T204 678ZM416 678Q416 701 436 722T483 743Q504 743 518
729T533 693Q533 677 524 662T500 637T466 627Q444 627 430 641T416 678Z" />
<glyph unicode="&#xf7;" horiz-adv-x="657" d="M334 499Q341 522 362 538T405 554Q428 554 440 538T445 499Q438 476 417 460T373 444Q351 444 339 460T334 499ZM251 211Q258 234 279 250T322 266Q345 266 357 250T362 211Q355 188 334 172T290 155Q268 155 256
171T251 211ZM87 340L96 370H597L588 340H87Z" />
<glyph unicode="&#xf8;" horiz-adv-x="488" d="M304 508Q272 508 243 483T189 414T146 316T117 204T107 93Q107 48 121 27T164 6Q196 6 225 31T280 100T323 198T351 309T361 421Q361 467 347 487T304 508ZM21 143Q21 187 33 239T69 342T127 435T208 502T310 528Q372
528 409 490T447 371Q447 327 435 275T399 172T341 79T260 12T158 -14Q96 -14 59 25T21 143ZM644 463L746 586L759 574L654 446L644 463ZM644 446L350 63L339 81L634 463L644 446ZM340 63L227 -73L213 -60L329 81L340 63Z" />
<glyph unicode="&#xf9;" horiz-adv-x="567" d="M397 346Q361 246 328 177T263 66T197 5T127 -14Q83 -14 63 6T43 60T57 137L154 429Q164 459 161 475T138 491Q119 491 101 470T61 389L48 352H29L54 425Q69 467 89 489T132 519T175 528Q219 528 233 508T245 455T229
388L134 102Q106 18 156 18Q180 18 207 39T262 101T317 198T370 324T417 474L397 346ZM394 85Q387 58 387 41T408 23Q430 23 448 46T486 125L499 162H518L493 89Q479 47 459 25T416 -5T372 -14Q356 -14 342 -7T321 13Q313 30 315 56T329 126L427 514Q452 515 475
518T518 528L394 85ZM338 599Q303 649 276 681T229 738T195 784Q182 807 185 822T201 844Q215 850 231 845T260 816Q273 794 283 766T309 699T351 605L338 599Z" />
<glyph unicode="&#xfa;" horiz-adv-x="567" d="M397 346Q361 246 328 177T263 66T197 5T127 -14Q83 -14 63 6T43 60T57 137L154 429Q164 459 161 475T138 491Q119 491 101 470T61 389L48 352H29L54 425Q69 467 89 489T132 519T175 528Q219 528 233 508T245 455T229
388L134 102Q106 18 156 18Q180 18 207 39T262 101T317 198T370 324T417 474L397 346ZM394 85Q387 58 387 41T408 23Q430 23 448 46T486 125L499 162H518L493 89Q479 47 459 25T416 -5T372 -14Q356 -14 342 -7T321 13Q313 30 315 56T329 126L427 514Q452 515 475
518T518 528L394 85ZM279 608Q320 657 346 692T391 753T429 798Q446 818 463 820T492 813Q502 803 500 787T477 751Q459 732 433 713T372 668T289 599L279 608Z" />
<glyph unicode="&#xfb;" horiz-adv-x="567" d="M397 346Q361 246 328 177T263 66T197 5T127 -14Q83 -14 63 6T43 60T57 137L154 429Q164 459 161 475T138 491Q119 491 101 470T61 389L48 352H29L54 425Q69 467 89 489T132 519T175 528Q219 528 233 508T245 455T229
388L134 102Q106 18 156 18Q180 18 207 39T262 101T317 198T370 324T417 474L397 346ZM394 85Q387 58 387 41T408 23Q430 23 448 46T486 125L499 162H518L493 89Q479 47 459 25T416 -5T372 -14Q356 -14 342 -7T321 13Q313 30 315 56T329 126L427 514Q452 515 475
518T518 528L394 85ZM331 720Q297 693 251 665T156 616L151 630Q218 659 274 705T366 802H384Q395 741 421 700T503 630L499 616Q437 633 400 659T331 720Z" />
<glyph unicode="&#xfc;" horiz-adv-x="567" d="M397 346Q361 246 328 177T263 66T197 5T127 -14Q83 -14 63 6T43 60T57 137L154 429Q164 459 161 475T138 491Q119 491 101 470T61 389L48 352H29L54 425Q69 467 89 489T132 519T175 528Q219 528 233 508T245 455T229
388L134 102Q106 18 156 18Q180 18 207 39T262 101T317 198T370 324T417 474L397 346ZM394 85Q387 58 387 41T408 23Q430 23 448 46T486 125L499 162H518L493 89Q479 47 459 25T416 -5T372 -14Q356 -14 342 -7T321 13Q313 30 315 56T329 126L427 514Q452 515 475
518T518 528L394 85ZM194 678Q194 701 214 722T261 743Q282 743 296 729T311 693Q311 677 302 662T278 637T244 627Q222 627 208 641T194 678ZM406 678Q406 701 426 722T473 743Q494 743 508 729T523 693Q523 677 514 662T490 637T456 627Q434 627 420 641T406
678Z" />
<glyph unicode="&#xfd;" horiz-adv-x="481" d="M283 40L216 -33L140 427Q135 458 128 470T108 482Q97 482 83 465T49 390L36 353H17L42 426Q63 487 94 507T157 528Q188 528 205 509T229 436L283 40ZM64 -141Q107 -118 155 -79T256 28Q315 103 363 196T431 385Q415
394 397 407T366 439T355 481Q357 504 371 516T406 528Q433 528 445 508T458 447Q458 396 441 338T396 219T332 104T261 3Q245 -17 217 -47T151 -108T64 -163Q34 -177 13 -182T-23 -188Q-43 -188 -58 -178T-73 -147Q-73 -125 -57 -114T-19 -102Q4 -102 24 -114T64
-141ZM247 608Q288 657 314 692T359 753T397 798Q414 818 431 820T460 813Q470 803 468 787T445 751Q427 732 401 713T340 668T257 599L247 608Z" />
<glyph unicode="&#xfe;" horiz-adv-x="551" d="M380 496Q358 496 330 471T273 403T220 305T180 190L203 298Q238 384 271 434T339 506T409 528Q456 528 484 493T513 387Q513 342 501 288T464 181T404 84T322 13T220 -14Q190 -14 167 4T135 56L143 76Q157 39 175
24T219 9Q253 9 284 35T341 106T386 203T416 310T427 409Q427 453 415 474T380 496ZM263 781Q287 782 310 785T354 795L101 -88Q89 -130 113 -145T182 -160L176 -181Q156 -180 120 -179T42 -177Q11 -177 -21 -178T-69 -181L-63 -160Q-27 -160 -11 -147T15 -98L263
781ZM22 357Q61 395 95 432T161 522T227 653L230 637Q208 569 178 518T111 425T33 344L22 357Z" />
<glyph unicode="&#xff;" horiz-adv-x="481" d="M283 40L216 -33L140 427Q135 458 128 470T108 482Q97 482 83 465T49 390L36 353H17L42 426Q63 487 94 507T157 528Q188 528 205 509T229 436L283 40ZM64 -141Q107 -118 155 -79T256 28Q315 103 363 196T431 385Q415
394 397 407T366 439T355 481Q357 504 371 516T406 528Q433 528 445 508T458 447Q458 396 441 338T396 219T332 104T261 3Q245 -17 217 -47T151 -108T64 -163Q34 -177 13 -182T-23 -188Q-43 -188 -58 -178T-73 -147Q-73 -125 -57 -114T-19 -102Q4 -102 24 -114T64
-141ZM162 678Q162 701 182 722T229 743Q250 743 264 729T279 693Q279 677 270 662T246 637T212 627Q190 627 176 641T162 678ZM374 678Q374 701 394 722T441 743Q462 743 476 729T491 693Q491 677 482 662T458 637T424 627Q402 627 388 641T374 678Z" />
<glyph unicode="&#x2013;" horiz-adv-x="728" d="M60 284H661L650 244H50L60 284Z" />
<glyph unicode="&#x2014;" horiz-adv-x="1002" d="M60 284H935L924 244H50L60 284Z" />
<glyph unicode="&#x2018;" horiz-adv-x="239" d="M123 539Q123 591 162 642T270 728L275 714Q228 686 200 652T169 583Q181 594 194 601T221 608Q239 608 249 599T259 573Q259 552 246 531T211 495T167 480Q144 480 134 498T123 539Z" />
<glyph unicode="&#x2019;" horiz-adv-x="240" d="M277 651Q277 599 238 548T130 462L125 476Q172 505 200 539T231 607Q219 597 206 590T179 582Q161 582 151 591T141 617Q141 639 154 660T189 695T233 710Q256 710 266 692T277 651Z" />
<glyph unicode="&#x201a;" horiz-adv-x="252" d="M129 55Q129 3 90 -48T-18 -134L-23 -120Q24 -91 52 -57T83 11Q71 1 58 -6T31 -14Q13 -14 3 -5T-7 21Q-7 43 6 64T41 99T85 114Q108 114 118 96T129 55Z" />
<glyph unicode="&#x201c;" horiz-adv-x="399" d="M290 540Q290 592 329 643T437 729L442 715Q395 687 367 653T336 584Q348 595 361 602T388 609Q402 609 409 600T416 574Q416 553 404 532T374 496T334 481Q311 481 301 497T290 540ZM124 540Q124 592 163 643T271
729L276 715Q229 687 201 653T170 584Q182 595 195 602T222 609Q236 609 243 600T250 574Q250 553 238 532T208 496T168 481Q145 481 135 497T124 540Z" />
<glyph unicode="&#x201d;" horiz-adv-x="401" d="M273 654Q273 602 234 551T126 465L121 479Q168 508 196 542T227 610Q215 600 202 593T175 585Q162 585 155 594T147 620Q147 642 159 663T190 698T229 713Q252 713 262 697T273 654ZM439 654Q439 602 400 551T292
465L287 479Q334 508 362 542T393 610Q381 600 368 593T341 585Q328 585 321 594T313 620Q313 642 325 663T356 698T395 713Q418 713 428 697T439 654Z" />
<glyph unicode="&#x201e;" horiz-adv-x="409" d="M120 55Q120 3 81 -48T-27 -134L-32 -120Q15 -91 43 -57T74 11Q62 1 49 -6T22 -14Q9 -14 2 -5T-6 21Q-6 43 6 64T37 99T76 114Q99 114 109 98T120 55ZM286 55Q286 3 247 -48T139 -134L134 -120Q181 -91 209 -57T240
11Q228 1 215 -6T188 -14Q175 -14 168 -5T160 21Q160 43 172 64T203 99T242 114Q265 114 275 98T286 55Z" />
<glyph unicode="&#x2022;" horiz-adv-x="445" d="M68 249Q73 289 95 321T151 372T225 392Q265 392 295 373T342 321T353 249Q349 210 327 178T270 126T196 107Q157 107 127 126T80 177T68 249Z" />
<glyph unicode="&#x2039;" horiz-adv-x="352" d="M318 528Q303 495 278 455T222 374T159 299T99 244Q121 226 143 195T184 127T218 52T240 -14H222Q183 63 135 128T24 243V245Q104 301 171 372T300 528H318Z" />
<glyph unicode="&#x203a;" horiz-adv-x="351" d="M111 528Q150 452 198 386T309 270V269Q230 213 163 143T33 -14H15Q30 19 55 59T111 140T174 215T234 270Q212 288 190 319T149 387T115 462T93 528H111Z" />
</font>
</defs>
</svg>
